<svg width="11" height="19" viewBox="0 0 11 19" fill="none" xmlns="http://www.w3.org/2000/svg">
<path d="M7.98341 0.755371C6.8079 0.755371 5.68053 1.22234 4.84931 2.05356C4.0181 2.88477 3.55112 4.01215 3.55112 5.18766V7.65537H1.17925C1.06016 7.65537 0.963623 7.75191 0.963623 7.871V11.1293C0.963623 11.2484 1.06016 11.345 1.17925 11.345H3.55112V18.0293C3.55112 18.1484 3.64766 18.245 3.76675 18.245H7.02508C7.14417 18.245 7.24071 18.1484 7.24071 18.0293V11.345H9.63359C9.73253 11.345 9.81878 11.2776 9.84278 11.1816L10.6574 7.92329C10.6914 7.7872 10.5885 7.65537 10.4482 7.65537H7.24071V5.18766C7.24071 4.99068 7.31896 4.80177 7.45824 4.66249C7.59753 4.5232 7.78644 4.44495 7.98341 4.44495H10.4751C10.5942 4.44495 10.6907 4.34842 10.6907 4.22933V0.970996C10.6907 0.85191 10.5942 0.755371 10.4751 0.755371H7.98341Z" fill="#787F3D"/>
</svg>
