<svg width="19" height="19" viewBox="0 0 19 19" fill="none" xmlns="http://www.w3.org/2000/svg">
<path d="M9.49999 6.3856C7.77986 6.3856 6.38541 7.78005 6.38541 9.50019C6.38541 11.2203 7.77986 12.6148 9.49999 12.6148C11.2201 12.6148 12.6146 11.2203 12.6146 9.50019C12.6146 7.78005 11.2201 6.3856 9.49999 6.3856Z" fill="#787F3D"/>
<path fill-rule="evenodd" clip-rule="evenodd" d="M4.48747 0.95326C7.79191 0.583939 11.2081 0.583939 14.5125 0.95326C16.3318 1.15659 17.7992 2.59005 18.0128 4.41572C18.4079 7.79385 18.4079 11.2065 18.0128 14.5846C17.7992 16.4103 16.3318 17.8438 14.5125 18.0471C11.2081 18.4164 7.79192 18.4164 4.48747 18.0471C2.66817 17.8438 1.20077 16.4103 0.987245 14.5846C0.592142 11.2065 0.592142 7.79385 0.987245 4.41572C1.20077 2.59005 2.66817 1.15659 4.48747 0.95326ZM14.2917 3.75019C13.7624 3.75019 13.3333 4.17925 13.3333 4.70852C13.3333 5.23779 13.7624 5.66685 14.2917 5.66685C14.8209 5.66685 15.25 5.23779 15.25 4.70852C15.25 4.17925 14.8209 3.75019 14.2917 3.75019ZM4.94791 9.50019C4.94791 6.98614 6.98595 4.9481 9.49999 4.9481C12.014 4.9481 14.0521 6.98614 14.0521 9.50019C14.0521 12.0142 12.014 14.0523 9.49999 14.0523C6.98595 14.0523 4.94791 12.0142 4.94791 9.50019Z" fill="#787F3D"/>
</svg>
