<svg width="10" height="18" viewBox="0 0 10 18" fill="none" xmlns="http://www.w3.org/2000/svg">
<path d="M8.91255 14.4394C8.87775 14.3335 8.76038 14.2799 8.65524 14.317C8.28213 14.4485 7.89073 14.5223 7.49455 14.5356C7.27209 14.5599 7.04704 14.5327 6.83672 14.4563C6.62641 14.3798 6.43645 14.2561 6.28148 14.0947C6.12651 13.9332 6.01065 13.7384 5.94285 13.5251C5.87649 13.3164 5.85787 13.0955 5.88831 12.8788C5.88963 12.8693 5.89037 12.8598 5.89037 12.8503V7.65937H9.04075C9.14661 7.65937 9.23242 7.57355 9.23242 7.4677V5.34449C9.23242 5.23864 9.14661 5.15283 9.04075 5.15283H5.89037V1.06667C5.89037 0.960812 5.80456 0.875 5.6987 0.875H3.45067C3.4189 0.877123 3.38913 0.891258 3.3674 0.914535C3.34568 0.937813 3.33363 0.968486 3.3337 1.00033C3.28102 1.98941 2.94175 2.9418 2.35724 3.74143C1.7988 4.50538 1.03957 5.09836 0.165038 5.45529C0.0912483 5.48541 0.0417786 5.55647 0.0417786 5.63617V7.4677C0.0417786 7.57355 0.127591 7.65937 0.233445 7.65937H1.7128V13.1236C1.7128 14.9868 3.0914 17.6437 6.72588 17.5853C7.88704 17.5853 9.17515 17.1073 9.56649 16.6809C9.60668 16.6372 9.61424 16.5746 9.59568 16.5182L8.91255 14.4394Z" fill="#787F3D"/>
</svg>
