<svg width="21" height="15" viewBox="0 0 21 15" fill="none" xmlns="http://www.w3.org/2000/svg">
<path fill-rule="evenodd" clip-rule="evenodd" d="M5.65613 0.686594C8.85282 0.4365 12.0641 0.4365 15.2608 0.686594L17.4082 0.854591C18.6042 0.948166 19.5827 1.84459 19.7804 3.02791C20.2751 5.98868 20.2751 9.01101 19.7804 11.9718C19.5827 13.1551 18.6042 14.0515 17.4082 14.1451L15.2608 14.3131C12.0641 14.5632 8.85281 14.5632 5.65613 14.3131L3.50879 14.1451C2.31272 14.0515 1.33424 13.1551 1.13653 11.9718C0.641828 9.01101 0.641828 5.98868 1.13653 3.02791C1.33424 1.84459 2.31272 0.948166 3.50879 0.854591L5.65613 0.686594ZM8.54178 9.86707V5.13263C8.54178 4.90915 8.78558 4.77112 8.9772 4.8861L12.9226 7.25332C13.1087 7.36498 13.1087 7.63471 12.9226 7.74637L8.9772 10.1136C8.78558 10.2286 8.54178 10.0905 8.54178 9.86707Z" fill="#787F3D"/>
</svg>
