<?xml version="1.0" standalone="no"?>
<!DOCTYPE svg PUBLIC "-//W3C//DTD SVG 1.1//EN" "http://www.w3.org/Graphics/SVG/1.1/DTD/svg11.dtd" >
<svg xmlns="http://www.w3.org/2000/svg" xmlns:xlink="http://www.w3.org/1999/xlink" version="1.1">
<metadata>
Created by FontForge 20170731 at Mon Jul  4 16:35:15 2022
 By Aleksey,,,
(c) 1990, 1991, 1992, 1994, 1997, 1998, 2000, 2002, 2004 Adobe Systems Incorporated. All rights reserved.
</metadata>
<defs>
<font id="MinionPro-It" horiz-adv-x="819" >
  <font-face 
    font-family="Minion Pro"
    font-weight="400"
    font-style="italic"
    font-stretch="normal"
    units-per-em="2048"
    panose-1="2 4 5 3 5 2 1 9 2 3"
    ascent="1489"
    descent="-559"
    x-height="920"
    cap-height="1329"
    bbox="-412 -737 3449 2052"
    underline-thickness="102"
    underline-position="-307"
    slope="-12"
    unicode-range="U+0020-FB06"
  />
<missing-glyph horiz-adv-x="1024" 
d="M0 0v1434h1024v-1434h-1024zM512 809l348 522h-696zM573 717l349 -522v1044zM164 102h696l-348 523zM102 1239v-1044l349 522z" />
    <glyph glyph-name="T_h" unicode="Th" horiz-adv-x="2115" 
d="M2021 219l23 -49q-79 -87 -164 -141t-131 -54q-80 0 -33 197l109 481q18 78 14 109t-31 31q-64 0 -208 -135.5t-220 -264.5q-47 -181 -80 -379q-58 -10 -145 -37l-16 15q130 563 262 1249q-218 19 -357 19h-137l-207 -994q-11 -50 -15 -79t0 -54t13 -36.5t35 -21t54 -13
t81 -7.5l-12 -55h-567l12 55q49 4 75.5 7t52.5 13.5t37.5 21t24.5 37t20 53.5t19 79l218 994h-148q-125 0 -178 -14t-84 -50q-45 -54 -102 -182l-62 2q63 204 96 364h43q14 -35 32 -43t63 -8h792q135 0 175.5 6.5t54.5 30.5l8 43q99 53 141 53q13 0 15 -15.5t-7 -53.5
q-15 -72 -80 -375t-102 -479h4q97 126 201 212t184 126q79 43 129 43q114 0 62 -226l-113 -493q-18 -74 4 -74q16 0 59.5 27t85.5 65z" />
    <glyph glyph-name="Tcaron_h" unicode="&#x164;h" horiz-adv-x="2115" 
d="M2021 219l23 -49q-79 -87 -164 -141t-131 -54q-80 0 -33 197l109 481q18 78 14 109t-31 31q-64 0 -208 -135.5t-220 -264.5q-47 -181 -80 -379q-58 -10 -145 -37l-16 15q130 563 262 1249q-218 19 -357 19h-137l-207 -994q-11 -50 -15 -79t0 -54t13 -36.5t35 -21t54 -13
t81 -7.5l-12 -55h-567l12 55q49 4 75.5 7t52.5 13.5t37.5 21t24.5 37t20 53.5t19 79l218 994h-148q-125 0 -178 -14t-84 -50q-45 -54 -102 -182l-62 2q63 204 96 364h43q14 -35 32 -43t63 -8h792q135 0 175.5 6.5t54.5 30.5l8 43q99 53 141 53q13 0 15 -15.5t-7 -53.5
q-15 -72 -80 -375t-102 -479h4q97 126 201 212t184 126q79 43 129 43q114 0 62 -226l-113 -493q-18 -74 4 -74q16 0 59.5 27t85.5 65zM1126 1667l27 -45q-167 -110 -276 -215h-52q-81 99 -213 215l39 45q96 -43 219 -121q137 78 256 121z" />
    <glyph glyph-name="Tcommaaccent_h" unicode="&#x162;h" horiz-adv-x="2115" 
d="M2019 219l23 -49q-79 -88 -163.5 -141.5t-131.5 -53.5q-77 0 -33 197l111 479q18 79 14 110.5t-31 31.5q-64 0 -208 -135.5t-220 -264.5q-37 -145 -80 -379q-88 -19 -145 -39l-16 17q120 522 264 1249q-222 19 -359 19h-137l-207 -994q-11 -50 -15 -79t0 -54t13 -36.5
t35 -21t54 -13t81 -7.5l-12 -55h-567l12 55q49 4 75.5 7.5t53 13.5t38 20.5t24.5 36.5t20 54t18 79l218 994h-146q-126 0 -178.5 -14t-83.5 -50q-51 -61 -102 -182l-62 2q54 172 96 364h41q16 -35 33.5 -43t61.5 -8h792q135 0 175.5 6.5t54.5 30.5l8 43q99 53 141 53
q13 0 15 -15.5t-7 -53.5q-15 -72 -80 -375t-102 -479h4q97 126 201 212t184 126q79 43 129 43q114 0 62 -226l-113 -493q-18 -74 4 -74q16 0 59 27t84 65zM571 -61q49 0 84 -37t35 -95q1 -42 -14.5 -78t-39 -61t-57 -44.5t-64 -30.5t-64.5 -19l-19 55q68 24 103.5 51.5
t35.5 67.5q0 49 -71 72q-25 3 -25 39q0 35 27.5 57.5t68.5 22.5z" />
    <glyph glyph-name="f_b" unicode="fb" horiz-adv-x="1550" 
d="M676 883l-39 -64l-205 -20q-83 -465 -104 -570q-52 -257 -110.5 -396t-145.5 -232q-62 -67 -122.5 -97t-107.5 -30q-43 0 -82 26t-39 60q0 19 16.5 44.5t39.5 45.5q21 18 39 0q24 -22 59 -35.5t64 -13.5q47 0 86 39q67 76 143 522q15 91 50.5 309t55.5 332h-165l-9 20
l62 60h129q56 281 201 426q62 63 148 106t153 43q99 0 161 -51q105 51 133 51q24 0 9 -61q-111 -464 -176 -772h4q123 143 243 219t197 76q68 0 106.5 -61.5t38.5 -164.5q0 -169 -89 -342t-222 -262q-171 -115 -313 -115q-51 0 -95.5 24.5t-68.5 63.5q-47 74 -10 259
q130 623 204 948q-31 50 -77.5 78t-98.5 28q-100 0 -172.5 -115.5t-120.5 -377.5h230zM1268 803q-62 0 -159.5 -77t-209.5 -228q-20 -61 -39 -168q-25 -140 13.5 -198t113.5 -58q61 0 113 30q95 57 167 215.5t72 339.5q0 144 -71 144z" />
    <glyph glyph-name="f_f_b" unicode="ffb" horiz-adv-x="2086" 
d="M1210 883l-41 -66l-198 -16q-58 -337 -86 -490q-53 -279 -119.5 -422.5t-171.5 -238.5q-64 -60 -146 -92.5t-145 -32.5q-133 0 -219 94q-58 -62 -126.5 -102.5t-123.5 -40.5q-43 0 -80 21.5t-37 53.5q0 35 43 78q40 35 62 21q74 -45 117 -45q54 0 88 43q68 87 135 491
q87 536 108 662h-170l-6 22l60 60h133q50 229 180 362q68 71 166 117.5t188 46.5q73 0 126 -27.5t81 -68.5q67 66 150.5 104.5t154.5 40.5q45 0 89 -14.5t71 -36.5q105 51 133 51q23 0 8 -61q-111 -464 -176 -772h4q124 144 242 219.5t194 75.5q69 0 109.5 -62t40.5 -164
q0 -169 -89.5 -342t-223.5 -264q-168 -113 -314 -113q-50 0 -93.5 24.5t-67.5 63.5q-48 76 -11 259q78 372 205 946q-29 50 -77.5 80t-100.5 30q-101 0 -173.5 -114.5t-117.5 -380.5h225zM1804 803q-57 0 -156 -78t-210 -227q-20 -61 -39 -168q-11 -76 -8 -126t24.5 -79
t47.5 -41t61 -12q58 0 110 30q96 57 170 217t74 340q0 144 -74 144zM444 883h385q40 210 119 329q-61 113 -205 113q-114 0 -184.5 -102t-114.5 -340zM813 801h-385q-10 -56 -31 -182.5t-36.5 -208.5t-36.5 -185q-38 -195 -77 -309t-89 -192q37 -42 96 -69.5t113 -27.5
q125 0 186 78q25 28 44.5 64t51.5 148.5t64 289.5q69 402 100 594z" />
    <glyph glyph-name="f_f_h" unicode="ffh" horiz-adv-x="2160" 
d="M2066 223l25 -51q-79 -89 -164 -143t-131 -54q-80 0 -33 197l111 481q13 53 15.5 83t-5 43.5t-26.5 13.5q-64 0 -207 -135t-221 -265q-68 -305 -80 -379q-64 -11 -148 -37l-14 15q123 539 270 1280q-34 48 -82 77t-102 29q-101 0 -171 -115.5t-116 -379.5h225l-41 -66
l-198 -16q-12 -66 -29 -168.5t-30 -176t-29 -151.5q-53 -274 -120 -416.5t-173 -240.5q-62 -60 -142 -92.5t-145 -32.5q-136 0 -219 96q-57 -61 -125 -102t-123 -41q-43 0 -82 21.5t-39 53.5q0 17 14 43t31 39q34 34 62 17q61 -45 117 -45q52 0 86 43q71 90 137 493
q79 491 108 660h-170l-6 22l60 60h133q48 223 182 364q68 71 164.5 117.5t185.5 46.5q73 0 127.5 -27t83.5 -65q61 63 147.5 101t157.5 38q45 0 89.5 -14.5t72.5 -38.5q103 53 127 53q22 -2 10 -59l-186 -867h4q70 90 149.5 166t134.5 115t105 66q75 41 129 41
q114 0 62 -226l-115 -491q-10 -44 -8.5 -58.5t12.5 -17.5q16 0 59 28.5t84 67.5zM444 883h385q40 211 123 336q-63 108 -202 108q-120 0 -191.5 -103.5t-114.5 -340.5zM813 801h-385q-15 -81 -33.5 -190.5t-34.5 -198.5t-36 -189q-40 -196 -78 -309t-86 -190
q34 -41 94.5 -70t114.5 -29q122 0 182 80q19 23 32 45t36 75.5t47 150t47 231.5q69 402 100 594z" />
    <glyph glyph-name="f_f_j" unicode="ffj" horiz-adv-x="1564" 
d="M152 883h131q26 107 67 196.5t121 169.5q64 69 161 114.5t191 45.5q72 0 126 -26t81 -62q140 137 305 137q56 0 99.5 -15.5t66.5 -38t34 -44.5t11 -39q0 -30 -19 -55.5t-52 -38.5q-64 -26 -80 30q-17 61 -45.5 93t-81.5 32q-204 0 -287 -499h240q32 0 63 1.5t52 3.5
t47 5.5t36.5 5.5t34 6.5t27.5 5.5q19 -12 21.5 -40t-11.5 -103q-16 -79 -56.5 -283.5t-60.5 -300.5q-76 -377 -241 -532q-68 -66 -128 -97.5t-94 -31.5q-32 0 -60 18t-28 45q0 22 15.5 48t35.5 42q25 21 46 11q50 -31 98 -31q43 0 77 51t64 172q36 157 160 799
q18 83 3.5 104t-95.5 21h-260q-67 -382 -88 -488q-35 -197 -77.5 -325.5t-90.5 -203.5t-121 -140q-62 -57 -141 -90t-136 -33q-135 0 -231 96q-56 -62 -126 -103.5t-124 -41.5q-42 0 -78.5 20t-36.5 49q0 19 14 43t31 39q33 33 60 19q71 -41 115 -41q55 0 86 45
q18 24 33.5 59t43 145.5t56.5 286.5q42 260 110 664h-168l-4 18zM438 883h385q44 218 129 340q-30 48 -83.5 77t-114.5 29q-121 0 -196.5 -104.5t-119.5 -341.5zM807 803h-385q-20 -110 -50.5 -293t-49.5 -285q-69 -359 -166 -506q34 -41 93.5 -67.5t119.5 -26.5
q122 0 186 80q83 92 150 479q27 159 59.5 359t42.5 260z" />
    <glyph glyph-name="f_f_k" unicode="ffk" horiz-adv-x="2060" 
d="M1432 481q72 85 176 189q246 250 358 250q40 0 63 -20t23 -44q0 -20 -12 -43.5t-29 -38.5q-16 -16 -33 -12q-29 16 -77 16q-64 0 -135 -51.5t-130 -118.5q27 -90 76.5 -206t89.5 -193q29 -57 47 -78.5t35 -21.5q16 0 49 26t68 70l35 -43q-65 -102 -124 -144.5t-102 -42.5
q-35 0 -66 29t-67 107q-84 172 -155 381q-94 -97 -117 -138q-56 -272 -68 -340q-77 -14 -145 -39l-14 13q165 731 282 1292q-72 96 -182 96q-50 0 -90.5 -24t-77.5 -79t-68 -152.5t-55 -237.5h225l-41 -66l-198 -16q-80 -460 -86 -490q-37 -192 -80 -318.5t-91 -201
t-118 -137.5q-65 -60 -148 -94.5t-143 -34.5q-134 0 -223 92q-54 -60 -123.5 -100.5t-124.5 -40.5q-43 0 -80 20.5t-37 50.5q0 19 15 42.5t33 39.5q7 6 9 8t10 7t12.5 6t11.5 0.5t14 -4.5q62 -43 115 -43t90 43q69 95 135 491q34 212 110 664h-172l-6 22l60 60h133
q55 232 182 366q68 70 166 116t188 46q72 0 126.5 -28t80.5 -64q63 62 149.5 100.5t155.5 38.5q44 0 89 -15t73 -38q103 53 127 53q13 0 15 -13.5t-5 -41.5q-59 -257 -204 -922zM446 883h383q44 215 123 338q-69 104 -200 104q-119 0 -191.5 -102t-114.5 -340zM813 801h-383
q-77 -445 -102 -574q-67 -351 -164 -506q33 -41 94 -68.5t115 -27.5q123 0 184 82q26 27 45.5 62.5t50.5 144t60 281.5q62 358 100 606z" />
    <glyph glyph-name="f_f_t" unicode="fft" horiz-adv-x="1691" 
d="M1757 883l-53 -74l-207 -8l-119 -559q-26 -123 13 -123q25 0 85.5 39.5t98.5 79.5l27 -48q-58 -72 -157.5 -144.5t-168.5 -72.5q-27 0 -44 24t-21.5 84.5t20.5 164.5l121 555h-381q-72 -397 -94 -508q-49 -264 -113 -402.5t-168 -234.5q-65 -63 -147.5 -97t-147.5 -34
q-138 0 -219 90q-58 -60 -126.5 -99.5t-123.5 -39.5q-42 0 -79.5 24t-37.5 56q2 18 15 42.5t30 39.5q31 31 60 14q62 -47 117 -47q53 0 90 43q69 90 135 485q20 123 55 341t53 327h-170l-8 20l60 62h135q49 224 178 356q68 73 168 121.5t190 48.5q135 0 201 -96
q62 67 142 106t151 39q54 0 91.5 -29t35.5 -59q0 -24 -16.5 -50t-38.5 -40q-28 -21 -46 0q-36 38 -69.5 57t-77.5 19q-67 2 -119 -110.5t-92 -362.5h385l39 159l154 129l18 -14l-63 -274h239zM444 883h383q39 210 117 331q-30 51 -83.5 82t-115.5 31q-116 0 -189.5 -108
t-111.5 -336zM811 801h-385q-86 -503 -100 -578q-65 -349 -164 -502q30 -40 87 -68t113 -28q122 0 187 78q90 94 160 487q34 190 102 611z" />
    <glyph glyph-name="f_h" unicode="fh" horiz-adv-x="1615" 
d="M1524 221l26 -49q-79 -89 -164 -143t-131 -54q-27 0 -39.5 20t-10.5 64t18 113l108 477q19 78 15.5 111t-31.5 33q-64 0 -206 -134t-220 -264q-43 -168 -82 -381q-58 -10 -145 -37l-15 15q124 552 268 1282q-31 46 -79.5 72t-102.5 26q-104 0 -172.5 -110t-116.5 -379
h228l-41 -64l-201 -20q-73 -421 -106 -574q-52 -253 -112 -393t-149 -233q-120 -125 -229 -125q-44 0 -83 26t-38 60q0 20 16 45.5t40 44.5q20 18 38 0q25 -24 60.5 -40t62.5 -16q53 0 86 41q37 39 72 156t76 361q17 100 52.5 319t55.5 332h-168l-8 20l60 60h133
q52 271 203 424q63 66 149 108.5t158 42.5q95 0 157 -51q105 51 127 51q22 -2 13 -57l-187 -864h4q102 130 205 214.5t182 125.5q74 43 132 43q111 0 59 -226l-113 -491q-10 -44 -8.5 -58.5t12.5 -17.5q16 0 58.5 27.5t83.5 66.5z" />
    <glyph glyph-name="f_j" unicode="fj" horiz-adv-x="1026" 
d="M156 883h125q67 301 221 444q62 57 140.5 94t158.5 37q55 0 96 -15t62 -37.5t30.5 -43.5t9.5 -39q0 -32 -18.5 -58.5t-50.5 -33.5q-67 -24 -76 22q-26 129 -125 129q-200 0 -291 -499h230q154 0 268 30q34 -30 8 -161q-81 -401 -115 -568q-75 -376 -239 -530
q-68 -67 -127 -99t-92 -32q-32 0 -61 18.5t-29 46.5q0 18 16 46.5t35 46.5q23 19 45 8q56 -31 100 -31q46 0 76.5 47.5t60.5 171.5q39 163 162 797q17 85 4.5 107t-86.5 22h-270q-55 -301 -107 -549q-59 -276 -114.5 -414.5t-141.5 -230.5q-66 -71 -129.5 -103t-111.5 -32
q-42 0 -78.5 24t-36.5 58q0 41 59 90q19 16 39 0q52 -45 113 -45q54 0 90 39q66 66 146 518q98 562 112 645h-160l-8 22z" />
    <glyph glyph-name="f_k" unicode="fk" horiz-adv-x="1529" 
d="M895 485q22 27 47.5 56t39.5 43.5t46.5 48t40.5 41.5q112 112 202 179t159 67q38 0 60.5 -20t22.5 -44q0 -38 -38 -82q-20 -17 -33 -10q-32 14 -78 14q-64 0 -138.5 -53t-129.5 -117q27 -88 77.5 -206.5t90.5 -194.5q29 -56 46.5 -77t35.5 -21q36 0 116 96l35 -43
q-65 -102 -123.5 -144.5t-101.5 -42.5q-35 0 -66 29t-67 107q-96 203 -160 381q-90 -93 -111 -134q-11 -48 -69 -344q-75 -15 -146 -39l-14 13q205 905 283 1290q-31 45 -80.5 72.5t-100.5 27.5q-67 0 -119.5 -46.5t-98 -158t-77.5 -290.5h226l-43 -66l-199 -20
q-82 -459 -106 -572q-52 -257 -110.5 -393.5t-147.5 -230.5q-62 -66 -123 -96.5t-107 -30.5q-45 0 -84 26t-39 60q0 20 16 45.5t40 44.5q20 15 38 0q25 -22 60 -36.5t63 -14.5q53 0 84 39q75 86 148 514q55 317 110 647h-168l-8 22l62 62h133q55 278 203 426
q64 64 150 106.5t155 42.5q100 0 162 -51l28 14t37 18t31.5 12.5t29.5 6.5q23 0 11 -57q-35 -150 -203 -916z" />
    <glyph glyph-name="f_t" unicode="ft" horiz-adv-x="1161" 
d="M1225 883l-54 -74l-206 -8l-119 -559q-10 -48 -11 -75t5 -36.5t18 -9.5q26 0 84 38t96 77l31 -46q-64 -75 -161 -146t-167 -71q-26 0 -42 23.5t-20.5 84t19.5 165.5l121 555h-387q-14 -77 -33 -187t-34 -190t-33 -168q-56 -278 -112 -419t-142 -232q-63 -67 -126 -98
t-108 -31t-81.5 24t-36.5 58q0 19 17 45.5t42 48.5q21 15 39 0q57 -49 119 -49q52 0 86 39q62 62 139 518q18 109 52.5 318t53.5 323h-159l-9 20l60 62h125q54 276 194 422q66 68 144 110.5t147 42.5q55 0 93 -30.5t36 -61.5q-1 -22 -18 -49t-37 -41q-29 -21 -47 0
q-69 76 -144 76q-68 0 -119.5 -110t-93.5 -359h392l39 164l153 127l19 -13l-64 -278h240z" />
    <glyph glyph-name="longs_b" unicode="&#x17f;b" horiz-adv-x="1460" 
d="M838 625h4q124 145 241.5 220t194.5 75q68 0 106.5 -61.5t38.5 -162.5q0 -171 -87 -344.5t-220 -263.5q-168 -113 -309 -113q-51 0 -97 24.5t-69 63.5q-46 73 -10 261q29 144 98.5 461.5t106.5 492.5q-27 45 -70 72.5t-90 27.5q-45 0 -82.5 -27t-76 -94.5t-73.5 -198.5
t-65 -323q-67 -413 -96 -561q-46 -231 -102 -358t-144 -217q-123 -125 -234 -125q-45 0 -86 28.5t-41 61.5q0 40 56 88q24 21 43 2q24 -23 60 -39t67 -16q50 0 88 41q67 63 137 518q12 77 31.5 201t32 202t24.5 141q71 415 227 594q58 72 140 117t153 45q95 0 148 -49
q82 49 121 49q26 0 12 -59q-106 -446 -178 -774zM1182 803q-57 0 -155.5 -79t-207.5 -226q-22 -67 -39 -166q-24 -138 14.5 -200t114.5 -62q50 0 105 32q95 57 167 215.5t72 339.5q0 146 -71 146z" />
    <glyph glyph-name="longs_h" unicode="&#x17f;h" horiz-adv-x="1538" 
d="M1448 221l25 -49q-79 -89 -164 -143t-133 -54q-78 0 -31 197l108 481q13 53 15.5 83t-5 43.5t-26.5 13.5q-63 0 -203.5 -134.5t-218.5 -265.5q-42 -160 -82 -379q-58 -10 -145 -37l-15 15q147 646 271 1284q-24 46 -69.5 74t-90.5 28q-46 0 -85 -27t-79.5 -94.5
t-76.5 -198.5t-66 -323q-52 -343 -96 -559q-44 -232 -100 -359.5t-144 -215.5q-65 -68 -127.5 -97.5t-108.5 -29.5q-45 0 -85 28.5t-40 61.5q0 42 54 86q23 21 43 4q23 -23 59.5 -39t67.5 -16q49 0 90 41q67 63 137 520q75 489 84 542q71 414 231 594q56 69 143.5 115.5
t157.5 46.5q91 0 148 -49q30 20 65.5 34.5t53.5 14.5q13 0 15.5 -12t-3.5 -43l-184 -866h4q99 128 200.5 214t180.5 128q75 41 129 41q113 0 61 -226l-113 -493q-17 -71 5 -74q16 0 59 28t84 66z" />
    <glyph glyph-name="longs_i" unicode="&#x17f;i" horiz-adv-x="1011" 
d="M735 1458q53 0 93 -14.5t60 -36.5t29 -42.5t9 -39.5q0 -28 -18.5 -52.5t-53.5 -37.5q-34 -12 -50 -6t-22 31q-9 56 -39.5 87t-76.5 31q-33 -1 -62 -16t-60 -56.5t-58 -108.5t-54.5 -177t-50.5 -258q-57 -365 -107 -606q-46 -225 -100 -345.5t-143 -209.5
q-65 -68 -127.5 -97.5t-108.5 -29.5q-44 0 -84.5 29t-40.5 61q0 41 56 86q22 20 41 4q25 -24 61 -39.5t66 -15.5q52 0 90 41q69 65 139 507q73 455 90 547q75 428 236 609q60 71 136 113t150 42zM918 223l24 -43q-55 -68 -151.5 -136.5t-147.5 -68.5q-76 0 -27 201l129 524
q16 61 0 64q-13 0 -55 -25.5t-86 -60.5l-24 47q83 81 174 138t133 57q63 0 22 -162l-141 -565q-16 -66 2 -66q19 0 62.5 29.5t85.5 66.5z" />
    <glyph glyph-name="longs_k" unicode="&#x17f;k" horiz-adv-x="1456" 
d="M823 487q62 75 176 185q244 248 357 248q40 0 63 -20t23 -44q0 -41 -39 -80q-19 -19 -35 -12q-32 16 -74 16q-64 0 -138.5 -53t-129.5 -117q26 -88 75.5 -205.5t90.5 -195.5q29 -56 47 -78t33 -22q36 0 117 94l36 -41q-65 -102 -123.5 -144.5t-99.5 -42.5q-37 0 -68 29
t-67 107q-85 173 -158 381q-82 -82 -114 -138q-23 -109 -68 -340q-68 -13 -147 -39l-13 13q176 777 285 1294q-23 43 -67.5 69.5t-94.5 26.5q-48 0 -87.5 -28t-79.5 -96.5t-75.5 -199.5t-66.5 -323q-9 -49 -28.5 -164t-37 -213t-34.5 -186q-45 -228 -99 -352.5t-143 -214.5
q-65 -68 -128 -97.5t-108 -29.5t-86 28.5t-41 61.5q0 39 54 86q25 20 43 2q24 -22 59.5 -37.5t65.5 -15.5q50 0 92 39q67 67 137 522q59 389 88 538q41 216 97 360t139 236q58 72 140 118t148 46q99 0 156 -49q78 49 119 49q25 0 14 -53q-134 -587 -205 -918z" />
    <glyph glyph-name="longs_l" unicode="&#x17f;l" horiz-adv-x="1007" 
d="M938 240l31 -45q-75 -91 -169.5 -155.5t-144.5 -64.5q-83 0 -30 248q77 361 221 1051q-58 104 -160 104q-47 0 -86 -26.5t-79 -92t-75.5 -193t-64.5 -314.5q-48 -330 -96 -574q-46 -235 -101 -360t-145 -215q-66 -67 -128.5 -98t-105.5 -31q-45 0 -86 28.5t-41 61.5
q0 41 56 86q24 18 43 2q23 -23 59 -39t66 -16q52 0 90 41q68 68 137 514q52 354 84 530q37 225 93 374t140 242q59 69 141.5 114.5t149.5 45.5q93 0 152 -51q81 51 121 51q21 0 12 -55q-193 -912 -254 -1198q-15 -78 8 -78q19 0 69.5 35t92.5 78z" />
    <glyph glyph-name="longs_longs" unicode="&#x17f;&#x17f;" horiz-adv-x="987" 
d="M1237 1458q47 0 83 -29t34 -59q-2 -21 -17.5 -46t-36.5 -40q-12 -9 -27 -8t-24 12q-25 28 -59.5 46t-63.5 18q-45 0 -78.5 -43t-70 -172.5t-72.5 -362.5q-67 -431 -88 -532q-45 -239 -106.5 -371t-165.5 -227q-63 -59 -139 -89t-138 -30q-128 0 -215 94
q-59 -64 -127.5 -103.5t-128.5 -39.5q-42 0 -79 23t-37 55q0 17 14 40.5t31 38.5q34 30 53 17q66 -49 119 -49q51 0 90 39q73 69 139 510q18 120 42.5 280t31.5 203q37 227 99.5 381t160.5 252q59 59 141 101t162 42q73 0 125.5 -25.5t77.5 -64.5q143 139 270 139zM334 -375
q118 0 172 74q39 41 76 150.5t77 357.5q15 84 82 508q53 343 152 504q-31 48 -83.5 78t-109.5 30q-44 0 -80 -16.5t-73.5 -60.5t-68.5 -117.5t-61 -192.5t-55 -281q-7 -43 -23.5 -154.5t-29.5 -191.5t-30 -163q-57 -292 -146 -426q29 -40 86 -69.5t115 -29.5z" />
    <glyph glyph-name="longs_longs_i" unicode="&#x17f;&#x17f;i" horiz-adv-x="1538" 
d="M1249 1458q52 0 91.5 -14.5t60.5 -37t31 -44t10 -39.5q0 -28 -18.5 -52.5t-53.5 -37.5q-34 -12 -49 -6.5t-23 30.5q-12 56 -41.5 87.5t-74.5 31.5q-60 -1 -107 -56t-90.5 -193.5t-79.5 -368.5q-59 -370 -86 -506q-46 -241 -111.5 -377.5t-172.5 -234.5q-63 -59 -134 -87
t-133 -28q-128 0 -215 94q-56 -63 -124 -103t-128 -40q-42 0 -81 24.5t-39 55.5q0 19 13.5 42t31.5 37q32 28 51 17q66 -53 123 -53q47 0 86 39q68 64 141 507q8 52 80 486q78 449 262 633q58 58 141 100.5t162 42.5q132 0 199 -90q59 61 133 101t145 40zM332 -377
q111 0 168 76q42 45 81.5 156t80.5 358q62 387 73 467q56 356 164 534q-73 115 -186 115q-44 0 -80.5 -17.5t-75 -64.5t-71 -124t-64 -201.5t-57.5 -292.5q-45 -277 -86 -477q-52 -284 -150 -431q30 -41 87.5 -69.5t115.5 -28.5zM1440 223l26 -43q-55 -68 -150.5 -136.5
t-146.5 -68.5q-23 0 -35.5 14t-12.5 61t20 126l129 522q16 63 -2 66q-13 0 -54.5 -25.5t-85.5 -62.5l-24 49q83 81 174 138t133 57q66 0 25 -160l-144 -565q-16 -68 2 -68q37 0 146 96z" />
    <glyph glyph-name="longs_longs_l" unicode="&#x17f;&#x17f;l" horiz-adv-x="1546" 
d="M1470 240l27 -45q-73 -91 -168 -155.5t-145 -64.5q-84 0 -31 248q42 195 221 1049q-27 50 -70.5 78.5t-93.5 27.5q-51 0 -91 -27t-79.5 -96t-74 -200.5t-64.5 -327.5q-52 -339 -84 -498q-42 -231 -104.5 -362.5t-167.5 -224.5q-63 -59 -137 -88t-136 -29q-130 0 -217 94
q-55 -63 -124.5 -103t-129.5 -40q-44 0 -81.5 24.5t-38.5 57.5q0 18 14 41.5t31 38.5q36 28 53 16q64 -53 123 -53q49 0 88 39q71 66 137 512q68 443 74 475q37 233 99.5 388.5t160.5 252.5q57 58 141 99.5t166 41.5q70 0 124 -26.5t85 -65.5q54 60 135 100.5t152 40.5
q93 0 151 -53q26 20 64 36.5t57 16.5q26 0 14 -53q-189 -898 -252 -1200q-18 -80 5 -80q19 0 72 36t95 79zM707 1327q-44 0 -80 -16t-75 -62t-71.5 -122.5t-64.5 -203.5t-58 -300q-53 -340 -79 -465q-34 -169 -67.5 -270.5t-76.5 -166.5q31 -41 85.5 -68.5t117.5 -27.5
q109 0 170 78q91 104 149 481q36 215 76 475q59 375 166 558q-33 50 -84 80t-108 30z" />
    <glyph glyph-name="f_f" unicode="ff" horiz-adv-x="1085" 
d="M156 883h133q50 232 178 362q70 72 170.5 118t198.5 46q68 0 119 -25.5t79 -60.5q64 61 137 98t134 37q50 0 86 -27.5t34 -58.5q-4 -48 -51 -86q-30 -23 -55 2q-56 62 -127 62q-45 0 -77 -36.5t-64.5 -140.5t-63.5 -290h230l-39 -62l-205 -16q-81 -463 -88 -496
q-52 -272 -117.5 -415t-171.5 -240q-66 -62 -148.5 -95.5t-142.5 -33.5q-138 0 -229 86q-55 -59 -120 -98t-120 -39q-45 0 -83 22t-38 53q0 17 15 42t32 40q37 32 58 17q59 -45 117 -45q52 0 86 43q73 93 139 491q67 394 110 666h-168l-8 22zM444 883h385q43 221 125 342
q-30 44 -84.5 72t-113.5 28q-69 0 -119.5 -28t-86.5 -87t-60.5 -136.5t-45.5 -190.5zM813 803h-383q-79 -456 -102 -572q-38 -196 -78.5 -313.5t-91.5 -198.5q30 -39 91 -64.5t118 -25.5q130 0 190 76q90 104 156 490q68 404 100 608z" />
    <glyph glyph-name="f_f_i" unicode="ffi" horiz-adv-x="1619" 
d="M1524 227l24 -45q-53 -69 -152.5 -138t-154.5 -69q-82 0 -33 213q24 96 115 482q11 48 13.5 73t-9.5 39.5t-32 17.5t-64 3h-254q-64 -363 -88 -486q-54 -283 -123.5 -432.5t-183.5 -246.5q-59 -53 -134 -84t-133 -31q-135 0 -221 94q-49 -59 -120.5 -101t-131.5 -42
q-46 0 -84 22.5t-37 54.5q0 18 15.5 43.5t34.5 40.5q29 33 55 13q67 -45 117 -45q54 0 88 43q66 84 135 495q91 560 108 662h-170l-6 18l58 62h133q55 231 190 368q67 69 162 113.5t186 44.5q73 0 127.5 -26t81.5 -62q140 137 307 137q56 0 99.5 -15.5t65.5 -39t33 -45
t11 -39.5q0 -27 -17.5 -51t-49.5 -37q-72 -27 -84 26q-32 129 -127 129q-204 0 -285 -503h236q157 0 258 32q51 0 14 -149q-12 -48 -131 -541q-21 -96 2 -100q18 0 67 31.5t89 70.5zM446 883h383q45 217 129 340q-29 48 -82.5 77t-113.5 29q-121 0 -196.5 -104.5
t-119.5 -341.5zM817 803h-385q-20 -110 -51.5 -293.5t-50.5 -284.5q-36 -194 -73.5 -308.5t-86.5 -197.5q31 -40 87.5 -66t117.5 -26q119 0 180 78q93 107 156 475q25 143 58.5 344t47.5 279z" />
    <glyph glyph-name="f_f_l" unicode="ffl" horiz-adv-x="1624" 
d="M1217 883l-41 -64l-199 -18q-15 -80 -42 -235.5t-46 -250.5q-56 -290 -124 -437t-183 -243q-58 -52 -132 -82t-133 -30q-138 0 -227 94q-54 -60 -123.5 -101.5t-128.5 -41.5q-45 0 -84 22.5t-39 54.5q2 17 17 42t35 42q28 32 55 11q67 -45 115 -45q63 0 92 45
q20 22 36.5 58t44.5 148t56 289q16 100 53 325.5t55 336.5h-168l-8 22l60 58h133q53 230 184 366q64 67 162 113.5t190 46.5q132 0 213 -90q62 60 154 99.5t164 39.5q43 0 87.5 -15t65.5 -34q92 49 117 49t8 -80q-123 -543 -245 -1165q-17 -90 10 -90q16 0 67 36t88 74
l29 -45q-69 -86 -163.5 -149.5t-143.5 -63.5q-86 0 -35 244q88 419 221 1067q-19 33 -63.5 60.5t-110.5 27.5q-221 0 -299 -491h226zM446 883h388q44 224 124 340q-27 45 -82 74.5t-120 29.5q-76 0 -131.5 -39.5t-101.5 -139.5t-77 -265zM819 803h-385q-13 -69 -47.5 -266
t-56.5 -312q-66 -354 -160 -504q31 -40 89.5 -67t119.5 -27q60 0 108.5 22t75.5 58q86 95 152 473q17 104 39.5 240t37 224t27.5 159z" />
    <glyph glyph-name="longs_t" unicode="&#x17f;t" horiz-adv-x="1085" 
d="M743 1458q77 0 118.5 -37.5t41.5 -74.5q-2 -26 -19 -50.5t-48 -38.5q-38 -18 -52 13q-18 41 -53 67.5t-78 26.5q-39 -1 -71 -25t-68 -87.5t-70.5 -192.5t-64.5 -320q-74 -442 -103 -583q-46 -225 -100.5 -346.5t-142.5 -208.5q-65 -68 -126.5 -97.5t-107.5 -29.5
q-45 0 -86 28t-41 60q0 37 54 84q25 20 43 2q25 -22 61.5 -36.5t67.5 -14.5q48 0 86 41q71 66 141 509q62 399 84 517q78 451 242 632q62 72 139.5 117t152.5 45zM1159 883l-53 -68l-207 -10l-119 -561q-28 -123 13 -123q26 0 84 39t96 80l31 -47q-64 -76 -161.5 -147
t-168.5 -71q-26 0 -41.5 23.5t-19.5 83.5t20 164l119 557h-152l-6 18l51 62h125l33 131l153 127l21 -15l-59 -243h241z" />
    <glyph glyph-name="f_i" unicode="fi" horiz-adv-x="1087" 
d="M985 229l29 -43q-51 -66 -151 -138.5t-158 -72.5q-85 0 -35 201q17 71 36 153.5t41.5 184t36.5 160.5q9 38 11 59.5t0 37.5t-15 22.5t-30 9t-50 2.5h-268q-65 -368 -106 -555q-58 -271 -114 -410t-142 -231q-66 -70 -129.5 -101.5t-108.5 -31.5t-82 24t-37 58q0 37 60 90
q20 15 43 0q49 -45 114 -45q54 0 88 39q71 66 148 516q27 156 62 370.5t46 276.5h-159l-9 20l58 58h125q66 298 221 442q144 133 299 133q55 0 96.5 -14.5t62 -37t30.5 -43t10 -38.5q-2 -32 -22.5 -59.5t-51.5 -34.5q-63 -20 -72 24q-25 123 -125 123q-108 0 -177 -127.5
t-111 -367.5h227q141 0 272 30q38 -23 6 -147q-36 -148 -129 -549q-22 -89 4 -92q17 0 66 33t90 71z" />
    <glyph glyph-name="f_l" unicode="fl" horiz-adv-x="1075" 
d="M676 883l-41 -64l-203 -20q-74 -425 -106 -584q-50 -248 -107 -383.5t-145 -226.5q-64 -67 -126.5 -98t-109.5 -31q-43 0 -79 25.5t-35 58.5q0 48 55 90q20 15 41 0q22 -21 54.5 -34t62.5 -13q54 0 90 41q67 67 143 522q35 210 104 637h-163l-7 20l60 60h127
q50 274 198 422q66 66 157.5 109.5t166.5 43.5q49 0 89.5 -14.5t62.5 -36.5q86 51 114 51q25 0 11 -59q-142 -658 -250 -1194q-7 -50 -4.5 -63.5t14.5 -16.5q18 0 69.5 37t88.5 78l28 -45q-65 -89 -162 -154.5t-147 -65.5q-82 0 -29 261q47 223 111 529t109 521
q-21 33 -65.5 60.5t-100.5 27.5q-65 0 -115.5 -36.5t-86 -105.5t-59.5 -153.5t-42 -195.5h227z" />
    <glyph glyph-name=".notdef" horiz-adv-x="1024" 
d="M0 0v1434h1024v-1434h-1024zM512 809l348 522h-696zM573 717l349 -522v1044zM164 102h696l-348 523zM102 1239v-1044l349 522z" />
    <glyph glyph-name=".null" horiz-adv-x="0" 
 />
    <glyph glyph-name="nonmarkingreturn" horiz-adv-x="682" 
 />
    <glyph glyph-name="space" unicode=" " horiz-adv-x="468" 
 />
    <glyph glyph-name="exclam" unicode="!" horiz-adv-x="530" 
d="M551 1298q-9 -47 -43 -161q-37 -131 -105 -377t-100 -359q-9 -11 -34 -11t-29 11q9 85 24.5 232.5t28 271t22.5 232.5q11 120 19 163q6 33 34 46.5t85 13.5h2q56 0 79 -15t17 -47zM328 104q0 -59 -37 -94t-86 -35h-2q-46 0 -75.5 32t-29.5 81q0 59 35 97t90 38
q46 0 75.5 -33.5t29.5 -85.5z" />
    <glyph glyph-name="quotedbl" unicode="&#x22;" horiz-adv-x="706" 
d="M479 1454l17 -14q-21 -71 -76 -213.5t-96 -222.5l-62 -27q60 326 64 432zM795 1454l18 -14q-21 -69 -76 -211.5t-96 -224.5l-61 -27q63 349 63 432z" />
    <glyph glyph-name="numbersign" unicode="#" horiz-adv-x="976" 
d="M991 932l-24 -121h-187l-84 -283h168l-22 -120h-180l-109 -365h-80l105 365h-226l-106 -365h-82l104 365h-194l26 120h205l84 283h-188l24 121h199l94 321h84l-96 -321h225l94 321h82l-94 -321h178zM696 811h-223l-84 -283h223z" />
    <glyph glyph-name="dollar" unicode="$" horiz-adv-x="976" 
d="M938 928l-59 -6q-8 240 -185 280l-90 -469l45 -31q54 -34 91.5 -64.5t72 -70.5t51.5 -88.5t17 -105.5q0 -108 -59.5 -191.5t-153 -126.5t-205.5 -47l-33 -174h-72l33 174q-109 7 -192 45t-115 76q0 142 -4 281l57 6q8 -56 24.5 -107.5t47 -103.5t81.5 -87.5t116 -43.5
l98 518l-45 29q-226 137 -226 311q0 104 57 182t147 116.5t198 39.5l31 157h73l-30 -159q98 -2 241 -78q-5 -54 -12 -262zM539 768l84 438q-118 -3 -179 -67t-61 -152q0 -66 38.5 -118t117.5 -101zM567 557l-90 -485q114 9 177 78t63 167q0 77 -34.5 129.5t-115.5 110.5z
" />
    <glyph glyph-name="percent" unicode="%" horiz-adv-x="1538" 
d="M1352 1292l-1010 -1347l-57 49l1009 1345zM776 1018q0 -77 -26.5 -157.5t-72 -148t-115 -110.5t-148.5 -43q-110 0 -168 81.5t-58 199.5q0 105 43.5 209.5t129 177.5t190.5 73q58 0 102.5 -23t70.5 -63t39 -89.5t13 -106.5zM639 1079q0 160 -98 160q-53 0 -96.5 -49.5
t-67.5 -122t-36.5 -142t-12.5 -122.5q0 -182 96 -182q56 0 100.5 53.5t67.5 132t35 150t12 122.5zM1448 434q0 -104 -44 -208.5t-129.5 -177.5t-189.5 -73q-110 0 -167.5 80.5t-57.5 198.5q0 105 44 210.5t129.5 179t189.5 73.5q76 0 128.5 -41t74.5 -103t22 -139zM1311 494
q0 161 -99 161q-53 0 -96.5 -49.5t-67.5 -122t-36.5 -142.5t-12.5 -124q0 -182 97 -182q56 0 100.5 54t67.5 132t35 150t12 123z" />
    <glyph glyph-name="ampersand" unicode="&#x26;" horiz-adv-x="1560" 
d="M1481 829h63q6 -52 6 -120q0 -63 -9 -109.5t-21.5 -70.5t-29 -38.5t-28.5 -18t-24 -3.5q-38 0 -99 45q-9 6 -58.5 42.5t-72.5 51.5q-67 -255 -194 -407q-194 -226 -453 -226q-184 0 -306 124.5t-122 338.5q0 235 168 406q56 58 123.5 98.5t118.5 40.5q54 0 86.5 -40.5
t32.5 -102.5q0 -18 -7 -54h4q40 37 71.5 69t69 78t62 87.5t41.5 92.5t17 99q0 22 -13 74q-5 29 19.5 56.5t60.5 27.5q38 0 60 -31.5t22 -81.5q0 -80 -60 -183.5t-180 -221.5q-129 -126 -273 -235.5t-271 -184.5q24 -149 122.5 -232t235.5 -83q179 0 312.5 145.5t191.5 388.5
q-42 27 -59.5 37.5t-47.5 21.5t-57 11q-42 0 -66 -26t-24 -66q0 -58 20 -94q15 -26 15 -35q-3 -17 -27 -29t-47 -12q-36 0 -61 32t-25 74q0 89 123 185q40 30 92.5 51.5t79.5 21.5q104 0 321 -172q38 -30 58 -30q36 0 39 208zM465 879q-66 0 -127.5 -98.5t-61.5 -241.5
q0 -17 3 -35q55 32 139 91.5t117 94.5q10 38 10 72q2 49 -20.5 83t-59.5 34z" />
    <glyph glyph-name="quotesingle" unicode="'" horiz-adv-x="393" 
d="M477 1454l19 -14q-20 -65 -75.5 -208.5t-96.5 -227.5l-62 -27q61 336 64 432z" />
    <glyph glyph-name="parenleft" unicode="(" horiz-adv-x="692" 
d="M764 1458l33 -49q-225 -148 -362.5 -446t-137.5 -637q0 -177 42.5 -347.5t133.5 -283.5l-47 -41q-92 73 -154.5 193t-88 245.5t-25.5 257.5q0 247 76.5 468t213 385t316.5 255z" />
    <glyph glyph-name="parenright" unicode=")" horiz-adv-x="681" 
d="M287 1417l47 41q146 -114 214 -331t46 -461q-12 -215 -84.5 -410.5t-205 -353.5t-308.5 -248l-33 47q217 147 346 417t144 576q22 207 -22 408.5t-144 314.5z" />
    <glyph glyph-name="asterisk" unicode="*" horiz-adv-x="800" 
d="M885 1044l-2 -55l-275 -31l64 -284l-49 -21l-125 277l-258 -142l-31 50l225 174l-203 223l37 43l234 -184l135 266l53 -17l-78 -280z" />
    <glyph glyph-name="plus" unicode="+" horiz-adv-x="1220" 
d="M1126 471h-430v-471h-116v471h-430v102h430v424h116v-424h430v-102z" />
    <glyph glyph-name="comma" unicode="," horiz-adv-x="481" 
d="M14 -231l-20 59q78 33 126.5 80t49.5 102q3 93 -94 127q-6 2 -11.5 9.5t-5.5 17.5q1 41 32 69.5t69 28.5q63 0 107 -61.5t38 -141.5q-3 -58 -29.5 -107t-70 -83.5t-90 -58t-101.5 -41.5z" />
    <glyph glyph-name="hyphen" unicode="-" horiz-adv-x="684" 
d="M610 518l-37 -112h-471l37 112h471z" />
    <glyph glyph-name="period" unicode="." horiz-adv-x="481" 
d="M178 -25q-43 0 -70.5 30.5t-27.5 76.5q0 56 33.5 91.5t85.5 35.5q42 0 70 -31.5t28 -77.5q0 -58 -35 -91.5t-84 -33.5z" />
    <glyph glyph-name="slash" unicode="/" horiz-adv-x="659" 
d="M731 1360l-659 -1452h-109l660 1452h108z" />
    <glyph glyph-name="zero" unicode="0" horiz-adv-x="976" 
d="M655 1300q70 0 125 -26.5t90 -70t57.5 -104t31 -125t6.5 -136.5q-2 -84 -17.5 -177.5t-44 -191t-75 -185.5t-104 -157.5t-137 -110.5t-169.5 -41q-69 0 -124.5 26t-91 70.5t-59 106.5t-33 130t-8.5 145q1 82 17.5 174.5t46.5 188t77.5 182t106.5 154.5t138 108t167 40z
M641 1233q-71 0 -132.5 -58.5t-103 -150.5t-71.5 -205t-44.5 -220.5t-15.5 -199.5q-2 -73 4.5 -132.5t23.5 -112t50 -82t80 -29.5q71 0 132 64.5t101.5 162t70 216.5t43.5 224t16 189q2 65 -3 120t-20.5 105.5t-49 79.5t-81.5 29z" />
    <glyph glyph-name="one" unicode="1" horiz-adv-x="976" 
d="M766 1300l-205 -1052q-9 -48 -13 -73t0.5 -49.5t13 -34t35 -19t55.5 -12.5t85 -7l-12 -53h-565l12 53q40 3 62 5.5t47 8t36.5 9.5t26 16t20 22.5t13.5 33t12.5 43t11.5 57.5l150 760q19 92 0.5 113.5t-111.5 21.5h-67l10 51q211 32 383 106z" />
    <glyph glyph-name="two" unicode="2" horiz-adv-x="976" 
d="M229 1026l131 164q120 110 269 110q148 0 232.5 -85.5t84.5 -233.5q0 -61 -20 -120t-48.5 -105.5t-85.5 -107t-103 -102.5t-130 -114l-326 -285h367q88 0 128.5 22t100.5 107l50 -24q-25 -50 -64.5 -139t-50.5 -113h-758l2 43q283 240 410 363q85 83 141.5 144.5t109 132
t78 137t25.5 130.5q0 98 -53 158.5t-162 60.5q-46 0 -89.5 -17t-80.5 -48t-61.5 -57.5t-53.5 -63.5z" />
    <glyph glyph-name="three" unicode="3" horiz-adv-x="976" 
d="M266 1069l99 123q108 108 260 108q126 0 197 -72t71 -175q0 -112 -96 -189q-54 -44 -154 -106v-4q111 -30 175.5 -106.5t64.5 -186.5q0 -203 -226 -361q-86 -60 -187 -92.5t-175 -32.5q-56 0 -111.5 21t-85.5 51q-45 42 -39 84q3 17 18.5 37t37.5 33q23 16 41 -2
q51 -55 109 -88t138 -33q131 0 215 84.5t84 249.5q0 118 -67 180.5t-166 62.5q-42 0 -123 -18l-12 53q190 54 290.5 131.5t100.5 190.5q0 80 -45.5 126t-126.5 46q-40 0 -77 -13.5t-68.5 -39.5t-53 -49t-47.5 -56z" />
    <glyph glyph-name="four" unicode="4" horiz-adv-x="976" 
d="M944 455l-18 -88h-195l-24 -136q-7 -42 -10 -65.5t0 -45t10.5 -30.5t28 -18t44.5 -12t68 -7l-12 -53h-519l13 53q50 4 76.5 7t52 11.5t36.5 17.5t22.5 31.5t17 44.5t14.5 66l26 136h-530l12 55q454 556 764 866h88l-159 -833h194zM725 1092h-6q-270 -297 -533 -637h404z
" />
    <glyph glyph-name="five" unicode="5" horiz-adv-x="976" 
d="M963 1276l-62 -148h-471l-115 -374q161 49 213 49q164 0 257.5 -97t93.5 -231q0 -117 -67.5 -220.5t-190.5 -178.5q-73 -48 -157.5 -74.5t-154.5 -26.5q-69 0 -130.5 25t-92.5 57q-39 42 -31 76q1 19 17.5 39.5t38.5 32.5q23 14 43 -6q112 -121 260 -121q130 0 209 86.5
t79 247.5q0 129 -69.5 205.5t-214.5 76.5q-79 0 -187 -32l-14 16l166 598h580z" />
    <glyph glyph-name="six" unicode="6" horiz-adv-x="976" 
d="M1018 1311l12 -62q-126 -24 -227 -67q-342 -140 -471 -461l2 -4l133 63q72 37 125 37q147 0 235 -98t88 -254q0 -136 -64 -249.5t-168.5 -177t-223.5 -63.5q-166 0 -264.5 119t-98.5 307q0 153 49.5 291t138 245.5t209.5 187.5t265 126q120 39 260 60zM504 709
q-87 0 -197 -68q-37 -101 -37 -242q0 -71 12.5 -133t38 -113t69 -80.5t99.5 -29.5q111 0 181.5 112t70.5 277q0 52 -11 97t-36 87.5t-73.5 67.5t-116.5 25z" />
    <glyph glyph-name="seven" unicode="7" horiz-adv-x="976" 
d="M1059 1276l16 -25q-138 -226 -404.5 -649.5t-379.5 -605.5l-162 -21l-14 25q476 592 798 1128h-430q-51 0 -78 -4t-53 -23t-44 -46t-48 -84l-55 16q33 82 88 289h766z" />
    <glyph glyph-name="eight" unicode="8" horiz-adv-x="976" 
d="M643 1300q121 0 210 -77t89 -203q0 -54 -24.5 -107t-65.5 -88q-72 -57 -188 -133q55 -41 91 -73t70 -73t50 -87t16 -99q0 -157 -132 -271t-317 -114q-95 0 -175 36t-131.5 109.5t-51.5 172.5q0 123 111 217q47 40 227 156q-78 62 -123 129t-45 159q0 141 115 243.5
t274 102.5zM610 1233q-88 0 -145 -65.5t-57 -157.5q0 -66 33.5 -122.5t63.5 -81.5t91 -67q9 -7 14 -10q178 118 178 293q0 95 -49 153t-129 58zM473 43q106 0 176 73.5t70 194.5q0 49 -17 91.5t-54.5 82.5t-73 68.5t-97.5 71.5q-225 -135 -225 -332q0 -109 59.5 -179.5
t161.5 -70.5z" />
    <glyph glyph-name="nine" unicode="9" horiz-adv-x="976" 
d="M629 1300q90 0 159.5 -37t110 -99t60.5 -135t20 -152q0 -153 -49.5 -292.5t-135.5 -245.5t-196 -185t-236 -125q-72 -26 -151.5 -43t-116.5 -17l-8 60q102 19 201 64t188.5 114.5t162.5 168.5t116 216l-150 -72q-60 -28 -117 -28q-127 0 -215 96t-88 246q0 123 61.5 231
t164.5 171.5t219 63.5zM602 1233q-104 0 -175 -103.5t-71 -248.5q0 -124 60 -199.5t172 -75.5q44 0 97.5 17.5t84.5 42.5q37 105 37 241q0 24 -1.5 47.5t-6 57.5t-13 62.5t-24 59t-36.5 51.5t-53 34.5t-71 13.5z" />
    <glyph glyph-name="colon" unicode=":" horiz-adv-x="481" 
d="M270 610q-42 0 -70 31t-28 76q0 55 33 91t84 36q43 0 71.5 -31t28.5 -78q0 -56 -35.5 -90.5t-83.5 -34.5zM178 -25q-44 0 -71 30.5t-27 76.5q0 56 33.5 91.5t85.5 35.5q42 0 70 -31.5t28 -77.5q0 -57 -35 -91t-84 -34z" />
    <glyph glyph-name="semicolon" unicode=";" horiz-adv-x="481" 
d="M264 610q-41 0 -68.5 31t-27.5 76q0 56 32.5 91.5t84.5 35.5q43 0 71.5 -31t28.5 -78q0 -56 -35.5 -90.5t-85.5 -34.5zM16 -233l-24 59q81 33 128.5 80.5t47.5 101.5q0 99 -92 127q-20 4 -17 29q1 40 32 68t69 28q64 0 104.5 -58t40.5 -130q0 -61 -26 -113t-70.5 -88.5
t-91 -61t-101.5 -42.5z" />
    <glyph glyph-name="less" unicode="&#x3c;" horiz-adv-x="1222" 
d="M1059 0l-926 471v96l926 471v-112l-805 -406v-4l805 -403v-113z" />
    <glyph glyph-name="equal" unicode="=" horiz-adv-x="1220" 
d="M1130 657h-995v103h995v-103zM1130 283h-995v102h995v-102z" />
    <glyph glyph-name="greater" unicode="&#x3e;" horiz-adv-x="1222" 
d="M1130 471l-923 -471v113l805 403v4l-805 406v112l923 -471v-96z" />
    <glyph glyph-name="question" unicode="?" horiz-adv-x="724" 
d="M412 434l-41 -43q-66 36 -121 101.5t-55 134.5q0 75 57 137t158 125q131 78 176 117q76 65 76 122q0 48 -31 76.5t-84 28.5q-45 1 -88.5 -15.5t-69.5 -36.5t-48.5 -36.5t-29.5 -16.5q-23 0 -46 26t-23 58q3 41 57 78q43 32 96.5 51t89.5 19h2q108 0 189.5 -89.5
t81.5 -209.5q0 -71 -32.5 -124t-102.5 -99q-172 -112 -203 -137q-72 -56 -79 -107q-1 -8 -1 -16q0 -75 72 -144zM270 -25q-46 0 -75 31.5t-29 81.5q0 59 35 97t90 38q46 0 75 -33t29 -84q0 -60 -37.5 -95.5t-87.5 -35.5z" />
    <glyph glyph-name="at" unicode="@" horiz-adv-x="1511" 
d="M1108 -41l22 -57q-195 -107 -409 -107q-122 0 -231.5 41t-194 117t-134.5 194t-50 261q0 142 44.5 267.5t120.5 217.5t176 158.5t214 99.5t231 33q133 0 241.5 -42t178.5 -114t107.5 -167.5t37.5 -203.5q0 -139 -65.5 -256.5t-180.5 -186.5t-253 -69q-48 0 -70.5 20
t-22 53t8.5 77l26 111l-4 2q-56 -82 -168 -172.5t-174 -90.5q-39 0 -68.5 47t-29.5 125q0 98 43.5 206t128.5 188q64 63 150 102.5t175 42.5q13 1 33 -2t44 -8t30 -6q30 -9 63 -9q-69 -273 -110 -479q-14 -69 -6.5 -95.5t39.5 -25.5q41 1 83.5 17t84 51t74.5 84t53 120.5
t20 155.5q0 139 -65 241.5t-174 154t-246 51.5q-140 0 -259 -51t-202 -140.5t-129.5 -215t-46.5 -271.5q0 -80 17 -154t58 -145.5t101.5 -124.5t155.5 -85t212 -32q180 0 320 72zM874 778q-75 0 -137 -65q-46 -51 -85.5 -154t-39.5 -203q0 -84 41 -84q37 0 112.5 64.5
t162.5 195.5q26 78 57 222q-41 24 -111 24z" />
    <glyph glyph-name="A" unicode="A" horiz-adv-x="1359" 
d="M1272 55l-15 -55h-483l14 55q71 7 101 19t38 37.5t-1 68.5q-7 49 -26.5 157.5t-25.5 145.5h-428q-81 -153 -141 -278q-44 -92 -25.5 -116.5t136.5 -33.5l-13 -55h-440l14 55q53 7 78.5 13t54.5 28t51 55t60 101l615 1091l63 17l57 -365q53 -341 131 -762
q10 -60 18.5 -88.5t29.5 -49.5t49.5 -27.5t87.5 -12.5zM862 569l-82 529h-4q-199 -363 -284 -529h370z" />
    <glyph glyph-name="B" unicode="B" horiz-adv-x="1185" 
d="M268 1329h480q385 0 385 -282q0 -130 -92.5 -211t-239.5 -111v-4q131 -27 215 -107t84 -213q0 -108 -64 -193.5t-172 -137.5q-149 -70 -411 -70h-439l15 55q44 4 68 7t48 12t34.5 19t22 33t17 48.5t14.5 71.5l168 856q6 31 9 49.5t3.5 37.5t-1.5 28.5t-10.5 20t-18.5 15
t-30.5 9.5t-41 7t-55.5 5zM496 752h104q166 0 257 78.5t91 213.5q0 62 -20.5 106.5t-56.5 68.5t-76.5 34.5t-87.5 10.5q-67 0 -95 -19t-41 -90zM481 684l-80 -434q-21 -109 15.5 -144.5t144.5 -35.5q151 0 246.5 94t95.5 248q0 76 -25 130.5t-71 84.5t-101 43.5t-124 13.5
h-101z" />
    <glyph glyph-name="C" unicode="C" horiz-adv-x="1300" 
d="M1192 356l53 -28q-26 -63 -77.5 -162.5t-84.5 -147.5q-221 -49 -352 -49q-129 0 -237.5 39t-188.5 112t-125 185.5t-45 253.5q0 237 114 421t306.5 282t427.5 98q188 0 352 -66q-2 -34 -6.5 -145.5t-9.5 -167.5l-62 -6q-7 177 -83.5 246t-237.5 69q-131 0 -244.5 -60
t-191 -160t-122 -231.5t-44.5 -273.5q0 -149 46.5 -266.5t142.5 -188.5t229 -71q75 0 138.5 23t117.5 70t94.5 98t89.5 126z" />
    <glyph glyph-name="D" unicode="D" horiz-adv-x="1449" 
d="M264 1329h512q307 0 479 -136t172 -419q0 -193 -88.5 -356t-248.5 -264q-129 -83 -279.5 -118.5t-349.5 -35.5h-443l15 55q43 4 67.5 8t47 13.5t33 19.5t21.5 33.5t16.5 47.5t14.5 69l162 835q6 34 9 54t3.5 41.5t-1.5 32t-10.5 22t-18 16.5t-30 11t-41 9t-54.5 7z
M573 1139l-165 -875q-14 -76 -10 -111.5t32 -50.5q49 -28 148 -28q152 0 277.5 57t206.5 154.5t125 225.5t44 273q0 232 -126 355t-353 123q-98 0 -134 -23q-30 -15 -45 -100z" />
    <glyph glyph-name="E" unicode="E" horiz-adv-x="1144" 
d="M264 1329h889q-10 -60 -39 -313l-59 -4q0 132 -27 180q-11 26 -27 39t-57 21t-115 8h-159q-52 0 -64.5 -12.5t-23.5 -71.5l-88 -443h198q55 0 85.5 3.5t55 10t39.5 26t26 42t28 68.5h59l-78 -389h-59q1 34 1 49t-2 36.5t-5.5 29t-12.5 19t-20.5 14t-32 6.5t-43.5 4.5
t-59 0.5h-195l-67 -358q-17 -89 -15.5 -133.5t23.5 -63.5q22 -18 67 -23t140 -5q115 0 171 14.5t99 54.5q55 53 139 197l58 -21q-6 -14 -35 -86.5t-55.5 -136.5t-40.5 -92h-959l12 55q47 4 72.5 7t50.5 12t36 19t23 33t18 48.5t15 71.5l164 839q9 46 12.5 70.5t0 48t-11 33
t-29.5 18.5t-47 12t-72 7z" />
    <glyph glyph-name="F" unicode="F" horiz-adv-x="1079" 
d="M270 1329h883q-2 -16 -8 -66t-15 -125.5t-14 -121.5l-59 -4q-4 127 -23 176q-9 27 -26.5 41.5t-58 22.5t-113.5 8h-166q-51 0 -64 -13t-24 -67l-90 -469h215q48 0 75.5 1t52.5 8t37 13.5t27 27.5t22.5 39t24.5 58h58l-78 -393h-58q0 44 -1 65t-7 44t-15.5 31t-32 16
t-49.5 9t-75 1h-213l-69 -375q-9 -47 -12.5 -74t1 -51t13.5 -35t34 -20.5t53.5 -13t79.5 -7.5l-14 -55h-538l12 55q43 4 66.5 7.5t47 12.5t34 20t22 35t18 51t15.5 75l155 815q7 38 11 60t5 45t0 34.5t-10 23.5t-18 16.5t-30 10t-40 8t-55 5.5z" />
    <glyph glyph-name="G" unicode="G" horiz-adv-x="1394" 
d="M1339 977l-59 -6q1 169 -81 244t-247 75q-138 0 -255.5 -59t-195.5 -158.5t-121.5 -229.5t-43.5 -272q0 -155 50 -274t151.5 -188.5t242.5 -69.5q101 0 160.5 33.5t73.5 111.5l41 193q9 43 12.5 65t-2 43.5t-13.5 30t-36.5 17.5t-56.5 12t-87 8l13 55h499l-12 -53
q-33 -5 -49 -8t-34 -12.5t-24.5 -17t-16 -30.5t-14 -44.5t-13.5 -65.5l-33 -172q-19 -96 -10 -162q-23 -5 -96 -23t-112 -26t-104 -16.5t-123 -8.5q-272 0 -439 155.5t-167 430.5q0 231 109.5 414.5t308 287t449.5 103.5q165 0 360 -64q-16 -166 -25 -319z" />
    <glyph glyph-name="H" unicode="H" horiz-adv-x="1519" 
d="M1612 1329l-15 -55q-44 -4 -68 -7t-46.5 -13t-32.5 -19.5t-21 -34t-17 -49t-15 -72.5l-158 -831q-9 -46 -12.5 -71t-0.5 -48.5t10.5 -33.5t28.5 -19.5t46 -13t71 -7.5l-12 -55h-520l14 55q66 6 97 12t55 29t33 53.5t22 98.5l78 414h-670l-78 -414q-6 -35 -9.5 -56.5
t-3.5 -42.5t1.5 -32.5t10.5 -22.5t19 -16t31 -10.5t41.5 -7.5t55.5 -5l-12 -55h-508l12 55q42 4 66 7.5t45.5 13t31.5 19t21 34t16 48.5t14 71l160 831q7 35 10.5 56.5t4 43t-1.5 32.5t-10.5 23t-19 17t-31 10t-41.5 7.5t-56 5.5l14 55h506l-12 -55q-41 -4 -64 -7.5
t-45 -12.5t-32.5 -20t-22 -34t-18 -49.5t-15.5 -71.5l-61 -331h667l64 331q9 47 13 72.5t1 49t-9.5 33.5t-28 19.5t-45 12.5t-68.5 8l12 55h508z" />
    <glyph glyph-name="I" unicode="I" horiz-adv-x="686" 
d="M778 1329l-12 -55q-45 -4 -69.5 -7t-47.5 -12t-33 -17.5t-21 -31t-16 -44t-14 -64.5l-164 -860q-8 -43 -11.5 -68t0 -47t11.5 -31.5t30 -18.5t47.5 -12t72.5 -6l-12 -55h-525l15 55q44 3 69 6.5t48 12t33.5 18.5t21.5 32.5t16.5 46t13.5 67.5l168 860q8 42 11 65.5
t-1 44.5t-12 30t-31.5 17.5t-48.5 11.5t-73 7l12 55h522z" />
    <glyph glyph-name="J" unicode="J" horiz-adv-x="657" 
d="M768 1329l-12 -55q-43 -5 -64.5 -8.5t-44.5 -12.5t-31.5 -18t-20 -32t-16.5 -47t-14 -69l-151 -821q-37 -200 -104 -317.5t-185 -184.5q-85 -52 -158 -61l-20 61q161 48 225 220q43 109 82 323l145 780q6 34 9.5 55.5t3 41.5t-2 31t-12 21.5t-19 15t-31 9.5t-41 7
t-54.5 6l12 55h504z" />
    <glyph glyph-name="K" unicode="K" horiz-adv-x="1337" 
d="M1464 1329l-14 -53q-114 -17 -167 -40.5t-148 -98.5q-111 -88 -449 -381q76 -127 187.5 -295t185.5 -268q59 -78 99 -103t126 -35l-14 -55h-295q-31 47 -120 182t-149.5 229.5t-113.5 182.5q-31 51 -58 63.5t-61 -4.5l-70 -391q-10 -51 -14 -78t-1.5 -53t9 -36t28 -20
t45 -13t69.5 -7l-11 -55h-503l14 55q42 4 64 7t45 12.5t33 20.5t22 36t19 53.5t16 77.5l155 813q9 48 13 74t1 50t-9.5 34.5t-27.5 20t-44 12.5t-68 8l12 55h496l-12 -55q-44 -4 -67 -7.5t-46 -13.5t-32 -19.5t-20.5 -35t-17 -50t-14.5 -73.5l-72 -362q70 22 154 92
q209 173 414 375q30 29 38 45.5t-4 26t-49 14.5l-59 8l12 55h473z" />
    <glyph glyph-name="L" unicode="L" horiz-adv-x="1089" 
d="M991 340l58 -21q-20 -55 -65 -165.5t-66 -153.5h-904l13 53q118 10 148.5 38.5t53.5 146.5l168 856q9 44 12.5 67.5t0 45.5t-10.5 31t-29.5 17.5t-46.5 11.5t-71 7l12 55h512l-12 -55q-46 -4 -70 -7t-48 -12t-33.5 -17.5t-20.5 -31.5t-16 -45t-13 -67l-162 -850
q-22 -114 23 -148q33 -26 184 -26q94 0 148.5 13t91.5 50q70 67 143 207z" />
    <glyph glyph-name="M" unicode="M" horiz-adv-x="1794" 
d="M1864 1329l-15 -55q-50 -4 -75.5 -6.5t-51 -12.5t-35 -18t-20.5 -34t-15 -48.5t-12 -73.5q-38 -247 -110 -805q-6 -41 -8.5 -67t-2 -50.5t2.5 -37.5t12.5 -25.5t19.5 -17.5t31 -10.5t41 -7.5t55 -5l-14 -55h-518l14 55q34 3 53 5t40.5 8t31.5 11t22.5 18t18 26t12.5 38
t11 49.5t10 65.5q27 179 77 494.5t58 368.5h-4l-678 -1131h-47q-110 612 -209 1108h-4l-147 -538q-8 -28 -22.5 -83t-20.5 -76t-16.5 -60.5t-14.5 -57.5t-10 -43.5t-8.5 -42.5t-4.5 -33q-11 -68 17 -92.5t139 -34.5l-12 -55h-463l14 55q88 7 128 33.5t65 91.5
q42 107 147 469l115 389q12 42 19 68.5t10 52t2 39.5t-10 28t-20 20t-35 12t-47.5 9t-64.5 7l15 55h340q86 -413 223 -1026l639 1026h332z" />
    <glyph glyph-name="N" unicode="N" horiz-adv-x="1443" 
d="M1569 1329l-13 -55q-89 -4 -123 -31t-55 -98q-34 -107 -78 -348l-155 -813h-62l-606 1085h-6l-106 -545q-48 -241 -54 -344q-3 -69 31.5 -93t142.5 -32l-12 -55h-469l14 55q82 5 121.5 30t59.5 89q32 102 84 354l106 506q16 79 13 110.5t-25 67.5q-19 32 -53.5 45
t-118.5 17l12 55h293l604 -1042h8l95 510q47 243 55 352q4 70 -30 93.5t-148 31.5l14 55h461z" />
    <glyph glyph-name="O" unicode="O" horiz-adv-x="1449" 
d="M881 1360q244 0 394 -163t150 -423q0 -161 -56 -308.5t-153.5 -257t-237.5 -174.5t-300 -65q-242 0 -392.5 161.5t-150.5 420.5q0 159 57 307t155 258.5t237.5 177t296.5 66.5zM864 1290q-116 0 -218.5 -68t-170 -177t-106.5 -243.5t-39 -269.5q0 -105 22 -193.5t66 -156
t115 -105.5t163 -38q99 0 186.5 46t150 123t108 175t68 203.5t22.5 208.5q0 106 -20 193t-62.5 156t-115 107.5t-169.5 38.5z" />
    <glyph glyph-name="P" unicode="P" horiz-adv-x="1134" 
d="M270 1329h465q215 0 323.5 -88t108.5 -258q0 -84 -29.5 -156t-78.5 -122t-113.5 -87t-132 -56t-135.5 -23q-27 -2 -78 -2l-137 43l-64 -326q-9 -46 -12.5 -73t0.5 -50.5t13 -34t34 -20t53 -13.5t80 -8l-10 -55h-545l15 55q44 5 68 8t47.5 12.5t34 20t22.5 34.5t18 50
t16 74l166 831q9 45 12.5 69t0.5 47t-10 33t-28.5 19t-46.5 13t-71 8zM571 1151l-94 -506q73 -27 150 -27q46 0 93 12t95 40.5t84.5 70t60 106.5t23.5 144q0 129 -70.5 202t-203.5 73q-47 0 -86 -17q-20 -8 -31.5 -29t-20.5 -69z" />
    <glyph glyph-name="Q" unicode="Q" horiz-adv-x="1452" 
d="M1358 -285l-17 -45q-124 3 -241 35q-136 36 -438 248l-29 20q-224 15 -361 172.5t-137 401.5q0 160 57 309t155 260t237.5 177.5t296.5 66.5q245 0 394.5 -163.5t149.5 -424.5q0 -271 -153 -487t-395 -285l26 -18q218 -158 455 -267zM616 47l144 35q14 -9 49 -35
q95 26 176.5 104t134 183t82 224.5t29.5 234.5q0 106 -20.5 193t-63 156.5t-114.5 108.5t-169 39q-115 0 -216.5 -68t-170 -177t-108 -245t-39.5 -272q0 -189 74.5 -320t211.5 -161z" />
    <glyph glyph-name="R" unicode="R" horiz-adv-x="1226" 
d="M1198 35l-18 -51h-21q-142 7 -211 50t-127 150q-62 118 -139 303q-25 58 -51 76.5t-82 18.5h-86l-60 -322q-10 -49 -14 -77t-0.5 -52.5t10.5 -35.5t29.5 -20.5t47 -12.5t71.5 -7l-12 -55h-515l13 55q45 5 68 8t47 12.5t34 20t22 35.5t18 52t16 77l157 823q9 47 13 72
t1.5 48.5t-9.5 33t-28.5 18.5t-45 12t-70.5 7l14 55h445q199 0 289 -63q122 -80 122 -252q0 -99 -46.5 -180t-115 -131t-155.5 -80q66 -163 123 -275q74 -145 127 -215q32 -44 63.5 -64t75.5 -34zM475 647h96q143 0 220 51q70 47 111.5 126t41.5 173q0 131 -64 200t-178 69
q-65 0 -92 -21q-25 -17 -39 -90z" />
    <glyph glyph-name="S" unicode="S" horiz-adv-x="958" 
d="M78 399l55 7q6 -50 20 -98.5t40.5 -98.5t62.5 -87.5t89.5 -61t117.5 -23.5q111 0 180.5 72t69.5 192q0 83 -47 148.5t-146 142.5l-59 45q-37 30 -60 50t-59 58t-56.5 71.5t-36.5 80.5t-16 96q0 161 115.5 264t300.5 103q101 0 195 -33q68 -24 88 -33q-4 -50 -4 -157.5
v-130.5l-60 -7q-6 63 -21 112.5t-42 92t-73 65.5t-109 23q-104 0 -167 -69.5t-63 -167.5q0 -82 47.5 -142.5t143.5 -132.5l61 -47q117 -86 177.5 -173.5t60.5 -201.5q0 -115 -62.5 -205t-163.5 -137t-221 -47q-113 0 -213 40t-139 85q-1 22 -2.5 124.5t-3.5 180.5z" />
    <glyph glyph-name="T" unicode="T" horiz-adv-x="1234" 
d="M1300 1380h46q-24 -138 -48 -360l-63 -4q3 120 -23 182q-15 37 -58.5 49.5t-160.5 12.5h-125l-190 -1014q-8 -45 -11.5 -71.5t1.5 -49t14 -33t34 -19t53 -12t79 -6.5l-12 -55h-557l12 55q70 5 103 11t58 28.5t34 53t22 98.5l194 1014h-106q-126 0 -173.5 -12.5
t-76.5 -47.5q-42 -49 -102 -186l-62 2q64 206 99 364h43q14 -33 33.5 -42t64.5 -9h770q39 0 58.5 10t49.5 41z" />
    <glyph glyph-name="U" unicode="U" horiz-adv-x="1447" 
d="M1583 1329l-12 -55q-97 -4 -130.5 -27.5t-49.5 -83.5q-35 -124 -82 -368l-33 -158q-36 -184 -91 -315t-151 -220q-72 -66 -163.5 -99.5t-184.5 -33.5q-196 0 -315 111q-156 149 -92 495l98 517q9 44 12.5 68t0.5 46t-10.5 31.5t-29 18t-45 11.5t-69.5 7l14 55h506
l-13 -55q-45 -4 -67 -6.5t-46 -11t-33.5 -17.5t-21 -31.5t-16.5 -46.5t-14 -69l-94 -502q-24 -141 -15 -238.5t52.5 -159t104 -89t138.5 -27.5q184 0 295 138t170 437l29 144q50 260 53 368q4 62 -31 83.5t-147 27.5l12 55h471z" />
    <glyph glyph-name="V" unicode="V" horiz-adv-x="1382" 
d="M1534 1329l-14 -53q-45 -6 -68 -11t-47.5 -15t-44 -32t-41.5 -51.5t-55 -83.5q-65 -101 -250 -431t-373 -675h-61q-94 588 -199 1119q-8 42 -14.5 67.5t-17.5 46t-20.5 30.5t-30.5 18t-39.5 11t-55.5 7l14 53h469l-14 -53l-56 -8q-59 -9 -72 -27.5t-5 -73.5
q8 -64 33.5 -208t66 -362t63.5 -351h5q398 712 477 880q38 85 28 108.5t-79 31.5l-62 10l14 53h449z" />
    <glyph glyph-name="W" unicode="W" horiz-adv-x="1943" 
d="M2066 1329l-12 -55q-57 -8 -82 -13.5t-52.5 -28t-44.5 -52t-52 -97.5q-102 -192 -523 -1106h-63l-166 1018h-6l-490 -1018h-61l-125 1100q-5 49 -8.5 74.5t-12 50t-16.5 34.5t-28.5 19t-40.5 12t-60 7l13 55h462l-14 -55l-49 -6q-64 -9 -78.5 -31t-5.5 -104l88 -857h6
l483 1029h60l170 -1031h4q313 680 381 859q29 78 16 101t-90 32l-53 8l12 55h438z" />
    <glyph glyph-name="X" unicode="X" horiz-adv-x="1314" 
d="M1393 1329l-13 -55q-110 -12 -150.5 -32t-119.5 -107q-160 -185 -332 -396l228 -503q20 -44 31 -67t27.5 -45.5t28.5 -31.5t37 -18t49 -12t68 -7l-12 -55h-516l12 55l64 8q56 8 67 26.5t-10 72.5q-116 272 -190 438q-248 -315 -330 -438q-33 -47 -24.5 -69t71.5 -32
l49 -6l-12 -55h-465l14 55q99 9 143 31.5t119 101.5q121 132 400 482l-197 444q-24 55 -39.5 81.5t-41.5 44.5t-52 23t-84 11l12 55h475l-12 -55l-53 -8q-52 -9 -61.5 -22.5t4.5 -57.5q29 -77 167 -379q156 189 283 367q33 47 26 65t-59 27l-59 8l12 55h445z" />
    <glyph glyph-name="Y" unicode="Y" horiz-adv-x="1251" 
d="M1405 1329l-16 -55q-99 -11 -140 -35t-116 -119q-146 -186 -338 -463q-36 -48 -50 -114l-57 -289q-7 -35 -11 -58t-3.5 -44t2.5 -33t13 -23.5t21.5 -16.5t34.5 -10.5t46 -8t61 -5.5l-14 -55h-545l14 55q47 3 71.5 6t49.5 12t36 19.5t23 35t18.5 51t16.5 75.5l53 276
q13 57 -10 121q-57 158 -180 479q-16 41 -26 60t-22 37t-31.5 25t-42.5 12t-66 10l14 55h473l-12 -55l-72 -8q-52 -7 -62 -24.5t5 -61.5q113 -316 188 -496q11 16 76.5 108.5t96.5 137.5t78.5 116.5t76.5 120.5q31 54 21.5 72t-68.5 27l-64 8l15 55h442z" />
    <glyph glyph-name="Z" unicode="Z" horiz-adv-x="1204" 
d="M1251 1329l13 -26q-594 -713 -1006 -1221q123 -12 317 -12q164 0 248.5 12t128.5 51q67 57 152 227l57 -24q-90 -266 -123 -336h-1022l-14 31q568 678 1016 1229h-324q-101 0 -156.5 -8t-79 -22t-46.5 -42q-50 -60 -103 -195l-59 4q53 195 84 383h43q18 -34 37 -42.5
t65 -8.5h772z" />
    <glyph glyph-name="bracketleft" unicode="[" horiz-adv-x="692" 
d="M786 1442l-14 -56q-63 -6 -91.5 -9t-60.5 -13t-42 -18t-24.5 -33t-19 -48t-14.5 -73l-244 -1274q-9 -48 -13 -72.5t1 -48.5t13 -32.5t38 -18.5t58.5 -13t91.5 -9l-14 -56h-351l340 1774h346z" />
    <glyph glyph-name="backslash" unicode="\" horiz-adv-x="768" 
d="M666 -92h-109l-393 1452h108z" />
    <glyph glyph-name="bracketright" unicode="]" horiz-adv-x="692" 
d="M655 1442l-340 -1774h-346l15 56q63 6 92 9t61 13.5t42 18t24 33t18.5 48l14.5 72.5l245 1274q7 37 10.5 57t2.5 42t-2.5 32t-14.5 22t-23.5 16t-39 10t-52 8.5t-71.5 6.5l14 56h350z" />
    <glyph glyph-name="asciicircum" unicode="^" horiz-adv-x="1130" 
d="M1030 432h-121l-319 711l-320 -711h-112l393 844h86z" />
    <glyph glyph-name="underscore" unicode="_" horiz-adv-x="1024" 
d="M1024 -256h-1024v102h1024v-102z" />
    <glyph glyph-name="grave" unicode="`" 
d="M659 1022l-59 -18q-115 220 -182 335l6 19q14 7 70 17t79 7q9 -44 23.5 -106t34 -139.5t28.5 -114.5z" />
    <glyph glyph-name="a" unicode="a" horiz-adv-x="1003" 
d="M930 238l24 -50q-78 -95 -167.5 -154t-133.5 -59q-22 0 -33.5 13.5t-15 54t13.5 113.5l41 194h-6q-105 -152 -264 -282q-115 -93 -190 -93q-46 0 -82.5 59t-36.5 171q0 157 67 310.5t179 246.5q83 68 186.5 113t196.5 45q51 0 127 -17q54 -12 77 -12l5 -8
q-71 -273 -142 -666q-15 -88 4 -88q14 0 59.5 33t90.5 76zM305 106q58 0 193 145.5t188 256.5q35 113 68 293q-58 28 -136 28q-88 0 -147 -43q-101 -74 -161 -229.5t-60 -314.5q0 -66 15.5 -101t39.5 -35z" />
    <glyph glyph-name="b" unicode="b" horiz-adv-x="995" 
d="M215 1339l4 52q69 7 138 24t112 30t55 13q23 0 8 -61q-97 -406 -180 -785h4q123 151 245 229.5t200 78.5q67 0 106 -62t39 -164q0 -169 -90 -342t-225 -264q-168 -113 -309 -113q-49 0 -95 24.5t-69 63.5q-47 79 -11 256q28 140 94.5 447t100.5 473q12 71 2 84.5
t-70 15.5h-59zM422 70q56 0 108 30q96 57 171 218t75 341q0 74 -19 110t-50 36q-57 0 -168 -91t-205 -225q-20 -60 -37 -159q-24 -139 14 -199.5t111 -60.5z" />
    <glyph glyph-name="c" unicode="c" horiz-adv-x="782" 
d="M688 248l31 -45q-91 -106 -204 -167t-206 -61q-100 0 -159.5 78t-59.5 221q0 132 57.5 268.5t155.5 223.5q65 61 160 107.5t166 46.5q64 0 108.5 -31.5t46.5 -71.5q2 -24 -15 -50t-50 -44q-27 -15 -45 12q-64 88 -156 88q-96 0 -170 -137q-39 -71 -63.5 -170t-24.5 -199
q0 -107 38 -164t105 -57q70 0 151.5 49t133.5 103z" />
    <glyph glyph-name="d" unicode="d" horiz-adv-x="1040" 
d="M963 229l28 -47q-77 -92 -165 -149.5t-136 -57.5q-23 0 -35 14.5t-16 57t14 119.5l37 174l-4 -2q-108 -144 -270 -268q-118 -95 -199 -95q-55 0 -94 64.5t-39 181.5q0 148 64 297t174 244q72 63 181 110.5t181 47.5q65 0 121 -23l67 336q14 71 2 86.5t-79 15.5h-66l6 51
q75 8 147 26t114 32t53 14q25 0 14 -57q-159 -677 -254 -1206q-11 -66 8 -66t62 29.5t84 70.5zM317 109q49 0 133 69t156.5 156t108.5 151l65 293q-23 22 -71.5 37.5t-94.5 15.5q-85 0 -141 -43q-97 -69 -158 -228.5t-61 -299.5q0 -75 17.5 -113t45.5 -38z" />
    <glyph glyph-name="e" unicode="e" 
d="M715 254l33 -47q-214 -232 -431 -232q-40 0 -76.5 13t-72 44t-57 93t-21.5 149q0 149 65.5 294.5t182.5 234.5q66 53 142.5 85t140.5 32q79 0 128.5 -48.5t49.5 -115.5q0 -58 -38 -111t-94 -90.5t-134 -71t-141.5 -53.5t-133.5 -37q-2 -27 -2 -65q0 -45 7.5 -83.5
t24.5 -73.5t49 -55t77 -20q65 0 144 41.5t157 116.5zM545 834q-48 0 -86 -23q-24 -15 -48 -38.5t-53.5 -64.5t-54 -106.5t-37.5 -146.5q207 57 294 123.5t87 144.5q0 51 -28.5 81t-73.5 30z" />
    <glyph glyph-name="f" unicode="f" horiz-adv-x="555" 
d="M162 883h129q56 280 174 411q69 76 149.5 120t143.5 44q51 0 88 -28.5t35 -57.5q0 -22 -16.5 -46.5t-35.5 -39.5q-31 -21 -51 2q-66 72 -129 72q-30 0 -55 -21.5t-50 -74t-49 -147.5t-46 -234h231l-41 -66l-205 -20q-64 -369 -106 -572q-52 -254 -111.5 -392t-148.5 -230
q-62 -66 -123.5 -97.5t-106.5 -31.5t-87 27.5t-42 60.5q0 39 58 86q20 18 38 0q22 -22 60.5 -36.5t68.5 -14.5q51 0 89 41q66 75 143 514q79 470 108 649h-168l-6 24z" />
    <glyph glyph-name="g" unicode="g" horiz-adv-x="860" 
d="M961 909l14 -37q-73 -78 -146 -96q-37 -5 -53 -6q17 -57 17 -113q0 -101 -45 -181t-111 -134q-108 -88 -264 -119q-41 -30 -41 -63q0 -24 36 -52.5t111 -68.5q146 -76 211.5 -140.5t65.5 -131.5q0 -60 -48 -116t-120.5 -94t-157 -60.5t-158.5 -22.5q-151 0 -260 67.5
t-106 161.5q3 65 87.5 136t256.5 159q-36 25 -57 52.5t-19 49.5q0 51 127 125q-180 41 -180 250q0 98 46.5 189t125.5 153q61 49 132.5 76t129.5 27q107 0 174 -58q153 3 232 47zM410 305q89 0 160 94.5t71 249.5q0 90 -35.5 144.5t-101.5 54.5q-89 0 -148 -92
q-77 -108 -77 -267q0 -88 36.5 -136t94.5 -48zM354 -440q112 0 182 44.5t70 106.5q0 77 -149 164q-128 74 -154 86q-105 -51 -165 -109t-60 -114q0 -75 83 -126.5t193 -51.5z" />
    <glyph glyph-name="h" unicode="h" horiz-adv-x="1046" 
d="M954 221l25 -49q-77 -89 -162 -143t-133 -54q-82 0 -35 199l109 473q36 148 -17 148q-70 0 -214 -136.5t-218 -271.5q-36 -143 -78 -373q-88 -19 -145 -39l-14 17q162 725 260 1227q8 43 9.5 64t-7.5 33.5t-23.5 14.5t-48.5 2l-59 2l8 51q70 7 138.5 25t109 32.5
t49.5 14.5q14 0 15.5 -15.5t-7.5 -56.5l-182 -849h4q92 123 193 209t186 131q79 43 139 43q115 0 55 -261l-106 -456q-15 -73 6 -76q16 0 59.5 27.5t83.5 66.5z" />
    <glyph glyph-name="i" unicode="i" horiz-adv-x="559" 
d="M453 1311q38 0 60 -26.5t22 -65.5q2 -46 -30 -81.5t-79 -35.5q-36 0 -59 24.5t-23 63.5q-2 44 29 82.5t80 38.5zM457 223l26 -45q-57 -67 -152.5 -135t-144.5 -68q-23 0 -35 14t-12 60.5t19 126.5l129 522q15 66 -2 66q-13 0 -55 -25t-87 -61l-24 45q82 80 175 137.5
t134 57.5q63 0 21 -162l-140 -563q-16 -66 4 -66q35 0 144 96z" />
    <glyph glyph-name="j" unicode="j" horiz-adv-x="544" 
d="M442 1325q38 0 60 -26.5t22 -63.5q0 -48 -31 -83.5t-77 -35.5q-37 0 -61.5 24.5t-24.5 65.5q0 43 31 81t81 38zM139 657l-26 48q89 93 183 154t140 61q33 0 36.5 -52t-19.5 -161q-18 -94 -57 -284.5t-58 -287.5q-75 -375 -242 -532q-68 -66 -127 -97.5t-92 -31.5
q-32 0 -60 18.5t-28 46.5q0 24 14.5 49t34.5 41q22 22 45 11q56 -35 101 -35t77 51.5t60 169.5q18 74 38 169t35 172t44 224.5t49 249.5q5 24 8 42t4.5 31t2 21.5t-1.5 13.5t-4.5 7t-6.5 2q-13 0 -61 -32t-89 -69z" />
    <glyph glyph-name="k" unicode="k" horiz-adv-x="962" 
d="M895 203l35 -41q-64 -102 -124 -144.5t-101 -42.5q-36 0 -68 29t-68 107q-74 151 -155 381q-4 -5 -16.5 -18t-17 -17.5t-15 -15.5t-15 -15.5t-12.5 -13.5t-12.5 -14.5t-10 -12.5t-9.5 -13t-7 -12q-62 -299 -70 -346q-60 -11 -149 -39l-12 13q157 666 278 1255
q12 61 -0.5 75.5t-73.5 16.5h-63l10 51q72 8 141.5 26t110 32t49.5 14q14 0 15.5 -15t-5.5 -46q-37 -160 -105.5 -464.5t-100.5 -445.5h4q62 73 176 183q242 250 358 250q39 0 61.5 -20t22.5 -44q0 -43 -39 -82q-19 -19 -33 -12q-36 16 -77 16q-64 0 -137.5 -52.5
t-131.5 -117.5q27 -88 77.5 -206.5t90.5 -194.5q29 -56 46.5 -77t35.5 -21q15 0 47.5 25.5t69.5 68.5z" />
    <glyph glyph-name="l" unicode="l" horiz-adv-x="509" 
d="M440 240l31 -45q-75 -92 -169 -156t-144 -64q-84 0 -31 248q108 504 213 1008q15 67 0.5 84.5t-84.5 19.5h-57l8 51q70 7 140 25t112 32.5t51 14.5q13 0 15.5 -14.5t-3.5 -46.5q-116 -543 -252 -1198q-15 -72 9 -72q18 0 69 35t92 78z" />
    <glyph glyph-name="m" unicode="m" horiz-adv-x="1611" 
d="M1505 223l27 -51q-77 -87 -162 -142t-127 -55q-83 0 -31 209l109 473q33 134 -18 134q-46 0 -134 -78.5t-167.5 -177.5t-116.5 -170q-48 -183 -80 -353q-64 -7 -150 -35l-12 13q125 506 148 614q22 104 18 145.5t-35 41.5q-47 0 -135 -80t-166.5 -179t-112.5 -167
q-34 -109 -84 -353q-61 -7 -147 -35l-14 13q99 373 170 694q8 36 9 56t-1.5 25.5t-9.5 6.5q-15 0 -59.5 -32t-82.5 -68l-24 51q83 88 165 142.5t124 54.5q77 0 16 -254l-37 -144h4q172 240 369 357q71 41 125 41q120 0 49 -312l-19 -84h5q95 133 195 223t181 134
q74 39 123 39q114 0 45 -297l-100 -428q-16 -66 4 -66q15 0 56 27t83 67z" />
    <glyph glyph-name="n" unicode="n" horiz-adv-x="1089" 
d="M983 223l31 -49q-85 -94 -165.5 -146.5t-123.5 -52.5q-84 0 -31 213q41 170 107 455q14 57 15.5 89.5t-6 44t-24.5 11.5q-65 0 -207.5 -144.5t-222.5 -281.5q-54 -216 -80 -346q-81 -15 -147 -39l-12 15q100 390 168 694q17 82 -4 82q-14 0 -53.5 -28t-77.5 -64l-29 49
q83 87 164 141t125 54q69 0 16 -228l-43 -178h4q95 129 197 221.5t180 136.5q77 48 135 48q18 0 31 -5t25 -23t16 -48.5t-1.5 -86t-23.5 -130.5q-54 -227 -100 -424q-16 -74 4 -74q15 0 53 26t80 68z" />
    <glyph glyph-name="o" unicode="o" horiz-adv-x="962" 
d="M365 -25q-71 0 -124.5 26t-84.5 71.5t-46.5 101t-15.5 119.5q0 191 88.5 340t223.5 219q123 68 223 68q127 0 198.5 -84t71.5 -236q0 -137 -57.5 -273.5t-161.5 -222.5q-153 -129 -315 -129zM438 57q31 0 68 13q87 37 154.5 187.5t66.5 338.5q0 120 -46 182t-120 62
q-39 0 -78 -17q-26 -12 -53.5 -37.5t-57.5 -71t-53 -102t-38 -137t-15 -170.5q0 -115 45.5 -181.5t126.5 -66.5z" />
    <glyph glyph-name="p" unicode="p" horiz-adv-x="995" 
d="M487 1051l-34 -158q86 27 190 27q154 0 224.5 -72t70.5 -213q0 -103 -44.5 -215t-129.5 -207q-76 -85 -179 -149t-202 -89q-70 0 -121 21l-57 -287q-9 -48 -10.5 -72t9 -41t30 -22.5t59.5 -9.5l51 -4l-8 -54l-473 -22l10 51q97 19 127.5 47.5t50.5 120.5
q44 208 127 591.5t103 477.5q-94 -33 -166 -76l-15 54q74 53 197 100l22 94q44 54 150 119zM434 817l-141 -682q21 -27 57 -48t72 -21q43 0 91.5 30.5t92.5 84t80.5 120t58 146.5t21.5 155q0 128 -57.5 178.5t-157.5 50.5q-49 0 -117 -14z" />
    <glyph glyph-name="q" unicode="q" horiz-adv-x="991" 
d="M852 -442l-8 -50l-475 -24l10 51l35 6q73 18 99 45.5t44 118.5l131 631h-4q-46 -60 -117.5 -130.5t-142.5 -127.5q-133 -103 -215 -103q-55 0 -93 65t-38 165q0 159 66 305.5t173 241.5q66 58 154.5 99.5t155.5 55.5q63 13 108 13q63 0 176 -31l33 -8q-51 -202 -96 -449
l-133 -713q-8 -41 -9.5 -65.5t1.5 -41.5t16.5 -25.5t30.5 -13t49 -7.5zM629 829q-90 0 -154 -45q-102 -73 -163.5 -227t-61.5 -299q0 -70 17 -107.5t44 -37.5q69 0 191.5 116.5t199.5 235.5q42 159 72 334q-58 30 -145 30z" />
    <glyph glyph-name="r" unicode="r" horiz-adv-x="749" 
d="M387 580h6q81 153 164.5 246.5t144.5 93.5q25 0 50 -15.5t39 -38.5q23 -42 -3 -86q-21 -37 -55 -61q-24 -18 -45 0q-35 35 -67 35q-42 0 -105 -88q-99 -138 -147 -252q-17 -76 -82 -400q-58 -11 -146 -37l-14 15q111 477 149 688q5 26 6.5 43.5t1 28t-3.5 14.5t-8 4
q-14 0 -58.5 -29t-86.5 -69l-29 47q76 85 160.5 143t126.5 58q77 0 25 -238z" />
    <glyph glyph-name="s" unicode="s" horiz-adv-x="690" 
d="M231 -25q-73 0 -139.5 47t-66.5 101q-3 51 59 86q35 16 51 -6q39 -59 92 -92t105 -33q60 0 98.5 36t38.5 87q0 41 -25.5 79.5t-95.5 92.5q-85 65 -131.5 122.5t-46.5 127.5q0 106 106 196q48 42 114 71.5t116 29.5q64 0 111 -36.5t47 -78.5q0 -52 -52 -86q-27 -18 -45 10
q-74 92 -159 92q-46 0 -78.5 -31.5t-32.5 -82.5t33.5 -91.5t101.5 -91.5q94 -71 132 -123t38 -116q0 -75 -58 -148t-144.5 -117.5t-168.5 -44.5z" />
    <glyph glyph-name="t" unicode="t" horiz-adv-x="628" 
d="M692 883l-53 -72l-205 -8l-119 -561q-28 -123 13 -123q25 0 84.5 39.5t97.5 79.5l31 -43q-64 -77 -161 -148.5t-171 -71.5q-26 0 -42 23.5t-20 83.5t21 164l119 555h-152l-6 18l51 64h125l47 192l154 129l20 -12l-73 -309h239z" />
    <glyph glyph-name="u" unicode="u" horiz-adv-x="1091" 
d="M1008 231l26 -47q-71 -86 -160 -147.5t-137 -61.5q-80 0 -30 218q16 70 38 180h-4q-160 -216 -329 -334q-89 -64 -166 -64q-24 0 -42 10.5t-32.5 36.5t-14 81t18.5 133q53 213 113 471q16 64 -4 67q-28 0 -144 -98l-24 51q87 86 173.5 139.5t129.5 53.5q34 0 39.5 -38
t-17.5 -141q-51 -227 -114 -491q-31 -135 24 -135q53 0 140.5 76t164 172.5t119.5 175.5q34 140 74 327l141 54h23q-104 -410 -162 -713q-13 -82 8 -82q14 0 60.5 32.5t87.5 73.5z" />
    <glyph glyph-name="v" unicode="v" horiz-adv-x="915" 
d="M449 178h4q44 54 87 112t101 143t93.5 161.5t35.5 124.5q0 57 -20 90q-13 23 0 49q9 26 33.5 44t52.5 18q37 0 62 -33t26 -84q0 -100 -125 -275q-195 -268 -426 -553h-56q-8 268 -38 637q-10 158 -37 158q-29 0 -119 -108l-35 45q61 87 130 150t116 63q39 0 59.5 -56
t28.5 -172q24 -436 27 -514z" />
    <glyph glyph-name="w" unicode="w" horiz-adv-x="1372" 
d="M936 186h4q289 396 291 527q0 52 -23 96q-11 19 0 51q11 24 35 42t49 18q39 0 63.5 -32.5t24.5 -84.5q0 -48 -21.5 -98t-62.5 -117q-48 -78 -188.5 -276t-243.5 -337h-57q-16 216 -57 637h-5q-84 -140 -391 -637h-53q-2 223 -20 660q-3 75 -9.5 105t-21.5 30
q-24 0 -123 -104l-33 41q70 92 140.5 152.5t119.5 60.5q68 0 74 -203q8 -336 6 -486h4q37 64 118.5 201.5t145 246.5t117.5 208h51q10 -96 31 -334.5t35 -366.5z" />
    <glyph glyph-name="x" unicode="x" horiz-adv-x="968" 
d="M178 664l-37 41q149 215 244 215q38 0 64.5 -50.5t66.5 -175.5l37 -112q130 189 206.5 263.5t141.5 74.5q38 0 62 -27.5t24 -61.5q-1 -35 -28 -63.5t-52 -28.5q-14 0 -30 19q-21 24 -46 24q-45 0 -124 -102q-91 -108 -132 -168l66 -205q30 -98 54 -143t48 -45
q47 0 148 119l35 -41q-70 -107 -137.5 -164.5t-122.5 -57.5q-79 0 -136 187l-63 200q-137 -216 -219 -301.5t-154 -85.5q-40 0 -67.5 29t-26.5 70q0 36 26.5 66t55.5 30q20 0 33 -20q21 -21 47 -21q42 0 110.5 77t173.5 230l-69 215q-23 72 -39 100.5t-31 28.5
q-36 0 -129 -116z" />
    <glyph glyph-name="y" unicode="y" horiz-adv-x="905" 
d="M489 154h5q141 216 194 319q82 158 82 244q-2 38 -25 96q-10 23 5 49q11 25 35.5 41.5t50.5 16.5q35 0 58 -31t24 -82q0 -86 -74 -217q-63 -115 -174.5 -288.5t-196.5 -291.5q-220 -317 -369 -481l-213 -55l-16 45q278 184 481 458q-1 118 -20.5 320.5t-42.5 347.5
q-15 127 -43 127q-13 0 -48 -34t-71 -85l-35 45q58 90 124.5 156t117.5 66q42 0 67 -58.5t39 -183.5q25 -214 45 -524z" />
    <glyph glyph-name="z" unicode="z" horiz-adv-x="856" 
d="M860 948l43 -43q-35 -43 -119 -139q-59 -66 -154.5 -166t-229 -237.5t-169.5 -174.5q60 6 156 -32q137 -50 184 -50q45 0 94.5 39t114.5 138l45 -39q-80 -159 -145.5 -222t-136.5 -63q-77 0 -273 100q-88 41 -129 11q-35 -21 -63 -72q-11 -16 -25 -16q-7 12 -10 18
t-5.5 25.5t4.5 39t27.5 52t55.5 69.5q64 69 266.5 272.5t302.5 311.5q-55 -10 -125 -4q-159 12 -194 12q-65 0 -108 -42.5t-95 -133.5l-51 27q42 99 82 164q75 120 151 120q67 0 217 -24q109 -19 164 -19q56 0 125 78z" />
    <glyph glyph-name="braceleft" unicode="{" horiz-adv-x="692" 
d="M784 1454l-4 -55q-54 -7 -92 -23t-59.5 -42.5t-32.5 -54.5t-18 -67q-13 -73 -21 -194q-13 -192 -20 -223q-16 -91 -67.5 -154t-139.5 -82l-2 -8q127 -30 127 -168q0 -42 -10.5 -87.5t-33.5 -112t-30 -91.5q-3 -14 -19.5 -71.5t-26 -102t-9.5 -78.5q0 -111 137 -129
l-14 -55q-250 0 -250 194q0 94 65 312q0 1 14 49.5t20 71.5t13.5 60t7.5 58q0 55 -38.5 86.5t-110.5 36.5l12 60q50 3 87.5 17.5t58 31t35 43.5t19.5 44.5t11 45.5q9 45 21 182q13 137 32 252q49 254 338 254z" />
    <glyph glyph-name="bar" unicode="|" horiz-adv-x="489" 
d="M336 -512h-129v2048h129v-2048z" />
    <glyph glyph-name="braceright" unicode="}" horiz-adv-x="692" 
d="M598 584l-12 -58q-50 -3 -87.5 -17.5t-58 -30t-34.5 -43.5t-18.5 -44.5t-10.5 -46.5q-9 -45 -21 -182q-15 -155 -34 -252q-46 -254 -340 -254l8 55q100 14 143 60.5t57 124.5q16 96 23 196q5 148 18 221q39 200 205 238l2 8q-66 15 -97.5 68t-25.5 131q2 33 12.5 74.5
t31 104t26.5 81.5q3 10 14.5 51t17 62t12 52.5t7.5 53.5q6 71 -25.5 111.5t-107.5 50.5l14 55q37 0 70.5 -4.5t69.5 -19t61 -38t39.5 -64.5t9.5 -95q-2 -81 -63 -285q-4 -12 -16 -53.5t-18 -62.5t-12 -50.5t-7 -48.5q-5 -60 29.5 -101.5t117.5 -47.5z" />
    <glyph glyph-name="asciitilde" unicode="~" horiz-adv-x="1153" 
d="M1032 602l76 -41q-33 -111 -99 -171t-161 -60q-45 0 -94.5 15.5t-82 32t-83.5 46.5q-111 63 -185 63q-63 0 -107.5 -41.5t-78.5 -130.5l-72 52q28 70 63.5 117t73 68t67 28.5t63.5 7.5q59 0 110.5 -17t122.5 -57q76 -43 123 -62.5t92 -19.5q61 0 101 40.5t71 129.5z" />
    <glyph glyph-name="uni00A0" unicode="&#xa0;" horiz-adv-x="468" 
 />
    <glyph glyph-name="exclamdown" unicode="&#xa1;" horiz-adv-x="528" 
d="M457 801q0 -57 -36.5 -94t-88.5 -37q-46 0 -76.5 32.5t-30.5 81.5q0 60 36 97t89 37h2q45 0 75 -33t30 -84zM315 489q-45 -447 -77 -737q-12 -127 -19 -164q-6 -33 -34 -46t-85 -13h-2q-56 0 -79 14t-19 45q6 33 45 164q35 123 103.5 367.5t103.5 367.5q7 10 32.5 10
t30.5 -8z" />
    <glyph glyph-name="cent" unicode="&#xa2;" horiz-adv-x="976" 
d="M756 1270l-33 -164q134 0 213 -66q27 -21 27 -53q0 -30 -26 -56t-50 -26q-15 0 -31 19q-64 83 -151 94l-136 -713q5 0 14 -1t13 -1q136 0 268 111l31 -45q-79 -83 -170 -129t-178 -52l-39 -198h-72l39 200q-140 11 -234 110.5t-94 264.5q0 102 42 196.5t111.5 163
t160.5 115t188 60.5l33 170h74zM498 319l135 703q-101 -2 -174.5 -60t-108.5 -149t-35 -201q0 -121 52.5 -197t130.5 -96z" />
    <glyph glyph-name="sterling" unicode="&#xa3;" horiz-adv-x="976" 
d="M778 608h-336q-19 -138 -77 -231t-158 -174q85 0 215 -62q146 -71 242 -71q116 0 129 90q6 36 -5 69q-6 21 13 47q51 54 80 54q21 0 30.5 -29.5t1.5 -69.5q-10 -58 -58.5 -120.5t-111.5 -100.5q-102 -65 -190 -65q-42 0 -96 19t-85 35.5t-96 53.5q-85 49 -131 49
q-51 0 -100 -86q-15 -24 -29 -24q-60 30 -10 94q27 39 117 121q134 125 145 401h-182l16 72h168q3 90 15 168q32 224 215 364q54 40 116.5 65.5t106.5 25.5q65 0 115 -27.5t67 -56.5q18 -34 0 -64q-10 -17 -41 -43q-29 -20 -55 6q-41 41 -79 63.5t-91 22.5q-145 0 -176 -205
q-13 -84 -17 -319h347z" />
    <glyph glyph-name="currency" unicode="&#xa4;" horiz-adv-x="976" 
d="M971 276l-86 -81l-133 151q-47 -38 -107 -58t-115 -20q-124 0 -221 78l-133 -151l-82 81l144 138q-91 108 -91 252q0 148 93 252l-146 139l82 80l133 -152q100 78 221 78h2q54 0 113.5 -20t106.5 -58l133 152l86 -80l-146 -139q90 -107 90 -252q0 -141 -90 -252zM530 963
q-108 0 -183 -83t-75 -214t75 -214t185 -83q111 0 185 83t74 214q0 132 -74.5 214.5t-186.5 82.5z" />
    <glyph glyph-name="yen" unicode="&#xa5;" horiz-adv-x="976" 
d="M1122 1276l-12 -53q-78 -9 -112.5 -32.5t-94.5 -105.5q-126 -170 -282 -417h245l-16 -70h-262l-33 -156h270l-16 -69h-268l-31 -162q-7 -37 -9.5 -57.5t2.5 -39.5t12.5 -27t31.5 -15t49 -10t74 -7l-13 -55h-516l13 55q67 5 98 10t54 24t31 43t19 79l33 162h-270l16 69
h266l29 156h-266l16 70h246q-23 114 -111 450q-17 60 -44.5 79.5t-102.5 25.5l10 53h422l-12 -53l-66 -11q-39 -5 -50.5 -18.5t-2.5 -54.5q18 -90 96 -434q181 271 264 423q24 46 15.5 63t-53.5 23l-64 9l14 53h381z" />
    <glyph glyph-name="brokenbar" unicode="&#xa6;" horiz-adv-x="489" 
d="M336 666h-129v716h129v-716zM336 -358h-129v716h129v-716z" />
    <glyph glyph-name="section" unicode="&#xa7;" horiz-adv-x="956" 
d="M866 438q0 -236 -262 -467q-170 -149 -334 -180q-86 0 -143 49q-33 26 -33 62q1 21 22 42t40 31q20 11 37 -2q81 -65 167 -65q64 0 116.5 36.5t53.5 98.5q3 90 -104 207q-32 35 -85 100t-65 78q-126 145 -126 293q0 209 227 418q160 151 332 180q51 0 89 -16.5t54 -34.5
q26 -22 22 -51q0 -21 -17 -41.5t-34 -30.5q-19 -11 -35 2q-2 1 -13.5 11t-19 15.5t-23.5 15t-30.5 14.5t-36 9.5t-44.5 4.5q-67 0 -108.5 -39t-41.5 -88q0 -67 64 -140q108 -120 167 -182q164 -167 164 -330zM373 1042l-4 2q-48 -45 -77.5 -108.5t-29.5 -134.5v-2
q0 -133 103 -248l100 -113q115 -130 145 -200q33 -72 21 -152l4 -4q106 117 106 260q0 69 -21.5 134t-86.5 140q-34 37 -104.5 120t-88.5 102q-81 93 -67 204z" />
    <glyph glyph-name="dieresis" unicode="&#xa8;" 
d="M387 1292q35 0 56.5 -25.5t21.5 -60.5q0 -46 -29.5 -79t-73.5 -33q-34 0 -56.5 23.5t-22.5 60.5q0 42 28 78t76 36zM748 1292q35 0 56 -25t21 -61q0 -46 -29 -79t-73 -33q-34 0 -57 24t-23 60q0 42 28 78t77 36z" />
    <glyph glyph-name="copyright" unicode="&#xa9;" horiz-adv-x="1419" 
d="M762 1282q173 0 314 -83t220.5 -225.5t79.5 -314.5q0 -170 -79.5 -311.5t-221 -224t-315.5 -82.5t-315.5 82.5t-220.5 224t-79 311.5q0 172 79.5 314.5t221.5 225.5t316 83zM760 1214q-147 0 -266.5 -72.5t-186.5 -198.5t-67 -281q0 -154 67 -280.5t187 -199.5t268 -73
t267.5 73t186 199.5t66.5 280.5q0 155 -66.5 281t-186.5 198.5t-269 72.5zM1028 539l45 -11q-38 -153 -51 -184q-120 -39 -217 -39q-96 0 -172.5 30t-122.5 80.5t-70 112t-24 127.5q0 164 116 262.5t281 98.5q122 0 215 -35q16 -109 23 -186l-43 -7q-35 86 -83 127t-124 41
q-110 0 -173 -79.5t-63 -206.5q0 -134 68.5 -218.5t171.5 -84.5q79 0 131.5 43.5t91.5 128.5z" />
    <glyph glyph-name="ordfeminine" unicode="&#xaa;" horiz-adv-x="677" 
d="M696 727l17 -41q-50 -55 -109.5 -93t-87.5 -38q-56 0 -35 104l25 111h-6q-74 -90 -166 -156q-80 -59 -125 -59q-29 0 -51.5 31t-22.5 106q0 93 42 185.5t102 146.5q49 43 124 74.5t140 31.5h2q28 0 69 -8q24 -8 70 -8q-61 -269 -80 -389q-7 -57 4 -57q26 0 88 59z
M475 1061q-36 0 -67 -17q-52 -23 -95 -110q-21 -46 -34 -103t-13 -100q0 -67 29 -67q16 0 50.5 22t68.5 59q49 49 94 119q14 23 30 84t19 96q-27 17 -82 17z" />
    <glyph glyph-name="guillemotleft" unicode="&#xab;" horiz-adv-x="913" 
d="M506 793l-219 -340l149 -342l-47 -31q-176 255 -274 373q120 110 348 372zM840 793l-222 -340l152 -342l-49 -31q-186 270 -275 373q119 109 351 372z" />
    <glyph glyph-name="logicalnot" unicode="&#xac;" horiz-adv-x="1220" 
d="M1104 199h-117v452h-860v103h977v-555z" />
    <glyph glyph-name="uni00AD" unicode="&#xad;" horiz-adv-x="684" 
d="M610 518l-37 -112h-471l37 112h471z" />
    <glyph glyph-name="registered" unicode="&#xae;" horiz-adv-x="641" 
d="M410 1354q112 0 188 -78t76 -186q0 -107 -76.5 -185t-189.5 -78t-189 75.5t-76 187.5q0 107 78 185.5t189 78.5zM408 1307q-88 0 -146.5 -62.5t-58.5 -154.5t59.5 -154t147.5 -62t147 62t59 154q0 91 -59.5 154t-148.5 63zM559 973l-6 -25q-37 0 -59.5 9t-40.5 34
q-33 52 -39 62q-9 14 -25 14h-8v-47q0 -27 5.5 -32t31.5 -7v-31h-137v31q28 2 33 6.5t5 32.5v141q0 27 -4.5 32t-31.5 7v31h139q41 0 69.5 -17t28.5 -57q0 -50 -55 -70q25 -47 67 -94q13 -13 27 -20zM381 1176v-74h16q19 0 35 8q23 16 23 41q0 27 -15.5 38t-33.5 11
q-14 0 -19.5 -5t-5.5 -19z" />
    <glyph glyph-name="macron" unicode="&#xaf;" 
d="M774 1225l-24 -105h-459l26 105h457z" />
    <glyph glyph-name="degree" unicode="&#xb0;" horiz-adv-x="716" 
d="M485 1360q117 0 194 -72.5t77 -195.5q0 -131 -88.5 -212t-218.5 -81q-118 0 -194.5 71.5t-76.5 192.5q0 127 90 212t217 85zM477 1278q-77 0 -129.5 -60t-52.5 -155q0 -78 44.5 -130t117.5 -52q84 0 134 59t50 145q0 85 -44 139t-120 54z" />
    <glyph glyph-name="plusminus" unicode="&#xb1;" horiz-adv-x="1220" 
d="M1116 637h-438v-418h-117v418h-440v102h440v391h117v-391h438v-102zM1116 0h-995v102h995v-102z" />
    <glyph glyph-name="twosuperior" unicode="&#xb2;" horiz-adv-x="667" 
d="M633 999l43 -18q-26 -52 -80 -170h-496l9 37q132 97 239 192q56 49 92.5 87.5t68.5 93t32 102.5q0 57 -29.5 90t-91.5 33q-28 0 -53.5 -10t-48.5 -29.5t-38 -36t-36 -41.5l-35 35l80 100q76 82 190 82q84 0 143.5 -53t59.5 -145q0 -26 -7.5 -51.5t-17 -46t-30 -45.5
t-34 -40t-42.5 -40t-42.5 -35t-46.5 -35.5t-42 -32.5l-125 -100v-4h188q55 0 83 14.5t67 66.5z" />
    <glyph glyph-name="threesuperior" unicode="&#xb3;" horiz-adv-x="667" 
d="M522 1247v-4q57 -13 99.5 -56t42.5 -104q0 -143 -175 -231q-97 -53 -184 -53q-48 0 -88.5 16.5t-56.5 34.5q-25 25 -13 53q4 14 16.5 28t24.5 21q22 15 43 -6q78 -69 152 -69q59 0 100 41.5t41 111.5t-38.5 104.5t-98.5 34.5q-42 0 -78 -12l-12 49q99 21 162 65t63 101
q0 41 -25 63.5t-71 22.5q-82 0 -154 -96l-34 33l63 75q65 76 178 76h2q72 0 124 -40t52 -111q0 -27 -12 -50.5t-34.5 -42t-42 -30.5t-46.5 -25z" />
    <glyph glyph-name="acute" unicode="&#xb4;" 
d="M782 1354l-317 -348l-47 32q46 72 108 178t80 142q24 6 86.5 14t83.5 4z" />
    <glyph glyph-name="mu" unicode="&#xb5;" horiz-adv-x="1046" 
d="M956 231l29 -47q-74 -87 -161.5 -148t-135.5 -61q-81 0 -31 218q6 30 18 84t19 90h-4q-158 -222 -284 -326q-78 -66 -144 -66q-62 0 -86 91h-4q-44 -165 -39 -302q3 -74 22.5 -133.5t43.5 -81.5l2 -14q-14 -23 -47.5 -43t-71.5 -20q-35 0 -58 38t-20 109q4 93 74 410
q31 137 74.5 329.5t71.5 317t44 198.5l148 44l14 -11q-98 -406 -145 -626q-16 -82 -2.5 -126t49.5 -44q48 0 129.5 77.5t151.5 172.5t112 174q32 135 74 331l141 54h23q-96 -379 -160 -715q-13 -80 8 -80q14 0 59.5 33t85.5 73z" />
    <glyph glyph-name="paragraph" unicode="&#xb6;" horiz-adv-x="999" 
d="M1090 1098l-72 -51l-168 -21l-188 -969q-24 -129 -72 -223t-133 -168q-48 -40 -106.5 -66t-84.5 -26q-39 0 -73.5 14.5t-53.5 34.5q-29 29 -14 60q8 32 45 55q18 18 41 2q62 -47 129 -47q35 0 61.5 12t55 47.5t53.5 108t47 184.5l51 268l-133 -55q-12 -6 -37 -6
q-106 0 -189 106t-83 254q0 149 78 268t200.5 181.5t260.5 62.5h380z" />
    <glyph glyph-name="periodcentered" unicode="&#xb7;" horiz-adv-x="481" 
d="M246 352q-44 0 -72.5 31t-28.5 78q0 56 34.5 92.5t86.5 36.5q44 0 72.5 -31.5t28.5 -79.5q0 -58 -36 -92.5t-85 -34.5z" />
    <glyph glyph-name="cedilla" unicode="&#xb8;" 
d="M416 0l-43 -51q-22 -28 -22.5 -42.5t22.5 -41.5q64 -75 61 -135q-4 -59 -74 -115.5t-174 -87.5l-24 55q138 63 141 123q2 28 -37 76q-33 36 -36 59.5t24 59.5l84 100h78z" />
    <glyph glyph-name="onesuperior" unicode="&#xb9;" horiz-adv-x="667" 
d="M588 858l-13 -47h-389l13 47q80 6 105.5 24.5t39.5 92.5l72 368q6 33 7.5 48.5t-6.5 25.5t-19 13t-40 6l-57 4l10 43q135 18 273 63l-111 -571q-5 -26 -6 -43t4 -30t11 -20t23.5 -12t33.5 -7t49 -5z" />
    <glyph glyph-name="ordmasculine" unicode="&#xba;" horiz-adv-x="643" 
d="M485 1130q86 0 137.5 -55t51.5 -153q0 -82 -34.5 -160.5t-98.5 -130.5q-46 -35 -99.5 -55.5t-95.5 -20.5q-94 0 -144 59.5t-50 149.5q0 107 52 193t130 130q73 43 151 43zM444 1071q-21 0 -41 -10q-45 -18 -82.5 -93t-37.5 -196q0 -72 25.5 -113t74.5 -41q23 0 41 9
q45 15 84.5 102.5t38.5 204.5q-2 65 -29 101t-74 36z" />
    <glyph glyph-name="guillemotright" unicode="&#xbb;" horiz-adv-x="913" 
d="M195 795l49 30q195 -280 272 -372q-130 -123 -348 -373l-43 33l221 340zM528 795l47 30q180 -258 275 -372q-116 -106 -348 -373l-45 33l223 340z" />
    <glyph glyph-name="onequarter" unicode="&#xbc;" horiz-adv-x="1529" 
d="M1358 1292l-1032 -1347l-56 51l1030 1343zM559 614l-10 -47h-393l12 47q80 8 105.5 26.5t39.5 90.5l72 371q11 62 2.5 73.5t-59.5 16.5l-58 4l11 45q116 13 274 59l-111 -569q-5 -26 -6.5 -43t3.5 -30t10.5 -19.5t24.5 -11.5t34 -7t49 -6zM1356 272l-13 -71h-118l-11 -51
q-5 -23 -6 -38.5t3 -26.5t9 -17.5t20 -11t28.5 -6.5t40.5 -5l-9 -45h-362l10 45q85 8 109 23.5t35 81.5l10 51h-332l10 47q219 245 461 487h86l-90 -463h119zM1180 592h-4q-31 -34 -285 -320h225z" />
    <glyph glyph-name="onehalf" unicode="&#xbd;" horiz-adv-x="1515" 
d="M1329 1292l-1030 -1345l-55 49l1028 1343zM547 614l-12 -47h-392l13 47q82 8 107 26.5t38 90.5l72 371q11 62 2.5 73.5t-60.5 16.5l-57 4l12 45q116 14 273 59l-111 -569q-5 -26 -6.5 -43t3.5 -30t10.5 -19.5t24.5 -11.5t34 -7t49 -6zM1346 188l40 -18q-14 -28 -79 -170
h-496l8 37q138 102 240 192q37 34 55.5 51.5t49.5 51t46.5 58.5t28 58t12.5 64q0 57 -30.5 90t-92.5 33q-26 0 -50.5 -9.5t-49 -30.5t-37.5 -34t-37 -41l-34 33l79 100q76 82 197 82q80 0 138.5 -54t58.5 -146q0 -25 -7.5 -50.5t-17.5 -46t-30 -45t-34 -40t-42.5 -39.5
t-43 -35t-46.5 -35.5t-42 -32.5l-124 -100v-5h188q55 0 83 15t69 67z" />
    <glyph glyph-name="threequarters" unicode="&#xbe;" horiz-adv-x="1515" 
d="M1380 1292l-1030 -1347l-55 51l1028 1343zM297 1116l-37 33l64 76q64 75 178 75h2q71 0 123.5 -40t52.5 -111q0 -82 -135 -148v-4q57 -14 99 -55t42 -104q0 -145 -170 -232q-100 -53 -188 -53q-47 0 -87 16t-57 33q-26 29 -14 53q9 31 41 54q22 12 43 -9q80 -71 152 -71
q58 0 99.5 42.5t41.5 112.5t-39 106t-100 36q-46 0 -76 -15l-13 50q100 22 163 65t63 100q0 41 -25 63.5t-71 22.5q-83 0 -152 -96zM1374 272l-12 -71h-119l-10 -51q-13 -65 4 -81t90 -24l-8 -45h-361l9 45q85 8 108 24t35 81l10 51h-332l11 47q202 226 461 485h86l-91 -461
h119zM1198 590h-4q-176 -195 -283 -318h224z" />
    <glyph glyph-name="questiondown" unicode="&#xbf;" horiz-adv-x="733" 
d="M475 918q46 0 75.5 -32.5t29.5 -82.5q0 -59 -36.5 -96t-88.5 -37q-46 0 -76.5 32t-30.5 82q0 60 36.5 97t90.5 37zM338 455l37 43q70 -38 126 -102.5t56 -133.5q0 -74 -58 -135.5t-161 -126.5q-44 -26 -67.5 -40t-64 -42.5t-62 -50t-39 -50.5t-17.5 -55q0 -47 31.5 -74.5
t83.5 -27.5q47 -1 90.5 15t69 35.5t47 35.5t28.5 16q23 0 46.5 -25.5t23.5 -55.5q-3 -42 -57 -82q-47 -32 -101.5 -50t-87.5 -18h-2q-109 0 -190.5 89.5t-81.5 209.5q0 70 32.5 121.5t104.5 97.5q22 15 60 39.5t56.5 37t47.5 32.5t43 32t32 29.5t26 31.5t14 30.5t6 33.5
q0 71 -72 140z" />
    <glyph glyph-name="Agrave" unicode="&#xc0;" horiz-adv-x="1359" 
d="M1272 55l-15 -55h-483l14 55q71 7 101 19t38 37.5t-1 68.5q-7 49 -26.5 157.5t-25.5 145.5h-428q-81 -153 -141 -278q-44 -92 -25.5 -116.5t136.5 -33.5l-13 -55h-440l14 55q53 7 78.5 13t54.5 28t51 55t60 101l615 1091l63 17l57 -365q53 -341 131 -762
q10 -60 18.5 -88.5t29.5 -49.5t49.5 -27.5t87.5 -12.5zM862 569l-82 529h-4q-199 -363 -284 -529h370zM965 1452l-29 -51l-385 129l-4 16q7 24 37 66t49 49q39 -25 155.5 -97t176.5 -112z" />
    <glyph glyph-name="Aacute" unicode="&#xc1;" horiz-adv-x="1359" 
d="M1272 55l-15 -55h-483l14 55q71 7 101 19t38 37.5t-1 68.5q-7 49 -26.5 157.5t-25.5 145.5h-428q-81 -153 -141 -278q-44 -92 -25.5 -116.5t136.5 -33.5l-13 -55h-440l14 55q53 7 78.5 13t54.5 28t51 55t60 101l615 1091l63 17l57 -365q53 -341 131 -762
q10 -60 18.5 -88.5t29.5 -49.5t49.5 -27.5t87.5 -12.5zM862 569l-82 529h-4q-199 -363 -284 -529h370zM1167 1546l-4 -16l-383 -129l-26 51q67 41 189 118.5t140 88.5q19 -4 49 -46t35 -67z" />
    <glyph glyph-name="Acircumflex" unicode="&#xc2;" horiz-adv-x="1359" 
d="M1272 55l-15 -55h-483l14 55q71 7 101 19t38 37.5t-1 68.5q-7 49 -26.5 157.5t-25.5 145.5h-428q-81 -153 -141 -278q-44 -92 -25.5 -116.5t136.5 -33.5l-13 -55h-440l14 55q53 7 78.5 13t54.5 28t51 55t60 101l615 1091l63 17l57 -365q53 -341 131 -762
q10 -60 18.5 -88.5t29.5 -49.5t49.5 -27.5t87.5 -12.5zM862 569l-82 529h-4q-199 -363 -284 -529h370zM1143 1446l-37 -45q-93 39 -219 119q-158 -85 -258 -119l-27 45q146 92 279 213h51q88 -109 211 -213z" />
    <glyph glyph-name="Atilde" unicode="&#xc3;" horiz-adv-x="1359" 
d="M1272 55l-15 -55h-483l14 55q71 7 101 19t38 37.5t-1 68.5q-7 49 -26.5 157.5t-25.5 145.5h-428q-81 -153 -141 -278q-44 -92 -25.5 -116.5t136.5 -33.5l-13 -55h-440l14 55q53 7 78.5 13t54.5 28t51 55t60 101l615 1091l63 17l57 -365q53 -341 131 -762
q10 -60 18.5 -88.5t29.5 -49.5t49.5 -27.5t87.5 -12.5zM862 569l-82 529h-4q-199 -363 -284 -529h370zM1100 1622l51 -33q-32 -89 -75.5 -126.5t-88.5 -37.5q-13 0 -25.5 2t-29 8.5t-24.5 9.5t-32 14t-30 14q-58 24 -84 24q-50 0 -96 -90l-50 39q34 86 76.5 124t85.5 40
q44 0 123 -39q71 -33 105 -33q27 0 48 20t46 64z" />
    <glyph glyph-name="Adieresis" unicode="&#xc4;" horiz-adv-x="1359" 
d="M1272 55l-15 -55h-483l14 55q71 7 101 19t38 37.5t-1 68.5q-7 49 -26.5 157.5t-25.5 145.5h-428q-81 -153 -141 -278q-44 -92 -25.5 -116.5t136.5 -33.5l-13 -55h-440l14 55q53 7 78.5 13t54.5 28t51 55t60 101l615 1091l63 17l57 -365q53 -341 131 -762
q10 -60 18.5 -88.5t29.5 -49.5t49.5 -27.5t87.5 -12.5zM862 569l-82 529h-4q-199 -363 -284 -529h370zM696 1616q37 0 57.5 -25t20.5 -61q0 -47 -29 -80t-73 -33q-34 0 -57 24t-23 60q0 43 28.5 79t75.5 36zM1075 1616q37 0 57.5 -25t20.5 -61q0 -47 -29 -80t-73 -33
q-34 0 -57 24t-23 60q0 43 28.5 79t75.5 36z" />
    <glyph glyph-name="Aring" unicode="&#xc5;" horiz-adv-x="1359" 
d="M1270 55l-15 -55h-483l14 55q72 7 102 19t37.5 37.5t-1.5 68.5q-6 44 -23.5 144.5t-26.5 158.5h-428q-102 -192 -143 -278q-16 -33 -23.5 -53t-8 -37.5t6 -26.5t26 -16t44.5 -10.5t68 -6.5l-13 -55h-442l16 55q53 7 78 13t53.5 28t50.5 55t60 101l615 1091l63 17l59 -365
q42 -268 129 -762q20 -112 48.5 -140t136.5 -38zM860 569l-82 529h-4q-235 -436 -282 -529h368zM1065 1585q-1 -79 -59.5 -127.5t-135.5 -48.5q-72 0 -117.5 45.5t-43.5 114.5q3 83 59 133.5t133 50.5q70 0 118.5 -46.5t45.5 -121.5zM973 1589q2 43 -19 71t-59 28
q-39 0 -65.5 -32.5t-28.5 -80.5q-2 -42 19.5 -69t58.5 -27q39 0 66 30.5t28 79.5z" />
    <glyph glyph-name="AE" unicode="&#xc6;" horiz-adv-x="1769" 
d="M1741 1022l-60 -6q0 130 -28 180q-15 38 -56 51t-153 13h-154q-51 0 -63 -11t-21 -67l-96 -496h199q47 0 75.5 1.5t53.5 8.5t38 15t27 28t22.5 40t22.5 59h60l-78 -392h-60q1 43 0.5 63t-7 42.5t-16 29.5t-32.5 15t-50.5 9t-76.5 1h-192l-58 -319q-17 -88 -14 -129
t25 -60q22 -18 67 -23t141 -5q116 0 170.5 13t96.5 54q61 56 137 193l57 -19q-4 -11 -56 -143t-69 -168h-962l12 53q48 5 72.5 8t51 12t37.5 19.5t24 34t19.5 50t16.5 73.5l70 356h-356q-215 -313 -277 -424q-38 -63 -29 -85t74 -31l64 -11l-13 -55h-473l13 55q53 7 81 13.5
t59.5 24t57 46t64.5 80.5q139 188 387.5 541t294.5 418q32 46 22 61t-76 21l-108 12l18 57h1039q-7 -69 -35 -307zM631 686h317l115 571q-27 0 -59 -30q-149 -209 -373 -541z" />
    <glyph glyph-name="Ccedilla" unicode="&#xc7;" horiz-adv-x="1304" 
d="M631 -104l61 75q-244 6 -398.5 161.5t-154.5 420.5q0 231 108 415t303.5 288t442.5 104q35 0 68.5 -2t64.5 -6.5t55 -8.5t51.5 -11t41.5 -10.5t38 -10.5t27 -8q-2 -31 -6.5 -147.5t-9.5 -174.5l-61 -6q-5 92 -29 154.5t-66.5 97t-95.5 49t-125 14.5q-108 0 -204.5 -38.5
t-169.5 -107t-126 -159.5t-80.5 -198.5t-27.5 -221.5q0 -237 105 -380.5t292 -143.5q78 0 144 23t122 70.5t99.5 101t93.5 131.5l53 -25q-28 -75 -75 -173t-80 -149q-5 -1 -38.5 -9t-57.5 -12.5t-63 -11.5t-81 -11t-86 -5l-23 -24q-22 -30 -22 -45.5t24 -42.5
q67 -78 64 -140q-3 -61 -74.5 -118t-181.5 -88l-21 53q73 33 110 62t38 63q1 10 -1 19t-7.5 18.5t-8 13.5t-12 16t-10.5 13q-35 39 -37.5 63t27.5 62z" />
    <glyph glyph-name="Egrave" unicode="&#xc8;" horiz-adv-x="1144" 
d="M262 1329h891q-10 -60 -39 -313l-59 -4q0 132 -27 180q-11 26 -27 39t-57 21t-115 8h-159q-52 0 -64.5 -12.5t-23.5 -71.5l-86 -443h198q55 0 85.5 3.5t55 10t39.5 26t25.5 42t26.5 68.5h59l-76 -389h-59q1 34 1 49t-2 36.5t-5.5 29t-12.5 19t-20.5 14t-32 6.5t-43.5 4.5
t-59 0.5h-195l-67 -358q-17 -89 -15.5 -133.5t23.5 -63.5q22 -18 67 -23t140 -5q115 0 171 14.5t99 54.5q51 49 137 197l58 -21q-7 -17 -34.5 -87.5t-54 -135t-40.5 -92.5h-959l12 55q47 4 72 7t50 12t36.5 19t23.5 33t18.5 49t14.5 71l164 839q9 46 12.5 70.5t0 48t-11 33
t-29.5 18.5t-47 12t-72 7zM899 1452l-29 -51l-387 129l-4 16q6 23 37 65.5t49 49.5q39 -25 107 -67t123.5 -76.5t103.5 -65.5z" />
    <glyph glyph-name="Eacute" unicode="&#xc9;" horiz-adv-x="1144" 
d="M262 1329h891q-10 -60 -39 -313l-59 -4q0 132 -27 180q-11 26 -27 39t-57 21t-115 8h-159q-52 0 -64.5 -12.5t-23.5 -71.5l-86 -443h198q55 0 85.5 3.5t55 10t39.5 26t25.5 42t26.5 68.5h59l-76 -389h-59q1 34 1 49t-2 36.5t-5.5 29t-12.5 19t-20.5 14t-32 6.5t-43.5 4.5
t-59 0.5h-195l-67 -358q-17 -89 -15.5 -133.5t23.5 -63.5q22 -18 67 -23t140 -5q115 0 171 14.5t99 54.5q51 49 137 197l58 -21q-7 -17 -34.5 -87.5t-54 -135t-40.5 -92.5h-959l12 55q47 4 72 7t50 12t36.5 19t23.5 33t18.5 49t14.5 71l164 839q9 46 12.5 70.5t0 48t-11 33
t-29.5 18.5t-47 12t-72 7zM1051 1546l-4 -16l-385 -129l-27 51q16 10 330 207q19 -4 50 -46t36 -67z" />
    <glyph glyph-name="Ecircumflex" unicode="&#xca;" horiz-adv-x="1144" 
d="M262 1329h891q-10 -60 -39 -313l-59 -4q0 132 -27 180q-11 26 -27 39t-57 21t-115 8h-159q-52 0 -64.5 -12.5t-23.5 -71.5l-86 -443h198q55 0 85.5 3.5t55 10t39.5 26t25.5 42t26.5 68.5h59l-76 -389h-59q1 34 1 49t-2 36.5t-5.5 29t-12.5 19t-20.5 14t-32 6.5t-43.5 4.5
t-59 0.5h-195l-67 -358q-17 -89 -15.5 -133.5t23.5 -63.5q22 -18 67 -23t140 -5q115 0 171 14.5t99 54.5q51 49 137 197l58 -21q-7 -17 -34.5 -87.5t-54 -135t-40.5 -92.5h-959l12 55q47 4 72 7t50 12t36.5 19t23.5 33t18.5 49t14.5 71l164 839q9 46 12.5 70.5t0 48t-11 33
t-29.5 18.5t-47 12t-72 7zM1034 1446l-39 -45q-86 36 -219 117q-152 -81 -258 -117l-26 45q161 101 278 213h51q92 -111 213 -213z" />
    <glyph glyph-name="Edieresis" unicode="&#xcb;" horiz-adv-x="1144" 
d="M262 1329h891q-10 -60 -39 -313l-59 -4q-3 132 -27 180q-13 26 -28.5 39t-56 21t-114.5 8h-159q-52 0 -64.5 -12.5t-23.5 -71.5l-86 -443h196q40 0 65 1.5t47.5 4t36.5 11t26 17t22 28t17.5 37.5t19.5 51h59l-76 -389h-59q1 34 1 49t-2 36.5t-5.5 29t-12.5 19t-20.5 14
t-32 6.5t-43.5 4.5t-59 0.5h-195l-69 -358q-15 -89 -13 -134t23 -63q22 -18 67 -23t140 -5q114 0 170.5 14.5t99.5 54.5q51 49 137 197l58 -21q-2 -6 -57 -142t-72 -173h-959l12 55q47 4 72 7t50 12t36.5 19t23.5 33t18.5 49t14.5 71l164 839q9 46 12.5 70.5t0 48t-11 33
t-29.5 18.5t-47 12t-72 7zM602 1616q35 0 55.5 -25t20.5 -61q0 -47 -29 -80t-74 -33q-34 0 -56.5 23t-22.5 61q0 43 28.5 79t77.5 36zM981 1616q37 0 57.5 -25t20.5 -61q0 -46 -29.5 -79.5t-73.5 -33.5q-36 0 -59 23t-23 61q0 43 29 79t78 36z" />
    <glyph glyph-name="Igrave" unicode="&#xcc;" horiz-adv-x="686" 
d="M778 1329l-12 -55q-45 -4 -69.5 -7t-47.5 -12t-33 -17.5t-21 -31t-16 -44t-14 -64.5l-164 -860q-8 -43 -11.5 -68t0 -47t11.5 -31.5t30 -18.5t47.5 -12t72.5 -6l-12 -55h-525l15 55q44 3 69 6.5t48 12t33.5 18.5t21.5 32.5t16.5 46t13.5 67.5l168 860q8 42 11 65.5
t-1 44.5t-12 30t-31.5 17.5t-48.5 11.5t-73 7l12 55h522zM674 1452l-29 -51l-385 129l-4 16q7 24 37 66t49 49q39 -25 155.5 -97t176.5 -112z" />
    <glyph glyph-name="Iacute" unicode="&#xcd;" horiz-adv-x="686" 
d="M778 1329l-12 -55q-45 -4 -69.5 -7t-47.5 -12t-33 -17.5t-21 -31t-16 -44t-14 -64.5l-164 -860q-8 -43 -11.5 -68t0 -47t11.5 -31.5t30 -18.5t47.5 -12t72.5 -6l-12 -55h-525l15 55q44 3 69 6.5t48 12t33.5 18.5t21.5 32.5t16.5 46t13.5 67.5l168 860q8 42 11 65.5
t-1 44.5t-12 30t-31.5 17.5t-48.5 11.5t-73 7l12 55h522zM815 1546l-4 -16l-383 -129l-27 51q16 10 330 207q19 -4 49 -46t35 -67z" />
    <glyph glyph-name="Icircumflex" unicode="&#xce;" horiz-adv-x="686" 
d="M778 1329l-12 -55q-45 -4 -69.5 -7t-47.5 -12t-33 -17.5t-21 -31t-16 -44t-14 -64.5l-164 -860q-8 -43 -11.5 -68t0 -47t11.5 -31.5t30 -18.5t47.5 -12t72.5 -6l-12 -55h-525l15 55q44 3 69 6.5t48 12t33.5 18.5t21.5 32.5t16.5 46t13.5 67.5l168 860q8 42 11 65.5
t-1 44.5t-12 30t-31.5 17.5t-48.5 11.5t-73 7l12 55h522zM799 1446l-37 -45q-93 39 -219 119q-158 -85 -258 -119l-27 45q146 92 279 213h51q88 -109 211 -213z" />
    <glyph glyph-name="Idieresis" unicode="&#xcf;" horiz-adv-x="686" 
d="M778 1329l-12 -55q-45 -4 -69.5 -7t-47.5 -12t-33 -17.5t-21 -31t-16 -44t-14 -64.5l-164 -860q-8 -43 -11.5 -68t0 -47t11.5 -31.5t30 -18.5t47.5 -12t72.5 -6l-12 -55h-525l15 55q44 3 69 6.5t48 12t33.5 18.5t21.5 32.5t16.5 46t13.5 67.5l168 860q8 42 11 65.5
t-1 44.5t-12 30t-31.5 17.5t-48.5 11.5t-73 7l12 55h522zM360 1616q37 0 57.5 -25t20.5 -61q0 -47 -29 -80t-73 -33q-34 0 -57 24t-23 60q0 43 28.5 79t75.5 36zM741 1616q37 0 57.5 -25t20.5 -61q0 -47 -29 -80t-73 -33q-34 0 -57 24t-23 60q0 43 28.5 79t75.5 36z" />
    <glyph glyph-name="Eth" unicode="&#xd0;" horiz-adv-x="1472" 
d="M283 1329h510q148 0 265 -31.5t205 -96t135.5 -171.5t47.5 -250q0 -191 -90 -356t-250 -270q-133 -84 -282 -119t-349 -35h-440l16 55q45 5 67.5 8t46.5 11.5t34 18t22 32t18 47.5t15 70l80 415h-225l18 76h221l68 344q7 36 10.5 58.5t3 44t-1.5 32.5t-11.5 22.5t-19 16
t-31.5 10t-40.5 7.5t-55.5 6zM500 657l-70 -378q-16 -89 -11.5 -125t36.5 -54q48 -26 139 -26q135 1 246.5 43t186.5 112t126.5 163.5t74.5 194.5t23 208q0 77 -14 143.5t-48 127t-86 103t-132 68t-183 25.5q-105 0 -145 -19q-19 -9 -29 -26t-16 -54l-82 -430h318l-17 -76
h-317z" />
    <glyph glyph-name="Ntilde" unicode="&#xd1;" horiz-adv-x="1443" 
d="M1569 1329l-13 -55q-89 -4 -123 -31t-55 -98q-34 -107 -78 -348l-155 -813h-62l-606 1085h-6l-106 -545q-48 -240 -54 -346q-3 -69 31.5 -92.5t142.5 -32.5l-12 -53h-469l14 53q83 6 122 31t59 90q32 102 84 354l106 506q16 79 13 110.5t-25 67.5q-19 32 -53.5 45
t-118.5 17l12 55h293l604 -1042h8l95 510q47 243 55 352q4 70 -30 93.5t-148 31.5l14 55h461zM1128 1612l52 -33q-32 -89 -75.5 -126.5t-88.5 -37.5q-20 0 -46.5 8t-39.5 14t-53 25q-60 25 -84 25q-52 0 -99 -90l-49 37q63 163 164 163q42 0 121 -36q6 -2 20 -8.5t19.5 -8.5
l16.5 -6t17.5 -5.5t14.5 -3t16 -1.5q28 0 48.5 19.5t45.5 64.5z" />
    <glyph glyph-name="Ograve" unicode="&#xd2;" horiz-adv-x="1449" 
d="M881 1360q244 0 394 -163t150 -423q0 -161 -56 -308.5t-153.5 -257t-237.5 -174.5t-300 -65q-242 0 -392.5 161.5t-150.5 420.5q0 159 57 307t155 258.5t237.5 177t296.5 66.5zM864 1290q-116 0 -218.5 -68t-170 -177t-106.5 -243.5t-39 -269.5q0 -105 22 -193.5t66 -156
t115 -105.5t163 -38q99 0 186.5 46t150 123t108 175t68 203.5t22.5 208.5q0 106 -20 193t-62.5 156t-115 107.5t-169.5 38.5zM1057 1470l-29 -51l-385 129l-4 17q7 24 37 65.5t49 48.5q39 -25 155.5 -97t176.5 -112z" />
    <glyph glyph-name="Oacute" unicode="&#xd3;" horiz-adv-x="1449" 
d="M881 1360q244 0 394 -163t150 -423q0 -161 -56 -308.5t-153.5 -257t-237.5 -174.5t-300 -65q-242 0 -392.5 161.5t-150.5 420.5q0 159 57 307t155 258.5t237.5 177t296.5 66.5zM864 1290q-116 0 -218.5 -68t-170 -177t-106.5 -243.5t-39 -269.5q0 -105 22 -193.5t66 -156
t115 -105.5t163 -38q99 0 186.5 46t150 123t108 175t68 203.5t22.5 208.5q0 106 -20 193t-62.5 156t-115 107.5t-169.5 38.5zM1143 1565l-4 -17l-383 -129l-27 51q16 10 330 207q19 -4 49 -45.5t35 -66.5z" />
    <glyph glyph-name="Ocircumflex" unicode="&#xd4;" horiz-adv-x="1449" 
d="M881 1360q244 0 394 -163t150 -423q0 -161 -56 -308.5t-153.5 -257t-237.5 -174.5t-300 -65q-242 0 -392.5 161.5t-150.5 420.5q0 159 57 307t155 258.5t237.5 177t296.5 66.5zM864 1290q-116 0 -218.5 -68t-170 -177t-106.5 -243.5t-39 -269.5q0 -105 22 -193.5t66 -156
t115 -105.5t163 -38q99 0 186.5 46t150 123t108 175t68 203.5t22.5 208.5q0 106 -20 193t-62.5 156t-115 107.5t-169.5 38.5zM1155 1464l-37 -45q-93 39 -219 119q-158 -85 -258 -119l-27 45q146 92 279 213h51q88 -109 211 -213z" />
    <glyph glyph-name="Otilde" unicode="&#xd5;" horiz-adv-x="1449" 
d="M881 1360q244 0 394 -163t150 -423q0 -161 -56 -308.5t-153.5 -257t-237.5 -174.5t-300 -65q-242 0 -392.5 161.5t-150.5 420.5q0 159 57 307t155 258.5t237.5 177t296.5 66.5zM864 1290q-116 0 -218.5 -68t-170 -177t-106.5 -243.5t-39 -269.5q0 -105 22 -193.5t66 -156
t115 -105.5t163 -38q99 0 186.5 46t150 123t108 175t68 203.5t22.5 208.5q0 106 -20 193t-62.5 156t-115 107.5t-169.5 38.5zM1120 1640l49 -32q-32 -89 -75.5 -126.5t-87.5 -37.5q-20 0 -46 8t-41 14.5t-53 24.5q-60 25 -84 25q-52 0 -98 -91l-49 37q67 166 164 162
q40 0 123 -35q6 -2 20 -8.5t19.5 -8.5l16.5 -6t17.5 -5.5t14.5 -3t16 -1.5q27 0 48 20t46 64z" />
    <glyph glyph-name="Odieresis" unicode="&#xd6;" horiz-adv-x="1449" 
d="M879 1360q246 0 396 -163t150 -423q0 -161 -56 -308.5t-153.5 -257t-237.5 -174.5t-300 -65q-242 0 -392.5 161.5t-150.5 420.5q0 213 96 398t268.5 298t379.5 113zM864 1290q-116 0 -218.5 -68t-170 -177t-106.5 -243.5t-39 -269.5q0 -105 22 -193.5t66 -156t115 -105.5
t163 -38q99 0 186.5 46t150 123t108 175t68 203.5t22.5 208.5q0 106 -20 193t-62.5 156t-115 107.5t-169.5 38.5zM717 1634q35 0 56.5 -25.5t21.5 -60.5q0 -46 -29.5 -79t-73.5 -33q-34 0 -57 24t-23 60q0 43 28 78.5t77 35.5zM1098 1634q37 0 57.5 -25t20.5 -61
q0 -46 -29.5 -79t-73.5 -33q-34 0 -57 24t-23 60q0 42 28.5 78t76.5 36z" />
    <glyph glyph-name="multiply" unicode="&#xd7;" horiz-adv-x="1220" 
d="M1098 96l-76 -78l-399 408l-398 -408l-73 78l395 408l-395 403l73 78l398 -405l399 409l76 -76l-400 -409z" />
    <glyph glyph-name="Oslash" unicode="&#xd8;" horiz-adv-x="1449" 
d="M1290 1419l58 -45l-105 -143q87 -79 134.5 -197t47.5 -260q0 -164 -57 -312t-155.5 -256.5t-239.5 -172.5t-301 -64q-164 0 -291 82l-105 -139l-53 51l99 133q-88 78 -137.5 196t-49.5 257q0 159 57.5 307.5t156 259.5t238.5 177.5t296 66.5q175 0 303 -84zM408 211
l708 969q-76 108 -248 108q-96 0 -183 -44t-151 -119t-111 -171t-71 -203t-24 -212q0 -210 80 -328zM1159 1114l-706 -967q86 -108 241 -108q123 0 227.5 69.5t171 179.5t103.5 241t37 259q0 206 -74 326z" />
    <glyph glyph-name="Ugrave" unicode="&#xd9;" horiz-adv-x="1447" 
d="M1583 1329l-12 -55q-97 -4 -130.5 -27.5t-49.5 -83.5q-35 -124 -82 -368l-33 -158q-36 -184 -91 -315t-151 -220q-72 -66 -163.5 -99.5t-184.5 -33.5q-196 0 -315 111q-156 149 -92 495l98 517q9 44 12.5 68t0.5 46t-10.5 31.5t-29 18t-45 11.5t-69.5 7l14 55h506
l-13 -55q-45 -4 -67 -6.5t-46 -11t-33.5 -17.5t-21 -31.5t-16.5 -46.5t-14 -69l-94 -502q-24 -141 -15 -238.5t52.5 -159t104 -89t138.5 -27.5q184 0 295 138t170 437l29 144q50 260 53 368q4 62 -31 83.5t-147 27.5l12 55h471zM1071 1452l-29 -51l-385 129l-4 16
q7 24 37 66t49 49q39 -25 155.5 -97t176.5 -112z" />
    <glyph glyph-name="Uacute" unicode="&#xda;" horiz-adv-x="1447" 
d="M1583 1329l-12 -55q-97 -4 -130.5 -27.5t-49.5 -83.5q-35 -124 -82 -368l-33 -158q-36 -184 -91 -315t-151 -220q-72 -66 -163.5 -99.5t-184.5 -33.5q-196 0 -315 111q-156 149 -92 495l98 517q9 44 12.5 68t0.5 46t-10.5 31.5t-29 18t-45 11.5t-69.5 7l14 55h506
l-13 -55q-45 -4 -67 -6.5t-46 -11t-33.5 -17.5t-21 -31.5t-16.5 -46.5t-14 -69l-94 -502q-24 -141 -15 -238.5t52.5 -159t104 -89t138.5 -27.5q184 0 295 138t170 437l29 144q50 260 53 368q4 62 -31 83.5t-147 27.5l12 55h471zM1223 1546l-4 -16l-383 -129l-27 51
q16 10 330 207q19 -4 49 -46t35 -67z" />
    <glyph glyph-name="Ucircumflex" unicode="&#xdb;" horiz-adv-x="1447" 
d="M1583 1329l-12 -55q-97 -4 -130.5 -27.5t-49.5 -83.5q-35 -124 -82 -368l-33 -158q-36 -184 -91 -315t-151 -220q-72 -66 -163.5 -99.5t-184.5 -33.5q-196 0 -315 111q-156 149 -92 495l98 517q9 44 12.5 68t0.5 46t-10.5 31.5t-29 18t-45 11.5t-69.5 7l14 55h506
l-13 -55q-45 -4 -67 -6.5t-46 -11t-33.5 -17.5t-21 -31.5t-16.5 -46.5t-14 -69l-94 -502q-24 -141 -15 -238.5t52.5 -159t104 -89t138.5 -27.5q184 0 295 138t170 437l29 144q50 260 53 368q4 62 -31 83.5t-147 27.5l12 55h471zM1206 1452l-37 -45q-93 39 -219 119
q-158 -85 -258 -119l-26 45q143 90 278 213h51q88 -109 211 -213z" />
    <glyph glyph-name="Udieresis" unicode="&#xdc;" horiz-adv-x="1447" 
d="M1583 1329l-12 -55q-97 -4 -130.5 -27.5t-49.5 -83.5q-35 -124 -82 -368l-33 -158q-36 -184 -91 -315t-151 -220q-72 -66 -163.5 -99.5t-184.5 -33.5q-196 0 -315 111q-156 149 -92 495l98 517q9 44 12.5 68t0.5 46t-10.5 31.5t-29 18t-45 11.5t-69.5 7l14 55h506
l-13 -55q-45 -4 -67 -6.5t-46 -11t-33.5 -17.5t-21 -31.5t-16.5 -46.5t-14 -69l-94 -502q-24 -141 -15 -238.5t52.5 -159t104 -89t138.5 -27.5q184 0 295 138t170 437l29 144q50 260 53 368q4 62 -31 83.5t-147 27.5l12 55h471zM760 1616q37 0 57.5 -25t20.5 -61
q0 -46 -29.5 -79.5t-73.5 -33.5q-34 0 -57 24t-23 60q0 43 28.5 79t76.5 36zM1141 1616q37 0 57.5 -25t20.5 -61q0 -46 -29.5 -79.5t-73.5 -33.5q-34 0 -57 24t-23 60q0 43 28.5 79t76.5 36z" />
    <glyph glyph-name="Yacute" unicode="&#xdd;" horiz-adv-x="1251" 
d="M1405 1329l-14 -55q-100 -11 -140.5 -34.5t-117.5 -119.5q-129 -164 -336 -463q-38 -52 -49 -114l-58 -289q-10 -48 -13.5 -74.5t0.5 -50.5t12 -34t33.5 -19.5t52 -12.5t79.5 -8l-14 -55h-547l14 55q47 3 72.5 6t50.5 12t35.5 19.5t23 35t18.5 51t15 75.5l56 276
q11 60 -11 121q-71 195 -182 479q-25 64 -43 89t-47.5 36.5t-99.5 18.5l14 55h473l-10 -55l-72 -10q-52 -6 -62 -23t5 -61q114 -319 188 -494q260 365 328 481q31 54 21 72.5t-68 26.5l-64 8l15 55h442zM1102 1544l-6 -16l-383 -129l-27 51q7 4 330 207q19 -4 49 -46t37 -67
z" />
    <glyph glyph-name="Thorn" unicode="&#xde;" horiz-adv-x="1107" 
d="M551 1026h145q191 0 296.5 -79.5t105.5 -235.5q0 -97 -42 -175t-112 -126.5t-155.5 -74t-178.5 -26.5q-31 0 -73 10l-117 33l-25 -125q-7 -40 -10 -63t1.5 -43.5t13 -30t33 -18t51.5 -12t77 -7.5l-12 -53h-526l12 53q46 5 68 7.5t46 11t33 17t20.5 30t16.5 43.5t14 65
l166 867q8 44 11.5 66t1.5 45t-9 31.5t-27 18t-44 13.5t-68 8l12 53h486l-12 -53q-35 -4 -52 -5.5t-39 -8.5t-30 -10.5t-21.5 -20.5t-17 -28t-12.5 -43.5t-13.5 -56.5t-13.5 -77zM520 887l-86 -469q85 -29 160 -29q40 0 81 9.5t85 33t77 59.5t54.5 94t21.5 130q0 53 -14 96
t-45 77.5t-85.5 54t-129.5 20.5q-47 0 -86 -13q-22 -8 -33 -63z" />
    <glyph glyph-name="germandbls" unicode="&#xdf;" horiz-adv-x="1048" 
d="M168 883h119q32 155 85.5 262.5t149.5 191.5q65 55 145 90t156 35q118 0 185 -69.5t67 -180.5q0 -71 -31 -127q-113 -80 -178 -163t-65 -152q0 -65 67 -172q50 -81 72.5 -139t22.5 -117q0 -93 -63.5 -179.5t-156.5 -137t-182 -50.5q-63 0 -119.5 36.5t-56.5 80.5
q0 18 14 38.5t35 33.5q23 17 45 -2q90 -86 176 -86q76 0 122 52.5t46 123.5q0 89 -65 197q-4 7 -20 32.5t-20.5 33.5t-17.5 30.5t-17.5 32.5t-13 28.5t-11.5 31t-6 28.5t-3 30q0 42 19.5 86t60 93t81 89t105.5 99q19 49 19 106q0 97 -47.5 155t-128.5 58q-57 0 -104 -28.5
t-79.5 -79t-57.5 -113t-42 -136.5t-29 -141t-22 -135q-4 -29 -6 -42q-6 -38 -30 -185t-42 -250q-47 -263 -110.5 -420t-145.5 -245q-63 -68 -126.5 -101.5t-104.5 -33.5q-42 0 -79.5 25t-37.5 57q0 20 15.5 45.5t39.5 44.5q24 16 41 2q53 -43 117 -43q54 0 84 41
q67 80 135 514q51 321 98 641h-155l-8 26z" />
    <glyph glyph-name="agrave" unicode="&#xe0;" horiz-adv-x="1003" 
d="M930 238l24 -50q-78 -95 -167.5 -154t-133.5 -59q-22 0 -33.5 13.5t-15 54t13.5 113.5l41 194h-6q-105 -152 -264 -282q-115 -93 -190 -93q-46 0 -82.5 59t-36.5 171q0 157 67 310.5t179 246.5q83 68 186.5 113t196.5 45q51 0 127 -17q54 -12 77 -12l5 -8
q-71 -273 -142 -666q-15 -88 4 -88q14 0 59.5 33t90.5 76zM305 106q58 0 193 145.5t188 256.5q35 113 68 293q-58 28 -136 28q-88 0 -147 -43q-101 -74 -161 -229.5t-60 -314.5q0 -66 15.5 -101t39.5 -35zM743 1024l-59 -20q-107 209 -182 337l6 19q17 6 72 16.5t77 7.5
q9 -44 23.5 -106t34 -139.5t28.5 -114.5z" />
    <glyph glyph-name="aacute" unicode="&#xe1;" horiz-adv-x="1003" 
d="M930 238l24 -50q-78 -95 -167.5 -154t-133.5 -59q-22 0 -33.5 13.5t-15 54t13.5 113.5l41 194h-6q-105 -152 -264 -282q-115 -93 -190 -93q-46 0 -82.5 59t-36.5 171q0 157 67 310.5t179 246.5q83 68 186.5 113t196.5 45q51 0 127 -17q54 -12 77 -12l5 -8
q-71 -273 -142 -666q-15 -88 4 -88q14 0 59.5 33t90.5 76zM305 106q58 0 193 145.5t188 256.5q35 113 68 293q-58 28 -136 28q-88 0 -147 -43q-101 -74 -161 -229.5t-60 -314.5q0 -66 15.5 -101t39.5 -35zM924 1354l-318 -348l-47 30q134 215 189 322q24 6 86.5 14t83.5 4z
" />
    <glyph glyph-name="acircumflex" unicode="&#xe2;" horiz-adv-x="1003" 
d="M930 238l24 -50q-78 -95 -167.5 -154t-133.5 -59q-22 0 -33.5 13.5t-15 54t13.5 113.5l41 194h-6q-105 -152 -264 -282q-115 -93 -190 -93q-46 0 -82.5 59t-36.5 171q0 157 67 310.5t179 246.5q83 68 186.5 113t196.5 45q51 0 127 -17q54 -12 77 -12l5 -8
q-71 -273 -142 -666q-15 -88 4 -88q14 0 59.5 33t90.5 76zM305 106q58 0 193 145.5t188 256.5q35 113 68 293q-58 28 -136 28q-88 0 -147 -43q-101 -74 -161 -229.5t-60 -314.5q0 -66 15.5 -101t39.5 -35zM860 1034l-47 -35q-63 73 -145 197q-122 -122 -222 -197l-40 35
q177 204 266 334h45q50 -156 143 -334z" />
    <glyph glyph-name="atilde" unicode="&#xe3;" horiz-adv-x="1003" 
d="M930 238l24 -50q-78 -95 -167.5 -154t-133.5 -59q-22 0 -33.5 13.5t-15 54t13.5 113.5l41 194h-6q-105 -152 -264 -282q-115 -93 -190 -93q-46 0 -82.5 59t-36.5 171q0 157 67 310.5t179 246.5q83 68 186.5 113t196.5 45q51 0 127 -17q54 -12 77 -12l5 -8
q-71 -273 -142 -666q-15 -88 4 -88q14 0 59.5 33t90.5 76zM305 106q58 0 193 145.5t188 256.5q35 113 68 293q-58 28 -136 28q-88 0 -147 -43q-101 -74 -161 -229.5t-60 -314.5q0 -66 15.5 -101t39.5 -35zM879 1270l47 -25q-66 -174 -164 -174q-14 0 -26.5 2t-28 8
t-24.5 9.5t-30 13.5t-30 14q-52 25 -86 25q-50 0 -97 -90l-47 30q36 90 79.5 131t84.5 41q43 0 119 -36q79 -33 108 -33q46 0 95 84z" />
    <glyph glyph-name="adieresis" unicode="&#xe4;" horiz-adv-x="1003" 
d="M930 238l24 -50q-78 -95 -167.5 -154t-133.5 -59q-22 0 -33.5 13.5t-15 54t13.5 113.5l41 194h-6q-105 -152 -264 -282q-115 -93 -190 -93q-46 0 -82.5 59t-36.5 171q0 157 67 310.5t179 246.5q83 68 186.5 113t196.5 45q51 0 127 -17q54 -12 77 -12l5 -8
q-71 -273 -142 -666q-15 -88 4 -88q14 0 59.5 33t90.5 76zM305 106q58 0 193 145.5t188 256.5q35 113 68 293q-58 28 -136 28q-88 0 -147 -43q-101 -74 -161 -229.5t-60 -314.5q0 -66 15.5 -101t39.5 -35zM506 1290q35 0 55.5 -25t20.5 -61q0 -47 -29 -79.5t-74 -32.5
q-34 0 -57 24t-23 60q0 43 29 78.5t78 35.5zM864 1290q37 0 57.5 -25t20.5 -61q0 -46 -29 -79t-73 -33q-34 0 -57 24t-23 60q0 43 28 78.5t76 35.5z" />
    <glyph glyph-name="aring" unicode="&#xe5;" horiz-adv-x="1003" 
d="M930 238l24 -50q-78 -95 -167.5 -154t-133.5 -59q-22 0 -33.5 13.5t-15 54t13.5 113.5l41 194h-6q-105 -152 -264 -282q-115 -93 -190 -93q-46 0 -82.5 59t-36.5 171q0 157 67 310.5t179 246.5q83 68 186.5 113t196.5 45q51 0 127 -17q54 -12 77 -12l5 -8
q-71 -273 -142 -666q-15 -88 4 -88q14 0 59.5 33t90.5 76zM305 106q58 0 193 145.5t188 256.5q35 113 68 293q-58 28 -136 28q-88 0 -147 -43q-101 -74 -161 -229.5t-60 -314.5q0 -66 15.5 -101t39.5 -35zM680 1360q71 0 120 -47t46 -127t-62.5 -128t-138.5 -48
q-75 0 -122 46t-44 118q3 84 62.5 135t138.5 51zM668 1292q-38 0 -66 -32t-29 -80q-2 -45 19.5 -74t60.5 -29q40 0 69 32t30 81q2 44 -20.5 73t-63.5 29z" />
    <glyph glyph-name="ae" unicode="&#xe6;" horiz-adv-x="1359" 
d="M1255 262l33 -45q-226 -240 -446 -240q-29 0 -56 7.5t-56 27.5t-50 51.5t-34.5 83.5t-12.5 119q0 31 2 47l-4 2q-45 -62 -111.5 -128.5t-130.5 -116.5q-47 -38 -103.5 -65.5t-92.5 -27.5q-42 0 -78.5 54.5t-36.5 171.5q0 157 63 310.5t168 244.5q79 70 188.5 116
t200.5 46q41 0 88 -13q31 -4 80 -4l8 -8l-28 -119l4 -2q65 65 155 105.5t158 40.5q81 0 128.5 -46.5t47.5 -115.5t-50.5 -131t-135.5 -108t-175.5 -79t-189.5 -55q-2 -12 -2 -74q0 -55 12.5 -100t48 -78t89.5 -33q154 0 319 162zM606 829q-85 0 -133 -30q-87 -57 -147 -197
q-78 -172 -78 -356q0 -61 14 -96t39 -35q31 0 83.5 35t104.5 92q125 141 168 231q21 59 47.5 169t32.5 159q-51 28 -131 28zM1083 829q-55 0 -102 -28q-55 -36 -107 -120.5t-77 -227.5q143 38 231 82.5t122.5 89.5t35.5 100q0 52 -28 78t-75 26z" />
    <glyph glyph-name="ccedilla" unicode="&#xe7;" horiz-adv-x="780" 
d="M686 248l33 -45q-68 -75 -146 -127.5t-147 -75.5l-41 -51q-21 -30 -20.5 -46t24.5 -44q69 -77 66 -140q-3 -62 -74.5 -118.5t-181.5 -89.5l-21 51q145 66 148 129q0 6 -0.5 12.5t-2 11.5t-4.5 11t-5 9.5t-7 9.5t-7 8.5t-8 9t-7 8.5q-34 39 -37 62.5t26 62.5l66 81v3
q-117 -15 -184.5 63.5t-67.5 222.5q0 136 57.5 276t157.5 228q71 62 166 106t174 44q61 0 106.5 -32t45.5 -69q0 -46 -58 -88q-38 -25 -61 8q-56 82 -148 82q-106 0 -176 -129q-39 -71 -66.5 -173t-27.5 -204q-2 -102 36 -159.5t107 -57.5q118 0 285 150z" />
    <glyph glyph-name="egrave" unicode="&#xe8;" 
d="M715 254l33 -47q-214 -232 -431 -232q-40 0 -76.5 13t-72 44t-57 93t-21.5 149q0 149 65.5 294.5t182.5 234.5q66 53 142.5 85t140.5 32q79 0 128.5 -48.5t49.5 -115.5q0 -58 -38 -111t-94 -90.5t-134 -71t-141.5 -53.5t-133.5 -37q-2 -27 -2 -65q0 -45 7.5 -83.5
t24.5 -73.5t49 -55t77 -20q65 0 144 41.5t157 116.5zM545 834q-48 0 -86 -23q-24 -15 -48 -38.5t-53.5 -64.5t-54 -106.5t-37.5 -146.5q207 57 294 123.5t87 144.5q0 51 -28.5 81t-73.5 30zM647 1022l-59 -18q-115 220 -182 335l6 19q14 7 70 17t79 7q9 -44 23.5 -106
t34 -139.5t28.5 -114.5z" />
    <glyph glyph-name="eacute" unicode="&#xe9;" 
d="M715 254l33 -47q-214 -232 -431 -232q-40 0 -76.5 13t-72 44t-57 93t-21.5 149q0 149 65.5 294.5t182.5 234.5q66 53 142.5 85t140.5 32q79 0 128.5 -48.5t49.5 -115.5q0 -58 -38 -111t-94 -90.5t-134 -71t-141.5 -53.5t-133.5 -37q-2 -27 -2 -65q0 -45 7.5 -83.5
t24.5 -73.5t49 -55t77 -20q65 0 144 41.5t157 116.5zM545 834q-48 0 -86 -23q-24 -15 -48 -38.5t-53.5 -64.5t-54 -106.5t-37.5 -146.5q207 57 294 123.5t87 144.5q0 51 -28.5 81t-73.5 30zM846 1354l-318 -348l-47 32q47 73 109 179.5t80 140.5q24 6 86.5 14t83.5 4z" />
    <glyph glyph-name="ecircumflex" unicode="&#xea;" 
d="M715 254l33 -47q-214 -232 -431 -232q-40 0 -76.5 13t-72 44t-57 93t-21.5 149q0 149 65.5 294.5t182.5 234.5q66 53 142.5 85t140.5 32q79 0 128.5 -48.5t49.5 -115.5q0 -58 -38 -111t-94 -90.5t-134 -71t-141.5 -53.5t-133.5 -37q-2 -27 -2 -65q0 -45 7.5 -83.5
t24.5 -73.5t49 -55t77 -20q65 0 144 41.5t157 116.5zM545 834q-48 0 -86 -23q-24 -15 -48 -38.5t-53.5 -64.5t-54 -106.5t-37.5 -146.5q207 57 294 123.5t87 144.5q0 51 -28.5 81t-73.5 30zM772 1034l-47 -35q-63 73 -145 197q-122 -122 -222 -197l-41 35q182 210 267 334
h45q50 -156 143 -334z" />
    <glyph glyph-name="edieresis" unicode="&#xeb;" 
d="M713 254l35 -47q-216 -232 -431 -232q-40 0 -76.5 13t-72 44t-57 93t-21.5 149q0 148 65 294t181 235q66 52 143 84.5t142 32.5q79 0 128.5 -48.5t49.5 -115.5q0 -49 -25.5 -93.5t-71.5 -80t-99 -65t-118 -54t-117.5 -40.5t-109.5 -30q-2 -27 -2 -65q0 -45 7.5 -83.5
t24 -73.5t48.5 -55t76 -20q65 0 145 42t156 116zM543 834q-48 0 -86 -23q-24 -15 -48 -38.5t-53.5 -64.5t-53.5 -106.5t-36 -146.5q207 57 294 123.5t87 144.5q0 52 -28.5 81.5t-75.5 29.5zM412 1290q35 0 55 -25t20 -61q0 -47 -28.5 -79.5t-73.5 -32.5q-34 0 -57 24t-23 60
q0 43 29 78.5t78 35.5zM772 1290q37 0 57.5 -25t20.5 -61q0 -46 -29 -79t-73 -33q-34 0 -57 24t-23 60q0 43 28 78.5t76 35.5z" />
    <glyph glyph-name="igrave" unicode="&#xec;" horiz-adv-x="561" 
d="M461 223l24 -43q-57 -68 -152.5 -136.5t-146.5 -68.5q-23 0 -34.5 14t-11 60.5t19.5 126.5l127 524q16 60 -2 66q-13 0 -54.5 -25.5t-85.5 -62.5l-24 47q82 81 174 138t135 57q62 0 21 -162l-140 -565q-16 -66 4 -66q17 0 60.5 29.5t85.5 66.5zM469 1022l-59 -18
q-102 195 -183 337l6 17q15 7 71.5 17.5t78.5 6.5q9 -44 23.5 -106t34 -139.5t28.5 -114.5z" />
    <glyph glyph-name="iacute" unicode="&#xed;" horiz-adv-x="561" 
d="M461 223l24 -43q-57 -68 -152.5 -136.5t-146.5 -68.5q-23 0 -34.5 14t-11 60.5t19.5 126.5l127 524q16 60 -2 66q-13 0 -54.5 -25.5t-85.5 -62.5l-24 47q82 81 174 138t135 57q62 0 21 -162l-140 -565q-16 -66 4 -66q17 0 60.5 29.5t85.5 66.5zM686 1352l-317 -348
l-47 32q46 72 108 178t80 142q19 7 83.5 15t86.5 5z" />
    <glyph glyph-name="icircumflex" unicode="&#xee;" horiz-adv-x="561" 
d="M461 223l24 -43q-57 -68 -152.5 -136.5t-146.5 -68.5q-23 0 -34.5 14t-11 60.5t19.5 126.5l127 524q16 60 -2 66q-13 0 -54.5 -25.5t-85.5 -62.5l-24 47q82 81 174 138t135 57q62 0 21 -162l-140 -565q-16 -66 4 -66q17 0 60.5 29.5t85.5 66.5zM614 1034l-47 -35
q-49 57 -145 197q-129 -125 -223 -197l-39 37q176 203 266 332h45q50 -156 143 -334z" />
    <glyph glyph-name="idieresis" unicode="&#xef;" horiz-adv-x="561" 
d="M461 223l24 -43q-57 -68 -153 -136.5t-146 -68.5q-23 0 -34.5 14t-11 60.5t19.5 126.5l127 524q16 60 -2 66q-13 0 -54.5 -25.5t-85.5 -62.5l-24 47q82 81 174 138t135 57q62 0 21 -162l-140 -565q-16 -66 4 -66q17 0 60.5 29.5t85.5 66.5zM264 1290q36 0 57 -24.5
t21 -61.5q0 -46 -29 -79t-73 -33q-34 0 -57 24t-23 60q0 43 27.5 78.5t76.5 35.5zM625 1290q35 0 55 -24.5t20 -61.5q0 -47 -28.5 -79.5t-73.5 -32.5q-34 0 -57 24t-23 60q0 43 29 78.5t78 35.5z" />
    <glyph glyph-name="eth" unicode="&#xf0;" horiz-adv-x="954" 
d="M973 1339l-238 -131q172 -227 172 -516q0 -172 -61.5 -330.5t-167.5 -252.5q-70 -61 -157.5 -97.5t-164.5 -36.5q-65 0 -116 27.5t-80.5 73t-44.5 100t-15 113.5q0 195 87 339t208 212q68 39 138.5 59.5t117.5 18.5q27 0 78 -15q-1 46 -34 124t-66 126l-295 -158l-31 64
l283 149q-30 44 -110.5 107.5t-156.5 87.5q0 36 27 55q75 -15 171.5 -68.5t164.5 -125.5l256 135zM436 57q24 0 53 13q38 14 80 61t82 121.5t65.5 187.5t24.5 240q0 50 -7 75.5t-29 41.5q-49 41 -132 41q-51 0 -100 -27q-27 -13 -58.5 -47t-65.5 -91t-56.5 -149.5
t-22.5 -201.5q0 -115 41.5 -190t124.5 -75z" />
    <glyph glyph-name="ntilde" unicode="&#xf1;" horiz-adv-x="1089" 
d="M983 223l31 -49q-85 -94 -165.5 -146.5t-123.5 -52.5q-84 0 -31 213q41 170 107 455q14 57 15.5 89.5t-6 44t-24.5 11.5q-65 0 -207.5 -144.5t-222.5 -281.5q-54 -216 -80 -346q-81 -15 -147 -39l-12 15q100 390 168 694q17 82 -4 82q-14 0 -53.5 -28t-77.5 -64l-29 49
q83 87 164 141t125 54q69 0 16 -228l-43 -178h4q95 129 197 221.5t180 136.5q77 48 135 48q18 0 31 -5t25 -23t16 -48.5t-1.5 -86t-23.5 -130.5q-54 -227 -100 -424q-16 -74 4 -74q15 0 53 26t80 68zM899 1270l49 -27q-70 -174 -166 -174q-13 0 -25.5 2.5t-27.5 8t-24.5 10
t-30 14.5t-29.5 14q-55 25 -86 25q-48 0 -98 -90l-45 30q34 90 78 131t86 41q38 0 118 -34q75 -35 107 -35q43 0 94 84z" />
    <glyph glyph-name="ograve" unicode="&#xf2;" horiz-adv-x="962" 
d="M365 -25q-71 0 -124.5 26t-84.5 71.5t-46.5 101t-15.5 119.5q0 191 88.5 340t223.5 219q123 68 223 68q127 0 198.5 -84t71.5 -236q0 -137 -57.5 -273.5t-161.5 -222.5q-153 -129 -315 -129zM438 57q31 0 68 13q87 37 154.5 187.5t66.5 338.5q0 120 -46 182t-120 62
q-39 0 -78 -17q-26 -12 -53.5 -37.5t-57.5 -71t-53 -102t-38 -137t-15 -170.5q0 -115 45.5 -181.5t126.5 -66.5zM688 1022l-59 -18q-106 204 -183 335l7 19q14 7 70 17t79 7q9 -44 23.5 -106t34 -139.5t28.5 -114.5z" />
    <glyph glyph-name="oacute" unicode="&#xf3;" horiz-adv-x="962" 
d="M365 -25q-71 0 -124.5 26t-84.5 71.5t-46.5 101t-15.5 119.5q0 191 88.5 340t223.5 219q123 68 223 68q127 0 198.5 -84t71.5 -236q0 -137 -57.5 -273.5t-161.5 -222.5q-153 -129 -315 -129zM438 57q31 0 68 13q87 37 154.5 187.5t66.5 338.5q0 120 -46 182t-120 62
q-39 0 -78 -17q-26 -12 -53.5 -37.5t-57.5 -71t-53 -102t-38 -137t-15 -170.5q0 -115 45.5 -181.5t126.5 -66.5zM866 1354l-317 -348l-47 32q46 72 108 178t80 142q24 6 86.5 14t83.5 4z" />
    <glyph glyph-name="ocircumflex" unicode="&#xf4;" horiz-adv-x="962" 
d="M365 -25q-71 0 -124.5 26t-84.5 71.5t-46.5 101t-15.5 119.5q0 191 88.5 340t223.5 219q123 68 223 68q127 0 198.5 -84t71.5 -236q0 -137 -57.5 -273.5t-161.5 -222.5q-153 -129 -315 -129zM438 57q31 0 68 13q87 37 154.5 187.5t66.5 338.5q0 120 -46 182t-120 62
q-39 0 -78 -17q-26 -12 -53.5 -37.5t-57.5 -71t-53 -102t-38 -137t-15 -170.5q0 -115 45.5 -181.5t126.5 -66.5zM831 1034l-47 -35q-63 73 -145 197q-125 -125 -221 -197l-41 35q177 204 266 334h45q50 -156 143 -334z" />
    <glyph glyph-name="otilde" unicode="&#xf5;" horiz-adv-x="962" 
d="M365 -25q-71 0 -124.5 26t-84.5 71.5t-46.5 101t-15.5 119.5q0 191 88.5 340t223.5 219q123 68 223 68q127 0 198.5 -84t71.5 -236q0 -137 -57.5 -273.5t-161.5 -222.5q-153 -129 -315 -129zM438 57q31 0 68 13q87 37 154.5 187.5t66.5 338.5q0 120 -46 182t-120 62
q-39 0 -78 -17q-26 -12 -53.5 -37.5t-57.5 -71t-53 -102t-38 -137t-15 -170.5q0 -115 45.5 -181.5t126.5 -66.5zM844 1268l49 -23q-67 -174 -164 -174q-17 0 -35 4.5t-30.5 10t-36.5 16t-37 16.5q-51 23 -86 23q-49 0 -98 -88l-46 32q34 88 78 129t86 41q40 0 119 -36
q75 -35 109 -35q41 0 92 84z" />
    <glyph glyph-name="odieresis" unicode="&#xf6;" horiz-adv-x="962" 
d="M365 -25q-71 0 -124.5 26t-84.5 71.5t-46.5 101t-15.5 119.5q0 191 88 340t221 219q126 68 224 68q128 0 200 -84t72 -236q0 -137 -57.5 -273.5t-161.5 -222.5q-153 -129 -315 -129zM438 57q34 0 66 13q88 37 156 187.5t67 338.5q0 120 -46 182t-120 62q-39 0 -78 -17
q-26 -12 -53.5 -37.5t-57.5 -71t-53 -102t-38 -137t-15 -170.5q0 -115 45.5 -181.5t126.5 -66.5zM469 1290q35 0 55.5 -25t20.5 -61q0 -46 -29.5 -79t-73.5 -33q-34 0 -57 24t-23 60q0 43 29 78.5t78 35.5zM829 1290q35 0 56.5 -25.5t21.5 -60.5q0 -47 -29.5 -79.5
t-74.5 -32.5q-34 0 -57 24t-23 60q0 43 28.5 78.5t77.5 35.5z" />
    <glyph glyph-name="divide" unicode="&#xf7;" horiz-adv-x="1220" 
d="M633 727q-37 0 -67.5 29.5t-30.5 68.5q0 41 30.5 71t69.5 30q43 0 72.5 -30t29.5 -71q0 -40 -30 -69t-74 -29zM1128 471h-993v102h993v-102zM635 317q37 0 67.5 -29t30.5 -69q0 -39 -31.5 -69.5t-68.5 -30.5q-42 0 -72.5 30t-30.5 70q0 41 30.5 69.5t74.5 28.5z" />
    <glyph glyph-name="oslash" unicode="&#xf8;" horiz-adv-x="966" 
d="M854 989l51 -41l-78 -104q76 -82 76 -246q0 -131 -58.5 -267.5t-160.5 -224.5q-64 -56 -154 -93.5t-172 -37.5q-87 0 -139 37l-78 -106l-47 43l76 104q-76 85 -76 238q0 193 85 338.5t214 216.5q135 74 240 74q90 0 143 -37zM272 190l426 578q-41 72 -133 72
q-40 0 -78 -17q-32 -13 -69.5 -50t-75 -97t-62.5 -156t-26 -207q0 -53 18 -123zM729 702l-426 -575q44 -72 123 -72q33 0 76 15q90 36 167 186t74 338q0 61 -14 108z" />
    <glyph glyph-name="ugrave" unicode="&#xf9;" horiz-adv-x="1091" 
d="M1008 231l26 -47q-71 -86 -160 -147.5t-137 -61.5q-80 0 -30 218q16 70 38 180h-4q-160 -216 -329 -334q-89 -64 -166 -64q-24 0 -42 10.5t-32.5 36.5t-14 81t18.5 133q53 213 113 471q16 64 -6 67q-11 0 -52 -27.5t-92 -70.5l-22 51q86 86 172 139.5t129 53.5
q36 0 41 -38t-19 -141q-88 -391 -112 -491q-31 -135 26 -135q53 0 140 76t163 172.5t119 175.5q34 140 74 327l141 54h23q-104 -410 -162 -713q-13 -82 8 -82q14 0 60.5 32.5t87.5 73.5zM741 1022l-59 -18q-112 215 -182 337l8 17q13 7 69 17.5t78 6.5q9 -44 23.5 -106
t34 -139.5t28.5 -114.5z" />
    <glyph glyph-name="uacute" unicode="&#xfa;" horiz-adv-x="1091" 
d="M1008 231l26 -47q-71 -86 -160 -147.5t-137 -61.5q-80 0 -30 218q16 70 38 180h-4q-160 -216 -329 -334q-89 -64 -166 -64q-24 0 -42 10.5t-32.5 36.5t-14 81t18.5 133q53 213 113 471q16 64 -6 67q-11 0 -52 -27.5t-92 -70.5l-22 51q86 86 172 139.5t129 53.5
q36 0 41 -38t-19 -141q-88 -391 -112 -491q-31 -135 26 -135q53 0 140 76t163 172.5t119 175.5q34 140 74 327l141 54h23q-104 -410 -162 -713q-13 -82 8 -82q14 0 60.5 32.5t87.5 73.5zM952 1352l-315 -348l-47 32q46 72 108 178t80 142q19 7 82.5 15t85.5 5z" />
    <glyph glyph-name="ucircumflex" unicode="&#xfb;" horiz-adv-x="1091" 
d="M1008 231l26 -47q-71 -86 -160 -147.5t-137 -61.5q-80 0 -30 218q16 70 38 180h-4q-160 -216 -329 -334q-89 -64 -166 -64q-24 0 -42 10.5t-32.5 36.5t-14 81t18.5 133q53 213 113 471q16 64 -6 67q-11 0 -52 -27.5t-92 -70.5l-22 51q86 86 172 139.5t129 53.5
q36 0 41 -38t-19 -141q-88 -391 -112 -491q-31 -135 26 -135q53 0 140 76t163 172.5t119 175.5q34 140 74 327l141 54h23q-104 -410 -162 -713q-13 -82 8 -82q14 0 60.5 32.5t87.5 73.5zM893 1034l-47 -35q-54 62 -146 197q-129 -124 -221 -197l-41 37q181 209 267 332h45
q50 -156 143 -334z" />
    <glyph glyph-name="udieresis" unicode="&#xfc;" horiz-adv-x="1091" 
d="M1008 231l26 -47q-73 -87 -161.5 -148t-135.5 -61q-80 0 -30 218q16 70 38 180h-4q-160 -216 -329 -334q-86 -64 -166 -64q-24 0 -42 10.5t-32.5 36.5t-14 81t18.5 133q53 213 113 471q16 64 -6 67q-11 0 -52 -27.5t-92 -70.5l-22 51q85 85 172 139t131 54q34 0 39.5 -38
t-17.5 -141q-51 -227 -114 -491q-31 -135 26 -135q53 0 140 76t163 172.5t119 175.5q34 140 74 327l141 54h23q-104 -410 -162 -713q-13 -82 8 -82q13 0 60.5 33t87.5 73zM535 1290q35 0 55 -24.5t20 -61.5q0 -45 -28.5 -77.5t-71.5 -32.5q-35 0 -58.5 23.5t-23.5 60.5
q0 41 29 76.5t78 35.5zM893 1290q35 0 55.5 -24.5t20.5 -61.5q0 -45 -29 -77.5t-72 -32.5q-35 0 -57.5 23.5t-22.5 60.5q0 42 28 77t77 35z" />
    <glyph glyph-name="yacute" unicode="&#xfd;" horiz-adv-x="905" 
d="M489 154h5q141 216 194 319q82 158 82 244q-2 38 -25 96q-10 23 5 49q11 25 35.5 41.5t50.5 16.5q35 0 58 -31t24 -82q0 -86 -74 -217q-63 -115 -174.5 -288.5t-196.5 -291.5q-220 -317 -369 -481l-213 -55l-16 45q275 179 481 458q-1 117 -20.5 319t-42.5 349
q-15 127 -43 127q-13 0 -48 -34t-71 -85l-35 47q59 89 125 154.5t117 65.5q42 0 67 -58.5t39 -183.5q25 -214 45 -524zM885 1352l-318 -348l-47 32q47 73 109 179.5t80 140.5q19 7 83.5 15t86.5 5z" />
    <glyph glyph-name="thorn" unicode="&#xfe;" horiz-adv-x="1011" 
d="M365 610h4q128 158 248 234t198 76q61 0 103.5 -61.5t42.5 -172.5q0 -176 -85 -340.5t-219 -259.5q-77 -54 -162.5 -82.5t-117.5 -28.5q-26 0 -65.5 9t-69.5 28q-31 -157 -56 -291q-10 -50 -10.5 -77t11.5 -45t35 -24.5t67 -10.5l49 -6l-6 -52l-482 -24l7 55
q97 19 126 48.5t52 138.5q165 772 303 1474q10 51 11.5 76.5t-11 40t-32.5 17.5t-64 3h-47l4 54q69 8 141 25.5t118 31t56 14.5q14 2 18.5 -11t-0.5 -44zM719 801q-60 0 -168.5 -87t-204.5 -233q-50 -221 -76 -346q21 -25 66 -47t96 -22q82 0 137 40q74 49 148 208t74 337
q0 76 -19.5 113t-52.5 37z" />
    <glyph glyph-name="ydieresis" unicode="&#xff;" horiz-adv-x="905" 
d="M489 154h5q141 216 194 319q82 158 82 244q-2 38 -25 96q-10 23 5 49q11 25 35.5 41.5t50.5 16.5q35 0 58 -31t24 -82q0 -86 -74 -217q-63 -115 -174.5 -288.5t-196.5 -291.5q-220 -317 -369 -481l-213 -55l-16 45q278 184 481 458q-1 118 -20.5 320.5t-42.5 347.5
q-15 127 -43 127q-13 0 -48 -34t-71 -85l-35 45q58 90 124.5 156t117.5 66q42 0 67 -58.5t39 -183.5q25 -214 45 -524zM449 1290q35 0 55 -25t20 -61q0 -46 -29 -79t-73 -33q-34 0 -57 24t-23 60q0 43 29 78.5t78 35.5zM807 1290q35 0 55.5 -25t20.5 -61q0 -46 -29.5 -79
t-73.5 -33q-34 0 -57 24t-23 60q0 43 29 78.5t78 35.5z" />
    <glyph glyph-name="Amacron" unicode="&#x100;" horiz-adv-x="1359" 
d="M1272 55l-15 -55h-483l14 55q71 7 101 19t38 37.5t-1 68.5q-7 49 -26.5 157.5t-25.5 145.5h-428q-81 -153 -141 -278q-44 -92 -25.5 -116.5t136.5 -33.5l-13 -55h-440l14 55q53 7 78.5 13t54.5 28t51 55t60 101l615 1091l63 17l57 -365q53 -341 131 -762
q10 -60 18.5 -88.5t29.5 -49.5t49.5 -27.5t87.5 -12.5zM862 569l-82 529h-4q-199 -363 -284 -529h370zM1130 1559l-26 -105h-465l29 105h462z" />
    <glyph glyph-name="amacron" unicode="&#x101;" horiz-adv-x="1003" 
d="M930 238l24 -50q-78 -95 -167.5 -154t-133.5 -59q-22 0 -33.5 13.5t-15 54t13.5 113.5l41 194h-6q-105 -152 -264 -282q-115 -93 -190 -93q-46 0 -82.5 59t-36.5 171q0 157 67 310.5t179 246.5q83 68 186.5 113t196.5 45q51 0 127 -17q54 -12 77 -12l5 -8
q-71 -273 -142 -666q-15 -88 4 -88q14 0 59.5 33t90.5 76zM305 106q58 0 193 145.5t188 256.5q35 113 68 293q-58 28 -136 28q-88 0 -147 -43q-101 -74 -161 -229.5t-60 -314.5q0 -66 15.5 -101t39.5 -35zM905 1225l-24 -105h-459l27 105h456z" />
    <glyph glyph-name="Abreve" unicode="&#x102;" horiz-adv-x="1359" 
d="M1272 55l-15 -55h-483l14 55q71 7 101 19t38 37.5t-1 68.5q-7 49 -26.5 157.5t-25.5 145.5h-428q-81 -153 -141 -278q-44 -92 -25.5 -116.5t136.5 -33.5l-13 -55h-440l14 55q53 7 78.5 13t54.5 28t51 55t60 101l615 1091l63 17l57 -365q53 -341 131 -762
q10 -60 18.5 -88.5t29.5 -49.5t49.5 -27.5t87.5 -12.5zM862 569l-82 529h-4q-199 -363 -284 -529h370zM1081 1655h62q-19 -114 -92 -176t-183 -62q-105 0 -160.5 62t-45.5 176h61q8 -52 48.5 -86.5t113.5 -34.5q136 0 196 121z" />
    <glyph glyph-name="abreve" unicode="&#x103;" horiz-adv-x="1003" 
d="M930 238l24 -50q-78 -95 -167.5 -154t-133.5 -59q-22 0 -33.5 13.5t-15 54t13.5 113.5l41 194h-6q-105 -152 -264 -282q-115 -93 -190 -93q-46 0 -82.5 59t-36.5 171q0 157 67 310.5t179 246.5q81 68 185.5 113t197.5 45q51 0 127 -17q54 -12 77 -12l5 -8
q-71 -273 -142 -666q-15 -88 4 -88q14 0 59.5 33t90.5 76zM305 106q58 0 193 145.5t188 256.5q35 113 68 293q-58 28 -136 28q-91 0 -147 -43q-101 -74 -161 -229.5t-60 -314.5q0 -66 15.5 -101t39.5 -35zM862 1313h53q-12 -73 -39 -127t-64.5 -84t-78.5 -44t-88 -14
q-101 0 -155.5 64t-30.5 205h53q1 -71 41.5 -111.5t108.5 -40.5q67 0 119.5 40t80.5 112z" />
    <glyph glyph-name="Aogonek" unicode="&#x104;" horiz-adv-x="1359" 
d="M1272 55l-15 -55h-303q-89 -72 -138.5 -155.5t-49.5 -149.5q0 -33 21 -52.5t57 -19.5q41 0 108 29l15 -55l-117 -70q-44 -21 -88 -21q-60 0 -99.5 38t-39.5 102q0 55 24.5 110.5t72.5 111.5t87.5 94t101.5 91q28 28 23 66q-4 40 -13.5 101t-22.5 142.5t-19 120.5h-431
q-113 -220 -141 -278q-16 -33 -23.5 -53t-8 -37.5t6 -26.5t26 -16t44.5 -10.5t68 -6.5l-15 -55h-442l16 55q53 7 78 13t53.5 28t50.5 55t60 101l617 1091l63 17l57 -365q53 -341 131 -762q10 -60 18.5 -88t29.5 -49.5t50 -28t87 -12.5zM492 569h370l-82 529h-4
q-35 -65 -94 -173.5t-105 -194t-85 -161.5z" />
    <glyph glyph-name="aogonek" unicode="&#x105;" horiz-adv-x="1003" 
d="M653 350h-4q-114 -162 -264 -284q-117 -91 -186 -91q-46 0 -82.5 59t-36.5 171q0 156 67 310t177 247q83 68 184.5 113t191.5 45h2q54 0 127 -17q54 -12 78 -12l6 -8q-74 -284 -143 -664q-15 -88 4 -88q14 0 61 32.5t89 74.5l24 -50q-75 -91 -148.5 -142t-123.5 -64
q-76 -58 -135.5 -144.5t-59.5 -144.5q0 -31 20.5 -50.5t53.5 -19.5q40 0 96 25l17 -56l-109 -61q-45 -20 -80 -20q-57 0 -97 34.5t-40 96.5q0 148 270 362q-23 38 0 152zM614 829q-86 0 -145 -43q-100 -74 -159.5 -228t-59.5 -314q0 -64 15 -97.5t38 -33.5q59 0 191 143
t186 254q27 89 70 291q-62 28 -136 28z" />
    <glyph glyph-name="Cacute" unicode="&#x106;" horiz-adv-x="1300" 
d="M1192 356l53 -28q-26 -63 -77.5 -162.5t-84.5 -147.5q-221 -49 -352 -49q-129 0 -237.5 39t-188.5 112t-125 185.5t-45 253.5q0 237 114 421t306.5 282t427.5 98q188 0 352 -66q-2 -34 -6.5 -145.5t-9.5 -167.5l-62 -6q-7 176 -83.5 244.5t-237.5 68.5q-131 0 -244.5 -60
t-191 -159.5t-122 -231.5t-44.5 -274q0 -149 46.5 -266t142.5 -187.5t229 -70.5q75 0 138.5 23t117.5 70t94.5 98t89.5 126zM1198 1575l-6 -14l-383 -131l-27 51q62 39 175 111t155 98q19 -6 49.5 -47.5t36.5 -67.5z" />
    <glyph glyph-name="cacute" unicode="&#x107;" horiz-adv-x="782" 
d="M688 248l31 -45q-91 -106 -204 -167t-206 -61q-100 0 -159.5 78t-59.5 221q0 132 57.5 268.5t155.5 223.5q65 61 160 107.5t166 46.5q64 0 108.5 -31.5t46.5 -71.5q2 -24 -15 -50t-50 -44q-27 -15 -45 12q-64 88 -156 88q-96 0 -170 -137q-39 -71 -63.5 -170t-24.5 -199
q0 -107 38 -164t105 -57q70 0 151.5 49t133.5 103zM848 1354l-318 -348l-47 32q47 73 109 179.5t80 140.5q24 6 86.5 14t83.5 4z" />
    <glyph glyph-name="Ccircumflex" unicode="&#x108;" horiz-adv-x="1300" 
d="M1192 356l53 -28q-26 -63 -77.5 -162.5t-84.5 -147.5q-221 -49 -352 -49q-129 0 -237.5 39t-188.5 112t-125 185.5t-45 253.5q0 237 114 421t306.5 282t427.5 98q188 0 352 -66q-2 -34 -6.5 -145.5t-9.5 -167.5l-62 -6q-7 176 -83.5 244.5t-237.5 68.5q-131 0 -244.5 -60
t-191 -159.5t-122 -231.5t-44.5 -274q0 -149 46.5 -266t142.5 -187.5t229 -70.5q75 0 138.5 23t117.5 70t94.5 98t89.5 126zM1198 1473l-39 -46q-110 49 -217 119q-146 -78 -260 -119l-25 48q156 98 277 211h51q82 -98 213 -213z" />
    <glyph glyph-name="ccircumflex" unicode="&#x109;" horiz-adv-x="782" 
d="M688 248l31 -45q-91 -106 -204 -167t-206 -61q-100 0 -159.5 78t-59.5 221q0 132 57.5 268.5t155.5 223.5q65 61 160 107.5t166 46.5q64 0 108.5 -31.5t46.5 -71.5q2 -24 -15 -50t-50 -44q-27 -15 -45 12q-64 88 -156 88q-96 0 -170 -137q-39 -71 -63.5 -170t-24.5 -199
q0 -107 38 -164t105 -57q70 0 151.5 49t133.5 103zM801 1034l-47 -35q-67 78 -146 197q-125 -125 -221 -197l-41 35q177 204 266 334h45q49 -151 144 -334z" />
    <glyph glyph-name="Cdotaccent" unicode="&#x10a;" horiz-adv-x="1300" 
d="M1190 356l53 -28q-27 -64 -77.5 -163.5t-82.5 -146.5q-221 -49 -352 -49q-129 0 -237.5 39t-188.5 112t-125 185.5t-45 253.5q0 237 114 421t306.5 282t427.5 98q183 0 352 -66q-2 -34 -6.5 -145.5t-9.5 -167.5l-62 -6q-4 91 -25 152t-63 96.5t-97.5 50.5t-135.5 16
q-131 0 -244.5 -60t-191 -160t-122 -231.5t-44.5 -273.5q0 -149 46.5 -266.5t142.5 -188.5t229 -71q74 0 137.5 23t117 70t95 98.5t88.5 125.5zM948 1663q38 0 60 -26.5t22 -65.5q0 -48 -31.5 -83.5t-76.5 -35.5q-36 0 -60 25.5t-24 64.5q0 45 30 83t80 38z" />
    <glyph glyph-name="cdotaccent" unicode="&#x10b;" horiz-adv-x="782" 
d="M688 248l31 -45q-91 -106 -204 -167t-206 -61q-100 0 -159.5 78t-59.5 221q0 132 57.5 268.5t155.5 223.5q65 61 160 107.5t166 46.5q64 0 108.5 -31.5t46.5 -71.5q2 -24 -15 -50t-50 -44q-27 -15 -45 12q-64 88 -156 88q-96 0 -170 -137q-39 -71 -63.5 -170t-24.5 -199
q0 -107 38 -164t105 -57q70 0 151.5 49t133.5 103zM608 1303q38 0 60 -27.5t22 -65.5q0 -50 -31 -84t-77 -34q-36 0 -60 25.5t-24 64.5q0 43 30 82t80 39z" />
    <glyph glyph-name="Ccaron" unicode="&#x10c;" horiz-adv-x="1300" 
d="M1192 356l53 -28q-26 -63 -77.5 -162.5t-84.5 -147.5q-221 -49 -352 -49q-129 0 -237.5 39t-188.5 112t-125 185.5t-45 253.5q0 237 114 421t306.5 282t427.5 98q188 0 352 -66q-2 -34 -6.5 -145.5t-9.5 -167.5l-62 -6q-7 176 -83.5 244.5t-237.5 68.5q-131 0 -244.5 -60
t-191 -159.5t-122 -231.5t-44.5 -274q0 -149 46.5 -266t142.5 -187.5t229 -70.5q75 0 138.5 23t117.5 70t94.5 98t89.5 126zM1200 1696l29 -43q-168 -109 -279 -215h-51q-93 112 -211 215l39 43q92 -40 217 -119q144 78 256 119z" />
    <glyph glyph-name="ccaron" unicode="&#x10d;" horiz-adv-x="782" 
d="M688 248l31 -45q-91 -106 -204 -167t-206 -61q-100 0 -159.5 78t-59.5 221q0 132 57.5 268.5t155.5 223.5q65 61 160 107.5t166 46.5q64 0 108.5 -31.5t46.5 -71.5q2 -24 -15 -50t-50 -44q-27 -15 -45 12q-64 88 -156 88q-96 0 -170 -137q-39 -71 -63.5 -170t-24.5 -199
q0 -107 38 -164t105 -57q70 0 151.5 49t133.5 103zM805 1376l45 -37q-174 -197 -266 -331h-45q-47 146 -146 333l51 35q85 -102 142 -196q131 127 219 196z" />
    <glyph glyph-name="Dcaron" unicode="&#x10e;" horiz-adv-x="1449" 
d="M264 1329h512q307 0 479 -136t172 -419q0 -193 -88.5 -356t-248.5 -264q-129 -83 -279.5 -118.5t-349.5 -35.5h-443l15 55q43 4 67.5 8t47 13.5t33 19.5t21.5 33.5t16.5 47.5t14.5 69l162 835q6 34 9 54t3.5 41.5t-1.5 32t-10.5 22t-18 16.5t-30 11t-41 9t-54.5 7z
M573 1139l-165 -875q-14 -76 -10 -111.5t32 -50.5q49 -28 148 -28q152 0 277.5 57t206.5 154.5t125 225.5t44 273q0 232 -126 355t-353 123q-98 0 -134 -23q-30 -15 -45 -100zM1116 1667l29 -45q-167 -111 -279 -213h-51q-88 109 -211 213l39 45q99 -44 217 -119
q149 79 256 119z" />
    <glyph glyph-name="dcaron" unicode="&#x10f;" horiz-adv-x="1040" 
d="M963 229l28 -47q-77 -92 -165 -149.5t-136 -57.5q-23 0 -35 14.5t-16 57t14 119.5l37 174l-4 -2q-108 -144 -270 -268q-118 -95 -199 -95q-55 0 -94 64.5t-39 181.5q0 148 64 297t174 244q72 63 181 110.5t181 47.5q65 0 121 -23l67 336q14 71 2 86.5t-79 15.5h-66l6 51
q75 8 147 26t114 32t53 14q25 0 14 -57q-159 -677 -254 -1206q-11 -66 8 -66t62 29.5t84 70.5zM317 109q49 0 133 69t156.5 156t108.5 151l65 293q-23 22 -71.5 37.5t-94.5 15.5q-85 0 -141 -43q-97 -69 -158 -228.5t-61 -299.5q0 -75 17.5 -113t45.5 -38zM1243 1452
q42 0 71 -36t29 -95q0 -87 -59 -144.5t-145 -82.5l-23 51q56 28 85.5 56t29.5 65q0 26 -11.5 41t-37.5 28q-19 8 -19 41q0 30 24 53t56 23z" />
    <glyph glyph-name="Dcroat" unicode="&#x110;" horiz-adv-x="1472" 
d="M283 1329h510q148 0 265 -31.5t205 -96t135.5 -171.5t47.5 -250q0 -191 -90 -356t-250 -270q-133 -84 -282 -119t-349 -35h-440l16 55q45 5 67.5 8t46.5 11.5t34 18t22 32t18 47.5t15 70l80 415h-225l18 76h221l68 344q9 48 13 75t-0.5 50.5t-11 33.5t-30.5 19t-46 11.5
t-71 7.5zM500 657l-70 -378q-16 -89 -11.5 -125t36.5 -54q48 -26 139 -26q135 1 246.5 43t186.5 112t126.5 163.5t74.5 194.5t23 208q0 77 -14 143.5t-48 127t-86 103t-132 68t-183 25.5q-105 0 -145 -19q-19 -9 -29 -26t-16 -54l-82 -430h318l-17 -76h-317z" />
    <glyph glyph-name="dcroat" unicode="&#x111;" horiz-adv-x="1042" 
d="M1167 1167l-18 -73h-152q-110 -481 -184 -899q-12 -68 10 -68q17 0 61 30.5t85 71.5l26 -45q-75 -92 -163 -150.5t-136 -58.5q-79 0 -41 179l39 188h-4q-111 -149 -270 -272q-122 -95 -207 -95q-55 0 -94 64.5t-39 181.5q0 148 63.5 297t173.5 244q72 62 185 110t186 48
q62 0 121 -23l41 197h-270l20 73h264l15 72q12 63 -2.5 80.5t-81.5 17.5h-60l2 52q75 8 147 25.5t114 30.5t53 13q28 0 14 -55q-20 -91 -51 -236h153zM616 831q-85 0 -149 -43q-67 -47 -118 -143t-75 -196.5t-24 -188.5q0 -76 17.5 -113.5t45.5 -37.5q53 0 139.5 71.5
t159.5 160.5t109 155l63 282q-24 22 -71 37.5t-97 15.5z" />
    <glyph glyph-name="Emacron" unicode="&#x112;" horiz-adv-x="1144" 
d="M262 1329h891q-10 -60 -39 -313l-59 -4q0 132 -27 180q-11 26 -27 39t-57 21t-115 8h-159q-52 0 -64.5 -12.5t-23.5 -71.5l-86 -443h198q55 0 85.5 3.5t55 10t39.5 26t25.5 42t26.5 68.5h59l-76 -389h-59q1 34 1 49t-2 36.5t-5.5 29t-12.5 19t-20.5 14t-32 6.5t-43.5 4.5
t-59 0.5h-195l-67 -358q-17 -89 -15.5 -133.5t23.5 -63.5q22 -18 67 -23t140 -5q115 0 171 14.5t99 54.5q51 49 137 197l58 -21q-7 -17 -34.5 -87.5t-54 -135t-40.5 -92.5h-959l12 55q47 4 72 7t50 12t36.5 19t23.5 33t18.5 49t14.5 71l164 839q9 46 12.5 70.5t0 48t-11 33
t-29.5 18.5t-47 12t-72 7zM1024 1569l-29 -105h-467l29 105h467z" />
    <glyph glyph-name="emacron" unicode="&#x113;" 
d="M715 254l33 -47q-214 -232 -431 -232q-40 0 -76.5 13t-72 44t-57 93t-21.5 149q0 149 65.5 294.5t182.5 234.5q66 53 142.5 85t140.5 32q79 0 128.5 -48.5t49.5 -115.5q0 -58 -38 -111t-94 -90.5t-134 -71t-141.5 -53.5t-133.5 -37q-2 -27 -2 -65q0 -45 7.5 -83.5
t24.5 -73.5t49 -55t77 -20q65 0 144 41.5t157 116.5zM545 834q-48 0 -86 -23q-24 -15 -48 -38.5t-53.5 -64.5t-54 -106.5t-37.5 -146.5q207 57 294 123.5t87 144.5q0 51 -28.5 81t-73.5 30zM813 1225l-25 -105h-458l26 105h457z" />
    <glyph glyph-name="Ebreve" unicode="&#x114;" horiz-adv-x="1144" 
d="M262 1329h891q-10 -60 -39 -313l-59 -4q0 132 -27 180q-11 26 -27 39t-57 21t-115 8h-159q-52 0 -64.5 -12.5t-23.5 -71.5l-86 -443h196q46 0 74 1.5t52.5 8t37.5 14.5t26.5 27.5t22 40t21.5 58.5h59l-76 -389h-59q1 34 1 49t-2 36.5t-5.5 29t-12.5 19t-20.5 14t-32 6.5
t-43.5 4.5t-59 0.5h-195l-67 -358q-17 -89 -15.5 -133.5t23.5 -63.5q22 -18 67 -23t140 -5q115 0 171 14.5t99 54.5q51 49 137 197l58 -21q-7 -17 -34.5 -87.5t-54 -135t-40.5 -92.5h-959l12 55q47 4 72 7t50 12t36.5 19t23.5 33t18.5 49t14.5 71l164 839q9 46 12.5 70.5
t0 48t-11 33t-29.5 18.5t-47 12t-72 7zM989 1657h64q-20 -114 -94 -176t-183 -62q-106 0 -162.5 62t-46.5 176h62q10 -53 49.5 -87t112.5 -34q135 0 198 121z" />
    <glyph glyph-name="ebreve" unicode="&#x115;" 
d="M715 254l33 -47q-214 -232 -431 -232q-40 0 -76.5 13t-72 44t-57 93t-21.5 149q0 149 65.5 294.5t182.5 234.5q66 53 142.5 85t140.5 32q79 0 128.5 -48.5t49.5 -115.5q0 -58 -38 -111t-94 -90.5t-134 -71t-141.5 -53.5t-133.5 -37q-2 -27 -2 -65q0 -45 7.5 -83.5
t24.5 -73.5t49 -55t77 -20q65 0 144 41.5t157 116.5zM545 834q-48 0 -86 -23q-24 -15 -48 -38.5t-53.5 -64.5t-54 -106.5t-37.5 -146.5q207 57 294 123.5t87 144.5q0 51 -28.5 81t-73.5 30zM778 1313h51q-12 -73 -39 -127t-64.5 -84t-78.5 -44t-88 -14q-100 0 -153 63.5
t-29 205.5h51q1 -72 40 -112t107 -40t121.5 40t81.5 112z" />
    <glyph glyph-name="Edotaccent" unicode="&#x116;" horiz-adv-x="1144" 
d="M262 1329h891q-10 -60 -39 -313l-59 -4q0 132 -27 180q-11 26 -27 39t-57 21t-115 8h-159q-52 0 -64.5 -12.5t-23.5 -71.5l-86 -443h196q55 0 85.5 3.5t55 10t39.5 26t26 42t28 68.5h59l-78 -389h-59q1 34 1 49t-2 36.5t-5 29t-12.5 19t-20.5 14t-31.5 6.5t-43 4.5
t-58.5 0.5h-195l-69 -358q-17 -89 -15 -133.5t25 -63.5q22 -18 67 -23t140 -5q113 0 169 14.5t99 54.5q55 53 139 197l58 -21q-2 -6 -57 -142t-72 -173h-959l12 55q47 4 72 7t50 12t36 19t23 33t18.5 48.5t15.5 71.5l164 839q9 46 12.5 70.5t0 48t-11 33t-29.5 18.5t-47 12
t-72 7zM797 1642q40 0 62 -26.5t22 -65.5q0 -48 -32 -83t-77 -35q-37 0 -61.5 25.5t-24.5 64.5q0 44 30.5 82t80.5 38z" />
    <glyph glyph-name="edotaccent" unicode="&#x117;" 
d="M713 254l32 -47q-214 -232 -428 -232q-40 0 -76.5 13t-72 44t-57 93t-21.5 149q0 148 65 294t181 235q68 53 143.5 85t138.5 32q79 0 129 -48.5t50 -115.5q0 -58 -38 -111t-93.5 -90.5t-133.5 -71t-141 -53.5t-133 -37q-2 -27 -2 -65q0 -45 7.5 -83.5t24.5 -73.5t49 -55
t77 -20q65 0 144 41.5t155 116.5zM543 834q-46 0 -84 -23q-24 -15 -48 -38.5t-53.5 -64.5t-54 -106.5t-37.5 -146.5q141 39 227.5 84.5t119 89t32.5 94.5t-28.5 81t-73.5 30zM621 1300q38 0 59.5 -26.5t21.5 -65.5q0 -48 -30.5 -82t-75.5 -34q-37 0 -61.5 24.5t-24.5 63.5
q0 44 30.5 82t80.5 38z" />
    <glyph glyph-name="Eogonek" unicode="&#x118;" horiz-adv-x="1144" 
d="M264 1329h889q-10 -60 -39 -313l-59 -4q0 127 -27 182q-18 38 -57 52t-146 14h-155q-52 0 -64.5 -12.5t-23.5 -71.5l-86 -443h196q55 0 85.5 3.5t55 10t39.5 26t26 42t28 68.5h59l-78 -389h-59q1 34 1 49t-2 36.5t-5 29t-12.5 19t-20.5 14t-31.5 6.5t-43 4.5t-58.5 0.5
h-195l-67 -358q-17 -89 -15.5 -133.5t23.5 -63.5q22 -18 67 -23t140 -5q114 0 169.5 15t98.5 56q58 56 139 195l58 -21q-6 -14 -35 -86.5t-55.5 -136.5t-40.5 -92h-95q-101 -70 -168 -158.5t-67 -150.5q0 -33 21 -52.5t57 -19.5q40 0 96 25l16 -56l-110 -61q-38 -21 -80 -21
q-62 0 -104 35t-42 101q0 85 83 181t204 177h-768l14 55q47 4 72 7t50 12t36 19t22.5 33t17.5 48.5t15 71.5l164 839q9 46 12.5 70.5t0 48t-11 33t-29.5 18.5t-47 12t-72 7z" />
    <glyph glyph-name="eogonek" unicode="&#x119;" 
d="M711 256l32 -49q-109 -119 -219 -174q-109 -86 -171 -168t-62 -168q0 -32 21.5 -51t54.5 -19q36 0 96 25l16 -55l-106 -60q-43 -24 -84 -24q-60 0 -99.5 33.5t-39.5 95.5q0 159 233 338v2q-145 -21 -219 57t-74 235q0 148 65 294t181 237q68 51 145.5 83t141.5 32
q79 0 127.5 -48.5t48.5 -117.5q0 -58 -38.5 -111.5t-94.5 -91t-135 -72t-141.5 -54.5t-133.5 -38q-2 -25 -2 -61q0 -45 8 -83.5t25 -72.5t49.5 -54t77.5 -20q65 0 143 42t154 118zM545 834q-45 0 -86 -25q-25 -14 -49.5 -37t-54.5 -63.5t-54.5 -106.5t-36.5 -147
q207 57 294 123.5t87 144.5q0 52 -27.5 81.5t-72.5 29.5z" />
    <glyph glyph-name="Ecaron" unicode="&#x11a;" horiz-adv-x="1144" 
d="M262 1329h891q-10 -60 -39 -313l-59 -4q0 132 -27 180q-11 26 -27 39t-57 21t-115 8h-159q-52 0 -64.5 -12.5t-23.5 -71.5l-86 -443h198q55 0 85.5 3.5t55 10t39.5 26t25.5 42t26.5 68.5h59l-76 -389h-59q1 34 1 49t-2 36.5t-5.5 29t-12.5 19t-20.5 14t-32 6.5t-43.5 4.5
t-59 0.5h-195l-67 -358q-17 -89 -15.5 -133.5t23.5 -63.5q22 -18 67 -23t140 -5q115 0 171 14.5t99 54.5q51 49 137 197l58 -21q-7 -17 -34.5 -87.5t-54 -135t-40.5 -92.5h-959l12 55q47 4 72 7t50 12t36.5 19t23.5 33t18.5 49t14.5 71l164 839q9 46 12.5 70.5t0 48t-11 33
t-29.5 18.5t-47 12t-72 7zM1049 1663l26 -43q-173 -115 -278 -215h-52q-88 106 -213 215l39 43q97 -41 217 -119q157 84 261 119z" />
    <glyph glyph-name="ecaron" unicode="&#x11b;" 
d="M715 254l33 -47q-214 -232 -431 -232q-40 0 -76.5 13t-72 44t-57 93t-21.5 149q0 149 65.5 294.5t182.5 234.5q66 53 142.5 85t140.5 32q79 0 128.5 -48.5t49.5 -115.5q0 -58 -38 -111t-94 -90.5t-134 -71t-141.5 -53.5t-133.5 -37q-2 -27 -2 -65q0 -45 7.5 -83.5
t24.5 -73.5t49 -55t77 -20q65 0 144 41.5t157 116.5zM545 834q-48 0 -86 -23q-24 -15 -48 -38.5t-53.5 -64.5t-54 -106.5t-37.5 -146.5q207 57 294 123.5t87 144.5q0 51 -28.5 81t-73.5 30zM809 1376l45 -37q-174 -197 -266 -331h-45q-47 146 -146 333l52 35
q81 -98 141 -196q131 127 219 196z" />
    <glyph glyph-name="Gcircumflex" unicode="&#x11c;" horiz-adv-x="1394" 
d="M1339 977l-59 -6q1 169 -81 244t-247 75q-138 0 -255.5 -59t-195.5 -158.5t-121.5 -229.5t-43.5 -272q0 -155 50 -274t151.5 -188.5t242.5 -69.5q101 0 160.5 33.5t73.5 111.5l41 193q9 43 12.5 65t-2 43.5t-13.5 30t-36.5 17.5t-56.5 12t-87 8l13 55h499l-12 -53
q-33 -5 -49 -8t-34 -12.5t-24.5 -17t-16 -30.5t-14 -44.5t-13.5 -65.5l-33 -172q-19 -96 -10 -162q-23 -5 -96 -23t-112 -26t-104 -16.5t-123 -8.5q-272 0 -439 155.5t-167 430.5q0 231 109.5 414.5t308 287t449.5 103.5q165 0 360 -64q-16 -166 -25 -319zM1214 1468
l-38 -45q-96 40 -220 119q-153 -84 -258 -119l-26 45q163 106 278 213h51q92 -111 213 -213z" />
    <glyph glyph-name="gcircumflex" unicode="&#x11d;" horiz-adv-x="860" 
d="M961 909l14 -37q-73 -78 -146 -96q-37 -5 -53 -6q17 -57 17 -113q0 -101 -45 -181t-111 -134q-108 -88 -264 -119q-41 -30 -41 -63q0 -24 36 -52.5t111 -68.5q146 -76 211.5 -140.5t65.5 -131.5q0 -60 -48 -116t-120.5 -94t-157 -60.5t-158.5 -22.5q-151 0 -260 67.5
t-106 161.5q3 65 87.5 136t256.5 159q-36 25 -57 52.5t-19 49.5q0 51 127 125q-180 41 -180 250q0 98 46.5 189t125.5 153q61 49 132.5 76t129.5 27q107 0 174 -58q159 3 232 47zM410 305q89 0 160 94.5t71 249.5q0 90 -35.5 144.5t-101.5 54.5q-89 0 -148 -92
q-77 -108 -77 -267q0 -88 36.5 -136t94.5 -48zM354 -440q112 0 182 44.5t70 106.5q0 77 -149 164q-128 74 -154 86q-105 -51 -165 -109t-60 -114q0 -75 83 -126.5t193 -51.5zM752 1034l-47 -35q-67 78 -146 197q-125 -125 -221 -197l-41 35q177 204 266 334h45
q49 -151 144 -334z" />
    <glyph glyph-name="Gbreve" unicode="&#x11e;" horiz-adv-x="1394" 
d="M1339 977l-59 -6q1 169 -81 244t-247 75q-138 0 -255.5 -59t-195.5 -158.5t-121.5 -229.5t-43.5 -272q0 -155 50 -274t151.5 -188.5t242.5 -69.5q101 0 160.5 33.5t73.5 111.5l41 193q9 43 12.5 65t-2 43.5t-13.5 30t-36.5 17.5t-56.5 12t-87 8l13 55h499l-12 -53
q-33 -5 -49 -8t-34 -12.5t-24.5 -17t-16 -30.5t-14 -44.5t-13.5 -65.5l-33 -172q-19 -96 -10 -162q-23 -5 -96 -23t-112 -26t-104 -16.5t-123 -8.5q-272 0 -439 155.5t-167 430.5q0 231 109.5 414.5t308 287t449.5 103.5q165 0 360 -64q-16 -166 -25 -319zM1171 1679h64
q-20 -114 -92.5 -175.5t-181.5 -61.5q-106 0 -162.5 61.5t-46.5 175.5h61q10 -53 49.5 -86.5t112.5 -33.5q137 0 196 120z" />
    <glyph glyph-name="gbreve" unicode="&#x11f;" horiz-adv-x="860" 
d="M961 909l14 -37q-73 -78 -146 -96q-37 -5 -53 -6q17 -57 17 -113q0 -101 -45 -181t-111 -134q-108 -88 -264 -119q-38 -27 -41 -63q0 -24 36 -52.5t111 -68.5q146 -76 211.5 -140.5t65.5 -131.5q0 -60 -48 -116t-120.5 -94t-157 -60.5t-158.5 -22.5q-151 0 -260 67.5
t-106 161.5q3 65 87.5 136t256.5 159q-36 25 -57 52.5t-19 49.5q0 51 127 125q-180 41 -180 250q0 98 46.5 189t125.5 153q61 49 132.5 76t129.5 27q107 0 174 -58q153 3 232 47zM410 305q89 0 160 94.5t71 249.5q0 90 -35.5 144.5t-101.5 54.5q-86 0 -148 -92
q-77 -104 -77 -267q0 -88 36.5 -136t94.5 -48zM354 -440q112 0 182 44.5t70 106.5q0 77 -149 164q-135 77 -154 86q-104 -51 -164.5 -109t-60.5 -114q0 -75 83 -126.5t193 -51.5zM752 1313h53q-23 -141 -97 -205t-173 -64q-100 0 -154.5 64t-30.5 205h53q1 -72 40.5 -112
t107.5 -40q67 0 120 40t81 112z" />
    <glyph glyph-name="Gdotaccent" unicode="&#x120;" horiz-adv-x="1394" 
d="M1339 977l-59 -6q1 169 -81 244t-247 75q-138 0 -255.5 -59t-195.5 -158.5t-121.5 -229.5t-43.5 -272q0 -155 50 -274t151.5 -188.5t242.5 -69.5q101 0 160.5 33.5t73.5 111.5l41 193q9 43 12.5 65t-2 43.5t-13.5 30t-36.5 17.5t-56.5 12t-87 8l13 55h499l-12 -53
q-33 -5 -49 -8t-34 -12.5t-24.5 -17t-16 -30.5t-14 -44.5t-13.5 -65.5l-33 -172q-19 -96 -10 -162q-23 -5 -96 -23t-112 -26t-104 -16.5t-123 -8.5q-272 0 -439 155.5t-167 430.5q0 231 109.5 414.5t308 287t449.5 103.5q165 0 360 -64q-16 -166 -25 -319zM973 1657
q38 0 60 -26.5t22 -65.5q0 -48 -31.5 -83.5t-77.5 -35.5q-36 0 -60 25.5t-24 64.5q0 44 30.5 82.5t80.5 38.5z" />
    <glyph glyph-name="gdotaccent" unicode="&#x121;" horiz-adv-x="860" 
d="M961 909l14 -37q-73 -78 -146 -96q-37 -5 -53 -6q17 -57 17 -113q0 -101 -45 -181t-111 -134q-108 -88 -264 -119q-38 -27 -41 -63q0 -24 36 -52.5t111 -68.5q146 -76 211.5 -140.5t65.5 -131.5q0 -60 -48 -116t-120.5 -94t-157 -60.5t-158.5 -22.5q-151 0 -260 67.5
t-106 161.5q3 65 87.5 136t256.5 159q-36 25 -57 52.5t-19 49.5q0 51 127 125q-180 41 -180 250q0 98 46.5 189t125.5 153q60 49 132.5 76t129.5 27q110 0 174 -58q157 3 232 47zM410 305q89 0 160 94.5t71 249.5q0 90 -35.5 144.5t-101.5 54.5q-86 0 -148 -92
q-77 -108 -77 -267q0 -88 36.5 -136t94.5 -48zM354 -440q112 0 182 44.5t70 106.5q0 77 -149 164q-128 74 -154 86q-105 -51 -165 -109t-60 -114q0 -75 83 -126.5t193 -51.5zM571 1303q38 0 60 -27.5t22 -65.5q0 -50 -30.5 -84t-75.5 -34q-37 0 -61.5 25.5t-24.5 64.5
q0 43 30 82t80 39z" />
    <glyph glyph-name="Gcommaaccent" unicode="&#x122;" horiz-adv-x="1394" 
d="M1339 977l-59 -6q1 169 -81 244t-247 75q-138 0 -255.5 -59t-195.5 -158.5t-121.5 -229.5t-43.5 -272q0 -155 50 -274t151.5 -188.5t242.5 -69.5q101 0 160.5 33.5t73.5 111.5l41 193q9 43 12.5 65t-2 43.5t-13.5 30t-36.5 17.5t-56.5 12t-87 8l13 55h499l-12 -53
q-33 -5 -49 -8t-34 -12.5t-24.5 -17t-16 -30.5t-14 -44.5t-13.5 -65.5l-33 -172q-19 -96 -10 -162q-23 -5 -96 -23t-112 -26t-104 -16.5t-123 -8.5q-272 0 -439 155.5t-167 430.5q0 231 109.5 414.5t308 287t449.5 103.5q165 0 360 -64q-16 -166 -25 -319zM729 -88
q49 0 84 -36.5t35 -94.5q1 -52 -21.5 -94.5t-60.5 -69.5t-76.5 -43.5t-81.5 -26.5l-18 56q68 25 103.5 51.5t35.5 66.5q0 49 -72 72q-24 3 -24 39q0 35 27.5 57.5t68.5 22.5z" />
    <glyph glyph-name="gcommaaccent" unicode="&#x123;" horiz-adv-x="860" 
d="M961 909l14 -37q-73 -78 -146 -96q-37 -5 -53 -6q17 -57 17 -113q0 -101 -45 -181t-111 -134q-108 -88 -264 -119q-38 -27 -41 -63q0 -24 36 -52.5t111 -68.5q146 -76 211.5 -140.5t65.5 -131.5q0 -60 -48 -116t-120.5 -94t-157 -60.5t-158.5 -22.5q-151 0 -260 67.5
t-106 161.5q3 65 87.5 136t256.5 159q-36 25 -57 52.5t-19 49.5q0 51 127 125q-180 41 -180 250q0 98 46.5 189t125.5 153q61 49 132.5 76t129.5 27q107 0 174 -58q153 3 232 47zM410 305q89 0 160 94.5t71 249.5q0 90 -35.5 144.5t-101.5 54.5q-86 0 -148 -92
q-77 -108 -77 -267q0 -88 36.5 -136t94.5 -48zM354 -440q112 0 182 44.5t70 106.5q0 77 -149 164q-128 74 -154 86q-105 -51 -165 -109t-60 -114q0 -75 83 -126.5t193 -51.5zM573 1083q-49 0 -83.5 36t-34.5 95q-1 91 69.5 151t169.5 83l17 -57q-67 -25 -101.5 -53
t-34.5 -66q0 -50 70 -70q25 -3 25 -37q0 -35 -28.5 -58.5t-68.5 -23.5z" />
    <glyph glyph-name="Hcircumflex" unicode="&#x124;" horiz-adv-x="1519" 
d="M1612 1329l-15 -55q-44 -4 -68 -7t-46.5 -13t-32.5 -19.5t-21 -34t-17 -49t-15 -72.5l-158 -831q-9 -46 -12.5 -71t-0.5 -48.5t10.5 -33.5t28.5 -19.5t46 -13t71 -7.5l-12 -55h-520l14 55q66 6 97 12t55 29t33 53.5t22 98.5l78 414h-670l-78 -414q-6 -35 -9.5 -56.5
t-3.5 -42.5t1.5 -32.5t10.5 -22.5t19 -16t31 -10.5t41.5 -7.5t55.5 -5l-12 -55h-508l12 55q42 4 66 7.5t45.5 13t31.5 19t21 34t16 48.5t14 71l160 831q7 35 10.5 56.5t4 43t-1.5 32.5t-10.5 23t-19 17t-31 10t-41.5 7.5t-56 5.5l14 55h506l-12 -55q-41 -4 -64 -7.5
t-45 -12.5t-32.5 -20t-22 -34t-18 -49.5t-15.5 -71.5l-61 -331h667l64 331q9 47 13 72.5t1 49t-9.5 33.5t-28 19.5t-45 12.5t-68.5 8l12 55h508zM1214 1446l-36 -45q-96 40 -220 119q-158 -85 -258 -119l-26 45q143 90 278 213h52q90 -112 210 -213z" />
    <glyph glyph-name="hcircumflex" unicode="&#x125;" horiz-adv-x="1046" 
d="M954 221l25 -49q-77 -89 -162 -143t-133 -54q-82 0 -35 199l109 473q36 148 -17 148q-70 0 -214 -136.5t-218 -271.5q-36 -143 -78 -373q-88 -19 -145 -39l-14 17q162 725 260 1227q8 43 9.5 64t-7.5 33.5t-23.5 14.5t-48.5 2l-59 2l8 51q70 7 138.5 25t109 32.5
t49.5 14.5q14 0 15.5 -15.5t-7.5 -56.5l-182 -849h4q92 123 193 209t186 131q79 43 139 43q115 0 55 -261l-106 -456q-15 -73 6 -76q16 0 59.5 27.5t83.5 66.5zM711 1524l-37 -45q-98 41 -219 118q-153 -82 -258 -118l-27 45q146 92 279 213h51q88 -109 211 -213z" />
    <glyph glyph-name="Hbar" unicode="&#x126;" horiz-adv-x="1521" 
d="M1589 1040l-18 -73h-193l-139 -723q-9 -45 -13 -69.5t-1 -48t10.5 -33t29.5 -18.5t47 -12.5t72 -7.5l-14 -55h-518l12 55q45 4 69.5 7t48 12.5t34 19t22 33t17 47.5t14.5 70l80 411h-670l-78 -411q-8 -44 -11.5 -69.5t0 -48.5t11.5 -33t29.5 -19t47 -12.5t71.5 -6.5
l-12 -55h-510l14 55q42 4 65 7t45 12.5t31.5 19t20.5 33.5t16 47.5t14 69.5l142 723h-201l21 73h194l10 58q8 42 11 64.5t0 44t-11 31t-30.5 18t-48 11.5t-72.5 7l14 55h506l-12 -55q-60 -6 -88.5 -12t-51 -26.5t-31.5 -49t-20 -88.5l-12 -58h670l10 58q8 42 11.5 65
t-0.5 44t-11 30t-28.5 17.5t-44.5 11.5t-68 8l12 55h508l-13 -55q-44 -4 -68 -7t-46.5 -12t-32.5 -17.5t-20.5 -31t-15.5 -44t-13 -64.5l-10 -58h196zM1208 967h-667l-43 -228h667z" />
    <glyph glyph-name="hbar" unicode="&#x127;" horiz-adv-x="1046" 
d="M946 219l27 -47q-79 -88 -164.5 -142.5t-134.5 -54.5q-78 0 -31 199q20 89 59 254.5t52 220.5q17 78 14 111t-29 33q-65 0 -211.5 -141.5t-224.5 -274.5q-51 -210 -76 -363q-88 -19 -145 -39l-14 17q91 404 237 1087h-166l25 74h158q16 72 22.5 109t5 58.5t-9 26.5
t-25.5 7l-55 6l10 51q49 8 105 20.5t90.5 20.5t44.5 8q26 0 10 -67q-38 -167 -53 -240h307l-26 -74h-299q-78 -360 -121 -553h6q101 132 206 220t187 131q74 43 127 43q111 0 59 -226q-78 -346 -112 -487q-10 -50 -8.5 -63.5t12.5 -16.5q16 0 58 27t83 65z" />
    <glyph glyph-name="Itilde" unicode="&#x128;" horiz-adv-x="686" 
d="M778 1329l-12 -55q-44 -4 -68.5 -7t-47.5 -12t-33 -17.5t-20.5 -30.5t-16 -44t-13.5 -65l-166 -860q-8 -43 -11.5 -68t0 -47t11.5 -31.5t30 -18.5t47.5 -12t72.5 -6l-12 -55h-525l15 55q44 3 69.5 6t48.5 12.5t33.5 18.5t21.5 32.5t16.5 46.5t14.5 67l166 860
q8 42 11 65.5t-1 44.5t-12 30t-31.5 17.5t-48.5 11.5t-73 7l14 55h520zM752 1622l51 -33q-32 -89 -75.5 -126.5t-88.5 -37.5q-11 0 -23 2t-20.5 4.5t-23.5 8.5t-21.5 9t-25.5 12t-25 12q-58 24 -84 24q-53 0 -99 -90l-49 39q65 160 164 164q44 0 121 -39q71 -33 104 -33
q28 0 49 20t46 64z" />
    <glyph glyph-name="itilde" unicode="&#x129;" horiz-adv-x="561" 
d="M461 223l24 -43q-57 -68 -152.5 -136.5t-146.5 -68.5q-23 0 -34.5 14t-11 60.5t19.5 126.5l127 524q16 60 -2 66q-13 0 -54.5 -25.5t-85.5 -62.5l-24 47q82 81 174 138t135 57q62 0 21 -162l-140 -565q-16 -66 4 -66q17 0 60.5 29.5t85.5 66.5zM641 1268l49 -25
q-70 -174 -166 -174q-16 0 -35 5t-29 9t-38 17.5t-37 17.5q-56 23 -86 23q-50 0 -96 -88l-47 32q36 89 79 130.5t84 41.5q42 0 119 -38q75 -35 109 -35q40 0 94 84z" />
    <glyph glyph-name="Imacron" unicode="&#x12a;" horiz-adv-x="686" 
d="M778 1329l-12 -55q-45 -4 -69.5 -7t-47.5 -12t-33 -17.5t-21 -31t-16 -44t-14 -64.5l-164 -860q-8 -43 -11.5 -68t0 -47t11.5 -31.5t30 -18.5t47.5 -12t72.5 -6l-12 -55h-525l15 55q44 3 69 6.5t48 12t33.5 18.5t21.5 32.5t16.5 46t13.5 67.5l168 860q8 42 11 65.5
t-1 44.5t-12 30t-31.5 17.5t-48.5 11.5t-73 7l12 55h522zM799 1565l-27 -105h-465l29 105h463z" />
    <glyph glyph-name="imacron" unicode="&#x12b;" horiz-adv-x="561" 
d="M461 223l24 -43q-57 -68 -152.5 -136.5t-146.5 -68.5q-23 0 -34.5 14t-11 60.5t19.5 126.5l127 524q16 60 -2 66q-13 0 -54.5 -25.5t-85.5 -62.5l-24 47q82 81 174 138t135 57q62 0 21 -162l-140 -565q-16 -66 4 -66q17 0 60.5 29.5t85.5 66.5zM653 1225l-24 -107h-459
l27 107h456z" />
    <glyph glyph-name="Ibreve" unicode="&#x12c;" horiz-adv-x="686" 
d="M778 1329l-12 -55q-45 -4 -69.5 -7t-47.5 -12t-33 -17.5t-21 -31t-16 -44t-14 -64.5l-164 -860q-8 -43 -11.5 -68t0 -47t11.5 -31.5t30 -18.5t47.5 -12t72.5 -6l-12 -55h-525l15 55q44 3 69 6.5t48 12t33.5 18.5t21.5 32.5t16.5 46t13.5 67.5l168 860q8 42 11 65.5
t-1 44.5t-12 30t-31.5 17.5t-48.5 11.5t-73 7l12 55h522zM743 1657h62q-19 -114 -92 -176t-183 -62q-105 0 -160.5 62t-45.5 176h61q8 -52 48.5 -86.5t113.5 -34.5q136 0 196 121z" />
    <glyph glyph-name="ibreve" unicode="&#x12d;" horiz-adv-x="561" 
d="M461 223l26 -43q-57 -68 -153.5 -136.5t-147.5 -68.5q-23 0 -34.5 14t-11 60.5t19.5 126.5l129 524q13 60 -2 66q-14 0 -56 -25.5t-86 -62.5l-24 47q82 81 175 138t136 57q62 0 21 -162l-142 -565q-16 -66 4 -66q17 0 60.5 29.5t85.5 66.5zM616 1313h54
q-23 -141 -97.5 -205t-173.5 -64q-101 0 -155.5 64t-30.5 205h53q1 -71 41.5 -111.5t108.5 -40.5q67 0 119.5 40t80.5 112z" />
    <glyph glyph-name="Iogonek" unicode="&#x12e;" horiz-adv-x="686" 
d="M778 1329l-12 -55q-45 -4 -67.5 -7t-46.5 -11t-33.5 -16.5t-21 -29.5t-17 -44t-13.5 -64l-168 -869q-8 -43 -11.5 -67.5t0.5 -46t11.5 -30.5t31 -17t48 -11t72.5 -6l-12 -55h-222q-48 -67 -86 -149t-38 -142q0 -41 24.5 -63.5t67.5 -22.5q41 0 94 21l16 -54l-116 -63
q-47 -21 -78 -21q-68 0 -108 37.5t-40 106.5q0 122 189 350h-228l15 55q43 3 67.5 6.5t47.5 11.5t34 18t22 31.5t17 45t14 65.5l168 869q8 40 11 63t-1 43.5t-12 29.5t-30.5 17.5t-48.5 11.5t-74 7l14 55h520z" />
    <glyph glyph-name="iogonek" unicode="&#x12f;" horiz-adv-x="557" 
d="M459 1335q38 0 60 -26.5t22 -65.5q2 -48 -30 -83.5t-77 -35.5q-37 0 -61.5 25.5t-24.5 64.5q0 44 30.5 82.5t80.5 38.5zM459 223l26 -43q-57 -70 -145 -133q-82 -91 -133 -184t-51 -160q0 -78 73 -78q41 0 101 27l16 -55l-113 -64q-39 -20 -79 -20q-59 0 -97.5 37.5
t-38.5 97.5q0 71 59.5 166t139.5 174l-2 2q-30 -10 -48 1t-23 38.5t-1 64t15 82.5l129 524q13 60 -2 66q-14 0 -56 -25.5t-86 -62.5l-24 47q84 81 175.5 138t133.5 57q64 0 23 -162l-142 -565q-16 -66 4 -66q37 0 146 96z" />
    <glyph glyph-name="Idotaccent" unicode="&#x130;" horiz-adv-x="686" 
d="M778 1329l-12 -55q-45 -4 -69.5 -7t-47.5 -12t-33 -17.5t-21 -31t-16 -44t-14 -64.5l-164 -860q-8 -43 -11.5 -68t0 -47t11.5 -31.5t30 -18.5t47.5 -12t72.5 -6l-12 -55h-525l15 55q44 3 69 6.5t48 12t33.5 18.5t21.5 32.5t16.5 46t13.5 67.5l168 860q8 42 11 65.5
t-1 44.5t-12 30t-31.5 17.5t-48.5 11.5t-73 7l12 55h522zM559 1642q38 0 60 -26.5t22 -65.5q0 -48 -30.5 -83t-75.5 -35q-37 0 -61.5 25.5t-24.5 64.5q0 44 30 82t80 38z" />
    <glyph glyph-name="dotlessi" unicode="&#x131;" horiz-adv-x="561" 
d="M459 223l26 -43q-57 -68 -152.5 -136.5t-146.5 -68.5q-23 0 -34.5 14t-11 60.5t19.5 126.5l129 524q13 60 -2 66q-13 0 -55 -25.5t-87 -62.5l-24 47q82 81 175 138t136 57q62 0 21 -162l-142 -565q-19 -66 2 -66q37 0 146 96z" />
    <glyph glyph-name="IJ" unicode="&#x132;" horiz-adv-x="1339" 
d="M778 1329l-12 -55q-45 -4 -69.5 -7t-47.5 -12t-33 -17.5t-21 -31t-16 -44t-14 -64.5l-164 -860q-8 -43 -11.5 -68t0 -47t11.5 -31.5t30 -18.5t47.5 -12t72.5 -6l-12 -55h-525l15 55q44 3 69 6.5t48 12t33.5 18.5t21.5 32.5t16.5 46t13.5 67.5l168 860q8 42 11 65.5
t-1 44.5t-12 30t-31.5 17.5t-48.5 11.5t-73 7l12 55h522zM1454 1329l-12 -55q-43 -5 -64.5 -8.5t-44.5 -12.5t-31.5 -18t-20 -32t-16.5 -47t-14 -69l-151 -821q-37 -200 -104 -317.5t-185 -184.5q-85 -52 -158 -61l-20 61q161 48 225 220q43 109 82 323l145 780
q6 34 9.5 55.5t3 41.5t-2 31t-12 21.5t-19 15t-31 9.5t-41 7t-54.5 6l12 55h504z" />
    <glyph glyph-name="ij" unicode="&#x133;" horiz-adv-x="1091" 
d="M453 1311q38 0 60 -26.5t22 -65.5q2 -46 -30 -81.5t-79 -35.5q-36 0 -59 24.5t-23 65.5q-2 42 29 80.5t80 38.5zM457 223l26 -45q-57 -67 -152.5 -135t-144.5 -68q-23 0 -35 14t-12 60.5t19 126.5l129 522q15 66 -2 66q-13 0 -55 -25t-87 -61l-24 45q82 80 175 137.5
t134 57.5q63 0 21 -162l-140 -563q-16 -66 4 -66q35 0 144 96zM981 1327q38 0 60 -27.5t22 -66.5q0 -47 -31.5 -82t-77.5 -35q-36 0 -60 25t-24 65q0 43 31 82t80 39zM678 657l-27 45q90 93 184.5 154.5t139.5 61.5q33 0 36 -52t-20 -159q-42 -218 -112 -572
q-74 -373 -244 -532q-68 -66 -127 -97.5t-92 -31.5q-31 0 -59.5 19t-28.5 46q0 24 14.5 49t34.5 41q26 22 45 11q56 -35 100 -35q45 0 78 51.5t62 167.5q22 96 43.5 201t61 307.5t60.5 308.5q23 109 7 116q-2 1 -5 1q-13 0 -60 -31.5t-91 -69.5z" />
    <glyph glyph-name="Jcircumflex" unicode="&#x134;" horiz-adv-x="657" 
d="M768 1329l-12 -55q-43 -5 -64.5 -8.5t-44.5 -12.5t-31.5 -18t-20 -32t-16.5 -47t-14 -69l-151 -821q-37 -200 -104 -317.5t-185 -184.5q-85 -52 -158 -61l-20 61q161 48 225 220q43 109 82 323l145 780q6 34 9.5 55.5t3 41.5t-2 31t-12 21.5t-19 15t-31 9.5t-41 7
t-54.5 6l12 55h504zM797 1446l-37 -45q-93 39 -219 119q-158 -85 -258 -119l-27 45q146 92 279 213h51q88 -109 211 -213z" />
    <glyph glyph-name="jcircumflex" unicode="&#x135;" horiz-adv-x="546" 
d="M621 1059l-48 -33q-58 64 -143 195q-149 -139 -223 -195l-39 35q163 185 264 332h45q49 -151 144 -334zM139 662l-24 43q88 92 183.5 153.5t139.5 61.5q32 0 34.5 -52t-19.5 -161q-18 -93 -56.5 -281.5t-58.5 -288.5q-75 -378 -242 -534q-68 -66 -126 -96.5t-91 -30.5
q-32 0 -60 18t-28 45q0 19 14.5 45.5t32.5 44.5q27 19 47 9q52 -31 99 -31q46 0 78 50t61 171q27 116 166 817q12 74 11.5 90t-7.5 27q-14 0 -62.5 -31.5t-91.5 -68.5z" />
    <glyph glyph-name="Kcommaaccent" unicode="&#x136;" horiz-adv-x="1337" 
d="M1464 1329l-14 -53q-114 -17 -167 -40.5t-148 -98.5q-111 -88 -449 -381q76 -127 187.5 -295t185.5 -268q59 -78 99 -103t126 -35l-14 -55h-295q-31 47 -120 182t-149.5 229.5t-113.5 182.5q-31 51 -58 63.5t-61 -4.5l-70 -391q-10 -51 -14 -78t-1.5 -53t9 -36t28 -20
t45 -13t69.5 -7l-11 -55h-503l14 55q42 4 64 7t45 12.5t33 20.5t22 36t19 53.5t16 77.5l155 813q9 48 13 74t1 50t-9.5 34.5t-27.5 20t-44 12.5t-68 8l12 55h496l-12 -55q-44 -4 -67 -7.5t-46 -13.5t-32 -19.5t-20.5 -35t-17 -50t-14.5 -73.5l-72 -362q70 22 154 92
q209 173 414 375q30 29 38 45.5t-4 26t-49 14.5l-59 8l12 55h473zM686 -41q49 0 84 -36.5t35 -94.5q1 -52 -21.5 -94.5t-60.5 -69.5t-76.5 -43.5t-81.5 -26.5l-18 56q68 24 103.5 51.5t35.5 67.5q0 49 -72 71q-24 3 -24 39q0 35 27.5 57.5t68.5 22.5z" />
    <glyph glyph-name="kcommaaccent" unicode="&#x137;" horiz-adv-x="962" 
d="M895 203l35 -41q-66 -102 -125.5 -144.5t-102.5 -42.5q-35 0 -66.5 29t-68.5 107q-75 159 -153 381q-97 -100 -113 -132q-31 -139 -72 -346q-65 -12 -147 -39l-14 13q157 666 278 1255q12 61 -0.5 75.5t-73.5 16.5h-63l10 51q72 8 141.5 26t110 32t49.5 14q14 0 15.5 -15
t-5.5 -46q-37 -160 -105.5 -464.5t-100.5 -445.5h4q62 73 176 183q242 250 358 250q39 0 61.5 -20t22.5 -44q0 -43 -39 -82q-19 -19 -33 -12q-36 16 -77 16q-64 0 -137.5 -52.5t-131.5 -117.5q27 -88 77.5 -206.5t90.5 -194.5q29 -56 46.5 -77t35.5 -21q15 0 47.5 25.5
t69.5 68.5zM412 -59q50 0 84.5 -36t35.5 -95q0 -52 -22.5 -94.5t-60.5 -69.5t-76.5 -43.5t-81.5 -26.5l-17 55q67 25 102.5 52t35.5 65q0 52 -72 74q-25 4 -25 39t27.5 57.5t69.5 22.5z" />
    <glyph glyph-name="kgreenlandic" unicode="&#x138;" horiz-adv-x="1028" 
d="M360 440l5 -2q79 88 223 232q246 250 342 250q44 0 68 -20t24 -46q0 -41 -41 -82q-19 -19 -35 -12q-36 18 -80 18q-30 0 -69 -20t-85 -60.5t-76 -70t-77 -78.5q89 -196 195 -365q27 -45 43 -60t34 -15q38 0 119 94l35 -43q-46 -71 -92 -114.5t-77 -57t-58 -13.5
q-66 0 -135 127q-68 112 -172 336q-72 -68 -111 -116q-36 -128 -72 -306q-80 -16 -145 -39l-14 15q93 376 165 692q7 33 8.5 52t-2 25.5t-10.5 6.5q-14 2 -54.5 -26t-74.5 -64l-30 45q79 86 163 141.5t127 55.5q71 0 19 -222z" />
    <glyph glyph-name="Lacute" unicode="&#x139;" horiz-adv-x="1089" 
d="M991 340l58 -21q-20 -55 -65 -165.5t-66 -153.5h-904l13 53q118 10 148.5 38.5t53.5 146.5l168 856q9 44 12.5 67.5t0 45.5t-10.5 31t-29.5 17.5t-46.5 11.5t-71 7l12 55h512l-12 -55q-46 -4 -70 -7t-48 -12t-33.5 -17.5t-20.5 -31.5t-16 -45t-13 -67l-162 -850
q-22 -114 23 -148q33 -26 184 -26q94 0 148.5 13t91.5 50q70 67 143 207zM864 1546l-4 -16l-383 -129l-26 51q67 41 189 118.5t140 88.5q19 -4 49 -46t35 -67z" />
    <glyph glyph-name="lacute" unicode="&#x13a;" horiz-adv-x="509" 
d="M442 240l29 -45q-75 -92 -169 -156t-144 -64q-84 0 -31 248q36 168 107.5 504t107.5 504q13 67 -1 84.5t-85 19.5h-57l8 51q70 7 140.5 25t112.5 32.5t50 14.5q15 0 17.5 -14.5t-5.5 -46.5q-131 -629 -252 -1198q-15 -72 9 -72q18 0 70 35t93 78zM709 1649l-4 -17
l-383 -129l-27 51q16 10 330 207q19 -4 49 -45.5t35 -66.5z" />
    <glyph glyph-name="Lcommaaccent" unicode="&#x13b;" horiz-adv-x="1089" 
d="M991 340l58 -21q-20 -55 -65 -165.5t-66 -153.5h-904l13 53q118 10 148.5 38.5t53.5 146.5l168 856q9 44 12.5 67.5t0 45.5t-10.5 31t-29.5 17.5t-46.5 11.5t-71 7l12 55h512l-12 -55q-46 -4 -70 -7t-48 -12t-33.5 -17.5t-20.5 -31.5t-16 -45t-13 -67l-162 -850
q-22 -114 23 -148q33 -26 184 -26q94 0 148.5 13t91.5 50q70 67 143 207zM553 -70q49 0 84 -36.5t35 -94.5q1 -52 -21.5 -94.5t-60.5 -69.5t-76.5 -43t-81.5 -26l-18 55q68 24 103.5 51.5t35.5 67.5q0 50 -72 72q-24 3 -24 38t27.5 57.5t68.5 22.5z" />
    <glyph glyph-name="lcommaaccent" unicode="&#x13c;" horiz-adv-x="509" 
d="M442 240l29 -45q-75 -92 -169 -156t-144 -64q-84 0 -31 248q36 168 107.5 504t107.5 504q13 67 -1 84.5t-85 19.5h-57l8 51q70 7 140.5 25t112.5 32.5t50 14.5q15 0 17.5 -14.5t-5.5 -46.5q-131 -629 -252 -1198q-15 -72 9 -72q18 0 70 35t93 78zM186 -76q49 0 84 -36.5
t35 -94.5q1 -42 -14.5 -78t-39 -61t-57 -44.5t-64 -30.5t-64.5 -19l-19 55q68 24 103.5 51.5t35.5 67.5q0 49 -71 71q-25 4 -25 39t28 57.5t68 22.5z" />
    <glyph glyph-name="Lcaron" unicode="&#x13d;" horiz-adv-x="1089" 
d="M991 340l58 -21q-105 -264 -131 -319h-904l13 53q118 10 148.5 38.5t53.5 146.5l168 856q8 44 11.5 67.5t0 46t-10.5 31t-29.5 17.5t-46.5 12t-72 8l14 53h512l-12 -53q-46 -4 -70 -7t-48 -12t-33.5 -17.5t-20.5 -32t-16 -46t-13 -67.5l-162 -850q-22 -114 23 -148
q33 -26 184 -26q94 0 148.5 13t91.5 50q67 64 143 207zM952 1346q42 0 70.5 -36t28.5 -93q0 -89 -58.5 -147.5t-144.5 -82.5l-23 53q56 28 85.5 56t29.5 65q0 45 -49 70q-19 6 -19 41q0 30 23.5 52t56.5 22z" />
    <glyph glyph-name="lcaron" unicode="&#x13e;" horiz-adv-x="509" 
d="M440 240l31 -45q-75 -92 -169 -156t-144 -64q-84 0 -31 248q36 168 107.5 504t107.5 504q13 67 -1 84.5t-85 19.5h-57l8 51q70 7 140 25t112 32.5t51 14.5q13 0 15.5 -14.5t-3.5 -46.5q-116 -543 -252 -1198q-15 -72 9 -72q18 0 69 35t92 78zM709 1452q41 0 69.5 -36.5
t28.5 -94.5q0 -87 -59.5 -144.5t-145.5 -82.5l-20 53q54 26 83 54t29 65q0 28 -12 43t-37 26q-18 11 -18 41t24.5 53t57.5 23z" />
    <glyph glyph-name="Ldot" unicode="&#x13f;" horiz-adv-x="1089" 
d="M991 340l58 -21q-20 -55 -65 -165.5t-66 -153.5h-904l13 53q118 10 148.5 38.5t53.5 146.5l168 856q9 44 12.5 67.5t0 45.5t-10.5 31t-29.5 17.5t-46.5 11.5t-71 7l12 55h512l-12 -55q-46 -4 -70 -7t-48 -12t-33.5 -17.5t-20.5 -31.5t-16 -45t-13 -67l-162 -850
q-22 -114 23 -148q33 -26 184 -26q94 0 148.5 13t91.5 50q70 67 143 207zM819 821q38 0 60 -26.5t22 -65.5q0 -48 -30.5 -83.5t-75.5 -35.5q-37 0 -61.5 25.5t-24.5 64.5q0 45 30 83t80 38z" />
    <glyph glyph-name="ldot" unicode="&#x140;" horiz-adv-x="563" 
d="M440 240l31 -47q-75 -90 -170 -154t-143 -64q-86 0 -33 248q42 197 121 568.5t94 441.5q15 67 0 84.5t-86 19.5h-57l8 52q71 7 141 24.5t112 31t50 13.5q15 0 17.5 -14t-5.5 -45q-123 -595 -252 -1200q-15 -72 8 -72q20 0 72 35t92 78zM590 848q38 0 60 -26.5t22 -65.5
q0 -50 -31 -84.5t-76 -34.5q-37 0 -61.5 25.5t-24.5 64.5q0 43 30.5 82t80.5 39z" />
    <glyph glyph-name="Lslash" unicode="&#x141;" horiz-adv-x="1126" 
d="M1030 338l57 -21q-83 -221 -129 -317h-907l15 55q45 3 68 6t47 11.5t34 18t21.5 32.5t17 48t14.5 71l66 336l-217 -144l18 101l217 143l82 420q8 42 11.5 66.5t-1 45.5t-12 30.5t-30 17t-46 10.5t-69.5 6l16 55h510l-14 -55q-46 -4 -68 -6.5t-46 -11t-32.5 -16.5
t-20 -30.5t-16.5 -45t-14 -66.5l-61 -303l276 184l-29 -107l-268 -180l-80 -446q-22 -115 25 -148q32 -28 178 -28q107 0 157.5 12.5t88.5 48.5q34 31 64.5 77.5t76.5 129.5z" />
    <glyph glyph-name="lslash" unicode="&#x142;" horiz-adv-x="567" 
d="M641 1010l-20 -101l-199 -153l-113 -547q-19 -86 6 -86q18 0 69.5 37t92.5 78l31 -48q-74 -90 -164 -152.5t-145 -62.5q-22 0 -35 19t-17 68.5t17 136.5l90 428l-180 -140l20 103l180 139l109 504q13 67 -1.5 83.5t-86.5 18.5l-59 2l10 52q70 7 139.5 24.5t112 31
t53.5 13.5q26 0 14 -59l-121 -543z" />
    <glyph glyph-name="Nacute" unicode="&#x143;" horiz-adv-x="1443" 
d="M1569 1329l-13 -55q-89 -4 -123 -31t-55 -98q-34 -107 -78 -348l-155 -813h-62l-606 1085h-6l-106 -545q-48 -240 -54 -346q-3 -69 31.5 -92.5t142.5 -32.5l-12 -53h-469l14 53q83 6 122 31t59 90q32 102 84 354l106 506q16 79 13 110.5t-25 67.5q-19 32 -53.5 45
t-118.5 17l12 55h293l604 -1042h8l95 510q47 243 55 352q4 70 -30 93.5t-148 31.5l14 55h461zM1180 1544l-4 -16l-383 -129l-27 51q62 39 175 111t155 98q20 -6 49.5 -47.5t34.5 -67.5z" />
    <glyph glyph-name="nacute" unicode="&#x144;" horiz-adv-x="1089" 
d="M983 223l31 -49q-85 -94 -165.5 -146.5t-123.5 -52.5q-84 0 -31 213q41 170 107 455q14 57 15.5 89.5t-6 44t-24.5 11.5q-65 0 -207.5 -144.5t-222.5 -281.5q-54 -216 -80 -346q-81 -15 -147 -39l-12 15q100 390 168 694q17 82 -4 82q-14 0 -53.5 -28t-77.5 -64l-29 49
q83 87 164 141t125 54q69 0 16 -228l-43 -178h4q95 129 197 221.5t180 136.5q77 48 135 48q18 0 31 -5t25 -23t16 -48.5t-1.5 -86t-23.5 -130.5q-54 -227 -100 -424q-16 -74 4 -74q15 0 53 26t80 68zM944 1352l-315 -348l-49 32q47 71 109 176.5t81 143.5q19 7 83 15t87 5z
" />
    <glyph glyph-name="Ncommaaccent" unicode="&#x145;" horiz-adv-x="1443" 
d="M1567 1329l-11 -55q-89 -4 -123 -31t-55 -98q-34 -107 -78 -348l-155 -813h-62l-606 1085h-6l-106 -545q-48 -240 -54 -346q-3 -69 31.5 -92.5t142.5 -32.5l-12 -53h-469l14 53q83 6 122 31t59 90q32 102 84 354l106 506q16 79 13 110.5t-25 67.5q-19 32 -53.5 45
t-118.5 17l12 55h293l604 -1042h6l97 510q46 248 53 352q4 70 -30 93.5t-148 31.5l14 55h461zM705 -23q49 0 83.5 -36.5t34.5 -94.5q1 -52 -21.5 -94.5t-61 -69.5t-77 -43t-81.5 -26l-17 55q68 25 104 52t36 67q0 49 -74 72q-25 7 -25 39q0 35 28.5 57t70.5 22z" />
    <glyph glyph-name="ncommaaccent" unicode="&#x146;" horiz-adv-x="1089" 
d="M983 223l31 -49q-85 -93 -166 -146t-123 -53q-83 0 -33 213q80 327 109 453q14 57 15.5 90.5t-6 45t-24.5 11.5q-65 0 -207.5 -145t-222.5 -283q-50 -196 -80 -346q-66 -10 -147 -39l-12 17q100 390 168 694q17 82 -4 82q-14 0 -53.5 -28t-77.5 -64l-29 49q83 87 164 141
t125 54q69 0 16 -228l-43 -178h4q95 129 197 221.5t180 136.5q77 48 135 48q18 0 31 -5t25 -23t16 -48.5t-1.5 -86t-23.5 -130.5q-54 -227 -100 -424q-19 -74 4 -74q15 0 53 26t80 68zM473 -86q49 0 84 -36.5t35 -94.5q1 -52 -21.5 -94.5t-60.5 -69.5t-76.5 -43.5
t-81.5 -26.5l-18 56q68 24 103.5 51.5t35.5 67.5q0 49 -74 71q-24 3 -24 39q0 35 28 57.5t70 22.5z" />
    <glyph glyph-name="Ncaron" unicode="&#x147;" horiz-adv-x="1443" 
d="M1569 1329l-13 -55q-89 -4 -123 -31t-55 -98q-34 -107 -78 -348l-155 -813h-62l-606 1085h-6l-106 -545q-48 -240 -54 -346q-3 -69 31.5 -92.5t142.5 -32.5l-12 -53h-469l14 53q83 6 122 31t59 90q32 102 84 354l106 506q16 79 13 110.5t-25 67.5q-19 32 -53.5 45
t-118.5 17l12 55h293l604 -1042h8l95 510q47 243 55 352q4 70 -30 93.5t-148 31.5l14 55h461zM1182 1632l26 -43q-165 -109 -278 -215h-51q-84 104 -211 215l39 43q97 -41 217 -119q163 87 258 119z" />
    <glyph glyph-name="ncaron" unicode="&#x148;" horiz-adv-x="1089" 
d="M983 223l31 -49q-85 -94 -165.5 -146.5t-123.5 -52.5q-84 0 -31 213q41 170 107 455q14 57 15.5 89.5t-6 44t-24.5 11.5q-65 0 -207.5 -144.5t-222.5 -281.5q-54 -216 -80 -346q-81 -15 -147 -39l-12 15q100 390 168 694q17 82 -4 82q-14 0 -53.5 -28t-77.5 -64l-29 49
q83 87 164 141t125 54q69 0 16 -228l-43 -178h4q95 129 197 221.5t180 136.5q77 48 135 48q18 0 31 -5t25 -23t16 -48.5t-1.5 -86t-23.5 -130.5q-54 -227 -100 -424q-16 -74 4 -74q15 0 53 26t80 68zM885 1376l45 -37q-174 -197 -266 -331h-46q-49 151 -145 333l51 35
q72 -86 142 -196q127 127 219 196z" />
    <glyph glyph-name="napostrophe" unicode="&#x149;" horiz-adv-x="1091" 
d="M164 1028l-19 53q76 31 120.5 68t47.5 92q5 78 -102 105q-23 9 -23 32q3 36 31 57t62 21q62 0 111 -48.5t46 -133.5q-2 -50 -28 -93t-68 -72.5t-86 -49t-92 -31.5zM977 221l31 -49q-84 -92 -164.5 -144.5t-124.5 -52.5q-81 0 -33 205q31 123 119 488q16 70 12.5 95
t-26.5 25q-64 0 -213 -152t-226 -290q-42 -149 -78 -330q-80 -16 -145 -39l-14 15q100 390 168 694q17 82 -4 82q-14 0 -54 -28t-78 -64l-26 49q81 86 162.5 140.5t124.5 54.5q72 0 16 -228l-41 -186h4q160 231 385 368q81 46 135 46q16 0 28 -4.5t23 -20t14.5 -41
t-0.5 -70.5t-18 -106q-47 -200 -114 -479q-16 -70 6 -70q15 0 53.5 26t77.5 66z" />
    <glyph glyph-name="Eng" unicode="&#x14a;" horiz-adv-x="1443" 
d="M1569 1329l-13 -53q-86 -5 -122.5 -30t-55.5 -93q-41 -154 -80 -356l-122 -656q-32 -166 -62.5 -270t-77.5 -176q-88 -137 -207 -137q-37 0 -61.5 17.5t-24.5 45.5q0 30 23.5 65t42.5 35q10 0 33.5 -11t48.5 -11q51 0 98.5 77t77.5 238l-590 1055h-6l-104 -541
q-41 -210 -54 -350q-6 -70 29 -93.5t145 -31.5l-12 -53h-471l12 53q83 6 122.5 31t60.5 90q30 94 84 354l104 506q16 78 13.5 110t-23.5 66q-18 32 -55.5 47t-118.5 19l12 53h295l604 -1042h6l94 510q50 269 56 358q6 69 -31 92t-145 29l12 53h463z" />
    <glyph glyph-name="eng" unicode="&#x14b;" horiz-adv-x="1056" 
d="M145 678l-30 47q75 82 159.5 138.5t131.5 56.5q70 0 16 -230l-45 -194h4q185 248 397 378q76 46 133 46q26 0 40 -15.5t19 -64.5t-16 -140q-67 -330 -104 -491q-40 -192 -93 -300.5t-139 -187.5q-69 -63 -130 -93.5t-99 -30.5q-32 0 -57 16.5t-25 44.5q0 22 14.5 51.5
t34.5 44.5q25 18 45 8q51 -30 97 -30q53 0 92 62.5t69 203.5l144 682q13 60 10 84t-22 24q-61 0 -212 -155t-229 -289q-36 -129 -76 -328q-81 -15 -147 -39l-14 15q77 300 166 694q18 84 -5 84q-14 0 -52.5 -27t-76.5 -65z" />
    <glyph glyph-name="Omacron" unicode="&#x14c;" horiz-adv-x="1449" 
d="M881 1360q244 0 394 -163t150 -423q0 -161 -56 -308.5t-153.5 -257t-237.5 -174.5t-300 -65q-242 0 -392.5 161.5t-150.5 420.5q0 159 57 307t155 258.5t237.5 177t296.5 66.5zM864 1290q-116 0 -218.5 -68t-170 -177t-106.5 -243.5t-39 -269.5q0 -105 22 -193.5t66 -156
t115 -105.5t163 -38q99 0 186.5 46t150 123t108 175t68 203.5t22.5 208.5q0 106 -20 193t-62.5 156t-115 107.5t-169.5 38.5zM1153 1571l-27 -105h-464l28 105h463z" />
    <glyph glyph-name="omacron" unicode="&#x14d;" horiz-adv-x="962" 
d="M365 -25q-71 0 -124.5 26t-84.5 71.5t-46.5 101t-15.5 119.5q0 191 88.5 340t223.5 219q123 68 223 68q127 0 198.5 -84t71.5 -236q0 -137 -57.5 -273.5t-161.5 -222.5q-153 -129 -315 -129zM438 57q31 0 68 13q87 37 154.5 187.5t66.5 338.5q0 120 -46 182t-120 62
q-39 0 -78 -17q-26 -12 -53.5 -37.5t-57.5 -71t-53 -102t-38 -137t-15 -170.5q0 -115 45.5 -181.5t126.5 -66.5zM860 1225l-24 -105h-459l26 105h457z" />
    <glyph glyph-name="Obreve" unicode="&#x14e;" horiz-adv-x="1449" 
d="M879 1360q246 0 396 -163t150 -423q0 -161 -56 -308.5t-153.5 -257t-237.5 -174.5t-300 -65q-242 0 -392.5 161.5t-150.5 420.5q0 213 96 398t268.5 298t379.5 113zM864 1290q-116 0 -218.5 -68t-170 -177t-106.5 -243.5t-39 -269.5q0 -105 22 -193.5t66 -156t115 -105.5
t163 -38q99 0 186.5 46t150 123t108 175t68 203.5t22.5 208.5q0 106 -20 193t-62.5 156t-115 107.5t-169.5 38.5zM1110 1659h64q-20 -114 -93 -176t-182 -62q-106 0 -162.5 62t-46.5 176h62q8 -52 48 -86.5t113 -34.5q137 0 197 121z" />
    <glyph glyph-name="obreve" unicode="&#x14f;" horiz-adv-x="962" 
d="M365 -25q-71 0 -124.5 26t-84.5 71.5t-46.5 101t-15.5 119.5q0 191 88.5 340t223.5 219q123 68 223 68q127 0 198.5 -84t71.5 -236q0 -137 -57.5 -273.5t-161.5 -222.5q-153 -129 -315 -129zM438 57q31 0 68 13q87 37 154.5 187.5t66.5 338.5q0 120 -46 182t-120 62
q-39 0 -78 -17q-26 -12 -53.5 -37.5t-57.5 -71t-53 -102t-38 -137t-15 -170.5q0 -115 45.5 -181.5t126.5 -66.5zM811 1313h51q-12 -73 -39 -127t-64.5 -84t-78.5 -44t-88 -14q-100 0 -153 63.5t-29 205.5h51q1 -72 40 -112t107 -40t121.5 40t81.5 112z" />
    <glyph glyph-name="Ohungarumlaut" unicode="&#x150;" horiz-adv-x="1449" 
d="M881 1360q244 0 394 -163t150 -423q0 -161 -56 -308.5t-153.5 -257t-237.5 -174.5t-300 -65q-242 0 -392.5 161.5t-150.5 420.5q0 159 57 307t155 258.5t237.5 177t296.5 66.5zM864 1290q-116 0 -218.5 -68t-170 -177t-106.5 -243.5t-39 -269.5q0 -105 22 -193.5t66 -156
t115 -105.5t163 -38q99 0 186.5 46t150 123t108 175t68 203.5t22.5 208.5q0 106 -20 193t-62.5 156t-115 107.5t-169.5 38.5zM958 1669v-29l-215 -219l-49 31q68 128 129 254q23 4 71.5 -9.5t63.5 -27.5zM1237 1669v-29l-215 -219l-49 31q97 190 127 254q25 4 73.5 -10
t63.5 -27z" />
    <glyph glyph-name="ohungarumlaut" unicode="&#x151;" horiz-adv-x="962" 
d="M365 -25q-71 0 -124.5 26t-84.5 71.5t-46.5 101t-15.5 119.5q0 191 88.5 340t223.5 219q123 68 223 68q127 0 198.5 -84t71.5 -236q0 -137 -57.5 -273.5t-161.5 -222.5q-153 -129 -315 -129zM438 57q31 0 68 13q87 37 154.5 187.5t66.5 338.5q0 120 -46 182t-120 62
q-39 0 -78 -17q-26 -12 -53.5 -37.5t-57.5 -71t-53 -102t-38 -137t-15 -170.5q0 -115 45.5 -181.5t126.5 -66.5zM674 1327l-236 -323l-53 32q117 269 129 305q22 5 77.5 8t76.5 -1zM946 1327l-235 -323l-49 32q28 63 73 172.5t53 132.5q22 5 77.5 8t76.5 -1z" />
    <glyph glyph-name="OE" unicode="&#x152;" horiz-adv-x="1939" 
d="M1755 0h-620q-71 0 -185 -12q-104 -11 -170 -11q-146 0 -261 38t-184 97t-114.5 138.5t-62.5 155.5t-17 155q0 191 70.5 344t191 249.5t276.5 147.5t333 50q87 0 206 -11.5t168 -11.5h558q-5 -32 -37 -307l-60 -4q0 123 -26 176q-18 38 -59 52t-152 14h-152
q-51 0 -63.5 -10.5t-22.5 -67.5l-86 -451h193q46 0 74.5 1.5t53.5 8.5t38.5 15.5t27.5 28.5t22.5 40t22.5 58h58l-76 -387h-60q-1 22 0.5 40t-1.5 32.5t-3.5 26t-7 20.5t-11.5 15.5t-17 11.5t-23.5 8t-30 4.5t-38.5 2t-48 0.5h-188l-70 -366q-17 -91 -15 -133.5t25 -59.5
q22 -18 66 -23t139 -5q115 0 172 14t99 55q72 69 141 197l55 -21q-7 -17 -34.5 -87.5t-54 -135t-40.5 -92.5zM1018 205l180 934q9 58 1 79.5t-36 32.5q-67 31 -184 31q-128 0 -242 -45.5t-204 -132t-142.5 -226.5t-52.5 -315q0 -67 11.5 -132.5t44 -138t82.5 -126
t135.5 -87.5t195.5 -32q80 4 133 27q59 24 78 131z" />
    <glyph glyph-name="oe" unicode="&#x153;" horiz-adv-x="1409" 
d="M1386 756q0 -56 -37 -109t-93 -91.5t-132.5 -73t-144.5 -56.5t-139 -39q-4 -29 -4 -57q0 -234 159 -234q141 0 310 166l32 -47q-217 -240 -430 -240q-31 0 -60 8.5t-59 28.5t-53 57.5t-35 90.5h-2q-60 -79 -159 -132t-187 -53q-54 0 -98.5 19t-73.5 50t-49 73t-28.5 87
t-8.5 93q0 188 84 334.5t211 218.5q131 70 227 70q85 0 145.5 -48t84.5 -139h2q71 77 175.5 132t186.5 55q80 0 128 -46.5t48 -117.5zM1229 727q1 50 -25.5 77t-68.5 27h-2q-57 0 -101 -28q-22 -13 -45 -36t-51.5 -63t-52 -105t-35.5 -144q378 99 381 272zM717 602
q0 121 -43 180.5t-119 59.5h-2q-31 0 -74 -17q-32 -13 -66.5 -48.5t-68.5 -95t-56 -155t-22 -209.5q0 -115 40 -186.5t120 -71.5q35 0 68 17q79 35 151 185t72 341z" />
    <glyph glyph-name="Racute" unicode="&#x154;" horiz-adv-x="1226" 
d="M1198 35l-18 -51h-21q-142 7 -211 50t-127 150q-62 118 -139 303q-25 58 -51 76.5t-82 18.5h-86l-60 -322q-10 -49 -14 -77t-0.5 -52.5t10.5 -35.5t29.5 -20.5t47 -12.5t71.5 -7l-12 -55h-515l13 55q45 5 68 8t47 12.5t34 20t22 35.5t18 52t16 77l157 823q9 48 13 73
t1 48.5t-9 33t-28.5 18.5t-45.5 11.5t-70 6.5l14 55h445q199 0 289 -63q122 -83 122 -252q0 -99 -46.5 -180t-115 -131t-155.5 -80q66 -163 123 -275q74 -145 127 -215q32 -44 63.5 -64t75.5 -34zM475 647h96q143 0 220 51q70 47 111.5 126t41.5 173q0 131 -64 200t-178 69
q-65 0 -92 -21q-25 -17 -39 -90zM1042 1544l-4 -16l-383 -129l-26 51q263 168 329 209q20 -6 49.5 -47.5t34.5 -67.5z" />
    <glyph glyph-name="racute" unicode="&#x155;" horiz-adv-x="749" 
d="M387 580h6q81 153 164.5 246.5t144.5 93.5q26 0 50.5 -15t38.5 -39q23 -42 -3 -86q-21 -37 -55 -61q-24 -18 -45 0q-35 35 -67 35q-44 0 -105 -86q-104 -152 -147 -254q-17 -76 -82 -400q-58 -11 -146 -37l-14 15q111 477 149 688q5 26 6.5 43.5t1 28t-3.5 14.5t-8 4
q-14 0 -58.5 -29t-86.5 -69l-29 47q76 85 160.5 143t126.5 58q77 0 25 -238zM807 1352l-318 -348l-47 32q48 75 111.5 181.5t79.5 138.5q19 7 83 15t87 5z" />
    <glyph glyph-name="Rcommaaccent" unicode="&#x156;" horiz-adv-x="1226" 
d="M1198 35l-18 -51h-21q-142 7 -211 50t-127 150q-69 129 -137 303q-26 59 -52 77t-83 18h-86l-60 -322q-9 -49 -13 -77t-0.5 -52.5t11 -35.5t29.5 -20.5t46.5 -12.5t70.5 -7l-12 -55h-515l15 55q45 5 68 8t46.5 13t33.5 19.5t21.5 35.5t17.5 52t16 77l159 823
q7 35 10.5 56.5t4 43t-1 32.5t-10.5 22t-18 15.5t-30 9.5t-40 7t-54 5l12 55h445q199 0 289 -63q122 -83 122 -252q0 -145 -90.5 -244.5t-228.5 -146.5q94 -214 125 -275q74 -145 127 -215q32 -44 63.5 -64t75.5 -34zM475 647h96q143 0 220 51q70 47 111.5 126t41.5 173
q0 131 -64 200t-178 69q-65 0 -92 -21q-25 -17 -39 -90zM682 -39q49 0 84 -37.5t35 -95.5q1 -52 -21.5 -94t-60.5 -69.5t-77.5 -44t-82.5 -26.5l-16 58q69 25 104 51.5t35 65.5q0 48 -74 71q-22 6 -22 39q0 35 27.5 58.5t68.5 23.5z" />
    <glyph glyph-name="rcommaaccent" unicode="&#x157;" horiz-adv-x="749" 
d="M387 580h6q81 153 164.5 246.5t144.5 93.5q26 0 50.5 -15t38.5 -39q23 -42 -3 -86q-21 -37 -55 -61q-24 -18 -45 0q-35 35 -67 35q-44 0 -105 -86q-104 -152 -147 -254q-17 -76 -82 -400q-58 -11 -146 -37l-14 15q111 477 149 688q5 26 6.5 43.5t1 28t-3.5 14.5t-8 4
q-14 0 -58.5 -29t-86.5 -69l-29 47q76 85 160.5 143t126.5 58q77 0 25 -238zM195 -78q49 0 83.5 -36.5t34.5 -94.5q1 -52 -21.5 -94.5t-60.5 -69t-76.5 -43t-82.5 -26.5l-17 55q68 25 104 52t36 67q0 48 -74 71q-23 3 -23 39q0 35 27.5 57.5t69.5 22.5z" />
    <glyph glyph-name="Rcaron" unicode="&#x158;" horiz-adv-x="1226" 
d="M1198 35l-18 -51h-21q-142 7 -211 50t-127 150q-62 118 -139 303q-25 58 -51 76.5t-82 18.5h-86l-60 -322q-10 -49 -14 -77t-0.5 -52.5t10.5 -35.5t29.5 -20.5t47 -12.5t71.5 -7l-12 -55h-515l13 55q45 5 68 8t47 12.5t34 20t22 35.5t18 52t16 77l157 823q9 48 13 73
t1 48.5t-9 33t-28.5 18.5t-45.5 11.5t-70 6.5l14 55h445q199 0 289 -63q122 -83 122 -252q0 -99 -46.5 -180t-115 -131t-155.5 -80q66 -163 123 -275q74 -145 127 -215q32 -44 63.5 -64t75.5 -34zM475 647h96q143 0 220 51q70 47 111.5 126t41.5 173q0 131 -64 200t-178 69
q-65 0 -92 -21q-25 -17 -39 -90zM989 1663l29 -43q-176 -117 -279 -215h-51q-84 104 -211 215l39 43q87 -36 217 -119q162 87 256 119z" />
    <glyph glyph-name="rcaron" unicode="&#x159;" horiz-adv-x="749" 
d="M387 580h6q81 153 164.5 246.5t144.5 93.5q26 0 50.5 -15t38.5 -39q23 -42 -3 -86q-21 -37 -55 -61q-24 -18 -45 0q-35 35 -67 35q-44 0 -105 -86q-104 -152 -147 -254q-17 -76 -82 -400q-58 -11 -146 -37l-14 15q111 477 149 688q5 26 6.5 43.5t1 28t-3.5 14.5t-8 4
q-14 0 -58.5 -29t-86.5 -69l-29 47q76 85 160.5 143t126.5 58q77 0 25 -238zM743 1376l48 -37q-178 -202 -267 -331h-45q-51 149 -145 333l51 35q77 -96 141 -196q126 126 217 196z" />
    <glyph glyph-name="Sacute" unicode="&#x15a;" horiz-adv-x="958" 
d="M78 399l55 7q6 -50 20 -98.5t40.5 -98.5t62.5 -87.5t89.5 -61t117.5 -23.5q111 0 180.5 72t69.5 192q0 83 -47 148.5t-146 142.5l-59 45q-37 30 -60 50t-59 58t-56.5 71.5t-36.5 80.5t-16 96q0 161 115.5 264t300.5 103q107 0 197 -35q16 -6 34 -12.5t34 -13t20 -7.5
q-4 -38 -5 -86.5t-0.5 -108t-0.5 -89.5l-60 -7q-14 134 -69.5 213t-175.5 78q-104 0 -167 -69.5t-63 -167.5q0 -83 47.5 -144t143.5 -131l61 -47q116 -87 177 -174.5t61 -200.5q0 -115 -63 -205.5t-164 -137t-220 -46.5q-113 0 -213 40t-139 85q-1 22 -2.5 124.5t-3.5 180.5
zM956 1577l-4 -16l-385 -129l-26 51q65 40 179 112.5t150 94.5q19 -4 50 -46t36 -67z" />
    <glyph glyph-name="sacute" unicode="&#x15b;" horiz-adv-x="690" 
d="M231 -25q-73 0 -139.5 47t-66.5 101q-3 51 59 86q35 16 51 -6q39 -59 92 -92t105 -33q60 0 98.5 36t38.5 87q0 41 -25.5 79.5t-95.5 92.5q-85 65 -131.5 122.5t-46.5 127.5q0 106 106 196q48 42 114 71.5t116 29.5q64 0 111 -36.5t47 -78.5q0 -52 -52 -86q-27 -18 -45 10
q-74 92 -159 92q-46 0 -78.5 -31.5t-32.5 -82.5t33.5 -91.5t101.5 -91.5q94 -71 132 -123t38 -116q0 -75 -58 -148t-144.5 -117.5t-168.5 -44.5zM776 1354l-317 -348l-47 32q46 72 108 178t80 142q24 6 86.5 14t83.5 4z" />
    <glyph glyph-name="Scircumflex" unicode="&#x15c;" horiz-adv-x="958" 
d="M78 399l55 7q6 -50 20 -98.5t40.5 -98.5t62.5 -87.5t89.5 -61t117.5 -23.5q111 0 180.5 72t69.5 192q0 83 -47 148.5t-146 142.5l-59 45q-37 30 -60 50t-59 58t-56.5 71.5t-36.5 80.5t-16 96q0 161 115.5 264t300.5 103q107 0 197 -35q16 -6 34 -12.5t34 -13t20 -7.5
q-4 -38 -5 -86.5t-0.5 -108t-0.5 -89.5l-60 -7q-14 134 -69.5 213t-175.5 78q-104 0 -167 -69.5t-63 -167.5q0 -83 47.5 -144t143.5 -131l61 -47q116 -87 177 -174.5t61 -200.5q0 -115 -63 -205.5t-164 -137t-220 -46.5q-113 0 -213 40t-139 85q-1 22 -2.5 124.5t-3.5 180.5
zM918 1466l-37 -47q-106 47 -219 119q-142 -76 -259 -119l-26 47q153 96 278 213h52q80 -99 211 -213z" />
    <glyph glyph-name="scircumflex" unicode="&#x15d;" horiz-adv-x="690" 
d="M231 -25q-73 0 -139.5 47t-66.5 101q-3 51 59 86q35 16 51 -6q39 -59 92 -92t105 -33q60 0 98.5 36t38.5 87q0 41 -25.5 79.5t-95.5 92.5q-85 65 -131.5 122.5t-46.5 127.5q0 106 106 196q48 42 114 71.5t116 29.5q64 0 111 -36.5t47 -78.5q0 -52 -52 -86q-27 -18 -45 10
q-74 92 -159 92q-46 0 -78.5 -31.5t-32.5 -82.5t33.5 -91.5t101.5 -91.5q94 -71 132 -123t38 -116q0 -75 -58 -148t-144.5 -117.5t-168.5 -44.5zM696 1034l-47 -35q-63 73 -145 197q-125 -125 -221 -197l-41 35q177 204 266 334h45q50 -156 143 -334z" />
    <glyph glyph-name="Scedilla" unicode="&#x15e;" horiz-adv-x="958" 
d="M78 399l55 7q6 -50 20 -97.5t40.5 -97t62.5 -86.5t89.5 -60.5t117.5 -23.5q111 0 179.5 71t68.5 191q0 84 -46.5 150t-144.5 141l-63 47q-45 35 -75 62.5t-69 73t-59.5 100t-20.5 114.5q0 161 117.5 265t302.5 104q97 0 191 -33l88 -33q-4 -50 -4 -157.5v-130.5l-60 -7
q-6 63 -21 112t-43 91.5t-75.5 65t-112.5 22.5q-104 0 -163.5 -67.5t-59.5 -165.5q0 -83 47.5 -144.5t141.5 -132.5l63 -45q116 -83 177 -170t61 -200q0 -163 -118 -271.5t-286 -120.5l-22 -28q-22 -27 -22.5 -41t22.5 -41q62 -76 59 -131q-1 -59 -69.5 -114t-172.5 -87
l-24 53q136 63 139 123q0 7 -1.5 15t-3.5 13.5t-7 13t-7.5 11t-9.5 11.5t-8 10q-32 36 -34.5 59t24.5 58l59 75q-100 6 -189.5 44t-127.5 79q-1 21 -2.5 123.5t-3.5 179.5z" />
    <glyph glyph-name="scedilla" unicode="&#x15f;" horiz-adv-x="684" 
d="M506 920q62 0 110 -38t46 -77q0 -56 -52 -86q-27 -16 -45 8q-69 92 -157 92q-46 0 -78.5 -31t-32.5 -83q0 -49 33.5 -90.5t99.5 -92.5q92 -72 129 -122.5t37 -114.5q0 -94 -85 -179.5t-196 -115.5l-30 -37q-22 -27 -22.5 -42t20.5 -42q62 -76 59 -131q-3 -60 -72 -115.5
t-170 -85.5l-26 55q138 66 141 121q1 11 -3 22.5t-7.5 17.5t-13.5 19t-11 15q-32 36 -34.5 58t24.5 57l59 73v2q-70 -3 -139 43.5t-70 102.5q0 25 17.5 47.5t44.5 34.5q31 17 51 -6q40 -57 91.5 -88.5t103.5 -30.5q60 0 96.5 35.5t36.5 87.5q0 39 -25.5 77.5t-93.5 92.5
q-41 33 -65.5 56t-52.5 55.5t-41 66t-13 70.5q0 104 104 198q48 42 114.5 71.5t117.5 29.5z" />
    <glyph glyph-name="Scaron" unicode="&#x160;" horiz-adv-x="958" 
d="M78 399l55 7q6 -50 20 -98.5t40.5 -98.5t62.5 -87.5t89.5 -61t117.5 -23.5q111 0 180.5 72t69.5 192q0 83 -47 148.5t-146 142.5l-59 45q-37 30 -60 50t-59 58t-56.5 71.5t-36.5 80.5t-16 96q0 161 115.5 264t300.5 103q107 0 197 -35q16 -6 34 -12.5t34 -13t20 -7.5
q-4 -38 -5 -86.5t-0.5 -108t-0.5 -89.5l-60 -7q-14 134 -69.5 213t-175.5 78q-104 0 -167 -69.5t-63 -167.5q0 -83 47.5 -144t143.5 -131l61 -47q116 -87 177 -174.5t61 -200.5q0 -115 -63 -205.5t-164 -137t-220 -46.5q-113 0 -213 40t-139 85q-1 22 -2.5 124.5t-3.5 180.5
zM907 1696l27 -45q-167 -111 -279 -213h-49q-88 106 -213 215l39 43q97 -41 217 -119q150 80 258 119z" />
    <glyph glyph-name="scaron" unicode="&#x161;" horiz-adv-x="690" 
d="M231 -25q-73 0 -139.5 47t-66.5 101q-3 51 59 86q35 16 51 -6q39 -59 92 -92t105 -33q60 0 98.5 36t38.5 87q0 41 -25.5 79.5t-95.5 92.5q-85 65 -131.5 122.5t-46.5 127.5q0 106 106 196q48 42 114 71.5t116 29.5q64 0 111 -36.5t47 -78.5q0 -52 -52 -86q-27 -18 -45 10
q-74 92 -159 92q-46 0 -78.5 -31.5t-32.5 -82.5t33.5 -91.5t101.5 -91.5q94 -71 132 -123t38 -116q0 -75 -58 -148t-144.5 -117.5t-168.5 -44.5zM715 1376l45 -37q-174 -197 -266 -331h-45q-47 146 -146 333l51 35q85 -102 142 -196q131 127 219 196z" />
    <glyph glyph-name="Tcommaaccent" unicode="&#x162;" horiz-adv-x="1234" 
d="M1300 1380h46q-24 -138 -48 -360l-63 -4q3 120 -23 182q-15 37 -58.5 49.5t-160.5 12.5h-125l-190 -1014q-8 -45 -11.5 -71.5t1.5 -49t14 -33t34 -19t53 -12t79 -6.5l-12 -55h-557l12 55q70 5 103 11t58 28.5t34 53t22 98.5l194 1014h-106q-126 0 -173.5 -12.5
t-76.5 -47.5q-42 -49 -102 -186l-62 2q64 206 99 364h43q14 -33 33.5 -42t64.5 -9h770q39 0 58.5 10t49.5 41zM545 -82q49 0 84 -36.5t35 -94.5q1 -52 -21.5 -94.5t-60.5 -69.5t-76.5 -43t-81.5 -26l-18 55q68 24 103.5 51.5t35.5 67.5q0 49 -72 71q-24 3 -24 39
q0 35 27.5 57.5t68.5 22.5z" />
    <glyph glyph-name="tcommaaccent" unicode="&#x163;" horiz-adv-x="628" 
d="M692 883l-53 -72l-205 -10l-119 -559q-10 -48 -10.5 -76t5.5 -37.5t18 -9.5q25 0 84.5 39.5t97.5 79.5l31 -43q-64 -77 -161 -148.5t-171 -71.5q-26 0 -42 23.5t-20 83.5t21 164l119 557h-152l-6 16l51 64h125l47 192l154 129l20 -14l-73 -307h239zM240 -82
q49 0 83.5 -36.5t34.5 -94.5q1 -52 -21.5 -94.5t-60.5 -69t-76.5 -43t-82.5 -26.5l-17 55q70 27 105 53.5t35 65.5q0 48 -74 71q-25 7 -25 39q0 35 28.5 57.5t70.5 22.5z" />
    <glyph glyph-name="Tcaron" unicode="&#x164;" horiz-adv-x="1234" 
d="M1300 1380h46q-24 -138 -48 -360l-63 -4q3 120 -23 182q-15 37 -58.5 49.5t-160.5 12.5h-125l-190 -1014q-8 -45 -11.5 -71.5t1.5 -49t14 -33t34 -19t53 -12t79 -6.5l-12 -55h-557l12 55q70 5 103 11t58 28.5t34 53t22 98.5l194 1014h-106q-126 0 -173.5 -12.5
t-76.5 -47.5q-42 -49 -102 -186l-62 2q64 206 99 364h43q14 -33 33.5 -42t64.5 -9h770q39 0 58.5 10t49.5 41zM1081 1665l29 -45q-167 -111 -279 -213h-51q-88 109 -211 213l39 45q99 -44 217 -119q149 79 256 119z" />
    <glyph glyph-name="tcaron" unicode="&#x165;" horiz-adv-x="628" 
d="M692 883l-53 -72l-205 -10l-119 -559q-28 -123 13 -123q25 0 84.5 39.5t97.5 79.5l31 -43q-64 -77 -161 -148.5t-171 -71.5q-26 0 -42 23.5t-20 83.5t21 164l119 557h-152l-6 16l51 64h125l47 192l156 129l18 -14l-73 -307h239zM741 1374q42 0 70.5 -36t28.5 -95
q0 -87 -59 -144.5t-144 -82.5l-23 53q55 26 84 54t29 67q0 26 -11 41t-36 26q-21 11 -21 41q0 31 24 53.5t58 22.5z" />
    <glyph glyph-name="Tbar" unicode="&#x166;" horiz-adv-x="1226" 
d="M1303 1380h40q-21 -123 -47 -360l-63 -6q0 125 -27 186q-17 38 -60.5 49t-160.5 11h-119l-100 -545h297l-21 -76h-290l-74 -395q-9 -45 -12.5 -71.5t1.5 -49t13.5 -32.5t34.5 -18.5t52.5 -11.5t78.5 -6l-12 -55h-558l13 55q49 3 75 6t51 12t35.5 18t22.5 33.5t18 48.5
t15 71l78 395h-275l19 76h268l104 545h-88q-128 0 -182.5 -12.5t-83.5 -47.5q-45 -53 -102 -186l-62 2q66 213 97 364h40q14 -33 34 -42t65 -9h776q38 0 58 10t51 41z" />
    <glyph glyph-name="tbar" unicode="&#x167;" horiz-adv-x="632" 
d="M702 883l-53 -70l-205 -10l-59 -271h201l-27 -73h-190l-45 -217q-28 -123 12 -123q25 0 83 39.5t97 79.5l31 -43q-64 -77 -160 -148.5t-168 -71.5q-26 0 -42.5 23.5t-21.5 84t19 165.5l47 211h-147l26 73h138l57 271h-152l-6 18l51 62h127l47 192l156 129l21 -14
l-76 -307h239z" />
    <glyph glyph-name="Utilde" unicode="&#x168;" horiz-adv-x="1447" 
d="M1583 1329l-12 -55q-97 -4 -130.5 -27.5t-49.5 -83.5q-35 -124 -82 -368l-33 -158q-36 -184 -91 -315t-151 -220q-72 -66 -163.5 -99.5t-184.5 -33.5q-196 0 -315 111q-156 149 -92 495l98 517q9 44 12.5 68t0.5 46t-10.5 31.5t-29 18t-45 11.5t-69.5 7l14 55h506
l-13 -55q-45 -4 -67 -6.5t-46 -11t-33.5 -17.5t-21 -31.5t-16.5 -46.5t-14 -69l-94 -502q-24 -141 -15 -238.5t52.5 -159t104 -89t138.5 -27.5q184 0 295 138t170 437l29 144q50 260 53 368q4 62 -31 83.5t-147 27.5l12 55h471zM1174 1622l51 -33q-32 -89 -75.5 -126.5
t-88.5 -37.5q-13 0 -25.5 2t-29 8.5t-24.5 9.5t-32 14t-30 14q-58 24 -84 24q-51 0 -97 -90l-49 39q34 86 76.5 124t85.5 40q44 0 123 -39q71 -33 104 -33q48 0 95 84z" />
    <glyph glyph-name="utilde" unicode="&#x169;" horiz-adv-x="1091" 
d="M1008 231l26 -47q-71 -86 -160 -147.5t-137 -61.5q-80 0 -30 218q16 70 38 180h-4q-160 -216 -329 -334q-89 -64 -166 -64q-24 0 -42 10.5t-32.5 36.5t-14 81t18.5 133q53 213 113 471q16 64 -6 67q-11 0 -52 -27.5t-92 -70.5l-22 51q86 86 172 139.5t129 53.5
q36 0 41 -38t-19 -141q-88 -391 -112 -491q-31 -135 26 -135q53 0 140 76t163 172.5t119 175.5q34 140 74 327l141 54h23q-104 -410 -162 -713q-13 -82 8 -82q14 0 60.5 32.5t87.5 73.5zM920 1268l47 -25q-67 -174 -164 -174q-13 0 -25.5 2.5t-27.5 8t-24.5 10t-30 14.5
t-29.5 14q-59 23 -86 23q-53 0 -99 -88l-45 32q34 88 78.5 130t85.5 42q42 0 117 -38q79 -35 108 -35q44 0 95 84z" />
    <glyph glyph-name="Umacron" unicode="&#x16a;" horiz-adv-x="1447" 
d="M1583 1329l-12 -55q-97 -4 -130.5 -27.5t-49.5 -83.5q-35 -124 -82 -368l-33 -158q-36 -184 -91 -315t-151 -220q-72 -66 -163.5 -99.5t-184.5 -33.5q-196 0 -315 111q-156 149 -92 495l98 517q9 44 12.5 68t0.5 46t-10.5 31.5t-29 18t-45 11.5t-69.5 7l14 55h506
l-13 -55q-45 -4 -67 -6.5t-46 -11t-33.5 -17.5t-21 -31.5t-16.5 -46.5t-14 -69l-94 -502q-24 -141 -15 -238.5t52.5 -159t104 -89t138.5 -27.5q184 0 295 138t170 437l29 144q50 260 53 368q4 62 -31 83.5t-147 27.5l12 55h471zM1202 1565l-26 -105h-465l28 105h463z" />
    <glyph glyph-name="umacron" unicode="&#x16b;" horiz-adv-x="1091" 
d="M1008 231l26 -47q-71 -86 -160 -147.5t-137 -61.5q-80 0 -30 218q16 70 38 180h-4q-160 -216 -329 -334q-89 -64 -166 -64q-24 0 -42 10.5t-32.5 36.5t-14 81t18.5 133q53 213 113 471q16 64 -6 67q-11 0 -52 -27.5t-92 -70.5l-22 51q86 86 172 139.5t129 53.5
q36 0 41 -38t-19 -141q-88 -391 -112 -491q-31 -135 26 -135q53 0 140 76t163 172.5t119 175.5q34 140 74 327l141 54h23q-104 -410 -162 -713q-13 -82 8 -82q14 0 60.5 32.5t87.5 73.5zM913 1225l-24 -107h-459l27 107h456z" />
    <glyph glyph-name="Ubreve" unicode="&#x16c;" horiz-adv-x="1447" 
d="M1583 1329l-12 -55q-97 -4 -130.5 -27.5t-49.5 -83.5q-35 -124 -82 -368l-33 -158q-36 -184 -91 -315t-151 -220q-72 -66 -163.5 -99.5t-184.5 -33.5q-196 0 -315 111q-156 149 -92 495l98 517q9 44 12.5 68t0.5 46t-10.5 31.5t-29 18t-45 11.5t-69.5 7l14 55h506
l-13 -55q-45 -4 -67 -6.5t-46 -11t-33.5 -17.5t-21 -31.5t-16.5 -46.5t-14 -69l-94 -502q-24 -141 -15 -238.5t52.5 -159t104 -89t138.5 -27.5q184 0 295 138t170 437l29 144q50 260 53 368q4 62 -31 83.5t-147 27.5l12 55h471zM1145 1636h61q-19 -114 -91.5 -175.5
t-182.5 -61.5q-105 0 -161 62t-46 175h61q8 -52 48.5 -86t113.5 -34q138 0 197 120z" />
    <glyph glyph-name="ubreve" unicode="&#x16d;" horiz-adv-x="1091" 
d="M1008 231l26 -47q-71 -86 -160 -147.5t-137 -61.5q-80 0 -30 218q16 70 38 180h-4q-160 -216 -329 -334q-86 -64 -166 -64q-24 0 -42 10.5t-32.5 36.5t-14 81t18.5 133q53 213 113 471q16 64 -6 67q-11 0 -52 -27.5t-92 -70.5l-22 51q85 85 172 139t131 54q34 0 39.5 -38
t-17.5 -141q-51 -227 -114 -491q-31 -135 26 -135q53 0 140 76t163 172.5t119 175.5q34 140 74 327l141 54h23q-104 -410 -162 -713q-13 -82 8 -82q14 0 60.5 32.5t87.5 73.5zM901 1313h51q-23 -142 -96.5 -205.5t-171.5 -63.5q-101 0 -155 63.5t-31 205.5h53
q1 -72 40.5 -112t108.5 -40q66 0 119.5 40t81.5 112z" />
    <glyph glyph-name="Uring" unicode="&#x16e;" horiz-adv-x="1447" 
d="M1583 1329l-12 -55q-97 -4 -130.5 -27.5t-49.5 -83.5q-35 -124 -82 -368l-33 -158q-36 -184 -91 -315t-151 -220q-72 -66 -163.5 -99.5t-184.5 -33.5q-196 0 -315 111q-156 149 -92 495l98 517q9 44 12.5 68t0.5 46t-10.5 31.5t-29 18t-45 11.5t-69.5 7l14 55h506
l-13 -55q-45 -4 -67 -6.5t-46 -11t-33.5 -17.5t-21 -31.5t-16.5 -46.5t-14 -69l-94 -502q-24 -141 -15 -238.5t52.5 -159t104 -89t138.5 -27.5q184 0 295 138t170 437l29 144q50 260 53 368q4 62 -31 83.5t-147 27.5l12 55h471zM1139 1554q-1 -79 -59.5 -127.5t-135.5 -48.5
q-72 0 -118 46t-44 116q3 82 60 133t133 51q70 0 118.5 -46.5t45.5 -123.5zM1047 1559q2 43 -19 70.5t-59 27.5q-41 0 -67 -31.5t-28 -81.5q-2 -43 18.5 -69.5t59.5 -26.5t66.5 31t28.5 80z" />
    <glyph glyph-name="uring" unicode="&#x16f;" horiz-adv-x="1091" 
d="M1008 231l26 -47q-71 -86 -160 -147.5t-137 -61.5q-80 0 -30 218q16 70 38 180h-4q-160 -216 -329 -334q-89 -64 -166 -64q-24 0 -42 10.5t-32.5 36.5t-14 81t18.5 133q53 213 113 471q16 64 -6 67q-11 0 -52 -27.5t-92 -70.5l-22 51q86 86 172 139.5t129 53.5
q36 0 41 -38t-19 -141q-88 -391 -112 -491q-31 -135 24 -135q53 0 140.5 76t164 172.5t119.5 175.5q34 140 74 327l141 54h23q-104 -410 -162 -713q-13 -82 8 -82q14 0 60.5 32.5t87.5 73.5zM709 1360q71 0 119.5 -47t45.5 -127q-3 -79 -62 -127.5t-136 -48.5
q-76 0 -122.5 46.5t-43.5 117.5q3 84 62 135t137 51zM698 1292q-39 0 -66 -31.5t-28 -80.5q-2 -45 19.5 -74t58.5 -29q40 0 68.5 32t29.5 81q2 45 -20 73.5t-62 28.5z" />
    <glyph glyph-name="Uhungarumlaut" unicode="&#x170;" horiz-adv-x="1447" 
d="M1583 1329l-12 -55q-97 -4 -130.5 -27.5t-49.5 -83.5q-35 -124 -82 -368l-33 -158q-36 -184 -91 -315t-151 -220q-72 -66 -163.5 -99.5t-184.5 -33.5q-196 0 -315 111q-156 149 -92 495l98 517q9 44 12.5 68t0.5 46t-10.5 31.5t-29 18t-45 11.5t-69.5 7l14 55h506
l-13 -55q-45 -4 -67 -6.5t-46 -11t-33.5 -17.5t-21 -31.5t-16.5 -46.5t-14 -69l-94 -502q-24 -141 -15 -238.5t52.5 -159t104 -89t138.5 -27.5q184 0 295 138t170 437l29 144q50 260 53 368q4 62 -31 83.5t-147 27.5l12 55h471zM999 1649v-29l-215 -219l-49 31
q68 128 129 254q23 4 71.5 -9.5t63.5 -27.5zM1278 1649v-29l-215 -219l-49 31q97 190 127 254q25 4 73.5 -10t63.5 -27z" />
    <glyph glyph-name="uhungarumlaut" unicode="&#x171;" horiz-adv-x="1091" 
d="M1008 231l26 -47q-71 -86 -160 -147.5t-137 -61.5q-80 0 -30 218q16 70 38 180h-4q-160 -216 -329 -334q-89 -64 -166 -64q-24 0 -42 10.5t-32.5 36.5t-14 81t18.5 133q53 213 113 471q16 64 -6 67q-11 0 -52 -27.5t-92 -70.5l-22 51q86 86 172 139.5t129 53.5
q36 0 41 -38t-19 -141q-88 -391 -112 -491q-31 -135 26 -135q53 0 140 76t163 172.5t119 175.5q34 140 74 327l141 54h23q-104 -410 -162 -713q-13 -82 8 -82q14 0 60.5 32.5t87.5 73.5zM748 1327l-234 -323l-53 32q29 64 75 173t54 132q24 5 77 8.5t76 -1.5zM1022 1327
l-236 -323l-49 32q98 222 127 305q22 5 77 8.5t77 -1.5z" />
    <glyph glyph-name="Uogonek" unicode="&#x172;" horiz-adv-x="1447" 
d="M1583 1329l-12 -55q-97 -4 -130 -27t-52 -84q-25 -89 -82 -368l-31 -158q-36 -184 -91 -314t-151 -219q-98 -91 -231 -120q-197 -156 -197 -293q0 -32 24 -53t62 -21t94 23l17 -56l-113 -57q-41 -23 -82 -23q-64 0 -104.5 37.5t-40.5 102.5q0 152 229 325v2
q-84 -2 -172.5 24t-150.5 85q-155 145 -90 495l98 517q9 44 12.5 68t0.5 46t-10.5 31.5t-29 18t-45 11.5t-69.5 7l14 55h506l-13 -55q-45 -4 -67 -6.5t-46 -11t-33.5 -17.5t-21 -31.5t-16.5 -46.5t-14 -69l-94 -502q-23 -112 -18 -197t27.5 -145t64.5 -98t93.5 -55
t114.5 -17q183 0 292.5 137t168.5 436l29 144q47 233 55 368q3 63 -32 84t-148 27l14 55h471z" />
    <glyph glyph-name="uogonek" unicode="&#x173;" horiz-adv-x="1089" 
d="M1008 231l26 -47q-130 -154 -250 -196q-86 -67 -137 -144.5t-51 -150.5q0 -30 20.5 -49t53.5 -19q38 0 94 25l16 -56l-110 -61q-42 -20 -84 -20q-58 0 -95.5 35.5t-37.5 95.5q0 82 71.5 179t182.5 179q-31 46 0 191q13 55 38 180h-4q-155 -212 -325 -334
q-89 -64 -172 -64q-128 0 -68 261q53 213 113 471q14 67 -8 67q-26 0 -142 -98l-22 51q85 85 172 139t131 54q23 0 32.5 -16t7 -55t-19.5 -108q-88 -391 -112 -491q-33 -133 24 -133q54 0 142 76t164 172t118 174q40 166 74 327l141 54h23q-104 -410 -162 -713
q-7 -47 -5.5 -63.5t13.5 -16.5q13 0 60 32.5t88 71.5z" />
    <glyph glyph-name="Wcircumflex" unicode="&#x174;" horiz-adv-x="1943" 
d="M2066 1329l-12 -55q-57 -8 -82 -13.5t-52.5 -28t-44.5 -52t-52 -97.5q-102 -192 -523 -1106h-63l-166 1018h-6l-490 -1018h-61l-125 1100q-5 49 -8.5 74.5t-12 50t-16.5 34.5t-28.5 19t-40.5 12t-60 7l13 55h462l-14 -55l-49 -6q-64 -9 -78.5 -31t-5.5 -104l88 -857h6
l483 1029h60l170 -1031h4q313 680 381 859q29 78 16 101t-90 32l-53 8l12 55h438zM1432 1440l-37 -45q-98 41 -219 118q-153 -82 -258 -118l-27 45q143 90 278 213h52q88 -109 211 -213z" />
    <glyph glyph-name="wcircumflex" unicode="&#x175;" horiz-adv-x="1372" 
d="M936 186h4q289 396 291 527q0 52 -23 96q-11 19 0 51q11 24 35 42t49 18q39 0 63.5 -32.5t24.5 -84.5q0 -48 -21.5 -98t-62.5 -117q-48 -78 -188.5 -276t-243.5 -337h-57q-16 216 -57 637h-5q-84 -140 -391 -637h-53q-2 223 -20 660q-3 75 -9.5 105t-21.5 30
q-24 0 -123 -104l-33 41q70 92 140.5 152.5t119.5 60.5q68 0 74 -203q8 -336 6 -486h4q36 62 118.5 201t145.5 248t117 207h51q10 -98 31 -336t35 -365zM1071 1034l-49 -35q-63 70 -143 197q-133 -129 -224 -197l-41 35q169 191 267 334h45q52 -161 145 -334z" />
    <glyph glyph-name="Ycircumflex" unicode="&#x176;" horiz-adv-x="1251" 
d="M1405 1329l-14 -55q-100 -11 -140.5 -34.5t-117.5 -119.5q-129 -164 -336 -463q-38 -52 -49 -114l-58 -289q-10 -48 -13.5 -74.5t0.5 -50.5t12 -34t33.5 -19.5t52 -12.5t79.5 -8l-14 -55h-547l14 55q47 3 72.5 6t50.5 12t35.5 19.5t23 35t18.5 51t15 75.5l56 276
q11 60 -11 121q-71 195 -182 479q-25 64 -43 89t-47.5 36.5t-99.5 18.5l14 55h473l-10 -55l-72 -10q-52 -6 -62 -23t5 -61q114 -319 188 -494q260 365 328 481q31 54 21 72.5t-68 26.5l-64 8l15 55h442zM1104 1446l-37 -47q-106 47 -219 119q-150 -80 -258 -119l-27 47
q163 103 279 213l51 -2q90 -106 211 -211z" />
    <glyph glyph-name="ycircumflex" unicode="&#x177;" horiz-adv-x="905" 
d="M489 154h5q141 216 194 319q82 158 82 244q-2 38 -25 96q-10 23 5 49q11 25 35.5 41.5t50.5 16.5q35 0 58 -31t24 -82q0 -86 -74 -217q-63 -115 -174.5 -288.5t-196.5 -291.5q-220 -317 -369 -481l-213 -55l-16 45q275 179 481 458q-1 117 -20.5 319t-42.5 349
q-15 127 -43 127q-13 0 -48 -34t-71 -85l-35 47q59 89 125 154.5t117 65.5q42 0 67 -58.5t39 -183.5q25 -214 45 -524zM809 1034l-47 -35q-54 62 -146 197q-120 -116 -223 -197l-39 37q181 209 267 332h45q50 -156 143 -334z" />
    <glyph glyph-name="Ydieresis" unicode="&#x178;" horiz-adv-x="1251" 
d="M1405 1329l-14 -55q-100 -11 -141.5 -35t-116.5 -119q-129 -164 -336 -463q-38 -48 -52 -114l-57 -289q-9 -48 -12.5 -74.5t1 -50.5t12.5 -34t33.5 -19.5t52 -12.5t79.5 -8l-14 -55h-547l14 55q47 3 72 6t50 12.5t35.5 19t23 34.5t18.5 51.5t16 75.5l56 276
q10 56 -11 121q-169 444 -182 479q-25 64 -43 89t-47.5 36.5t-99.5 18.5l14 55h473l-12 -55l-72 -10q-52 -6 -62 -23t7 -61q110 -310 186 -494q247 340 330 481q30 54 20 72.5t-67 26.5l-64 8l15 55h442zM657 1618q37 0 57.5 -25.5t20.5 -62.5q0 -45 -29.5 -78t-72.5 -33
q-34 0 -57 23t-23 61q0 43 27.5 79t76.5 36zM1038 1618q37 0 57.5 -25.5t20.5 -62.5q0 -45 -29.5 -78t-72.5 -33q-36 0 -58 23t-22 61q0 43 27.5 79t76.5 36z" />
    <glyph glyph-name="Zacute" unicode="&#x179;" horiz-adv-x="1204" 
d="M1251 1329l13 -26q-594 -713 -1006 -1221q123 -12 317 -12q164 0 248.5 12t128.5 51q67 57 152 227l57 -24q-90 -266 -123 -336h-1022l-14 31q568 678 1016 1229h-324q-101 0 -156.5 -8t-79 -22t-46.5 -42q-50 -60 -103 -195l-59 6q50 182 84 381h43q18 -34 37 -42.5
t65 -8.5h772zM1090 1544l-5 -16l-383 -129l-26 51q16 10 330 207q19 -4 49 -46t35 -67z" />
    <glyph glyph-name="zacute" unicode="&#x17a;" horiz-adv-x="856" 
d="M860 948l43 -43q-35 -43 -119 -139q-59 -66 -154.5 -166t-229 -237.5t-169.5 -174.5q60 6 156 -32q137 -50 184 -50q45 0 94.5 39t114.5 138l45 -39q-80 -159 -145.5 -222t-136.5 -63q-77 0 -273 100q-88 41 -129 11q-35 -21 -63 -72q-11 -16 -25 -16q-7 12 -10 18
t-5.5 25.5t4.5 39t27.5 52t55.5 69.5q64 69 266.5 272.5t302.5 311.5q-55 -10 -125 -4q-159 12 -194 12q-65 0 -108 -42.5t-95 -133.5l-51 27q42 99 82 164q75 120 151 120q67 0 217 -24q109 -19 164 -19q56 0 125 78zM836 1352l-318 -348l-47 30q46 72 108 178t80 142
q19 7 83.5 15t86.5 5z" />
    <glyph glyph-name="Zdotaccent" unicode="&#x17b;" horiz-adv-x="1204" 
d="M1251 1329l13 -26q-594 -713 -1006 -1221q123 -12 320 -12q162 0 246 12t130 51q64 54 150 227l57 -24q-90 -266 -123 -336h-1022l-14 31q641 764 1016 1229h-322q-145 0 -198 -15t-86 -57q-50 -60 -103 -195l-59 6q50 182 84 381h43q18 -34 37 -42.5t65 -8.5h772z
M791 1638q38 0 59.5 -26.5t21.5 -65.5q0 -48 -30.5 -82t-77.5 -34q-36 0 -60 24.5t-24 63.5q0 44 30.5 82t80.5 38z" />
    <glyph glyph-name="zdotaccent" unicode="&#x17c;" horiz-adv-x="856" 
d="M862 948l41 -43q-15 -20 -119 -139q-58 -65 -158 -170t-221 -229.5t-172 -178.5q60 6 156 -32q137 -50 184 -50q92 0 207 177l45 -39q-80 -159 -144.5 -222t-135.5 -63q-75 0 -275 100q-85 42 -127 11q-35 -21 -63 -72q-11 -16 -25 -16q-9 13 -12.5 24.5t-3.5 36t22.5 61
t65.5 82.5q64 69 266.5 272.5t302.5 311.5q-58 -10 -125 -4q-159 12 -194 12q-65 0 -109.5 -43.5t-93.5 -132.5l-53 27q55 118 84 164q75 120 151 120q68 0 215 -24q112 -19 166 -19q53 0 125 78zM596 1298q38 0 61 -27t23 -65q0 -48 -32 -82t-77 -34q-37 0 -61.5 24.5
t-24.5 63.5q0 44 30.5 82t80.5 38z" />
    <glyph glyph-name="Zcaron" unicode="&#x17d;" horiz-adv-x="1204" 
d="M1251 1329l13 -26q-594 -713 -1006 -1221q123 -12 317 -12q164 0 248.5 12t128.5 51q67 57 152 227l57 -24q-90 -266 -123 -336h-1022l-14 31q568 678 1016 1229h-324q-101 0 -156.5 -8t-79 -22t-46.5 -42q-50 -60 -103 -195l-59 6q50 182 84 381h43q18 -34 37 -42.5
t65 -8.5h772zM1044 1665l29 -45q-152 -95 -278 -213h-52q-93 112 -211 215l39 43q92 -40 217 -119q154 82 256 119z" />
    <glyph glyph-name="zcaron" unicode="&#x17e;" horiz-adv-x="856" 
d="M860 948l43 -43q-35 -43 -119 -139q-59 -66 -154.5 -166t-229 -237.5t-169.5 -174.5q60 6 156 -32q137 -50 184 -50q45 0 94.5 39t114.5 138l45 -39q-80 -159 -145.5 -222t-136.5 -63q-77 0 -273 100q-88 41 -129 11q-35 -21 -63 -72q-11 -16 -25 -16q-7 12 -10 18
t-5.5 25.5t4.5 39t27.5 52t55.5 69.5q64 69 266.5 272.5t302.5 311.5q-55 -10 -125 -4q-159 12 -194 12q-65 0 -108 -42.5t-95 -133.5l-51 27q42 99 82 164q75 120 151 120q67 0 217 -24q109 -19 164 -19q56 0 125 78zM784 1374l47 -37q-162 -180 -266 -329h-45
q-49 143 -145 331l51 35q60 -71 141 -194q136 132 217 194z" />
    <glyph glyph-name="longs" unicode="&#x17f;" horiz-adv-x="466" 
d="M711 1458q48 0 84 -29t34 -59q-1 -22 -18 -48t-37 -40q-12 -9 -24.5 -9t-20.5 9q-68 68 -129 68q-40 0 -72 -38t-67 -153.5t-68 -316.5q-7 -45 -25 -157t-29.5 -183t-29 -167.5t-33.5 -168.5q-49 -230 -104 -354.5t-143 -212.5q-65 -68 -126 -96.5t-106 -28.5t-86 28
t-41 60q0 41 56 86q24 21 43 2q23 -22 58.5 -36.5t66.5 -14.5q55 0 86 39q70 70 145 512q13 81 31 200t31.5 202.5t27.5 158.5q39 220 91.5 355.5t129.5 229.5q58 71 134 116.5t141 45.5z" />
    <glyph glyph-name="florin" unicode="&#x192;" horiz-adv-x="976" 
d="M430 758l27 108q51 225 207 357q138 112 243 112q43 0 79 -26.5t36 -57.5q0 -21 -12.5 -43t-30.5 -34q-23 -20 -43 0q-68 59 -131 59q-30 0 -50.5 -13.5t-41.5 -41.5q-24 -33 -49.5 -119t-65.5 -301h248l-23 -74h-239l-84 -391q-24 -112 -55.5 -198t-68 -143t-69.5 -92
t-74 -65q-109 -78 -186 -78q-41 0 -74.5 26.5t-33.5 55.5q0 40 49 82q18 18 39 0q59 -55 123 -55q60 0 92 76q44 105 90 350l80 432h-197l21 74h194z" />
    <glyph glyph-name="Ohorn" unicode="&#x1a0;" horiz-adv-x="1449" 
d="M678 -31q-242 0 -392.5 161.5t-150.5 420.5q0 159 57 307t155 258.5t237.5 177t296.5 66.5q65 0 133 -14q121 -27 198 -27q71 0 114.5 21.5t43.5 50.5q0 21 -12.5 31t-48.5 16q-37 12 -37 45q0 39 35.5 67.5t76.5 28.5q44 0 69.5 -26t25.5 -74q0 -98 -71 -159t-187 -73
q93 -73 148.5 -194.5t55.5 -278.5q0 -161 -56 -308.5t-153.5 -257t-237.5 -174.5t-300 -65zM696 39q99 0 186.5 46t150 123t108 175t68 203.5t22.5 208.5q0 106 -20 193t-62.5 156t-115 107.5t-169.5 38.5q-116 0 -218.5 -68t-170 -177t-106.5 -243.5t-39 -269.5
q0 -105 22 -193.5t66 -156t115 -105.5t163 -38z" />
    <glyph glyph-name="ohorn" unicode="&#x1a1;" horiz-adv-x="962" 
d="M438 57q31 0 68 13q87 37 154.5 187.5t66.5 338.5q0 120 -46 182t-120 62q-39 0 -78 -17q-26 -12 -53.5 -37.5t-57.5 -71t-53 -102t-38 -137t-15 -170.5q0 -115 45.5 -181.5t126.5 -66.5zM365 -25q-71 0 -124.5 26t-84.5 71.5t-46.5 101t-15.5 119.5q0 191 88.5 340
t223.5 219q123 68 223 68q49 0 90 -13q40 -12 82 -12q59 0 93 21t34 47q0 21 -12 30.5t-50 16.5q-39 11 -39 47q0 40 31.5 67t71.5 27q43 0 69.5 -29.5t26.5 -85.5q0 -80 -53 -132t-144 -73q70 -82 70 -231q0 -137 -57.5 -273.5t-161.5 -222.5q-153 -129 -315 -129z" />
    <glyph glyph-name="Uhorn" unicode="&#x1af;" horiz-adv-x="1447" 
d="M1100 1274l12 55h217q238 0 238 68q0 19 -12 29.5t-48 17.5q-37 5 -37 45q0 38 35.5 67t75.5 29q44 0 69 -25.5t25 -74.5q0 -153 -166 -209q-58 -20 -81 -42.5t-37 -70.5q-35 -124 -82 -368l-33 -158q-36 -184 -91 -315t-151 -220q-72 -66 -163.5 -99.5t-184.5 -33.5
q-196 0 -315 111q-156 149 -92 495l98 517q9 44 12.5 68t0.5 46t-10.5 31.5t-29 18t-45 11.5t-69.5 7l14 55h506l-13 -55q-45 -4 -67 -6.5t-46 -11t-33.5 -17.5t-21 -31.5t-16.5 -46.5t-14 -69l-94 -502q-24 -141 -15 -238.5t52.5 -159t104 -89t138.5 -27.5q184 0 295 138
t170 437l29 144q50 260 53 368q4 62 -31 83.5t-147 27.5z" />
    <glyph glyph-name="uhorn" unicode="&#x1b0;" horiz-adv-x="1091" 
d="M1008 231l26 -47q-71 -86 -160 -147.5t-137 -61.5q-80 0 -30 218q16 70 38 180h-4q-160 -216 -329 -334q-86 -64 -166 -64q-24 0 -42 10.5t-32.5 36.5t-14 81t18.5 133q53 213 113 471q16 64 -6 67q-11 0 -52 -27.5t-92 -70.5l-22 51q85 85 172 139t131 54q34 0 39.5 -38
t-17.5 -141q-51 -227 -114 -491q-31 -135 26 -135q53 0 140 76t163 172.5t119 175.5q22 89 76 340l63 12q181 34 181 86q0 22 -12 31.5t-50 15.5q-39 11 -39 49q0 40 31.5 67t71.5 27q44 0 70 -29t26 -85q0 -147 -201 -213q-95 -395 -141 -633q-13 -82 8 -82q14 0 60.5 32.5
t87.5 73.5z" />
    <glyph glyph-name="Aringacute" unicode="&#x1fa;" horiz-adv-x="1359" 
d="M1272 55l-15 -55h-483l14 55q71 7 101 19t38 37.5t-1 68.5q-7 49 -26.5 157.5t-25.5 145.5h-428q-81 -153 -141 -278q-44 -92 -25.5 -116.5t136.5 -33.5l-13 -55h-440l14 55q53 7 78.5 13t54.5 28t51 55t60 101l615 1091l63 17l57 -365q53 -341 131 -762
q10 -60 18.5 -88.5t29.5 -49.5t49.5 -27.5t87.5 -12.5zM862 569l-82 529h-4q-199 -363 -284 -529h370zM1067 1575q-1 -78 -60.5 -127t-136.5 -49q-72 0 -117.5 45.5t-43.5 116.5q3 82 59.5 133t134.5 51q70 0 118.5 -46.5t45.5 -123.5zM975 1579q2 43 -19 70.5t-61 27.5
t-66.5 -31.5t-27.5 -80.5q-2 -42 19.5 -69.5t58.5 -27.5q40 0 67.5 31t28.5 80zM1206 1939l-4 -16l-383 -129l-26 51q67 41 189 118.5t140 88.5q19 -4 49 -46t35 -67z" />
    <glyph glyph-name="aringacute" unicode="&#x1fb;" horiz-adv-x="1003" 
d="M930 238l24 -50q-78 -95 -167.5 -154t-133.5 -59q-22 0 -33.5 13.5t-15 54t13.5 113.5l41 194h-6q-105 -152 -264 -282q-115 -93 -190 -93q-46 0 -82.5 59t-36.5 171q0 157 67 310.5t179 246.5q83 68 186.5 113t196.5 45q51 0 127 -17q54 -12 77 -12l5 -8
q-71 -273 -142 -666q-15 -88 4 -88q14 0 59.5 33t90.5 76zM305 106q58 0 193 145.5t188 256.5q35 113 68 293q-58 28 -136 28q-88 0 -147 -43q-101 -74 -161 -229.5t-60 -314.5q0 -66 15.5 -101t39.5 -35zM709 1360q70 0 118 -47t45 -125q-3 -80 -62 -129t-136 -49
q-75 0 -122 46.5t-44 117.5q3 84 62.5 135t138.5 51zM696 1294q-38 0 -65.5 -32.5t-28.5 -81.5q-2 -45 19.5 -74t60.5 -29t67 32t29 81q2 46 -20 75t-62 29zM1014 1753l-318 -348l-47 33q47 73 109.5 179t79.5 140q24 6 86.5 14.5t83.5 4.5z" />
    <glyph glyph-name="AEacute" unicode="&#x1fc;" horiz-adv-x="1769" 
d="M1741 1022l-60 -4q0 128 -28 178q-15 38 -56 51t-153 13h-154q-51 0 -63 -11t-21 -65l-96 -498h199q47 0 75.5 1.5t53.5 8.5t38 15t27 28t22.5 40t22.5 59h60l-78 -392h-60q1 43 0.5 63t-7 42.5t-16 29.5t-32.5 15t-50.5 9t-76.5 1h-192l-58 -319q-17 -88 -14 -129
t25 -60q22 -18 67 -23t141 -5q116 0 170.5 13t96.5 54q61 56 137 193l57 -19q-4 -11 -56 -143t-69 -168h-962l12 53q48 5 72.5 8t51 12t37.5 19.5t24 34t19.5 50t16.5 73.5l70 356h-356q-206 -298 -277 -424q-38 -63 -29 -85t74 -31l64 -11l-13 -55h-473l13 55q53 7 81 13.5
t59.5 24t57 46t64.5 80.5q139 188 387.5 541t294.5 418q32 46 22 61t-76 21l-108 12l18 57h1039q-7 -69 -35 -307zM631 686h317l115 571q-27 0 -59 -30q-103 -145 -373 -541zM1550 1544l-4 -16l-383 -129l-26 51q263 168 329 209q20 -6 49.5 -47.5t34.5 -67.5z" />
    <glyph glyph-name="aeacute" unicode="&#x1fd;" horiz-adv-x="1359" 
d="M1255 262l33 -45q-226 -240 -446 -240q-29 0 -56 7.5t-56 27.5t-50 51.5t-34.5 83.5t-12.5 119q0 31 2 47l-4 2q-45 -62 -111.5 -128.5t-130.5 -116.5q-47 -38 -103.5 -65.5t-92.5 -27.5q-42 0 -78.5 54.5t-36.5 171.5q0 157 63 310.5t168 244.5q79 70 188.5 116
t200.5 46q41 0 88 -13q51 -7 80 -4l8 -8l-28 -117l4 -2q65 65 155 105.5t158 40.5q80 0 128 -47.5t48 -116.5t-50.5 -131t-135.5 -108t-175.5 -79t-189.5 -55q-2 -11 -2 -74q0 -55 12.5 -100t48 -78t89.5 -33q154 0 319 162zM606 829q-85 0 -133 -30q-87 -57 -147 -197
q-78 -172 -78 -356q0 -61 14 -96t39 -35q31 0 83.5 35t104.5 92q125 141 168 231q21 59 47.5 169t32.5 159q-51 28 -131 28zM1083 829q-55 0 -102 -28q-55 -36 -107 -120.5t-77 -227.5q143 38 231 82.5t122.5 89.5t35.5 100q0 52 -28 78t-75 26zM1116 1352l-317 -348l-49 32
q47 71 109 176.5t81 143.5q19 7 83.5 15t86.5 5z" />
    <glyph glyph-name="Oslashacute" unicode="&#x1fe;" horiz-adv-x="1449" 
d="M1290 1419l58 -45l-105 -143q87 -79 134.5 -197t47.5 -260q0 -164 -57 -312t-155.5 -256.5t-239.5 -172.5t-301 -64q-164 0 -291 82l-105 -139l-53 51l99 133q-88 78 -137.5 196t-49.5 257q0 159 57.5 307.5t156 259.5t238.5 177.5t296 66.5q175 0 303 -84zM408 211
l708 969q-76 108 -248 108q-96 0 -183 -44t-151 -119t-111 -171t-71 -203t-24 -212q0 -210 80 -328zM1159 1114l-706 -967q86 -108 241 -108q123 0 227.5 69.5t171 179.5t103.5 241t37 259q0 206 -74 326zM1161 1563l-4 -17l-385 -129l-27 51q142 86 330 207q21 -4 51 -45.5
t35 -66.5z" />
    <glyph glyph-name="oslashacute" unicode="&#x1ff;" horiz-adv-x="966" 
d="M854 989l51 -41l-78 -104q76 -82 76 -246q0 -131 -58.5 -267.5t-160.5 -224.5q-64 -56 -154 -93.5t-172 -37.5q-87 0 -139 37l-78 -108l-47 45l76 104q-76 85 -76 238q0 193 85 338.5t214 216.5q135 74 240 74q90 0 143 -37zM272 190l426 578q-41 72 -133 72
q-40 0 -78 -17q-32 -13 -69.5 -50t-75 -97t-62.5 -156t-26 -207q0 -53 18 -123zM729 702l-426 -575q44 -72 123 -72q33 0 76 15q90 36 167 186t74 338q0 61 -14 108zM862 1352l-317 -348l-47 32q46 72 108 178t80 142q21 7 84.5 15t85.5 5z" />
    <glyph glyph-name="Scommaaccent" unicode="&#x218;" horiz-adv-x="958" 
d="M78 399l55 7q6 -50 20 -98.5t40.5 -98.5t62.5 -87.5t89.5 -61t117.5 -23.5q111 0 180.5 72t69.5 192q0 83 -47 148.5t-146 142.5l-59 45q-37 30 -60 50t-59 58t-56.5 71.5t-36.5 80.5t-16 96q0 161 115.5 264t300.5 103q100 0 197 -33q16 -6 34 -12.5t34 -13t20 -7.5
q-4 -38 -5 -86.5t-0.5 -109.5t-0.5 -92l-60 -7q-6 63 -21 112.5t-42 92t-73 65.5t-109 23q-104 0 -167 -69.5t-63 -167.5q0 -83 47.5 -144t143.5 -131l61 -47q117 -86 177.5 -173.5t60.5 -201.5q0 -115 -62.5 -205.5t-163 -137t-219.5 -46.5q-114 0 -213 40t-141 85
q0 88 -6 305zM436 -104q49 0 84 -37t35 -95q1 -52 -21.5 -94.5t-60.5 -69.5t-76.5 -43t-81.5 -26l-18 55q68 24 103.5 51.5t35.5 67.5q0 50 -74 72q-24 3 -24 39q0 35 28 57.5t70 22.5z" />
    <glyph glyph-name="scommaaccent" unicode="&#x219;" horiz-adv-x="690" 
d="M231 -25q-73 0 -139.5 47t-66.5 101q0 53 61 86q33 16 49 -6q39 -59 92 -92t105 -33q60 0 98.5 36t38.5 87q0 40 -26.5 78.5t-96.5 93.5q-84 65 -130 122.5t-46 127.5q0 106 106 196q46 42 113 71.5t117 29.5q64 0 111 -36.5t47 -78.5q0 -52 -52 -86q-27 -18 -45 10
q-74 92 -159 92q-46 0 -78.5 -31.5t-32.5 -82.5t33.5 -92.5t101.5 -90.5q94 -71 132 -123t38 -116q0 -75 -58 -148t-144.5 -117.5t-168.5 -44.5zM244 -90q49 0 83.5 -36.5t34.5 -94.5q1 -52 -21 -94.5t-60 -69.5t-76.5 -43.5t-81.5 -26.5l-19 56q68 25 104 52t36 66
q0 50 -72 72q-25 3 -25 39q0 35 27.5 57.5t69.5 22.5z" />
    <glyph glyph-name="uni021A" unicode="&#x21a;" horiz-adv-x="1234" 
d="M1300 1380h46q-24 -138 -48 -360l-63 -4q3 120 -23 182q-15 37 -58.5 49.5t-160.5 12.5h-125l-190 -1014q-8 -45 -11.5 -71.5t1.5 -49t14 -33t34 -19t53 -12t79 -6.5l-12 -55h-557l12 55q70 5 103 11t58 28.5t34 53t22 98.5l194 1014h-106q-126 0 -173.5 -12.5
t-76.5 -47.5q-42 -49 -102 -186l-62 2q64 206 99 364h43q14 -33 33.5 -42t64.5 -9h770q39 0 58.5 10t49.5 41zM545 -82q49 0 84 -36.5t35 -94.5q1 -52 -21.5 -94.5t-60.5 -69.5t-76.5 -43t-81.5 -26l-18 55q68 24 103.5 51.5t35.5 67.5q0 49 -72 71q-24 3 -24 39
q0 35 27.5 57.5t68.5 22.5z" />
    <glyph glyph-name="uni021B" unicode="&#x21b;" horiz-adv-x="628" 
d="M692 883l-53 -72l-205 -10l-119 -559q-10 -48 -10.5 -76t5.5 -37.5t18 -9.5q25 0 84.5 39.5t97.5 79.5l31 -43q-64 -77 -161 -148.5t-171 -71.5q-26 0 -42 23.5t-20 83.5t21 164l119 557h-152l-6 16l51 64h125l47 192l154 129l20 -14l-73 -307h239zM240 -82
q49 0 83.5 -36.5t34.5 -94.5q1 -52 -21.5 -94.5t-60.5 -69t-76.5 -43t-82.5 -26.5l-17 55q70 27 105 53.5t35 65.5q0 48 -74 71q-25 7 -25 39q0 35 28.5 57.5t70.5 22.5z" />
    <glyph glyph-name="uni021C" unicode="&#x21c;" horiz-adv-x="1013" 
d="M309 555l-20 59q489 159 489 455q0 104 -58 161.5t-149 57.5q-102 0 -174.5 -71.5t-140.5 -221.5l-57 21q25 70 84 270q38 9 107.5 30.5t125 32.5t119.5 11q150 0 241 -72.5t91 -191.5q0 -112 -80.5 -200t-229.5 -175v-4q139 -31 218 -118.5t79 -211.5q0 -125 -72.5 -237
t-194 -192.5t-275 -134.5t-320.5 -75l-117 94l19 43q107 -28 203 -28q103 0 203.5 34t180.5 94.5t129.5 153t49.5 199.5q0 85 -37 147t-91 90.5t-116 28.5q-79 0 -207 -49z" />
    <glyph glyph-name="uni021D" unicode="&#x21d;" horiz-adv-x="745" 
d="M135 219l-12 53q188 82 284.5 170t96.5 203q0 69 -43 111.5t-105 42.5q-60 0 -114.5 -29t-130.5 -94l-29 45q196 199 358 199q101 0 164.5 -63.5t63.5 -154.5q0 -161 -238 -321v-4q104 -21 166.5 -91t62.5 -171q0 -107 -61 -210.5t-159.5 -182t-223 -134t-252.5 -75.5
l-88 73l14 39q62 -10 117 -10q126 0 236 57t176.5 157.5t66.5 219.5q0 99 -53 157t-125 58q-62 0 -172 -45z" />
    <glyph glyph-name="uni0232" unicode="&#x232;" horiz-adv-x="1251" 
d="M1405 1329l-16 -55q-99 -11 -140 -35t-116 -119q-146 -186 -338 -463q-36 -48 -50 -114l-57 -289q-7 -35 -11 -58t-3.5 -44t2.5 -33t13 -23.5t21.5 -16.5t34.5 -10.5t46 -8t61 -5.5l-14 -55h-545l14 55q47 3 71.5 6t49.5 12t36 19.5t23 35t18.5 51t16.5 75.5l53 276
q13 57 -10 121q-57 158 -180 479q-16 41 -26 60t-22 37t-31.5 25t-42.5 12t-66 10l14 55h473l-12 -55l-72 -8q-52 -7 -62 -24.5t5 -61.5q113 -316 188 -496q11 16 76.5 108.5t96.5 137.5t78.5 116.5t76.5 120.5q31 54 21.5 72t-68.5 27l-64 8l15 55h442zM1110 1565l-27 -105
h-465l29 105h463z" />
    <glyph glyph-name="uni0233" unicode="&#x233;" horiz-adv-x="905" 
d="M489 154h5q141 216 194 319q82 158 82 244q-2 38 -25 96q-10 23 5 49q11 25 35.5 41.5t50.5 16.5q35 0 58 -31t24 -82q0 -86 -74 -217q-63 -115 -174.5 -288.5t-196.5 -291.5q-220 -317 -369 -481l-213 -55l-16 45q278 184 481 458q-1 118 -20.5 320.5t-42.5 347.5
q-15 127 -43 127q-13 0 -48 -34t-71 -85l-35 45q58 90 124.5 156t117.5 66q42 0 67 -58.5t39 -183.5q25 -214 45 -524zM817 1225l-24 -105h-459l26 105h457z" />
    <glyph glyph-name="uni0237" unicode="&#x237;" horiz-adv-x="544" 
d="M139 657l-26 48q89 93 183 154t140 61q33 0 36.5 -52t-19.5 -161q-18 -94 -57 -284.5t-58 -287.5q-75 -375 -242 -532q-68 -66 -127 -97.5t-92 -31.5q-32 0 -60 18.5t-28 46.5q0 24 14.5 49t34.5 41q22 22 45 11q56 -35 101 -35t77 51.5t60 169.5q18 74 38 169t35 172
t44 224.5t49 249.5q5 24 8 42t4.5 31t2 21.5t-1.5 13.5t-4.5 7t-6.5 2q-13 0 -61 -32t-89 -69z" />
    <glyph glyph-name="circumflex" unicode="&#x2c6;" 
d="M764 1034l-47 -35q-67 78 -146 197q-125 -125 -221 -197l-41 35q177 204 266 334h46q50 -156 143 -334z" />
    <glyph glyph-name="caron" unicode="&#x2c7;" 
d="M772 1376l45 -37q-174 -197 -266 -331h-45q-47 146 -146 333l52 35q81 -98 141 -196q131 127 219 196z" />
    <glyph glyph-name="uni02C9" unicode="&#x2c9;" 
d="M774 1225l-24 -105h-459l26 105h457z" />
    <glyph glyph-name="breve" unicode="&#x2d8;" 
d="M741 1313h52q-12 -73 -39 -127t-64.5 -84t-79 -44t-88.5 -14q-100 0 -153 63.5t-29 205.5h51q1 -72 40.5 -112t107.5 -40t121 40t81 112z" />
    <glyph glyph-name="dotaccent" unicode="&#x2d9;" 
d="M569 1303q38 0 60 -27.5t22 -65.5q0 -50 -31 -84t-77 -34q-36 0 -60 25.5t-24 64.5q0 43 30 82t80 39z" />
    <glyph glyph-name="ring" unicode="&#x2da;" 
d="M573 1360q70 0 118.5 -47t45.5 -125q-3 -80 -62 -129t-136 -49q-75 0 -122 46.5t-44 117.5q3 84 62 135t138 51zM561 1294q-39 0 -66 -32.5t-28 -81.5q-2 -45 19.5 -74t60.5 -29t67 32t29 81q2 46 -20 75t-62 29z" />
    </font>
</defs>
</svg>
