<?xml version="1.0" standalone="no"?>
<!DOCTYPE svg PUBLIC "-//W3C//DTD SVG 1.1//EN" "http://www.w3.org/Graphics/SVG/1.1/DTD/svg11.dtd" >
<svg xmlns="http://www.w3.org/2000/svg" xmlns:xlink="http://www.w3.org/1999/xlink" version="1.1">
<metadata>
Created by FontForge 20170731 at Mon Jul  4 16:35:22 2022
 By Aleksey,,,
(c) 1990, 1991, 1992, 1994, 1997, 1998, 2000, 2002, 2004 Adobe Systems Incorporated. All rights reserved.
</metadata>
<defs>
<font id="MinionPro-SemiboldIt" horiz-adv-x="819" >
  <font-face 
    font-family="Minion Pro SmBd"
    font-weight="600"
    font-style="italic"
    font-stretch="normal"
    units-per-em="2048"
    panose-1="2 4 6 3 6 2 1 9 2 3"
    ascent="1489"
    descent="-559"
    x-height="926"
    cap-height="1329"
    bbox="-442 -737 3449 2091"
    underline-thickness="102"
    underline-position="-307"
    slope="-12"
    unicode-range="U+0020-FB06"
  />
<missing-glyph horiz-adv-x="1024" 
d="M0 0v1432h1024v-1432h-1024zM512 807l348 522h-696zM573 715l349 -520v1042zM164 102h696l-348 523zM102 1237v-1042l349 520z" />
    <glyph glyph-name="T_h" unicode="Th" horiz-adv-x="2164" 
d="M2079 238l28 -56q-92 -96 -185 -151.5t-146 -55.5q-99 0 -52 211l107 459q27 115 -16 115q-55 0 -170.5 -113t-188.5 -235q-45 -180 -80 -396q-59 -5 -207 -41l-14 17q132 590 252 1239q-181 16 -358 16h-101l-198 -983q-10 -47 -14 -73.5t-0.5 -50.5t12 -34.5t32 -20.5
t51.5 -14t78 -8l-14 -63h-612l14 63q45 4 71.5 7.5t50.5 13.5t35.5 20.5t23.5 35.5t19 50.5t17 73.5l215 983h-119q-122 0 -173.5 -13.5t-82.5 -47.5q-57 -63 -112 -187h-72q56 175 102 381h52q14 -34 32 -42.5t62 -8.5h842q101 0 132.5 7.5t37.5 31.5l6 29q14 5 44.5 15.5
t48.5 16.5t41 13t38 10.5t24 3.5q20 0 23 -15.5t-6 -56.5q-121 -576 -170 -819h4q153 199 336 307q88 54 155 54q127 0 70 -250l-98 -440q-18 -77 4 -80q14 0 54 25t75 57z" />
    <glyph glyph-name="Tcaron_h" unicode="&#x164;h" horiz-adv-x="2164" 
d="M2079 238l28 -56q-92 -96 -185 -151.5t-146 -55.5q-99 0 -52 211l107 459q27 115 -16 115q-55 0 -170.5 -113t-188.5 -235q-45 -180 -80 -396q-59 -5 -207 -41l-14 17q132 590 252 1239q-181 16 -358 16h-101l-198 -983q-10 -47 -14 -73.5t-0.5 -50.5t12 -34.5t32 -20.5
t51.5 -14t78 -8l-14 -63h-612l14 63q45 4 71.5 7.5t50.5 13.5t35.5 20.5t23.5 35.5t19 50.5t17 73.5l215 983h-119q-122 0 -173.5 -13.5t-82.5 -47.5q-57 -63 -112 -187h-72q56 175 102 381h52q14 -34 32 -42.5t62 -8.5h842q101 0 132.5 7.5t37.5 31.5l6 29q14 5 44.5 15.5
t48.5 16.5t41 13t38 10.5t24 3.5q20 0 23 -15.5t-6 -56.5q-121 -576 -170 -819h4q153 199 336 307q88 54 155 54q127 0 70 -250l-98 -440q-18 -77 4 -80q14 0 54 25t75 57zM1151 1681l35 -51q-170 -120 -295 -229h-62q-95 114 -221 229l41 51q132 -52 234 -114
q133 66 268 114z" />
    <glyph glyph-name="Tcommaaccent_h" unicode="&#x162;h" horiz-adv-x="2164" 
d="M2079 238l28 -56q-92 -96 -184.5 -151.5t-146.5 -55.5q-102 0 -52 211l107 459q27 115 -16 115q-55 0 -171.5 -113t-189.5 -235q-29 -116 -80 -394q-85 -10 -207 -43l-14 17q132 590 252 1239q-181 16 -358 16h-101l-198 -983q-10 -47 -14 -73.5t-0.5 -50.5t12 -34.5
t32 -20.5t51.5 -14t78 -8l-14 -63h-612l14 63q45 4 71.5 7.5t50.5 13.5t35.5 20.5t24 35.5t19.5 50.5t18 73.5l213 983h-119q-121 0 -173 -13.5t-83 -47.5q-57 -63 -112 -187h-72q66 208 102 381h52q14 -34 32 -42.5t62 -8.5h841q101 0 133 7.5t40 31.5l6 29q14 5 44.5 15.5
t48.5 16.5t41 13t38 10.5t24 3.5q20 0 23 -15.5t-6 -56.5q-121 -576 -170 -819h4q153 199 336 307q88 54 155 54q127 0 70 -250l-98 -440q-9 -46 -7.5 -62t13.5 -18q13 0 52.5 25t74.5 57zM623 -63q55 0 96.5 -42t42.5 -110q0 -99 -79 -165t-196 -93l-20 61
q76 32 113.5 61.5t37.5 71.5q0 59 -79 82q-25 7 -25 45q0 37 30 63t79 26z" />
    <glyph glyph-name="f_b" unicode="fb" horiz-adv-x="1599" 
d="M717 891l-41 -76l-201 -18q-9 -51 -24 -140t-24.5 -143.5t-25.5 -137.5t-34 -163q-53 -247 -119 -379t-170 -227q-124 -115 -228 -115q-47 0 -87 28t-39 64q0 27 19 57t46 52q25 18 41 2q30 -27 70.5 -45.5t70.5 -18.5q48 0 72 43q49 88 109 459q105 660 106 666h-166
l-8 20l66 72h126q28 133 74 228.5t129 172.5q65 64 157 109t165 45q102 0 164 -51q122 51 165 51q18 0 20.5 -18t-5.5 -52q-14 -59 -160 -721h4q111 131 223.5 201t192.5 70q76 0 119 -65.5t43 -176.5q0 -167 -84 -332.5t-221 -259.5q-174 -117 -336 -117q-65 0 -114.5 26.5
t-78.5 68.5q-51 77 -12 268q111 553 188 913q-77 101 -178 101q-40 0 -70 -18t-61 -66t-57 -141.5t-49 -235.5h223zM1272 780q-51 0 -128.5 -62.5t-178.5 -201.5q-20 -62 -37 -170q-13 -66 -10.5 -113t11.5 -77t27.5 -47.5t37.5 -24t42 -6.5q52 0 94 31q76 51 141.5 208.5
t65.5 327.5q0 64 -18 99.5t-47 35.5z" />
    <glyph glyph-name="f_f_b" unicode="ffb" horiz-adv-x="2150" 
d="M1268 891l-43 -76l-197 -16q-59 -365 -86 -506q-51 -258 -126.5 -402.5t-197.5 -240.5q-66 -53 -139.5 -82t-136.5 -29q-141 0 -229 101q-53 -55 -128 -101.5t-137 -46.5q-46 0 -84 23.5t-38 58.5q1 23 17 51.5t34 44.5q37 37 59 21q83 -56 131 -56q51 0 76 46
q54 90 113 462q19 122 50.5 334.5t49.5 321.5h-170l-8 20l63 72h133q25 106 67.5 190.5t121.5 157.5q70 68 171 116t195 48q73 0 129 -26.5t86 -67.5q67 62 152.5 99.5t157.5 37.5q47 0 92 -14.5t70 -36.5q122 51 167 51q29 0 13 -70q-70 -307 -160 -725h4
q119 136 229 205.5t187 69.5q75 0 118.5 -65.5t43.5 -174.5q0 -167 -85.5 -334.5t-222.5 -261.5q-171 -115 -331 -115q-65 0 -116 27t-79 68q-51 77 -12 268q15 74 188 907q-33 51 -80 82t-98 31q-40 -2 -70.5 -20.5t-61 -67t-57 -142.5t-49.5 -237h224zM1823 776
q-49 0 -128 -62.5t-177 -201.5q-18 -46 -37 -168q-13 -65 -11 -112t10.5 -77t26.5 -47.5t36.5 -24.5t41.5 -7q49 0 94 30q76 51 142.5 209.5t66.5 329.5q0 64 -17.5 97.5t-47.5 33.5zM492 891h335q39 192 117 303q-33 56 -87 85.5t-118 29.5q-62 0 -104.5 -34.5t-79 -127.5
t-63.5 -256zM809 799h-336q-61 -376 -100 -574q-64 -311 -168 -471q36 -43 97 -73.5t122 -30.5q67 0 110.5 30t69.5 93q60 114 111 409q17 109 94 617z" />
    <glyph glyph-name="f_f_h" unicode="ffh" horiz-adv-x="2213" 
d="M2132 240l27 -58q-90 -96 -183.5 -151.5t-148.5 -55.5q-98 0 -51 211l106 459q28 115 -14 115q-57 0 -170 -112t-191 -238q-46 -183 -80 -394q-67 -6 -206 -41l-15 17q107 486 256 1257q-82 111 -180 111q-41 -2 -71.5 -21t-61.5 -68.5t-57 -143.5t-48 -236h224l-41 -74
l-197 -16q-5 -27 -36 -210.5t-54 -299.5q-51 -256 -125 -400.5t-192 -240.5q-65 -53 -139 -82t-140 -29q-143 0 -233 103q-50 -54 -127.5 -102t-139.5 -48q-46 0 -84.5 23.5t-38.5 58.5q1 23 18.5 53.5t35.5 44.5q33 37 59 19q83 -56 133 -56q47 0 76 46q51 83 111 469
q69 453 104 651h-172l-8 20l63 70h133q24 103 67 187.5t122 160.5q70 69 170.5 116.5t200.5 47.5q73 0 129.5 -25t87.5 -61q63 57 147 93t156 36q103 0 168 -51q122 51 161 51q18 0 21 -17t-4 -49l-172 -819h4q166 213 340 311q88 54 153 54q127 0 70 -250l-98 -440
q-13 -64 2 -82q14 0 55.5 26.5t77.5 59.5zM492 891h333q38 189 125 311q-79 109 -202 109q-66 0 -111 -35t-82 -128.5t-63 -256.5zM809 801h-336q-76 -442 -104 -576q-33 -167 -71 -275.5t-93 -195.5q36 -42 99.5 -73t127.5 -31q123 0 174 123q59 121 107 409q44 282 96 619
z" />
    <glyph glyph-name="f_f_j" unicode="ffj" horiz-adv-x="1632" 
d="M143 891h131q25 103 67 185.5t120 156.5q69 67 170.5 115.5t199.5 48.5q73 0 129 -25t87 -59q65 60 149 96.5t168 36.5q63 0 110.5 -16.5t72.5 -42t36.5 -49.5t11.5 -46q0 -34 -25 -62.5t-73 -45.5q-77 -30 -90 22q-38 156 -121 156q-46 0 -84.5 -34t-67 -99.5
t-49.5 -147.5t-38 -190h161q167 0 328 33q33 -4 39 -41.5t-10 -110.5q-13 -65 -54 -277t-65 -335q-71 -344 -272 -504q-149 -117 -232 -117q-37 0 -65.5 19.5t-28.5 52.5q0 27 20.5 60.5t44.5 54.5q22 16 43 4q63 -49 115 -49q34 0 57.5 36t47.5 133q16 69 34 160
t32.5 168.5t42 228t48.5 261.5q18 88 1.5 110.5t-97.5 22.5h-207q-55 -327 -92 -520q-51 -257 -122 -395t-191 -234q-66 -52 -141 -82.5t-138 -30.5q-137 0 -235 103q-50 -55 -125 -102.5t-138 -47.5q-46 0 -83 23t-37 57q1 24 17 54t34 44q35 35 59 21q80 -58 133 -58
q45 0 70 45q48 79 113 476q93 579 104 647h-170l-6 18zM492 891h335q36 183 119 303q-36 54 -89 82.5t-112 28.5q-65 0 -109.5 -36t-80.5 -127.5t-63 -250.5zM811 801h-338q-69 -419 -100 -576q-33 -173 -73.5 -284t-96.5 -187q39 -43 102.5 -73.5t126.5 -30.5t104.5 28
t67.5 89q53 93 105 395q59 358 102 639z" />
    <glyph glyph-name="f_f_k" unicode="ffk" horiz-adv-x="2119" 
d="M1507 508h4q75 95 166 182q110 112 192 174t152 62q42 0 70.5 -22t28.5 -52q0 -24 -13.5 -52t-33.5 -48q-21 -21 -37 -15q-42 21 -94 21q-55 0 -116.5 -38t-103.5 -89q43 -147 119 -309q47 -105 71 -145t46 -40q40 0 110 82l39 -49q-72 -105 -140 -150t-118 -45
q-85 0 -147 144q-60 131 -137 358q-66 -72 -84 -102q-43 -208 -66 -359q-96 -11 -203 -41l-14 13q125 570 262 1259q-31 52 -77.5 81.5t-98.5 29.5q-41 -1 -71.5 -19t-61.5 -66.5t-57.5 -143t-49.5 -238.5h224l-43 -76l-197 -16q-50 -304 -90 -506q-49 -258 -122.5 -401.5
t-194.5 -239.5q-66 -53 -142 -83t-139 -30q-141 0 -229 101q-50 -53 -127 -100.5t-140 -47.5q-45 0 -84 23t-39 57q1 23 19 52t37 46q36 36 57 19q86 -58 133 -58q51 0 76 45q49 82 111 474q69 453 102 649h-170l-8 20l63 72h131q26 104 69 188t122 160q70 70 172.5 117
t200.5 47q137 0 215 -86q61 56 147 92.5t156 36.5q47 0 93 -14.5t73 -36.5q122 51 163 51q17 0 20.5 -14t-3.5 -43q-36 -161 -100 -455.5t-93 -425.5zM492 891h333q41 197 123 313q-74 107 -198 107q-67 0 -112.5 -35.5t-82 -128t-63.5 -256.5zM809 799h-336
q-73 -422 -104 -574q-33 -170 -71 -278.5t-93 -192.5q36 -42 98 -73t123 -31q128 0 178 117q60 120 109 411q25 158 55 355t41 266z" />
    <glyph glyph-name="f_f_t" unicode="fft" horiz-adv-x="1744" 
d="M1827 891l-58 -84l-198 -8l-109 -531q-23 -121 13 -121q22 0 78 36.5t96 74.5l30 -51q-63 -82 -172.5 -157t-187.5 -75q-35 0 -55.5 25.5t-26.5 89t18 170.5l113 539h-338q-81 -456 -94 -523q-49 -251 -121 -389t-192 -235q-66 -54 -140 -83.5t-139 -29.5
q-140 0 -231 101q-53 -55 -128 -101.5t-137 -46.5q-45 0 -83.5 24t-38.5 58q1 24 17 54t34 46q35 35 59 19q76 -58 131 -58q49 0 78 46q56 102 111 469q92 602 100 649h-170l-8 20l63 72h133q24 100 67 183t122 159q70 67 170.5 115.5t197.5 48.5q73 0 127.5 -25t83.5 -63
q65 62 145.5 99.5t153.5 37.5q65 0 107.5 -33.5t40.5 -71.5q-1 -32 -23.5 -63t-46.5 -45q-27 -18 -51 6q-45 50 -79 76t-66 26q-53 0 -95.5 -101.5t-80.5 -348.5h342l36 156l207 141l23 -21l-64 -276h236zM492 891h333q43 198 117 303q-35 53 -87 82t-107 29
q-67 0 -112.5 -37t-81 -127.5t-62.5 -249.5zM809 799h-336q-67 -416 -98 -574q-33 -166 -72.5 -275.5t-95.5 -195.5q35 -43 96.5 -73.5t126.5 -30.5q63 0 104 28t68 93q59 106 111 405q41 266 96 623z" />
    <glyph glyph-name="f_h" unicode="fh" horiz-adv-x="1658" 
d="M1577 240l31 -58q-92 -96 -185.5 -151.5t-148.5 -55.5q-98 0 -51 211l104 457q28 117 -14 117q-56 0 -169 -113t-192 -239q-35 -144 -80 -392q-58 -5 -206 -41l-13 17q100 456 256 1261q-33 47 -81 74t-101 27q-41 -1 -71 -19t-60 -66t-55.5 -141.5t-48.5 -236.5h221
l-41 -76l-197 -18q-69 -401 -110 -590q-55 -244 -121.5 -376t-171.5 -224q-121 -115 -228 -115q-48 0 -88 27.5t-39 64.5q0 27 20 57.5t48 53.5q21 18 41 2q31 -28 71.5 -48t69.5 -20q48 0 72 43q48 67 111 461q20 124 53 341t51 325h-164l-8 20l65 72h125q30 134 76 230
t127 173q67 64 160.5 109t167.5 45q102 0 164 -51q122 51 166 51q16 0 17.5 -17t-5.5 -49l-170 -819h4q161 207 338 311q90 52 153 52q129 0 72 -250l-96 -440q-9 -47 -8 -60t10 -20q13 0 54 25.5t75 58.5z" />
    <glyph glyph-name="f_j" unicode="fj" horiz-adv-x="1077" 
d="M150 891h120q24 123 81 233.5t143 186.5q156 135 323 135q61 0 107.5 -15.5t70 -39.5t34.5 -47t11 -44q0 -36 -24 -66.5t-68 -43.5q-84 -31 -96 24q-29 150 -119 150q-161 0 -241 -473h155q183 0 330 33q33 -3 40 -42t-9 -122q-69 -354 -119 -598q-35 -170 -101 -294.5
t-174 -209.5q-146 -117 -225 -117q-36 0 -68 21.5t-32 54.5q0 26 21.5 59t47.5 54q20 17 41 4q67 -49 119 -49q34 0 56 35t44 133q16 69 35 163.5t32 162.5t44.5 234t48.5 255q15 89 0 110t-94 21h-211q-83 -442 -113 -576q-59 -256 -124.5 -386t-172.5 -226
q-125 -119 -231 -119q-52 0 -91 26.5t-38 63.5q0 28 19.5 57.5t48.5 51.5q23 17 41 2q29 -26 68.5 -45t70.5 -19q50 0 76 47q46 54 116 471q39 234 109 652h-158l-8 20z" />
    <glyph glyph-name="f_k" unicode="fk" horiz-adv-x="1566" 
d="M956 510l5 -2q77 99 165 184q46 46 71 69.5t68 60.5t72.5 55.5t65.5 33.5t67 15q42 0 70.5 -22t28.5 -52q0 -49 -47 -100q-21 -21 -37 -15q-42 21 -94 21q-54 0 -115.5 -39t-104.5 -90q42 -142 119 -307q46 -103 70.5 -143t46.5 -40q40 0 113 82l36 -51
q-72 -105 -140 -150t-118 -45q-85 0 -147 144q-81 184 -137 358q-61 -64 -82 -102q-34 -165 -68 -359q-91 -10 -200 -41l-17 13q155 708 264 1257q-32 51 -79 80t-97 29q-41 0 -72 -18t-62.5 -67t-57.5 -142.5t-49 -235.5h223l-43 -74l-197 -18q-8 -43 -30.5 -174
t-39.5 -218.5t-40 -193.5q-53 -247 -120 -379t-173 -227q-124 -115 -228 -115q-49 0 -89 27.5t-40 64.5q0 28 19.5 59t48.5 52q23 17 41 2q30 -27 70 -45.5t69 -18.5q50 0 74 43q50 80 111 457q20 120 54.5 337.5t53.5 326.5h-166l-8 20l66 74h126q28 131 74.5 227
t128.5 174q70 66 160.5 110t169.5 44q98 0 160 -51q122 51 161 51q32 0 17 -60q-77 -363 -191 -876z" />
    <glyph glyph-name="f_t" unicode="ft" horiz-adv-x="1198" 
d="M1278 891l-57 -82l-199 -10l-107 -531q-25 -121 11 -121q22 0 77 36t95 75l30 -51q-61 -81 -170.5 -156.5t-187.5 -75.5q-34 0 -54 25.5t-25.5 89t18.5 170.5l110 539h-342q-75 -419 -108 -574q-56 -254 -123 -389t-172 -229q-61 -57 -122 -86t-108 -29q-52 0 -91 26.5
t-38 63.5q0 28 20 58.5t48 52.5q23 17 41 2q29 -26 68.5 -45t70.5 -19q47 0 78 47q48 72 113 469q100 627 104 652h-160l-8 20l66 72h120q52 260 201 399q74 69 158.5 112.5t155.5 43.5q65 0 106 -34t39 -73q-1 -32 -23.5 -63t-46.5 -45q-26 -19 -49 4q-91 102 -145 102
q-52 2 -95.5 -99.5t-82.5 -346.5h346l37 158l206 141l23 -21l-64 -278h236z" />
    <glyph glyph-name="longs_b" unicode="&#x17f;b" horiz-adv-x="1540" 
d="M928 651h4q117 135 226 205t188 70q76 0 118.5 -64.5t42.5 -175.5q0 -168 -84.5 -335t-222.5 -259q-169 -117 -330 -117q-64 0 -114 27t-78 68q-50 76 -16 258q43 221 190 921q-27 45 -73 73t-91 28q-31 1 -54 -9.5t-50.5 -46.5t-50.5 -99.5t-48.5 -175t-50.5 -267.5
q-71 -423 -102 -568q-50 -233 -117.5 -359.5t-175.5 -219.5q-124 -113 -227 -113q-48 0 -89.5 29t-41.5 65q0 28 20 59t47 52q25 19 43 4q29 -28 70.5 -49t70.5 -21q50 0 74 43q47 64 109 459q84 538 92 580q40 211 95.5 341t146.5 226q63 70 151 118t160 48q92 0 155 -47
q129 47 156 47q33 0 19 -62q-75 -328 -162 -733zM1212 778q-54 0 -133 -66.5t-170 -195.5q-23 -72 -39 -172q-47 -268 107 -268q44 0 92 30q75 52 141 208t66 327q0 67 -17.5 102t-46.5 35z" />
    <glyph glyph-name="longs_h" unicode="&#x17f;h" horiz-adv-x="1601" 
d="M1522 238l28 -56q-92 -96 -185 -151.5t-148 -55.5q-99 0 -52 211l107 459q25 115 -15 115q-57 0 -168 -109.5t-188 -236.5q-50 -199 -82 -398q-69 -6 -207 -41l-14 17q145 654 258 1257q-31 50 -76 76.5t-88 26.5q-39 1 -68.5 -19t-63 -79.5t-65 -184t-61.5 -317.5
q-66 -401 -100 -568q-34 -159 -78.5 -270.5t-93 -177t-119.5 -129.5q-63 -56 -125.5 -85.5t-107.5 -29.5q-48 0 -89 29t-40 65q0 29 20 59.5t47 51.5q26 19 43 2q31 -27 72 -47.5t71 -20.5q44 0 74 41q45 66 107 461q18 107 47 298.5t45 277.5q38 210 94.5 341.5
t147.5 227.5q60 68 154 118t167 50q88 0 150 -47q125 47 157 47q26 0 17 -57l-172 -824h4q87 112 175.5 189.5t160.5 117.5q88 54 153 54q127 0 70 -250l-96 -440q-10 -47 -8.5 -63t12.5 -19q13 0 53.5 26t75.5 58z" />
    <glyph glyph-name="longs_i" unicode="&#x17f;i" horiz-adv-x="1073" 
d="M758 1446q58 0 101 -15.5t64 -39.5t30.5 -47t9.5 -44q0 -33 -25 -64t-68 -46q-80 -29 -94 29q-12 65 -41 99.5t-71 33.5q-34 0 -60.5 -20.5t-56.5 -78.5t-59.5 -177.5t-57.5 -301.5q-66 -430 -102 -586q-52 -235 -119 -360.5t-174 -220.5q-127 -115 -232 -115
q-49 0 -89.5 29.5t-39.5 66.5q0 51 68 103q22 19 43 4q30 -27 70.5 -45.5t72.5 -18.5q47 0 74 43q51 77 109 455q81 516 90 563q72 403 241 588q68 76 153 121t163 45zM989 242l31 -49q-83 -93 -184 -155.5t-154 -62.5q-102 0 -49 213l115 484q12 57 -3 69q-12 0 -50.5 -23
t-78.5 -54l-28 53q100 93 199 151t151 58q37 0 47.5 -50t-12.5 -139l-125 -508q-19 -73 4 -73q15 0 55 25t82 61z" />
    <glyph glyph-name="longs_k" unicode="&#x17f;k" horiz-adv-x="1515" 
d="M899 510l4 -2q71 88 168 182q49 49 70 69.5t66 60.5t73 57.5t65.5 33t69.5 15.5q42 0 70 -22t28 -52q0 -49 -47 -100q-21 -21 -36 -15q-42 21 -93 21q-55 0 -117 -37.5t-104 -87.5q45 -153 119 -311q46 -103 71 -145t46 -42q34 0 110 82l39 -47q-72 -105 -140 -150
t-118 -45q-84 0 -147 142q-71 154 -138 362q-58 -64 -84 -106q-19 -90 -65 -357q-96 -11 -203 -41l-14 13q187 868 268 1265q-31 48 -77 73.5t-91 25.5q-39 1 -69 -20.5t-63 -82.5t-64 -187.5t-62 -320.5q-49 -312 -102 -559q-51 -229 -116 -354.5t-173 -220.5
q-127 -115 -233 -115q-48 0 -88.5 29t-40.5 65q0 28 20 59t47 52q27 18 43 2q30 -27 71 -47.5t70 -20.5q50 0 74 43q46 61 109 459q79 503 90 563q40 216 97 351.5t149 230.5q68 74 155 121t156 47q91 0 158 -47q129 47 157 47q17 0 20.5 -13t-3.5 -42q-116 -523 -195 -881z
" />
    <glyph glyph-name="longs_l" unicode="&#x17f;l" horiz-adv-x="1067" 
d="M1001 244l33 -54q-87 -97 -186 -156t-156 -59q-98 0 -43 261q170 840 205 1009q-30 57 -73 82t-87 25q-30 0 -53 -10.5t-50.5 -45.5t-50 -96t-47 -167.5t-47.5 -254.5q-58 -371 -106 -592q-51 -232 -118.5 -357.5t-174.5 -219.5q-129 -117 -231 -117q-48 0 -88.5 29
t-40.5 65q0 29 20.5 59.5t48.5 51.5q26 19 43 2q30 -27 72 -48.5t72 -21.5q44 0 71 43q47 63 107 459q77 497 90 563q39 223 95.5 356t150.5 230q68 72 154.5 119t158.5 47q84 0 145 -49q134 49 158 49q17 0 20.5 -15t-3.5 -47q-161 -788 -238 -1148q-15 -84 8 -84
q18 0 60 27t81 65z" />
    <glyph glyph-name="longs_longs" unicode="&#x17f;&#x17f;" horiz-adv-x="1046" 
d="M1282 1448q58 0 97.5 -33t37.5 -67q-2 -25 -18 -52.5t-41 -46.5q-39 -27 -68 2q-34 35 -72.5 58.5t-66.5 23.5q-23 0 -40 -17t-38.5 -68t-44 -158t-47.5 -273q-56 -380 -92 -569q-46 -231 -120.5 -368t-195.5 -232q-64 -51 -137.5 -79t-134.5 -28q-138 0 -229 94
q-50 -55 -122.5 -99t-135.5 -44q-46 0 -84.5 24.5t-38.5 59.5q0 22 17 52.5t34 43.5q36 36 55 21q83 -60 129 -60q48 0 78 41q16 22 28.5 55.5t35.5 142t49 284.5q63 426 76 495q38 222 103 365t175 244q60 54 146 96.5t165 42.5q147 0 209 -88q155 137 291 137zM389 -348
q63 0 103 25.5t65 89.5q58 88 111 444q13 81 37 242t40 252q53 334 156 485q-37 57 -90.5 86t-110.5 29q-46 0 -81 -24.5t-70.5 -88.5t-67.5 -186.5t-61 -307.5q-58 -373 -86 -501q-61 -289 -164 -439q27 -38 92.5 -72t126.5 -34z" />
    <glyph glyph-name="longs_longs_i" unicode="&#x17f;&#x17f;i" horiz-adv-x="1613" 
d="M1290 1446q58 0 102 -15.5t66.5 -39.5t33.5 -47t11 -44q0 -78 -92 -110q-80 -29 -94 29q-29 137 -113 137q-33 0 -59.5 -22.5t-55 -83t-56 -178.5t-56.5 -298q-58 -378 -88 -522q-44 -231 -120.5 -369.5t-197.5 -234.5q-66 -53 -136.5 -81t-129.5 -28q-140 0 -231 96
q-50 -55 -121.5 -99t-134.5 -44q-47 0 -85 24.5t-38 61.5q0 22 16 51.5t33 44.5q34 34 55 21q75 -60 129 -60q50 0 76 41q15 22 28 55t36 140t51 283q73 469 78 497q39 222 104 367.5t174 243.5q57 53 142 94t161 41t131.5 -26t85.5 -64q66 61 144 100t151 39zM381 -350
q64 0 104.5 25t67.5 89q67 105 123 469q9 61 22.5 156t24 164t22.5 137q57 344 158 496q-75 121 -190 121q-48 0 -84 -24.5t-73 -90t-70 -192t-64 -318.5q-49 -306 -88 -494q-57 -278 -162 -430q31 -43 91 -75.5t118 -32.5zM1534 244l33 -51q-85 -93 -186 -155.5t-154 -62.5
q-102 0 -49 213l114 482q16 69 0 69q-31 0 -131 -77l-28 55q101 93 198.5 151t149.5 58q83 0 39 -176l-127 -521q-16 -73 4 -73q15 0 54.5 25.5t82.5 62.5z" />
    <glyph glyph-name="longs_longs_l" unicode="&#x17f;&#x17f;l" horiz-adv-x="1607" 
d="M1534 244l33 -54q-87 -97 -185.5 -156t-154.5 -59q-100 0 -45 261q17 84 90.5 447t113.5 560q-29 54 -73 83.5t-94 29.5q-38 -1 -67 -21.5t-60 -76.5t-59 -168.5t-54 -284.5q-6 -42 -21 -140t-22 -145.5t-21 -125.5t-28 -150q-43 -228 -118 -366.5t-196 -233.5
q-64 -51 -135.5 -78t-132.5 -27q-142 0 -233 99q-47 -56 -119 -101t-135 -45q-48 0 -86.5 24.5t-38.5 61.5q0 22 16 51.5t33 44.5q39 31 57 19q76 -58 127 -58q54 0 78 41q16 21 29 54t35.5 141t48.5 285q53 360 78 503q39 226 102 367.5t174 241.5q57 51 143 90t162 39
t133 -26t86 -64q63 59 144 99t149 40q93 0 156 -51q37 17 88 34t74 17q16 0 19.5 -15.5t-3.5 -44.5q-47 -232 -238 -1150q-18 -89 5 -89q14 0 60.5 30.5t84.5 66.5zM709 1307q-48 0 -83.5 -23t-73 -87t-70.5 -192t-64 -325q-55 -344 -80 -461q-68 -319 -166 -463
q32 -43 91 -75.5t120 -32.5q122 0 174 123q63 102 113 436q69 467 71 477q60 350 162 504q-77 119 -194 119z" />
    <glyph glyph-name="f_f" unicode="ff" horiz-adv-x="1138" 
d="M141 891h133q51 221 179 344q72 67 175.5 114.5t200.5 47.5q75 0 130.5 -25t82.5 -59q159 133 287 133q59 0 99 -31t38 -65q-2 -26 -18 -54.5t-41 -46.5q-38 -26 -66 2q-80 80 -137 80q-24 0 -40.5 -13.5t-36.5 -56t-40.5 -134t-42.5 -236.5h238l-43 -74l-209 -16
q-2 -12 -34 -204.5t-58 -320.5q-33 -171 -76 -286.5t-99 -192t-140 -143.5q-65 -54 -142.5 -84.5t-138.5 -30.5q-147 0 -238 94q-48 -50 -123 -95.5t-137 -45.5q-47 0 -85.5 24.5t-37.5 59.5q0 20 18.5 50t35.5 46q35 35 59 21q78 -60 133 -60q46 0 74 45q47 78 113 474
q19 119 52.5 329t51.5 320h-170l-8 20zM489 891h336q39 197 119 307q-35 51 -89.5 80t-115.5 29q-101 0 -155 -89t-95 -327zM809 801h-334q-11 -60 -30.5 -177.5t-36 -208.5t-35.5 -186q-33 -169 -72.5 -278t-97.5 -197q33 -41 97.5 -70.5t127.5 -29.5q130 0 176 104
q59 100 111 432q85 551 94 611z" />
    <glyph glyph-name="f_f_i" unicode="ffi" horiz-adv-x="1662" 
d="M1585 248l31 -53q-81 -93 -184.5 -156.5t-155.5 -63.5q-23 0 -38 9.5t-25 32.5t-7.5 69t17.5 113q9 39 46.5 205.5t59.5 257.5q8 33 11 54.5t1 38t-8 25t-20.5 13.5t-32 6.5t-47.5 1.5h-203q-5 -26 -36.5 -210.5t-55.5 -309.5q-34 -173 -79 -293t-102 -197.5t-139 -142.5
q-64 -51 -137.5 -80t-136.5 -29q-138 0 -229 101q-50 -54 -126.5 -101t-140.5 -47q-48 0 -85.5 24t-36.5 58q0 23 16 53.5t35 46.5q38 34 59 17q80 -58 129 -58q51 0 76 43q50 87 111 476q8 50 106 649h-172l-6 18l61 72h133q25 103 67 185.5t120 156.5q69 67 170 115.5
t198 48.5q73 0 128.5 -25t86.5 -59q63 60 149 96.5t169 36.5q63 0 111 -16.5t72 -41.5t35 -49t11 -45q0 -73 -96 -108q-78 -31 -90 22q-39 156 -125 156q-89 0 -144 -124.5t-89 -348.5h159q190 0 326 35q72 0 31 -162q-83 -342 -125 -522q-19 -84 6 -84q16 0 60.5 27.5
t80.5 62.5zM492 891h335q40 191 117 303q-38 55 -91.5 84t-111.5 29q-95 0 -151 -90t-98 -326zM811 801h-338q-84 -480 -104 -576q-32 -167 -69 -275.5t-91 -195.5q36 -43 98 -73.5t127 -30.5q122 0 172 117q58 106 105 395q24 154 55.5 357t44.5 282z" />
    <glyph glyph-name="f_f_l" unicode="ffl" horiz-adv-x="1677" 
d="M1272 891l-43 -74l-199 -18q-8 -43 -36.5 -221.5t-53.5 -305.5q-49 -250 -122.5 -389t-196.5 -235q-63 -51 -134.5 -80t-134.5 -29q-143 0 -235 105q-50 -55 -129 -103.5t-144 -48.5q-48 0 -86.5 24t-38.5 58q0 23 16 50.5t36 43.5q32 36 57 19q82 -60 135 -60t80 47
q14 22 26.5 56t35 141t49.5 281q16 102 38 236.5t37 229t29 183.5h-170l-8 20l61 70h133q25 102 67.5 187t119.5 161q66 64 167.5 111t202.5 47q130 0 216 -86q62 56 154.5 95t174.5 38q45 0 89 -14.5t67 -34.5q117 49 151 49q33 0 13 -90q-114 -514 -226 -1118
q-15 -84 9 -84q14 0 57.5 28t77.5 60l33 -50q-83 -95 -183 -155t-153 -60q-101 0 -54 244q112 559 211 1038q-23 38 -68.5 68.5t-103.5 30.5q-39 0 -71.5 -19t-57 -55t-43.5 -78t-33.5 -99t-24.5 -105t-19 -109h225zM489 891h342q37 189 115 301q-35 53 -91.5 84t-115.5 31
t-102 -33t-81.5 -127t-66.5 -256zM815 801h-340q-9 -51 -43.5 -253t-58.5 -325q-62 -314 -162 -463q37 -45 102 -76.5t129 -31.5q117 0 168 110q55 93 105 402q23 148 55 352t45 285z" />
    <glyph glyph-name="longs_t" unicode="&#x17f;t" horiz-adv-x="1136" 
d="M756 1446q70 0 112.5 -38t40.5 -79q-1 -31 -22.5 -60.5t-50.5 -43.5q-34 -18 -56 10q-71 96 -145 96q-27 0 -48 -18t-46.5 -72t-52 -169.5t-54.5 -293.5q-75 -460 -104 -594q-35 -161 -79.5 -272.5t-92.5 -177t-119 -129.5q-124 -113 -225 -113q-49 0 -91 27.5t-42 64.5
q0 58 67 107q24 18 43 4q28 -26 70 -45t73 -19q47 0 72 43q51 76 109 459q81 505 86 535q71 412 243 608q58 68 143 119t169 51zM1219 891l-58 -82l-198 -10l-107 -531q-9 -47 -10.5 -73.5t3.5 -37t17 -10.5q23 0 78.5 36.5t93.5 74.5l33 -51q-63 -82 -172.5 -157
t-187.5 -75q-34 0 -54 25.5t-26 89t18 170.5l111 539h-144l-10 20l56 72h118l31 129l207 133l24 -18l-57 -244h234z" />
    <glyph glyph-name="f_i" unicode="fi" horiz-adv-x="1118" 
d="M1036 250l33 -49q-77 -98 -180.5 -162t-163.5 -64q-105 0 -53 220q20 89 60 256t50 211q11 50 13.5 75.5t-9.5 41t-32.5 19t-63.5 3.5h-213q-6 -34 -19.5 -111.5t-21 -118.5t-19.5 -105t-24.5 -122.5t-27.5 -120.5q-58 -252 -125 -385t-172 -227q-125 -119 -230 -119
q-52 0 -91.5 26t-39.5 64q0 27 20 57.5t48 53.5q25 19 45 2q29 -26 68.5 -44t70.5 -18q44 0 74 45q50 58 119 467q13 81 48.5 307.5t55.5 348.5h-158l-8 20l64 70h120q58 275 222 418q72 61 158 99t169 38q61 0 106.5 -15.5t68.5 -39.5t33.5 -47t10.5 -44q0 -35 -25.5 -66.5
t-66.5 -43.5q-82 -30 -94 24q-31 148 -119 148q-158 0 -241 -471h159q187 0 330 33q67 -3 29 -162q-28 -114 -123 -508q-12 -57 -10.5 -76.5t16.5 -21.5q14 0 57 29t82 65z" />
    <glyph glyph-name="f_l" unicode="fl" horiz-adv-x="1122" 
d="M717 891l-43 -76l-199 -18q-12 -66 -32 -179t-39 -214.5t-42 -204.5q-36 -165 -80 -277.5t-93 -180.5t-121 -132q-62 -58 -122.5 -87.5t-107.5 -29.5q-52 0 -92 27.5t-39 64.5q0 27 20.5 58t47.5 51q25 15 41 2q28 -27 69.5 -46.5t73.5 -19.5q47 0 76 45q52 76 119 476
q13 85 47.5 306.5t54.5 342.5h-164l-8 20l66 72h122q45 246 199 393q71 68 172 115t180 47q48 0 90.5 -14t65.5 -35q113 49 149 49q32 0 13 -82q-173 -823 -226 -1108q-9 -67 -7 -79t12 -25q16 0 61.5 29t77.5 63l33 -54q-77 -97 -178 -156t-160 -59q-99 0 -47 263
q134 672 206 1022q-22 35 -69.5 64.5t-102.5 29.5q-54 0 -96 -36.5t-71.5 -106.5t-48.5 -144t-36 -176h228z" />
    <glyph glyph-name=".notdef" horiz-adv-x="1024" 
d="M0 0v1432h1024v-1432h-1024zM512 807l348 522h-696zM573 715l349 -520v1042zM164 102h696l-348 523zM102 1237v-1042l349 520z" />
    <glyph glyph-name=".null" horiz-adv-x="0" 
 />
    <glyph glyph-name="nonmarkingreturn" horiz-adv-x="682" 
 />
    <glyph glyph-name="space" unicode=" " horiz-adv-x="456" 
 />
    <glyph glyph-name="exclam" unicode="!" horiz-adv-x="548" 
d="M596 1280q-8 -40 -45 -156q-15 -47 -95.5 -301.5t-125.5 -390.5q-9 -15 -43 -15t-37 15q7 115 22.5 346t22.5 346q5 103 12 164q6 37 41.5 54.5t116.5 17.5h2q77 0 106.5 -21.5t22.5 -58.5zM373 133q0 -70 -46 -114t-106 -44h-2q-56 0 -92.5 39.5t-36.5 98.5
q0 71 43.5 117t110.5 46q57 0 93 -40t36 -103z" />
    <glyph glyph-name="quotedbl" unicode="&#x22;" horiz-adv-x="765" 
d="M514 1450l23 -18q-15 -62 -79.5 -224t-115.5 -258l-78 -32q21 136 36 286t15 187zM868 1450l25 -18q-14 -58 -80 -221t-117 -261l-75 -32q20 137 35.5 288.5t15.5 184.5z" />
    <glyph glyph-name="numbersign" unicode="#" horiz-adv-x="1001" 
d="M1014 948l-31 -149h-186l-78 -258h164l-29 -150h-180l-105 -350h-96l105 350h-211l-105 -350h-98l104 350h-190l31 150h204l78 258h-182l31 149h194l92 305h101l-95 -305h211l93 305h96l-92 -305h174zM700 799h-211l-77 -258h211z" />
    <glyph glyph-name="dollar" unicode="$" horiz-adv-x="1001" 
d="M954 918l-61 -7q-24 239 -193 275l-84 -430l41 -27q62 -36 102.5 -65t80.5 -71t60 -93t20 -113q0 -69 -25.5 -129t-69 -102.5t-101 -74t-121 -48t-130.5 -19.5l-31 -168h-80l33 168q-117 9 -198.5 45.5t-116.5 71.5q-2 15 -3 58.5t-2 114.5t-3 120l61 6q8 -50 25.5 -100
t49 -103.5t84 -91t118.5 -47.5l90 473l-35 23q-120 64 -187 140.5t-67 182.5q0 107 58 188.5t153 123t213 43.5l31 153h82l-31 -151q103 -9 244 -76q-6 -194 -7 -270zM543 795l78 397q-99 -1 -158.5 -62.5t-59.5 -142.5q0 -62 36 -106.5t104 -85.5zM571 526l-82 -440
q105 9 162.5 72t57.5 159q0 67 -34.5 116t-103.5 93z" />
    <glyph glyph-name="percent" unicode="%" horiz-adv-x="1613" 
d="M1401 1276l-1045 -1348l-61 58l1042 1343zM819 1012q0 -110 -47.5 -212t-137 -169.5t-198.5 -67.5q-121 0 -184.5 82t-63.5 199q0 112 47 215.5t135.5 172t196.5 68.5q125 0 188.5 -82.5t63.5 -205.5zM647 1077q0 156 -86 156q-48 0 -88 -47.5t-63.5 -117t-36.5 -139
t-13 -122.5q0 -176 89 -176q50 0 90.5 53t62.5 129t33.5 146t11.5 118zM1524 424q0 -110 -47.5 -212t-137 -169.5t-198.5 -67.5q-121 0 -184.5 82t-63.5 201q0 82 28 163.5t76.5 146t121 105t153.5 40.5q64 0 113.5 -23.5t79 -64.5t44.5 -91.5t15 -109.5zM1352 489
q0 156 -86 156q-48 0 -88 -47.5t-63.5 -116.5t-36.5 -139.5t-13 -124.5q0 -174 88 -174q41 0 75.5 36t56.5 89t38 116t22.5 116t6.5 89z" />
    <glyph glyph-name="ampersand" unicode="&#x26;" horiz-adv-x="1570" 
d="M1481 860h67q8 -63 8 -133q0 -66 -9 -115t-22 -74.5t-30.5 -40.5t-29.5 -18.5t-25 -3.5q-41 0 -97 41q-13 8 -53.5 38t-58.5 42q-72 -250 -209 -406q-188 -215 -451 -215q-188 0 -312 125t-124 340q0 236 170 412q58 62 132 103.5t130 41.5q65 0 100.5 -42t37.5 -111
q0 -12 -3 -39l3 -4q225 216 225 395q0 36 -15 86q-9 30 22 64t73 34t67 -33.5t25 -91.5q0 -176 -248 -417q-230 -227 -512 -404q25 -127 117.5 -199.5t208.5 -72.5q175 0 301 126.5t196 350.5q-55 40 -93.5 59t-76.5 19q-31 0 -49 -19.5t-18 -48.5q0 -47 22 -82
q4 -7 8.5 -15t7.5 -12.5t5 -10t2 -9.5q0 -21 -30.5 -39t-55.5 -18q-36 0 -63 33.5t-27 78.5q0 97 125 197q44 35 92 56.5t76 21.5q16 0 33 -3t36 -10.5t35 -14t37 -19t34 -20t35 -22.5t30.5 -21t29.5 -21t24 -17q43 -30 58 -30q34 0 39 188zM477 891q-50 0 -100.5 -95
t-50.5 -235q0 -33 2 -49q123 77 211 158q16 37 16 84q1 59 -22.5 98t-55.5 39z" />
    <glyph glyph-name="quotesingle" unicode="'" horiz-adv-x="411" 
d="M512 1450l25 -18q-14 -59 -79.5 -220t-117.5 -262l-78 -32q19 119 35 276.5t16 196.5z" />
    <glyph glyph-name="parenleft" unicode="(" horiz-adv-x="731" 
d="M793 1454l38 -53q-228 -160 -358.5 -455t-130.5 -622q0 -176 37.5 -343t124.5 -284l-55 -43q-140 117 -211.5 309t-71.5 399q0 244 82.5 465t223.5 380.5t321 246.5z" />
    <glyph glyph-name="parenright" unicode=")" horiz-adv-x="700" 
d="M301 1411l55 43q145 -119 216.5 -321.5t62.5 -427.5q-7 -348 -180 -635t-443 -416l-39 53q150 106 260 275t166 364t60 399q8 186 -30.5 367.5t-127.5 298.5z" />
    <glyph glyph-name="asterisk" unicode="*" horiz-adv-x="847" 
d="M926 1036v-59l-279 -45l66 -291l-56 -20l-139 274l-262 -147l-33 53l219 188l-211 225l37 50l250 -174l135 270l56 -17l-64 -288z" />
    <glyph glyph-name="plus" unicode="+" horiz-adv-x="1234" 
d="M1139 461h-422v-461h-139v461h-424v121h424v413h139v-413h422v-121z" />
    <glyph glyph-name="comma" unicode="," horiz-adv-x="518" 
d="M12 -246l-26 66q91 37 145 89.5t55 113.5q0 92 -96 120q-24 6 -24 37q0 52 36 85.5t82 33.5q75 0 122.5 -64t45.5 -147q-3 -128 -101 -214t-239 -120z" />
    <glyph glyph-name="hyphen" unicode="-" horiz-adv-x="690" 
d="M621 532l-37 -133h-494l35 133h496z" />
    <glyph glyph-name="period" unicode="." horiz-adv-x="518" 
d="M205 -25q-54 0 -88.5 37t-34.5 94q0 67 40.5 110.5t104.5 43.5q54 0 88.5 -37.5t34.5 -95.5q0 -69 -43 -110.5t-102 -41.5z" />
    <glyph glyph-name="slash" unicode="/" horiz-adv-x="655" 
d="M760 1360l-641 -1452h-127l641 1452h127z" />
    <glyph glyph-name="zero" unicode="0" horiz-adv-x="1001" 
d="M676 1300q97 0 166 -45t104 -122t48 -168t5 -195q-5 -85 -23 -174t-48.5 -179t-78 -169t-106 -140.5t-137 -97t-166.5 -35.5q-80 0 -142.5 30t-101 81t-62 122t-30 149.5t-0.5 166.5q5 97 29.5 200.5t72.5 207t112.5 185t157.5 132.5t200 51zM657 1225q-56 0 -106.5 -53
t-86 -135.5t-63 -186.5t-42.5 -201.5t-21 -185.5q-7 -109 -4 -200.5t32.5 -151.5t84.5 -60q67 0 125.5 83t96.5 209.5t61.5 252.5t31.5 235q7 99 5.5 186.5t-31 147.5t-83.5 60z" />
    <glyph glyph-name="one" unicode="1" horiz-adv-x="1001" 
d="M801 1300l-201 -1040q-9 -46 -13 -71t-0.5 -49t12.5 -34.5t32.5 -20.5t52.5 -14t80 -8l-16 -63h-605l15 63q47 4 73.5 8t51.5 14t36 20t23 34.5t18 49t15 71.5l143 725q9 41 10.5 65t-2 41.5t-18.5 25.5t-35 11.5t-57 4.5l-66 2l17 59q238 33 434 106z" />
    <glyph glyph-name="two" unicode="2" horiz-adv-x="1001" 
d="M213 1010l135 174q125 116 289 116q152 0 245 -88.5t93 -240.5q0 -63 -23.5 -125t-50 -105.5t-95.5 -111.5t-109 -102t-142 -118q-27 -22 -41 -34l-213 -182h338q91 0 127.5 19.5t93.5 104.5l60 -24q-39 -89 -115 -293h-799l8 49q244 203 389 342q74 73 125.5 130.5
t104.5 128.5t80.5 140.5t27.5 133.5q0 99 -50 156t-150 57q-80 0 -147.5 -48t-131.5 -126z" />
    <glyph glyph-name="three" unicode="3" horiz-adv-x="1001" 
d="M250 1049l106 135q116 116 285 116q123 0 208 -68.5t85 -184.5q0 -107 -92 -179q-66 -53 -168 -104l-2 -6q109 -28 178.5 -103t69.5 -188q0 -208 -230 -365q-90 -59 -193 -93t-180 -34q-62 0 -121 20t-92 50q-52 47 -49 92q3 23 23 50t45 42q27 18 49 -4q28 -28 47.5 -45
t56 -42.5t79 -38.5t89.5 -13q105 0 170.5 80t65.5 223q0 118 -65.5 185t-163.5 67q-57 0 -107 -12l-12 63q58 17 105.5 34t100 44t88 57.5t58.5 73t23 90.5q0 77 -44 119.5t-120 42.5q-72 0 -130.5 -41.5t-115.5 -110.5z" />
    <glyph glyph-name="four" unicode="4" horiz-adv-x="1001" 
d="M979 465l-21 -105h-182l-22 -122q-21 -106 1 -135.5t136 -39.5l-17 -63h-565l15 63q45 4 71.5 7.5t49.5 12.5t34.5 18.5t22.5 31t16.5 43.5t13.5 62l25 122h-518l14 72q480 571 774 856h127l-159 -823h184zM702 1049h-6q-203 -219 -491 -584h373z" />
    <glyph glyph-name="five" unicode="5" horiz-adv-x="1001" 
d="M987 1276l-78 -191h-489l-105 -333q172 51 226 51q157 0 260.5 -91.5t103.5 -236.5q0 -118 -70 -220t-196 -177q-165 -103 -324 -103q-70 0 -132 22.5t-95 53.5q-50 44 -45 88q1 23 22.5 51.5t45.5 40.5q25 17 49 -4q28 -28 44 -42t54.5 -42.5t83.5 -42.5t94 -14
q113 0 174.5 78t61.5 211q0 145 -76.5 222t-214.5 77q-79 0 -168 -27l-14 19l170 610h618z" />
    <glyph glyph-name="six" unicode="6" horiz-adv-x="1001" 
d="M1042 1313l15 -72q-118 -21 -228 -70q-315 -136 -442 -434l2 -4l115 53q80 33 121 33q148 0 239.5 -96t91.5 -260q0 -130 -64 -242t-176 -179t-245 -67q-178 0 -282.5 121t-104.5 314q0 185 77 350t230.5 294t364.5 195q109 36 286 64zM506 694q-66 0 -146 -43
q-45 -110 -45 -274q0 -84 20 -156t65.5 -121t107.5 -49q69 0 120 57t74 138t23 168q0 128 -53.5 204t-165.5 76z" />
    <glyph glyph-name="seven" unicode="7" horiz-adv-x="1001" 
d="M1106 1276l14 -25q-144 -240 -441 -714t-337 -539l-205 -23l-12 29q490 584 793 1079h-435q-66 0 -99 -10t-58.5 -37.5t-61.5 -93.5l-63 23q43 113 98 311h807z" />
    <glyph glyph-name="eight" unicode="8" horiz-adv-x="1001" 
d="M651 1300q135 0 232.5 -79t97.5 -215q0 -108 -98 -189q-83 -62 -172 -117q113 -83 169 -157t56 -178q0 -108 -67.5 -198.5t-177 -141t-232.5 -50.5q-107 0 -194.5 36.5t-142 111.5t-54.5 176q0 124 114 211q71 55 217 141q-79 63 -122.5 129t-43.5 156q0 154 123 259
t295 105zM616 1223q-76 0 -127 -58.5t-51 -142.5q0 -42 14 -80t31.5 -63t50.5 -54t52.5 -42.5t56.5 -37.5q143 98 143 271q0 89 -46 148t-124 59zM496 53q93 0 153 67.5t60 174.5q0 92 -58.5 159.5t-185.5 151.5q-83 -55 -131.5 -133.5t-48.5 -173.5q0 -102 56.5 -174
t154.5 -72z" />
    <glyph glyph-name="nine" unicode="9" horiz-adv-x="1001" 
d="M639 1300q121 0 208 -59.5t128 -158.5t41 -226q0 -277 -167.5 -502.5t-438.5 -326.5q-68 -24 -162 -42t-150 -20l-10 66q209 43 385.5 188.5t253.5 360.5l-125 -60q-61 -31 -110 -31q-138 0 -233 92.5t-95 249.5q0 187 141 328t334 141zM612 1223q-62 0 -112.5 -50
t-76.5 -126t-26 -158q0 -123 56.5 -198t162.5 -75q64 0 132 41q38 104 38 267q0 47 -7 92.5t-24.5 95.5t-54 80.5t-88.5 30.5z" />
    <glyph glyph-name="colon" unicode=":" horiz-adv-x="514" 
d="M289 575q-53 0 -87 38t-34 94q0 66 40 109.5t103 43.5q54 0 88.5 -37.5t34.5 -95.5q0 -68 -43 -110t-102 -42zM201 -25q-54 0 -87.5 37t-33.5 94q0 66 40 110t103 44q54 0 88.5 -37.5t34.5 -95.5q0 -69 -42.5 -110.5t-102.5 -41.5z" />
    <glyph glyph-name="semicolon" unicode=";" horiz-adv-x="518" 
d="M281 575q-53 0 -87 38t-34 94q0 66 40 109.5t103 43.5q54 0 88.5 -37.5t34.5 -95.5q0 -68 -43.5 -110t-101.5 -42zM12 -246l-26 66q92 36 145 88t53 112q0 98 -96 125q-25 6 -25 35q1 53 37.5 87t83.5 34q74 0 120 -62t46 -145q0 -67 -28.5 -125t-78 -99.5t-107.5 -70
t-124 -45.5z" />
    <glyph glyph-name="less" unicode="&#x3c;" horiz-adv-x="1222" 
d="M1069 0l-928 457v125l930 454v-133l-790 -383v-4l788 -383v-133z" />
    <glyph glyph-name="equal" unicode="=" horiz-adv-x="1234" 
d="M1141 647h-991v121h991v-121zM1141 272h-991v121h991v-121z" />
    <glyph glyph-name="greater" unicode="&#x3e;" horiz-adv-x="1222" 
d="M1139 457l-928 -457v133l788 383v4l-788 383v133l928 -454v-125z" />
    <glyph glyph-name="question" unicode="?" horiz-adv-x="753" 
d="M430 442l-49 -41q-72 35 -132.5 103t-60.5 145q0 44 19 83.5t56.5 73.5t73 58.5t87.5 53.5q14 8 40.5 22.5t41.5 23t38.5 22t38 23t32.5 22.5t29 23.5t21 22t14.5 23t4.5 22.5q0 31 -24 52.5t-66 21.5q-51 1 -99.5 -16t-77.5 -37.5t-54.5 -38t-36.5 -17.5q-28 0 -57 37.5
t-29 81.5q0 38 57 82q48 34 102 53t97 19h2q118 0 207.5 -96.5t89.5 -219.5q0 -81 -36 -140t-112 -105q-17 -11 -50 -30q-64 -38 -93 -56.5t-64 -46t-48 -50t-13 -47.5q0 -61 51 -127zM285 -25q-56 0 -92.5 39.5t-36.5 98.5q0 71 42.5 117t108.5 46q58 0 94.5 -39.5
t36.5 -101.5q0 -72 -45.5 -116t-107.5 -44z" />
    <glyph glyph-name="at" unicode="@" horiz-adv-x="1533" 
d="M1110 -47l23 -64q-183 -102 -402 -102q-126 0 -237.5 40.5t-197.5 116t-136.5 194t-50.5 263.5q0 142 45 268t123 218.5t179.5 160t217.5 101t235 33.5q136 0 246.5 -43t180.5 -116t107.5 -167.5t37.5 -200.5q-2 -217 -147.5 -365.5t-364.5 -148.5q-76 0 -94 36.5
t-3 109.5l21 92l-4 2q-59 -82 -161 -161t-169 -79q-44 0 -74.5 50t-29.5 131q0 99 42.5 201.5t127.5 181.5q65 61 158.5 103.5t189.5 43.5q21 0 108 -18q45 -9 72 -9q-53 -183 -111 -456q-15 -73 -9 -104t34 -29q51 1 103 26.5t99.5 74t77 130.5t29.5 184q0 206 -136 324.5
t-345 118.5q-185 0 -330 -86t-225 -237.5t-80 -342.5q0 -80 17 -154t57 -145.5t100.5 -124.5t155 -85t211.5 -32q89 0 172 19.5t137 46.5zM877 768q-63 0 -121 -61q-45 -49 -81 -144t-36 -194q0 -88 41 -88q30 0 97.5 61.5t137.5 175.5q39 102 68 227q-40 23 -106 23z" />
    <glyph glyph-name="A" unicode="A" horiz-adv-x="1370" 
d="M1284 63l-16 -63h-531l19 63q94 10 115.5 36t11.5 100q-22 138 -39 256h-406q-19 -38 -123 -250q-40 -75 -20 -102t135 -40l-16 -63h-453l16 63q42 7 65 13.5t46.5 18.5t44 37t43 59t57.5 94l601 1050l90 23l45 -281q23 -146 69.5 -418.5t65.5 -390.5q8 -47 13 -73
t14.5 -51t19.5 -36t30 -21.5t42.5 -15t60.5 -8.5zM829 553l-71 483h-6q-26 -49 -120.5 -219t-142.5 -264h340z" />
    <glyph glyph-name="B" unicode="B" horiz-adv-x="1241" 
d="M260 1329h514q416 0 416 -282q0 -70 -27 -125.5t-76.5 -93t-108.5 -61.5t-132 -38v-4q137 -27 223 -105.5t86 -209.5q0 -111 -62.5 -197t-170.5 -139q-154 -74 -445 -74h-469l15 63q61 5 91.5 12t53.5 30t33 54.5t24 98.5l158 817q9 43 12.5 69.5t0 48.5t-11.5 33t-29 20
t-45.5 12.5t-67.5 7.5zM547 756h71q160 0 244 77t84 207q0 109 -59 160t-150 51q-58 0 -84 -20q-23 -17 -37 -94zM530 676l-79 -414q-20 -109 14 -146.5t117 -37.5q129 0 222 92.5t93 247.5q0 70 -24 121.5t-66.5 80.5t-94 42.5t-112.5 13.5h-70z" />
    <glyph glyph-name="C" unicode="C" horiz-adv-x="1320" 
d="M1206 379l62 -31q-27 -71 -77.5 -171t-86.5 -157q-210 -51 -359 -51q-133 0 -245 38.5t-194.5 111t-128.5 184.5t-46 252q0 182 69.5 334.5t188 254.5t277.5 159t338 57q37 0 72.5 -2t68 -7t56.5 -9t53 -12t41 -11t37 -11t26 -8q-5 -138 -19 -333l-67 -9q-21 178 -97 249
t-214 71q-154 0 -284.5 -97.5t-205 -262.5t-74.5 -357q0 -231 99.5 -370.5t269.5 -139.5q124 0 225 80.5t215 247.5z" />
    <glyph glyph-name="D" unicode="D" horiz-adv-x="1482" 
d="M256 1329h520q330 0 508 -139t178 -424q0 -194 -86.5 -356t-251.5 -263q-129 -79 -285 -113t-358 -34h-473l17 63q61 6 92.5 13.5t54 31t32 53.5t21.5 93l156 815q10 53 12 82t-2 52t-24 34t-47.5 17.5t-79.5 11.5zM621 1124l-158 -843q-15 -78 -10.5 -113.5t30.5 -54.5
q39 -29 121 -29q134 0 247 56t188.5 151t118 222.5t42.5 270.5q0 209 -109.5 338t-314.5 129q-86 0 -114 -22q-26 -20 -41 -105z" />
    <glyph glyph-name="E" unicode="E" horiz-adv-x="1159" 
d="M256 1329h920q-1 -11 -15 -132.5t-22 -186.5l-68 -4q-7 143 -37 186q-18 32 -55 44.5t-129 12.5h-123q-55 0 -70 -13.5t-26 -72.5l-84 -422h158q35 0 58 0.5t44.5 4.5t33.5 6.5t26 13.5t20.5 17.5t18 27.5t17 34.5t19.5 45.5h70l-82 -410h-70q1 36 1 52t-2 39t-5 30.5
t-12.5 19.5t-20.5 15t-31.5 7t-43 4.5t-58.5 0.5h-160l-65 -352q-26 -145 4 -180q20 -21 62.5 -29t123.5 -8q99 0 154.5 15t95.5 52q75 71 146 199l65 -24q-76 -207 -127 -322h-985l14 63q44 4 69 7.5t48.5 12.5t34 19t22 33t18 48t15.5 71l158 821q8 44 11.5 69t0.5 48
t-11 33.5t-28.5 20t-46 13t-69.5 7.5z" />
    <glyph glyph-name="F" unicode="F" horiz-adv-x="1103" 
d="M258 1329h928q-1 -8 -15 -130.5t-22 -186.5l-68 -6q-10 143 -34 184q-18 33 -57.5 46t-139.5 13h-129q-51 0 -67 -15t-27 -69l-84 -448h188q47 0 75 1t53 8.5t37.5 14.5t27.5 28t23.5 39t25.5 58h65l-80 -409h-67q0 43 -1 65.5t-8 45t-16.5 31t-32.5 16t-50 9t-74 1.5
h-187l-67 -367q-8 -44 -11.5 -70.5t1 -49.5t14 -34t33.5 -20.5t52.5 -13t78.5 -7.5l-17 -63h-592l17 63q109 10 140 41.5t54 153.5l156 811q9 47 12.5 72.5t1 49.5t-10 34.5t-27.5 20t-44.5 13t-68.5 7.5z" />
    <glyph glyph-name="G" unicode="G" horiz-adv-x="1417" 
d="M1358 969l-68 -6q-5 72 -23.5 127t-46.5 90.5t-68 57.5t-84 31t-97 9q-157 0 -288.5 -95.5t-207.5 -260t-76 -359.5q0 -234 106 -373t290 -139q76 0 121 28.5t61 108.5l35 183q8 41 11 64.5t-3 45t-15 30.5t-37.5 18t-57 12.5t-85.5 9.5l17 63h567l-16 -63
q-37 -5 -55.5 -10.5t-36 -15t-26 -30t-16 -47.5t-16.5 -77l-31 -166q-18 -94 -12 -156q-7 -2 -45.5 -12.5t-52 -14t-50 -13t-56.5 -13.5t-54.5 -10.5t-60 -9t-57.5 -5t-62 -2.5q-288 0 -459.5 154.5t-171.5 433.5q0 176 66.5 326t184 254.5t281.5 163.5t355 59
q184 0 364 -57q-14 -152 -24 -334z" />
    <glyph glyph-name="H" unicode="H" horiz-adv-x="1546" 
d="M1647 1329l-15 -63q-42 -4 -66.5 -7.5t-47 -13.5t-33 -19.5t-21 -34t-16 -48.5t-14.5 -70l-158 -815q-8 -45 -11.5 -71t-0.5 -49t11 -34t29 -20.5t46.5 -13t70.5 -7.5l-14 -63h-584l15 63q44 4 69.5 7.5t48.5 13.5t34.5 20.5t22.5 34.5t16.5 48.5t14.5 70.5l76 397h-590
l-73 -397q-8 -44 -11.5 -70.5t-0.5 -50t11.5 -34.5t29.5 -20t46.5 -13t69.5 -7l-16 -63h-572l15 63q41 4 65.5 7.5t46 14t32 20t21 34.5t16 48.5t15.5 70.5l158 815q9 44 12.5 70.5t-0.5 49t-12.5 33.5t-31.5 20t-48.5 12.5t-71.5 7.5l17 63h571l-16 -63q-108 -10 -138 -41
t-53 -152l-61 -319h588l61 319q13 65 15.5 97t-14 54.5t-46.5 29t-94 12.5l16 63h570z" />
    <glyph glyph-name="I" unicode="I" horiz-adv-x="727" 
d="M825 1329l-14 -63q-42 -4 -66.5 -7.5t-46 -13t-32 -19.5t-21.5 -33.5t-16.5 -47t-14.5 -68.5l-157 -823q-9 -43 -12.5 -69t-0.5 -48.5t11.5 -33.5t29.5 -20t47 -13t70 -7l-14 -63h-576l15 63q61 5 91 11.5t52.5 29.5t31.5 53t23 97l160 823q8 44 11.5 69t0 47.5t-11.5 33
t-30 19.5t-47.5 12.5t-71.5 7.5l16 63h573z" />
    <glyph glyph-name="J" unicode="J" horiz-adv-x="704" 
d="M821 1329l-14 -63q-41 -5 -62.5 -8.5t-43.5 -13t-31.5 -19t-20.5 -33t-16.5 -48.5t-14.5 -71l-147 -799q-35 -192 -100.5 -308.5t-186.5 -186.5q-53 -34 -118 -54t-103 -22l-14 70q78 21 136 74.5t91 156.5q31 95 72 299l143 770q8 44 11.5 70.5t-0.5 48.5t-12 33
t-30.5 20t-46.5 13t-69 8l14 63h563z" />
    <glyph glyph-name="K" unicode="K" horiz-adv-x="1368" 
d="M1509 1329l-14 -61q-101 -12 -156 -36.5t-151 -101.5q-182 -148 -414 -354q151 -281 332 -561q58 -88 97 -114.5t122 -37.5l-16 -63h-355q-135 221 -336 592q-25 44 -47 56t-49 1l-71 -387q-9 -46 -12 -72.5t-0.5 -50.5t10 -34.5t28 -20.5t45 -13.5t68.5 -7.5l-15 -63
h-555l17 63q106 10 135.5 41.5t52.5 157.5l156 807q9 44 12.5 70.5t1 50t-10.5 34.5t-28.5 20.5t-45.5 13.5t-68 8l14 63h555l-14 -63q-41 -4 -64.5 -7.5t-44.5 -13.5t-31.5 -20t-21 -35t-16.5 -49.5t-15 -71.5l-69 -350q86 26 155 86q222 185 385 358q29 33 37 51.5
t-6 29.5t-53 16l-49 6l16 63h489z" />
    <glyph glyph-name="L" unicode="L" horiz-adv-x="1107" 
d="M1010 358l67 -24q-119 -309 -131 -334h-944l14 63q65 5 97 11.5t55.5 29.5t32.5 53t22 97l162 829q8 42 11 65.5t0 46t-11 32.5t-28.5 19t-46.5 12.5t-70 7.5l14 63h575l-14 -63q-43 -4 -68.5 -7.5t-48 -13t-33.5 -19t-21.5 -32t-16 -45.5t-13.5 -66l-157 -819
q-10 -56 -8 -91t20 -56q32 -35 168 -35q83 0 135.5 14t89.5 49q80 80 148 213z" />
    <glyph glyph-name="M" unicode="M" horiz-adv-x="1806" 
d="M1862 1329l-17 -63q-46 -5 -70 -8t-47.5 -12t-32.5 -17.5t-19.5 -31.5t-14 -45t-10.5 -67q-45 -301 -107 -802q-7 -53 -9.5 -82.5t1.5 -56.5t11.5 -38.5t29 -21.5t45 -13.5t68.5 -7.5l-15 -63h-559l17 63q38 4 59.5 7.5t42 14t30 22t20 38.5t16 56t14.5 82q2 14 129 823
h-8l-635 -1094h-58q-25 152 -190 1082h-6l-144 -519q-77 -273 -92 -378q-11 -70 19 -97.5t131 -36.5l-15 -63h-469l17 63q83 7 122.5 35t67.5 99q51 132 129 391l136 446q15 51 22 81.5t6.5 58t-8.5 41.5t-30 25.5t-51.5 16.5t-78.5 9l21 63h385q34 -166 99.5 -474.5
t96.5 -457.5l574 932h377z" />
    <glyph glyph-name="N" unicode="N" horiz-adv-x="1441" 
d="M1577 1329l-14 -63q-89 -4 -124 -31.5t-55 -95.5q-37 -124 -81 -353l-154 -804h-90l-592 1056h-4l-98 -503q-43 -219 -50 -338q-3 -72 33.5 -99t145.5 -35l-17 -63h-485l16 63q79 5 118 32t60 95q44 151 84 347l95 446q21 105 18.5 144t-23.5 75q-18 33 -54.5 46
t-110.5 18l14 63h346l565 -979h6l82 432q45 244 52 351q4 73 -33.5 100t-147.5 33l17 63h481z" />
    <glyph glyph-name="O" unicode="O" horiz-adv-x="1470" 
d="M887 1360q252 0 405.5 -163.5t153.5 -424.5q0 -220 -95.5 -403t-269.5 -291.5t-391 -108.5q-250 0 -404.5 158.5t-154.5 419.5q0 161 57 309t155.5 259.5t240.5 178t303 66.5zM874 1278q-100 0 -190.5 -67t-153.5 -175t-100 -247t-37 -281q0 -207 77 -333t232 -126
q107 0 200 70.5t153 182.5t94.5 246.5t34.5 266.5q0 137 -30 237.5t-101 163t-179 62.5z" />
    <glyph glyph-name="P" unicode="P" horiz-adv-x="1187" 
d="M262 1329h496q104 0 186 -19t145.5 -59.5t97.5 -109t34 -162.5q0 -100 -40.5 -183.5t-110 -138.5t-158 -88t-189.5 -41q-48 0 -68 2l-143 39l-61 -309q-9 -45 -12.5 -72t1 -50t13.5 -34t33.5 -20t52 -13t77.5 -8l-12 -63h-594l15 63q113 10 143.5 40t56.5 157l158 805
q8 40 11 64.5t4 47t-5.5 34.5t-15 22.5t-29 16t-42 9t-58.5 7.5zM618 1133l-90 -490q56 -25 129 -25q129 0 223.5 107.5t94.5 271.5q0 124 -62 190t-168 66q-45 0 -81 -16q-30 -18 -46 -104z" />
    <glyph glyph-name="Q" unicode="Q" horiz-adv-x="1470" 
d="M1386 -276l-14 -50q-66 -7 -149 0.5t-129 20.5q-173 55 -451 262l-25 18q-221 20 -354 176t-133 398q0 160 57 308t156 259t242 177.5t305 66.5q250 0 402.5 -162.5t152.5 -427.5q0 -177 -65.5 -333t-188 -269t-285.5 -162l25 -16q109 -78 233.5 -151t220.5 -115zM623 59
l159 41q12 -9 54 -37q96 37 177.5 157t126 278t44.5 313q0 103 -17.5 186t-54 147.5t-97.5 100t-143 35.5q-133 0 -245 -115.5t-173 -290t-61 -358.5q0 -116 26 -210.5t78.5 -160t125.5 -86.5z" />
    <glyph glyph-name="R" unicode="R" horiz-adv-x="1271" 
d="M1243 43l-18 -59h-29q-91 1 -152.5 13t-103.5 39t-67.5 59.5t-53.5 86.5q-57 111 -127 301q-21 56 -45 76.5t-72 20.5h-63l-59 -318q-8 -45 -11.5 -72.5t0 -50.5t11.5 -34.5t28.5 -21t44.5 -13t66 -7.5l-14 -63h-566l15 63q61 6 90.5 12.5t53 30t33.5 56t23 100.5
l156 815q7 34 10.5 55.5t4 42t-1.5 32t-10.5 22.5t-18 16t-29 9.5t-39.5 6.5t-53 5l16 63h490q211 0 311 -63q131 -84 131 -256q0 -142 -89.5 -238.5t-227.5 -142.5q55 -154 114 -275q86 -169 127 -223q29 -39 57 -58t68 -30zM526 655h68q127 0 207 50q69 44 108 122t39 170
q0 125 -57.5 190.5t-151.5 65.5q-62 0 -84 -22q-19 -14 -34 -86z" />
    <glyph glyph-name="S" unicode="S" horiz-adv-x="987" 
d="M76 414l63 6q10 -60 31.5 -119t59 -119t99 -97.5t138.5 -37.5q107 0 169 68.5t62 171.5q0 75 -42.5 139t-129.5 133l-61 45q-51 40 -87 74.5t-73.5 81.5t-57.5 102.5t-20 116.5q0 171 122.5 276t312.5 105q118 0 219 -37q21 -7 50.5 -19t35.5 -14q-7 -74 -11 -305l-65 -6
q-39 305 -248 305q-97 0 -153 -67t-56 -154q0 -75 42.5 -132.5t131.5 -121.5l64 -45q59 -43 99.5 -81t77 -86t55 -104t18.5 -120q0 -182 -138.5 -293t-341.5 -111q-115 0 -216.5 39.5t-147.5 85.5q0 241 -2 320z" />
    <glyph glyph-name="T" unicode="T" horiz-adv-x="1259" 
d="M1317 1380h53q-21 -98 -53 -374l-70 -7q0 145 -28 195q-20 33 -61.5 44t-137.5 11h-111l-186 -993q-9 -44 -12 -69t0.5 -48.5t13 -34.5t33 -20.5t53.5 -13.5t80 -7l-14 -63h-621l14 63q68 5 103.5 12.5t59.5 32t33.5 54t22.5 94.5l191 993h-92q-114 0 -159.5 -13.5
t-78.5 -49.5q-40 -47 -104 -185h-70q60 186 100 379h52q13 -33 31.5 -42t62.5 -9h790q38 0 56.5 10t48.5 41z" />
    <glyph glyph-name="U" unicode="U" horiz-adv-x="1447" 
d="M1599 1329l-14 -63q-90 -4 -126.5 -30.5t-57.5 -94.5q-33 -95 -80 -342l-37 -187q-33 -167 -86 -291.5t-145 -211.5q-73 -70 -167.5 -105t-195.5 -35q-212 0 -334 111q-158 148 -92 495l94 494q24 123 1.5 155t-142.5 42l16 63h564l-15 -63q-40 -4 -62 -7.5t-44 -12.5
t-32.5 -20t-21.5 -34t-17.5 -50t-14.5 -73l-94 -496q-33 -170 -4.5 -276t94.5 -153.5t168 -47.5q173 0 280 133t158 406l31 164q46 243 49 346q4 65 -36.5 90t-148.5 31l17 63h495z" />
    <glyph glyph-name="V" unicode="V" horiz-adv-x="1388" 
d="M1544 1329l-16 -63q-67 -8 -101 -22.5t-66 -52t-87 -126.5q-228 -369 -621 -1085h-82q-70 423 -198 1101q-11 61 -21.5 93.5t-32 53t-47 27t-75.5 11.5l16 63h524l-18 -63l-45 -6q-59 -9 -73 -28t-7 -79q7 -57 30 -188t60 -337.5t57 -320.5h2q326 571 435 801
q41 88 29.5 117t-85.5 35l-47 6l17 63h452z" />
    <glyph glyph-name="W" unicode="W" horiz-adv-x="1947" 
d="M2075 1329l-17 -63q-44 -6 -67 -12.5t-44.5 -16t-38.5 -34t-33.5 -52.5t-45.5 -86q-173 -339 -518 -1088h-86l-162 953h-4l-463 -953h-84l-129 1094q-7 67 -14 98.5t-26.5 54.5t-45.5 29.5t-80 12.5l14 63h517l-15 -63l-49 -9q-58 -9 -71.5 -32.5t-6.5 -106.5l78 -772h4
l457 965h80l164 -971h4q205 440 333 754q41 100 28.5 128.5t-97.5 37.5l-43 6l16 63h445z" />
    <glyph glyph-name="X" unicode="X" horiz-adv-x="1314" 
d="M1399 1329l-17 -63q-99 -10 -141 -31.5t-115 -97.5q-97 -102 -323 -379l221 -508q19 -43 31.5 -68t28.5 -47t29 -32t36.5 -19t46.5 -13t64 -8l-15 -63h-571l16 63l53 9q57 9 68 28.5t-8 71.5q-89 224 -164 399q-195 -249 -289 -391q-36 -54 -29 -75t68 -33l43 -9l-16 -63
h-471l16 63q89 9 136 32t108 85q150 159 395 471l-194 459q-39 95 -73.5 120t-135.5 36l16 63h520l-14 -63l-49 -11q-44 -9 -53.5 -22t1.5 -47q45 -121 148 -348q146 177 250 329q30 44 21.5 62t-58.5 26l-53 11l14 63h459z" />
    <glyph glyph-name="Y" unicode="Y" horiz-adv-x="1282" 
d="M1434 1329l-17 -65q-97 -10 -139.5 -37t-124.5 -129t-311 -441q-42 -57 -54 -120l-55 -271q-9 -46 -13 -73.5t0 -51t13.5 -35.5t33 -21.5t52 -13.5t76.5 -8l-16 -63h-611l17 63q44 3 70 7t50 13.5t36.5 21t24.5 35.5t19 51.5t17 74.5l53 252q8 37 6 66t-16 69
q-117 333 -160 449q-20 55 -32.5 82t-35 45.5t-47 24.5t-75.5 12l18 63h514l-16 -63l-60 -13q-48 -7 -56.5 -26t7.5 -68q65 -200 162 -467q190 273 299 457q32 56 22.5 75.5t-71.5 30.5l-51 9l18 65h453z" />
    <glyph glyph-name="Z" unicode="Z" horiz-adv-x="1228" 
d="M1272 1329l16 -31q-801 -1012 -952 -1206q88 -12 278 -12q144 0 227.5 14t131.5 53q73 64 157 228l68 -29q-21 -67 -63 -185.5t-62 -160.5h-1055l-16 37q438 543 965 1212h-271q-141 0 -195 -15.5t-87 -53.5q-60 -67 -109 -195l-69 8q57 215 86 387h49q18 -34 37 -42.5
t63 -8.5h801z" />
    <glyph glyph-name="bracketleft" unicode="[" horiz-adv-x="731" 
d="M809 1442l-16 -68q-46 -5 -67 -7t-50 -8t-39.5 -9.5t-27 -16t-21 -22t-13.5 -32.5t-13 -43.5t-11 -57.5l-238 -1246q-7 -37 -11 -57t-3 -42.5t2 -32.5t14 -22t22 -15.5t38.5 -10t50 -9t68.5 -7.5l-17 -68h-375l340 1774h367z" />
    <glyph glyph-name="backslash" unicode="\" horiz-adv-x="770" 
d="M678 -92h-125l-338 1452h123z" />
    <glyph glyph-name="bracketright" unicode="]" horiz-adv-x="731" 
d="M696 1442l-340 -1774h-366l16 68q48 5 67 7t49 8t39.5 9.5t26.5 15.5t21 21.5t13.5 32.5t13.5 43.5t12 58.5l237 1246q9 50 12.5 74.5t0.5 49t-13 33t-34.5 18t-57 13t-85.5 8.5h-3l17 68h374z" />
    <glyph glyph-name="asciicircum" unicode="^" horiz-adv-x="1150" 
d="M1051 436h-146l-313 692l-311 -692h-138l396 840h116z" />
    <glyph glyph-name="underscore" unicode="_" horiz-adv-x="1024" 
d="M1024 -256h-1024v102h1024v-102z" />
    <glyph glyph-name="grave" unicode="`" 
d="M666 1024l-70 -20q-146 250 -201 337l8 27q20 9 89.5 20.5t99.5 8.5q7 -35 34 -169t40 -204z" />
    <glyph glyph-name="a" unicode="a" horiz-adv-x="1042" 
d="M977 260l31 -53q-89 -108 -187.5 -170t-152.5 -62q-19 0 -32 7.5t-23 28t-9 63t14 104.5l29 139h-6q-95 -134 -223 -241q-120 -101 -209 -101q-57 0 -96 64t-39 180q0 149 63.5 295t169.5 238q80 71 194.5 122.5t223.5 51.5q45 0 129 -15q61 -12 104 -12l11 -8
q-88 -362 -138 -649q-15 -84 5 -84q14 0 58.5 32t82.5 70zM354 141q35 0 104 64.5t130 144t84 129.5q47 164 71 322q-50 26 -122 26q-68 0 -111 -32q-94 -68 -149.5 -225t-55.5 -308q0 -121 49 -121z" />
    <glyph glyph-name="b" unicode="b" horiz-adv-x="1019" 
d="M199 1315l8 59q82 9 161 27t126.5 31.5t60.5 13.5q29 0 14 -66q-50 -208 -170 -737h4q114 138 227 210.5t193 72.5q72 0 116 -66.5t44 -175.5q0 -168 -86 -333.5t-223 -260.5q-83 -57 -172.5 -86t-161.5 -29q-64 0 -112.5 26.5t-77.5 68.5q-51 78 -15 260q34 170 184 876
q14 69 3 87.5t-68 19.5zM451 74q44 0 92 30q75 52 143 212t68 331q0 65 -17.5 99t-44.5 34q-49 0 -138 -74t-173 -194q-20 -61 -37 -168q-13 -65 -10.5 -112t11.5 -77.5t27.5 -48.5t37.5 -25t41 -7z" />
    <glyph glyph-name="c" unicode="c" horiz-adv-x="802" 
d="M711 262l34 -55q-99 -111 -211 -171.5t-210 -60.5q-115 0 -178.5 79.5t-63.5 226.5q0 133 57.5 266.5t161.5 226.5q70 62 167.5 107t176.5 45q71 0 121.5 -33t50.5 -80q2 -29 -18.5 -60t-61.5 -55q-31 -21 -55 9q-73 114 -160 114q-71 0 -127 -108q-37 -70 -59.5 -170
t-22.5 -207t35.5 -160t100.5 -53q63 0 138.5 45.5t123.5 93.5z" />
    <glyph glyph-name="d" unicode="d" horiz-adv-x="1075" 
d="M1004 250l30 -53q-86 -105 -182.5 -163.5t-151.5 -58.5q-27 0 -41.5 14t-21 57.5t11.5 123.5l31 147h-4q-103 -137 -250 -251q-116 -91 -199 -91q-65 0 -108 66.5t-43 187.5q0 148 64 295t171 240q74 64 187 113t182 49q58 0 117 -17l59 301q12 67 -2.5 84t-85.5 19h-45
l8 61q85 8 165.5 26t128 32t60.5 14q17 0 20.5 -14.5t-5.5 -51.5q-131 -570 -238 -1147q-16 -77 6 -77q16 0 56 27t80 67zM367 141q63 0 173 118.5t165 221.5l63 293q-27 27 -70.5 42t-83.5 15q-60 0 -106 -30q-61 -44 -108.5 -142.5t-70 -200.5t-22.5 -186q0 -63 17 -97
t43 -34z" />
    <glyph glyph-name="e" unicode="e" horiz-adv-x="843" 
d="M750 276l36 -55q-236 -246 -462 -246q-46 0 -86.5 14t-77.5 46.5t-58.5 94.5t-21.5 149q0 149 64 291t178 231q67 52 154.5 88.5t160.5 36.5q95 0 148 -49.5t53 -122.5q0 -228 -531 -367q-2 -23 -2 -57q0 -89 35.5 -148t112.5 -59q63 0 144 41t153 112zM553 836
q-37 0 -70 -23q-48 -30 -98.5 -120t-69.5 -232q176 52 250 116.5t74 147.5q0 54 -26.5 82.5t-59.5 28.5z" />
    <glyph glyph-name="f" unicode="f" horiz-adv-x="585" 
d="M152 891h124q60 264 183 389q78 78 165.5 122t151.5 44q65 0 103 -31.5t36 -68.5q-1 -31 -22.5 -61t-44.5 -44q-29 -20 -53 4q-81 94 -136 94q-22 1 -39.5 -14.5t-38 -60.5t-41.5 -137.5t-44 -235.5h235l-43 -76l-211 -18q-7 -40 -24 -138.5t-26 -148.5t-25.5 -135
t-34.5 -166q-56 -245 -123.5 -376t-173.5 -226q-124 -115 -228 -115q-48 0 -90.5 29t-42.5 65q0 55 68 107q25 18 41 2q29 -26 74 -45t75 -19q50 0 74 47q47 84 109 457q22 131 56 344.5t52 319.5h-166l-6 20z" />
    <glyph glyph-name="g" unicode="g" horiz-adv-x="897" 
d="M1008 918l20 -44q-90 -95 -164 -110q-5 0 -41 -4q15 -54 15 -101q0 -93 -42 -167.5t-104 -126.5q-95 -79 -293 -125q-28 -21 -28 -47q0 -39 141 -109q157 -75 225 -141t68 -138q0 -84 -85 -158.5t-203.5 -114.5t-229.5 -40q-104 0 -191 30.5t-137 82.5t-49 114
q1 68 84.5 135t247.5 146q-34 22 -53.5 49.5t-18.5 52.5q0 60 145 138q-198 42 -198 247q0 96 46 185.5t130 150.5q64 47 142 75t143 28q108 0 188 -58q170 3 242 50zM430 324q77 0 140 99.5t63 254.5q0 77 -26.5 124.5t-78.5 47.5q-40 0 -75.5 -33t-61.5 -84
q-61 -119 -61 -254q0 -72 27 -113.5t73 -41.5zM383 -414q102 0 163.5 40t61.5 98q0 37 -30.5 71t-98.5 74q-70 40 -176 92q-76 -40 -124 -94t-48 -107q0 -72 76.5 -123t175.5 -51z" />
    <glyph glyph-name="h" unicode="h" horiz-adv-x="1077" 
d="M989 238l31 -56q-94 -98 -184.5 -152.5t-147.5 -54.5q-101 0 -51 220l104 446q28 123 -18 123q-56 0 -170.5 -110t-190.5 -234q-21 -84 -81 -402q-93 -11 -205 -43l-15 17q145 658 248 1208q13 72 -1.5 90t-80.5 21l-49 2l15 61q83 7 162.5 25t126 32.5t57.5 14.5
q19 0 22 -15.5t-6 -56.5l-170 -805h4q165 208 332 303q95 54 158 54q134 0 67 -289l-90 -401q-16 -80 6 -80q13 0 53.5 25t73.5 57z" />
    <glyph glyph-name="i" unicode="i" horiz-adv-x="587" 
d="M467 1327q49 0 75.5 -31.5t26.5 -78.5q0 -58 -39.5 -101t-97.5 -43q-49 0 -76.5 30t-27.5 81q0 52 37.5 97.5t101.5 45.5zM502 244l33 -49q-83 -94 -184.5 -157t-155.5 -63q-103 0 -50 215l113 482q5 19 7 31.5t2.5 21.5t-2 12.5t-7.5 3.5q-12 0 -51 -22.5t-78 -52.5
l-29 51q100 94 200 152.5t153 58.5q40 0 47.5 -52t-15.5 -137l-125 -508q-16 -75 7 -75q15 0 54.5 25.5t80.5 62.5z" />
    <glyph glyph-name="j" unicode="j" horiz-adv-x="573" 
d="M457 1337q50 0 77 -31.5t27 -78.5q0 -59 -38 -101.5t-97 -42.5q-50 0 -79.5 30.5t-29.5 82.5t38 96.5t102 44.5zM125 655l-29 54q95 92 199.5 154.5t161.5 62.5q42 0 48 -55t-18 -175q-40 -220 -116 -590q-72 -344 -273 -501q-149 -117 -227 -117q-36 0 -66 21.5
t-30 54.5q0 27 19 58t44 52q20 17 41 4q74 -51 121 -51q32 0 54 34t44 128q16 72 31.5 143.5t33 162.5t29 153.5t35.5 191t37 199.5q12 60 12 81t-12 21q-14 0 -59.5 -28.5t-79.5 -57.5z" />
    <glyph glyph-name="k" unicode="k" horiz-adv-x="985" 
d="M932 219l37 -49q-72 -105 -141.5 -150t-120.5 -45q-79 0 -144 144q-72 160 -135 356q-70 -78 -82 -100q-46 -221 -70 -359q-89 -10 -204 -41l-15 13q161 703 267 1222q13 63 0.5 80.5t-74.5 20.5l-57 2l14 61q80 8 159.5 26t128 32t60.5 14q17 0 19.5 -15t-5.5 -47
q-32 -141 -96.5 -430.5t-99.5 -443.5h4q64 76 166 178q56 55 90.5 87t85 72.5t92.5 59.5t78 19q43 0 70.5 -22t27.5 -52q0 -24 -13.5 -52t-33.5 -48q-24 -21 -39 -15q-38 21 -94 21q-54 0 -115 -38.5t-106 -90.5q38 -131 121 -307q42 -101 67 -143t47 -42q38 0 111 82z" />
    <glyph glyph-name="l" unicode="l" horiz-adv-x="542" 
d="M473 244l31 -54q-87 -97 -185.5 -156t-154.5 -59q-98 0 -43 261q31 151 95 469.5t99 484.5q17 77 4.5 97.5t-77.5 23.5l-58 4l11 57q80 7 160.5 25.5t129 33.5t58.5 15q18 0 21 -17t-5 -55q-12 -58 -100.5 -488.5t-134.5 -658.5q-19 -77 6 -77q14 0 59 28.5t84 65.5z" />
    <glyph glyph-name="m" unicode="m" horiz-adv-x="1630" 
d="M1536 242l31 -56q-88 -98 -183 -154.5t-145 -56.5q-101 0 -53 207l108 461q29 121 -12 121q-53 0 -174.5 -130.5t-179.5 -236.5q-43 -181 -82 -381q-89 -7 -209 -41l-14 17q70 282 145 598q19 95 17 134.5t-27 39.5q-56 0 -179.5 -134t-175.5 -235q-27 -86 -88 -379
q-102 -9 -204 -41l-15 19q70 263 164 678q9 44 8 60t-12 18q-14 0 -56.5 -28.5t-76.5 -59.5l-27 55q96 96 186 152.5t144 56.5q47 0 54 -59t-23 -185l-31 -131h4q93 124 182.5 207t155.5 121q77 47 137 47q131 0 66 -305l-15 -64h5q173 232 339 326q74 43 134 43
q131 0 61 -305l-94 -404q-15 -63 6 -63q14 0 54 27.5t75 60.5z" />
    <glyph glyph-name="n" unicode="n" horiz-adv-x="1112" 
d="M1020 244l31 -58q-99 -105 -186 -158t-142 -53q-102 0 -49 218q14 56 100 436q13 53 14.5 82.5t-5 39.5t-21.5 11q-53 0 -174 -128.5t-187 -242.5q-49 -192 -84 -373q-107 -12 -202 -41l-15 17q102 411 158 676q18 80 -2 80q-13 0 -56 -27.5t-75 -58.5l-27 57
q94 96 183 150.5t143 54.5q89 0 33 -248l-31 -129h4q145 198 326 319q89 58 157 58q21 0 36.5 -6t29.5 -25t19 -51.5t0 -90t-23 -135.5q-57 -248 -90 -389q-17 -71 6 -71q14 0 53 25.5t76 60.5z" />
    <glyph glyph-name="o" unicode="o" horiz-adv-x="991" 
d="M381 -25q-81 0 -141 28.5t-92 77.5t-47 104.5t-15 119.5q0 189 88.5 334t218.5 213q132 74 252 74q140 0 216.5 -87t76.5 -237q0 -140 -56.5 -273.5t-162.5 -222.5q-68 -59 -158 -95t-180 -36zM459 63q24 0 57 11q72 30 131.5 181.5t59.5 350.5q0 116 -38 175t-100 59
q-30 0 -59 -13q-26 -13 -57 -51t-62.5 -100.5t-52.5 -162.5t-21 -216q0 -111 40.5 -172.5t101.5 -61.5z" />
    <glyph glyph-name="p" unicode="p" horiz-adv-x="1030" 
d="M535 1061l-37 -160q95 25 186 25q156 0 228.5 -75.5t72.5 -223.5q0 -100 -44.5 -211t-127.5 -203q-75 -84 -181.5 -148.5t-211.5 -89.5q-55 0 -111 19l-51 -262q-15 -79 2 -104t92 -34l47 -4l-10 -63l-528 -25l14 62q93 19 123.5 48.5t50.5 121.5q4 19 213 1022
q-79 -25 -160 -70l-18 62q83 54 199 98l22 90q34 35 95 76t112 63zM477 811l-135 -676q17 -24 49.5 -45t61.5 -20q62 0 132.5 80t119.5 208t49 252q0 213 -181 213q-38 0 -96 -12z" />
    <glyph glyph-name="q" unicode="q" horiz-adv-x="1026" 
d="M899 -412l-10 -61l-516 -25l12 62l33 8q46 11 68.5 24.5t38.5 45.5t30 96l115 565h-4q-95 -121 -215 -217q-135 -111 -230 -111q-66 0 -107.5 69t-41.5 177q0 151 65.5 294.5t173.5 238.5q60 53 152 96.5t162 58.5q63 17 123 17q58 0 204 -31l33 -8q-39 -151 -94 -449
l-121 -686q-9 -50 -10 -77.5t9 -44.5t26 -23t49 -10zM631 827q-77 0 -131 -45q-89 -73 -142 -219.5t-53 -283.5q0 -68 17 -103t45 -35q57 0 158 100.5t159 196.5q46 195 74 359q-54 30 -127 30z" />
    <glyph glyph-name="r" unicode="r" horiz-adv-x="780" 
d="M424 594h8q80 151 158 241.5t139 90.5q27 0 53 -15t41 -39q35 -51 -6 -112q-33 -53 -65 -78q-29 -20 -50 -2q-36 39 -77 39q-36 0 -88 -72q-93 -131 -127 -235q-44 -182 -80 -394q-103 -12 -201 -41l-16 17q84 353 141 659q17 92 -4 92q-14 0 -57 -26t-74 -55l-31 53
q87 90 177.5 149.5t142.5 59.5q85 0 36 -238z" />
    <glyph glyph-name="s" unicode="s" horiz-adv-x="712" 
d="M242 -25q-84 0 -156.5 47.5t-73.5 110.5q0 31 20 61t48 46q39 23 63 -4q51 -67 110.5 -105.5t111.5 -38.5q47 0 77.5 26t30.5 66q0 35 -27 69.5t-100 90.5q-31 23 -40.5 30t-37.5 29.5t-38.5 34.5t-30 35t-27.5 41t-15 42.5t-7 49.5q0 120 120 217q57 45 123 74t121 29
q75 0 126.5 -39t51.5 -90q3 -57 -63 -103q-36 -22 -54 8q-85 109 -176 109q-40 0 -65 -25t-25 -63q0 -42 37 -82t105 -86q97 -67 142.5 -124.5t45.5 -129.5q0 -83 -63.5 -160t-155.5 -121.5t-178 -44.5z" />
    <glyph glyph-name="t" unicode="t" horiz-adv-x="647" 
d="M727 891l-57 -82l-195 -10l-110 -533q-26 -121 10 -121q22 0 78 36.5t96 74.5l31 -49q-61 -81 -171.5 -156.5t-189.5 -75.5q-35 0 -55.5 25.5t-25.5 89t20 170.5l114 539h-147l-10 20l55 72h123l45 190l209 142l22 -19l-71 -313h229z" />
    <glyph glyph-name="u" unicode="u" horiz-adv-x="1107" 
d="M1028 252l31 -55q-93 -106 -184 -164t-148 -58q-96 0 -47 211q22 95 31 148h-2q-159 -209 -320 -309q-74 -50 -149 -50q-142 0 -76 285q23 92 94 408q17 73 0 84q-20 0 -131 -88l-25 57q94 91 187.5 148t146.5 57q43 0 52.5 -42.5t-15.5 -156.5q-14 -59 -49 -214
t-55 -237q-27 -131 20 -131q46 0 121 68t135.5 147t91.5 136q41 166 84 374l195 56h26q-99 -392 -153 -682q-5 -26 -6.5 -42.5t-1 -26t3.5 -13.5t8 -4q13 0 56 29t79 65z" />
    <glyph glyph-name="v" unicode="v" horiz-adv-x="942" 
d="M506 221h4q51 64 84 109t81.5 118.5t74 137t24.5 112.5q0 54 -24 97q-8 27 0 47q11 36 41 60t71 24q42 0 71 -35.5t30 -91.5q0 -51 -29.5 -115t-102.5 -162q-252 -340 -434 -547h-73q-6 129 -23.5 335.5t-30.5 310.5q-16 129 -37 129q-27 0 -114 -97l-37 52
q70 95 149 158t134 63q49 0 74 -58.5t36 -183.5q4 -56 16 -224.5t15 -238.5z" />
    <glyph glyph-name="w" unicode="w" horiz-adv-x="1384" 
d="M981 229h4q52 70 99 140t94 167.5t47 155.5q0 55 -25 103q-14 27 2 59q12 30 40 51t61 21q44 0 73 -36t29 -93q0 -78 -82 -211q-48 -75 -199.5 -286t-238.5 -325h-76q-44 377 -72 584h-4q-298 -492 -358 -584h-70q-12 366 -35 658q-9 115 -30 115q-29 0 -115 -93l-35 47
q71 96 152.5 160t138.5 64q44 0 66 -54t28 -176q6 -158 6 -409h4q27 48 104.5 181t134 232.5t107.5 194.5h66q17 -122 44 -345.5t40 -320.5z" />
    <glyph glyph-name="x" unicode="x" horiz-adv-x="987" 
d="M172 641l-41 49q76 110 149.5 173t129.5 63q43 0 71.5 -47.5t65.5 -161.5l33 -103q123 177 193.5 244.5t137.5 67.5q45 0 71 -31t24 -74q-1 -43 -33 -74.5t-64 -31.5q-17 0 -37 20q-18 25 -47 25q-34 0 -98 -70q-54 -60 -121 -151l76 -242q44 -150 86 -150q39 0 141 119
l39 -47q-79 -125 -155 -184.5t-138 -59.5q-47 0 -82.5 46.5t-66.5 148.5l-53 172q-129 -209 -203 -288t-150 -79q-44 0 -73.5 31.5t-28.5 79.5q1 47 31.5 80t64.5 33q16 0 37 -21q17 -20 47 -20q72 0 250 268l-59 195q-24 79 -40.5 105t-33.5 26q-33 0 -123 -111z" />
    <glyph glyph-name="y" unicode="y" horiz-adv-x="940" 
d="M537 182h4q50 75 82 126t74 127t63.5 141t21.5 116q-1 14 -2.5 26.5t-5.5 25.5t-6 18.5t-7.5 19.5t-6.5 15q-9 35 6 65q15 28 43.5 46t58.5 18q39 0 68.5 -34.5t30.5 -94.5q0 -93 -78 -226q-121 -204 -346 -522q-222 -316 -379 -495l-250 -62l-17 51q298 195 463 412
q1 120 -20.5 330t-48.5 354q-18 104 -43 104q-12 0 -43.5 -29t-69.5 -81l-41 53q64 101 140.5 170.5t136.5 69.5q51 0 81.5 -61t47.5 -201q29 -235 43 -482z" />
    <glyph glyph-name="z" unicode="z" horiz-adv-x="851" 
d="M881 954l45 -45q-111 -130 -140 -161q-117 -124 -520 -521q69 6 162 -30q112 -41 166 -41q44 0 92.5 37t114.5 133l53 -41q-85 -182 -157 -255t-148 -73q-31 0 -84 18t-85 33t-97 47q-59 28 -92.5 29.5t-55.5 -18.5q-30 -21 -59 -70q-16 -19 -29 -19q-10 5 -17 16
t-8.5 31t6 44.5t31.5 60.5t64 76q53 54 252 244t299 292q-57 -14 -133 -8q-128 10 -166 10q-51 1 -90 -20t-63 -50.5t-60 -86.5l-58 32q49 113 97 185q80 121 159 121q64 0 195 -25q120 -22 188 -22q61 0 138 77z" />
    <glyph glyph-name="braceleft" unicode="{" horiz-adv-x="731" 
d="M809 1454l-8 -65q-93 -12 -134 -59t-57 -124q-12 -64 -20 -188q-5 -147 -21 -230q-16 -86 -70.5 -148t-148.5 -81v-8q70 -16 103.5 -62.5t33.5 -111.5q0 -33 -7.5 -72.5t-16.5 -67.5t-24.5 -75t-22.5 -70q-2 -7 -10.5 -35.5t-12.5 -42.5t-11 -41t-10.5 -44.5t-6.5 -39.5
t-3 -39q0 -112 130 -129l-19 -65q-268 0 -270 197q0 19 1.5 39.5t5.5 45t7.5 42.5t11 48t11 43.5t13 47.5t11.5 43q53 169 53 235q2 54 -32 86.5t-115 36.5l16 68q49 4 86 18.5t57 30.5t34.5 43t19 42.5t10.5 43.5q9 45 21 182q14 145 35 252q12 63 40.5 110t62.5 74
t80.5 43.5t87 21.5t89.5 5z" />
    <glyph glyph-name="bar" unicode="|" horiz-adv-x="534" 
d="M387 -510h-156v2048h156v-2048z" />
    <glyph glyph-name="braceright" unicode="}" horiz-adv-x="731" 
d="M635 588l-17 -68q-41 -2 -73.5 -11t-53.5 -25t-35 -30.5t-22.5 -37.5t-12 -36.5t-7.5 -35.5q-13 -64 -23 -182q-11 -142 -33 -252q-12 -63 -40.5 -110t-63 -74t-80.5 -43.5t-87.5 -21.5t-90.5 -5l8 65q48 6 84 23.5t57 44t32 52.5t18 59q15 83 22 192q5 141 21 225
q15 89 72 151.5t147 82.5v8q-73 17 -107.5 72.5t-25.5 134.5q2 35 11.5 75.5t29 99.5t24.5 77q47 155 51 213q12 140 -127 160l19 63q54 0 99.5 -10t88 -33.5t65 -70.5t17.5 -113q-2 -78 -61 -279q-4 -14 -15.5 -53t-17.5 -60.5t-12 -49.5t-7 -46q-18 -139 146 -151z" />
    <glyph glyph-name="asciitilde" unicode="~" horiz-adv-x="1171" 
d="M1020 647l90 -53q-78 -236 -268 -236q-46 0 -95 15.5t-80 32t-79 45.5q-56 37 -96.5 53t-83.5 16q-61 0 -106.5 -42t-80.5 -130l-84 64q97 227 281 227q59 0 110 -18t119 -60q131 -82 205 -82q56 0 95.5 40t72.5 128z" />
    <glyph glyph-name="uni00A0" unicode="&#xa0;" horiz-adv-x="456" 
 />
    <glyph glyph-name="exclamdown" unicode="&#xa1;" horiz-adv-x="542" 
d="M485 791q0 -69 -43 -114.5t-108 -45.5q-58 0 -94.5 39.5t-36.5 101.5q0 71 45 115.5t106 44.5h2q57 0 93 -39.5t36 -101.5zM326 471q-7 -116 -22.5 -346.5t-22.5 -345.5q-4 -96 -13 -164q-8 -37 -42 -54.5t-115 -17.5h-2q-77 0 -106.5 21t-22.5 57q9 47 45 156
q42 129 117 365t104 327q10 16 42.5 14.5t37.5 -12.5z" />
    <glyph glyph-name="cent" unicode="&#xa2;" horiz-adv-x="1001" 
d="M793 1264l-31 -160q121 0 196 -55q35 -23 35 -62q0 -38 -28.5 -68t-53.5 -30q-18 0 -39 24q-34 41 -64 65.5t-67 31.5l-127 -672h25q135 0 254 102l35 -53q-145 -166 -340 -190l-39 -197h-80l37 197q-155 11 -255.5 110.5t-100.5 267.5q0 205 153.5 353t374.5 172l33 164
h82zM537 352l125 668q-134 -6 -212.5 -119t-78.5 -278q0 -109 45.5 -179.5t120.5 -91.5z" />
    <glyph glyph-name="sterling" unicode="&#xa3;" horiz-adv-x="1001" 
d="M809 600h-309q-18 -123 -85.5 -210.5t-181.5 -156.5q96 2 224 -51q180 -78 252 -78q94 0 104 68q4 29 -6 76q-6 25 12 49q52 55 88 55q24 0 33.5 -28t3.5 -72q-10 -60 -63.5 -127t-118.5 -109q-107 -71 -211 -71q-21 0 -42 3.5t-44.5 12t-40 14.5t-43.5 20.5t-38 20.5
t-41 24t-36 21q-47 26 -71.5 35.5t-51.5 9.5q-48 0 -92 -81q-12 -31 -33 -31q-16 2 -27.5 13.5t-14.5 32t14 48.5q9 16 27.5 38t34 38.5t43.5 44.5t38 39q126 129 133 352h-188l16 82h172q3 97 13 160q29 226 221 366q126 92 239 92q69 0 116.5 -24t68.5 -55q26 -41 -2 -82
q-23 -32 -54 -52q-33 -20 -63 7q-7 6 -29 26.5t-32.5 29t-29.5 21.5t-37.5 18t-39.5 5q-105 0 -127 -154q-10 -84 -6 -358h321z" />
    <glyph glyph-name="currency" unicode="&#xa4;" horiz-adv-x="1001" 
d="M991 276l-92 -92l-135 154q-97 -78 -225 -78q-133 0 -226 78l-135 -154l-90 92l145 138q-90 100 -90 252t90 252l-145 137l90 92l135 -154q100 78 226 78h2q126 0 223 -78l135 154l92 -92l-143 -137q88 -105 88 -252t-88 -252zM539 944q-103 0 -172.5 -78.5t-69.5 -199.5
q0 -123 69.5 -201t174.5 -78t173 77.5t68 201.5q0 121 -68.5 199.5t-174.5 78.5z" />
    <glyph glyph-name="yen" unicode="&#xa5;" horiz-adv-x="1001" 
d="M1155 1276l-12 -62q-79 -9 -112 -32t-97 -109q-84 -112 -266 -393h247l-18 -78h-264l-31 -160h268l-16 -80h-268l-23 -110q-8 -43 -11.5 -69t0 -48.5t12 -33t30 -19.5t47 -12.5t70.5 -6.5l-15 -63h-563l17 63q59 4 88.5 10.5t52 29t32 53t23.5 94.5l23 112h-275l17 80
h272l29 160h-273l19 78h250q-23 122 -97 405q-20 74 -47.5 97t-105.5 32l12 62h465l-14 -62l-54 -10q-33 -5 -43.5 -19t-3.5 -48q54 -268 86 -414q157 241 232 383q29 54 22 75t-55 27l-49 6l12 62h387z" />
    <glyph glyph-name="brokenbar" unicode="&#xa6;" horiz-adv-x="534" 
d="M387 666h-156v716h156v-716zM387 -358h-156v716h156v-716z" />
    <glyph glyph-name="section" unicode="&#xa7;" horiz-adv-x="1001" 
d="M920 455v-4q0 -243 -281 -488q-171 -144 -340 -174q-102 0 -160 55q-33 29 -33 66q1 21 24 48t46 40q25 14 43 -4q96 -76 187 -76q61 0 103 32t42 81q1 45 -24 89.5t-78 102.5q-87 87 -179 197q-120 138 -120 293q0 114 66 223.5t175 204.5q170 148 346 180
q105 0 162 -57q22 -25 19 -56q-1 -23 -21.5 -48.5t-40.5 -35.5q-19 -9 -35 4q-89 80 -184 80q-59 0 -93 -34.5t-34 -75.5q0 -60 57 -123q80 -86 170 -172q96 -92 139.5 -174t43.5 -174zM391 1047l-6 2q-46 -50 -72 -116t-26 -126v-2q0 -130 110 -250l101 -106
q110 -118 143 -191q38 -64 27 -168l6 -2q102 108 102 254q0 135 -119 264q-107 120 -196 221q-90 98 -70 220z" />
    <glyph glyph-name="dieresis" unicode="&#xa8;" 
d="M383 1309q47 0 72.5 -30.5t25.5 -74.5q0 -56 -36 -96.5t-93 -40.5q-45 0 -72.5 29t-27.5 78q0 50 35.5 92.5t95.5 42.5zM768 1309q47 0 72.5 -30.5t25.5 -74.5q0 -56 -36 -96.5t-93 -40.5q-45 0 -72.5 29t-27.5 78q0 50 35.5 92.5t95.5 42.5z" />
    <glyph glyph-name="copyright" unicode="&#xa9;" horiz-adv-x="1427" 
d="M770 1288q177 0 321 -83.5t225 -227t81 -315.5q0 -170 -81 -312.5t-226 -226.5t-322 -84q-134 0 -251 49.5t-198.5 133.5t-128.5 198.5t-47 241.5q0 172 80.5 315.5t225 227t321.5 83.5zM770 1212q-112 0 -209 -42.5t-165.5 -115.5t-108 -174.5t-39.5 -215.5
q0 -152 66.5 -277.5t187 -198.5t270.5 -73q225 0 373.5 158.5t148.5 390.5q0 153 -67 278t-187 197.5t-270 72.5zM1032 537l51 -13q-5 -17 -16 -59.5t-19.5 -72t-15.5 -46.5q-120 -41 -221 -41q-98 0 -175.5 30.5t-123.5 81t-70 111.5t-24 127q0 112 57 197.5t147.5 127.5
t198.5 42q119 0 217 -37q5 -70 23 -182l-49 -12q-32 83 -77.5 125t-123.5 42q-101 0 -161 -80.5t-60 -205.5q0 -131 66 -215t163 -84q75 0 125.5 41.5t87.5 122.5z" />
    <glyph glyph-name="ordfeminine" unicode="&#xaa;" horiz-adv-x="724" 
d="M741 725l21 -41q-55 -56 -120.5 -92.5t-104.5 -36.5q-15 0 -25.5 8.5t-17.5 32.5t4 68l22 100h-4q-64 -79 -141 -141q-93 -68 -148 -68q-39 0 -65.5 36.5t-26.5 113.5q0 87 39 176.5t102 146.5q52 45 132 78t159 33h2q17 0 74 -11q29 -4 94 -8q-59 -250 -80 -383
q-9 -59 5 -59q8 0 31.5 14t47.5 33zM489 1065q-27 0 -57 -18q-42 -23 -84 -103q-47 -99 -47 -205q0 -63 31 -63q33 0 94 61q55 55 100 140q26 54 49 170q-27 18 -86 18z" />
    <glyph glyph-name="guillemotleft" unicode="&#xab;" horiz-adv-x="940" 
d="M518 801l-211 -342l133 -342l-61 -33q-178 262 -270 375q155 149 354 377zM868 801l-209 -342l132 -342l-62 -33q-170 255 -270 375q147 141 356 377z" />
    <glyph glyph-name="logicalnot" unicode="&#xac;" horiz-adv-x="1234" 
d="M1122 205h-139v436h-848v121h987v-557z" />
    <glyph glyph-name="uni00AD" unicode="&#xad;" horiz-adv-x="690" 
d="M621 532l-37 -133h-494l35 133h496z" />
    <glyph glyph-name="registered" unicode="&#xae;" horiz-adv-x="638" 
d="M416 1352q114 0 191 -79t77 -188q0 -108 -77.5 -187t-192.5 -79q-114 0 -190.5 76.5t-76.5 189.5q0 109 78 188t191 79zM414 1305q-90 0 -148.5 -63.5t-58.5 -156.5q0 -94 60 -156.5t149 -62.5q91 0 151 62.5t60 156.5q0 93 -60.5 156.5t-152.5 63.5zM567 967l-6 -25
q-38 0 -61 9t-39 34q-31 46 -41 64q-9 14 -27 14h-8v-47q0 -28 6 -33.5t33 -7.5v-31h-139v31q28 2 33.5 7t5.5 34v143q0 27 -5 32t-32 7v31h141q100 0 100 -74q0 -48 -57 -72q25 -46 70 -94q9 -13 26 -22zM385 1174v-76h18q24 0 35 8q25 16 25 43t-16 38t-35 11
q-16 0 -21.5 -4.5t-5.5 -19.5z" />
    <glyph glyph-name="macron" unicode="&#xaf;" 
d="M784 1233l-30 -129h-475l30 129h475z" />
    <glyph glyph-name="degree" unicode="&#xb0;" horiz-adv-x="733" 
d="M500 1360q115 0 190.5 -70t75.5 -192q0 -125 -87.5 -205t-213.5 -80q-118 0 -194 70t-76 188q0 124 89.5 206.5t215.5 82.5zM492 1272q-72 0 -121 -57t-49 -146q0 -72 41.5 -120t109.5 -48q75 0 122.5 56.5t47.5 136.5q0 78 -41 128t-110 50z" />
    <glyph glyph-name="plusminus" unicode="&#xb1;" horiz-adv-x="1234" 
d="M1114 629h-424v-406h-139v406h-426v121h426v376h139v-376h424v-121zM1114 0h-989v121h989v-121z" />
    <glyph glyph-name="twosuperior" unicode="&#xb2;" horiz-adv-x="688" 
d="M645 1020l47 -21q-44 -97 -80 -186h-514l11 47q7 6 94 71.5t139 110.5q180 155 180 271q0 51 -30 80.5t-84 29.5q-76 0 -168 -104l-39 41l86 104q82 82 205 82q89 0 149.5 -53.5t60.5 -146.5q0 -27 -8 -53.5t-17.5 -47t-32 -46t-36 -40t-45.5 -39.5t-45 -34.5t-50 -35.5
t-46 -32l-96 -72v-4h178q53 0 78 13.5t63 64.5z" />
    <glyph glyph-name="threesuperior" unicode="&#xb3;" horiz-adv-x="688" 
d="M535 1245v-4q63 -13 107 -54t44 -104q0 -141 -180 -229q-110 -55 -203 -55q-46 0 -88 15.5t-63 33.5q-28 28 -17 59q19 42 49 60q25 16 47 -6q24 -23 39.5 -35.5t48.5 -28.5t64 -16q52 0 86.5 39.5t34.5 103.5q0 71 -38 105t-97 34q-36 0 -72 -12l-10 53q95 21 154 63.5
t59 98.5q0 36 -22.5 57t-63.5 21q-72 0 -148 -92l-39 37l76 86q31 31 80 51t102 20h2q78 0 135.5 -39t57.5 -110q0 -92 -145 -152z" />
    <glyph glyph-name="acute" unicode="&#xb4;" 
d="M821 1354l-340 -350l-57 38q85 147 180 334q26 6 102.5 10t106.5 0z" />
    <glyph glyph-name="mu" unicode="&#xb5;" horiz-adv-x="1075" 
d="M987 250l31 -53q-93 -106 -184 -164t-148 -58q-97 0 -49 209q9 39 31 146h-4q-152 -215 -250 -293q-77 -62 -142 -62q-69 0 -92 101h-4q-18 -53 -27 -141.5t-2 -163.5q11 -130 68 -205l2 -15q-14 -23 -54.5 -45t-82.5 -22q-39 0 -62 38t-20 111q4 84 74 398
q44 198 108.5 490.5t79.5 357.5l209 47l12 -11q-116 -494 -139 -602q-38 -170 33 -170q40 0 109.5 69t125.5 148t86 136q13 53 27 114.5t30.5 138.5t26.5 121l195 56h26q-83 -329 -153 -684q-5 -26 -6.5 -42.5t-1 -26t3.5 -13.5t8 -4q13 0 55.5 29.5t79.5 64.5z" />
    <glyph glyph-name="paragraph" unicode="&#xb6;" horiz-adv-x="1009" 
d="M1094 1106l-72 -55l-164 -21l-186 -967q-25 -128 -71.5 -217t-129.5 -161q-56 -51 -120 -80t-97 -29q-41 0 -76 15.5t-55 35.5q-17 15 -21.5 35t4.5 37q15 35 54 61q22 16 43 -2q67 -51 143 -51q26 0 45.5 5.5t43 25.5t42 55t38 97t36.5 149l51 266l-133 -55
q-19 -8 -41 -8q-111 0 -197 109t-86 261q0 147 79 268.5t207 188t274 66.5h382z" />
    <glyph glyph-name="periodcentered" unicode="&#xb7;" horiz-adv-x="518" 
d="M266 326q-55 0 -90 37t-35 96q0 68 43 112.5t107 44.5q55 0 90 -38.5t35 -98.5q0 -70 -44 -111.5t-106 -41.5z" />
    <glyph glyph-name="cedilla" unicode="&#xb8;" 
d="M438 6l-45 -55q-20 -23 -18.5 -41t24.5 -47q63 -78 60 -137q-4 -63 -79.5 -119.5t-189.5 -89.5l-26 61q68 31 104 58.5t37 58.5q2 31 -37 80q-31 38 -32.5 66t30.5 67l80 98h92z" />
    <glyph glyph-name="onesuperior" unicode="&#xb9;" horiz-adv-x="688" 
d="M610 864l-12 -53h-420l12 53q78 8 102.5 27.5t37.5 91.5l67 338q12 71 2.5 87t-61.5 22l-45 4l12 49q156 21 307 63l-108 -563q-6 -31 -6 -49.5t4 -32t19 -20t34 -10.5t55 -7z" />
    <glyph glyph-name="ordmasculine" unicode="&#xba;" horiz-adv-x="679" 
d="M498 1137h4q98 0 156.5 -59t58.5 -163q0 -82 -36 -158.5t-103 -127.5q-44 -34 -101.5 -54t-109.5 -20q-105 0 -161.5 61t-58.5 156q-1 106 52 192.5t135 129.5q81 43 164 43zM465 1071q-20 0 -41 -12q-41 -19 -77 -93t-36 -196q0 -71 25.5 -109t66.5 -38q19 0 46 12
q38 17 73.5 106.5t34.5 200.5q-3 129 -92 129z" />
    <glyph glyph-name="guillemotright" unicode="&#xbb;" horiz-adv-x="942" 
d="M182 803l62 31q182 -270 270 -375q-147 -141 -356 -377l-54 35l211 342zM532 803l64 31q183 -271 268 -375q-147 -141 -356 -377l-53 35l211 342z" />
    <glyph glyph-name="onequarter" unicode="&#xbc;" horiz-adv-x="1650" 
d="M1386 1276l-1064 -1348l-60 56l1063 1347zM588 621l-13 -54h-421l12 54q78 8 102 27t37 91l68 340q12 71 2.5 87t-62.5 22l-45 4l13 49q141 16 307 59l-109 -561q-13 -71 5.5 -90t103.5 -28zM1405 274l-16 -79h-113l-10 -50q-9 -53 7 -69t85 -25l-10 -51h-387l12 51
q31 4 43 5.5t30 6t24 9.5t14 15t11.5 23t6.5 33l10 52h-324l11 53q245 270 467 485h112l-88 -459h115zM1190 571h-4q-215 -239 -264 -297h206z" />
    <glyph glyph-name="onehalf" unicode="&#xbd;" horiz-adv-x="1568" 
d="M1364 1276l-1067 -1348l-59 58l1062 1345zM571 621l-12 -54h-422l15 54q77 8 100.5 27t36.5 91l67 340q12 71 2.5 86.5t-61.5 20.5l-45 4l12 51q137 15 309 59l-110 -561q-13 -72 5.5 -90.5t102.5 -27.5zM1389 207l49 -21q-62 -138 -80 -186h-516l10 47q7 6 94 71.5
t139 110.5q89 78 135 143.5t46 127.5q0 52 -30 81t-85 29q-78 0 -168 -102l-39 39l86 102q81 84 207 84q88 0 149.5 -54.5t61.5 -148.5q0 -31 -8.5 -59t-27 -55t-36 -47.5t-49 -46t-51 -40t-57 -40.5t-52.5 -37l-96 -72v-4h176q54 0 80 14t62 64z" />
    <glyph glyph-name="threequarters" unicode="&#xbe;" horiz-adv-x="1568" 
d="M1415 1276l-1067 -1348l-59 56l1065 1347zM301 1108l-41 35l76 86q31 31 80 51t102 20h2q78 0 135.5 -39t57.5 -108q0 -49 -36.5 -85t-109.5 -67v-4q64 -13 108 -53.5t44 -103.5q0 -143 -178 -230q-110 -55 -205 -55q-47 0 -90 16t-60 33q-29 26 -18 60q18 40 49 59
q23 14 47 -6q24 -23 39.5 -35.5t48.5 -28.5t64 -16q52 0 86.5 39t34.5 102q0 72 -39 107t-99 35q-30 0 -69 -13l-11 54q96 23 154.5 64t58.5 95q0 36 -22.5 57t-63.5 21q-71 0 -145 -90zM1419 274l-16 -79h-113l-10 -50q-9 -53 7 -69t85 -25l-12 -51h-385l12 51q76 8 98 22
t31 70l10 52h-325l12 53q263 291 467 485h113l-88 -459h114zM1204 571h-4q-215 -239 -264 -297h207z" />
    <glyph glyph-name="questiondown" unicode="&#xbf;" horiz-adv-x="755" 
d="M498 932q57 0 93 -39.5t36 -99.5q0 -70 -43.5 -116t-108.5 -46q-58 0 -94.5 39.5t-36.5 101.5q0 71 45.5 115.5t108.5 44.5zM352 459l47 41q72 -33 134.5 -102.5t62.5 -147.5q0 -44 -19 -83t-56.5 -72.5t-72.5 -57t-88 -53.5q-144 -80 -181 -106q-77 -55 -77 -99
q0 -32 25 -53t68 -21q50 0 97.5 16.5t76 37t54 37t36.5 16.5q28 0 57 -37.5t29 -79.5q0 -43 -60 -84q-51 -34 -106.5 -52t-91.5 -18h-2q-117 0 -207 96.5t-90 217.5q0 82 35.5 140.5t111.5 104.5q18 11 49.5 30t47.5 28.5t41.5 26t38.5 26t31 23.5t27.5 25t19 24t13 25.5
t3.5 25.5q0 55 -54 125z" />
    <glyph glyph-name="Agrave" unicode="&#xc0;" horiz-adv-x="1370" 
d="M1284 63l-16 -63h-531l19 63q94 10 115.5 36t11.5 100q-22 138 -39 256h-406q-19 -38 -123 -250q-40 -75 -20 -102t135 -40l-16 -63h-453l16 63q42 7 65 13.5t46.5 18.5t44 37t43 59t57.5 94l601 1050l90 23l45 -281q23 -146 69.5 -418.5t65.5 -390.5q8 -47 13 -73
t14.5 -51t19.5 -36t30 -21.5t42.5 -15t60.5 -8.5zM829 553l-71 483h-6q-26 -49 -120.5 -219t-142.5 -264h340zM1001 1458l-30 -59l-416 123l-6 22q8 33 41.5 83t58.5 61q42 -28 164.5 -107.5t187.5 -122.5z" />
    <glyph glyph-name="Aacute" unicode="&#xc1;" horiz-adv-x="1370" 
d="M1284 63l-16 -63h-531l19 63q94 10 115.5 36t11.5 100q-22 138 -39 256h-406q-19 -38 -123 -250q-40 -75 -20 -102t135 -40l-16 -63h-453l16 63q42 7 65 13.5t46.5 18.5t44 37t43 59t57.5 94l601 1050l90 23l45 -281q23 -146 69.5 -418.5t65.5 -390.5q8 -47 13 -73
t14.5 -51t19.5 -36t30 -21.5t42.5 -15t60.5 -8.5zM829 553l-71 483h-6q-26 -49 -120.5 -219t-142.5 -264h340zM1208 1542l-8 -20l-414 -123l-30 59q65 41 185 119.5t167 108.5q25 -6 59.5 -56.5t40.5 -87.5z" />
    <glyph glyph-name="Acircumflex" unicode="&#xc2;" horiz-adv-x="1370" 
d="M1284 63l-16 -63h-531l19 63q94 10 115.5 36t11.5 100q-22 138 -39 256h-406q-19 -38 -123 -250q-40 -75 -20 -102t135 -40l-16 -63h-453l16 63q42 7 65 13.5t46.5 18.5t44 37t43 59t57.5 94l601 1050l90 23l45 -281q23 -146 69.5 -418.5t65.5 -390.5q8 -47 13 -73
t14.5 -51t19.5 -36t30 -21.5t42.5 -15t60.5 -8.5zM829 553l-71 483h-6q-26 -49 -120.5 -219t-142.5 -264h340zM1176 1452l-41 -53q-136 54 -238 114q-135 -67 -270 -114l-31 55q148 95 293 225h63q87 -101 224 -227z" />
    <glyph glyph-name="Atilde" unicode="&#xc3;" horiz-adv-x="1370" 
d="M1284 63l-16 -63h-531l19 63q94 10 115.5 36t11.5 100q-22 138 -39 256h-406q-19 -38 -123 -250q-40 -75 -20 -102t135 -40l-16 -63h-453l16 63q42 7 65 13.5t46.5 18.5t44 37t43 59t57.5 94l601 1050l90 23l45 -281q23 -146 69.5 -418.5t65.5 -390.5q8 -47 13 -73
t14.5 -51t19.5 -36t30 -21.5t42.5 -15t60.5 -8.5zM829 553l-71 483h-6q-26 -49 -120.5 -219t-142.5 -264h340zM1124 1636l58 -37q-33 -96 -78 -140t-94 -44q-54 0 -150 49q-64 27 -96 27q-55 0 -100 -92l-60 43q34 94 80.5 137t95.5 43q48 0 133 -39q78 -33 111 -33
q30 0 52.5 21.5t47.5 64.5z" />
    <glyph glyph-name="Adieresis" unicode="&#xc4;" horiz-adv-x="1370" 
d="M1284 63l-16 -63h-531l19 63q94 10 115.5 36t11.5 100q-22 138 -39 256h-406q-19 -38 -123 -250q-40 -75 -20 -102t135 -40l-16 -63h-453l16 63q42 7 65 13.5t46.5 18.5t44 37t43 59t57.5 94l601 1050l90 23l45 -281q23 -146 69.5 -418.5t65.5 -390.5q8 -47 13 -73
t14.5 -51t19.5 -36t30 -21.5t42.5 -15t60.5 -8.5zM829 553l-71 483h-6q-26 -49 -120.5 -219t-142.5 -264h340zM702 1659q47 0 73 -30.5t26 -74.5q0 -56 -36 -96.5t-91 -40.5q-45 0 -74 29t-29 78q0 50 35.5 92.5t95.5 42.5zM1116 1659q47 0 72.5 -30.5t25.5 -74.5
q0 -56 -36 -96.5t-91 -40.5q-45 0 -73.5 29t-28.5 78q0 50 35.5 92.5t95.5 42.5z" />
    <glyph glyph-name="Aring" unicode="&#xc5;" horiz-adv-x="1370" 
d="M1284 63l-16 -63h-533l19 63q67 7 95.5 20.5t34.5 41.5t-3 74q-5 42 -19 129t-20 127h-404q-72 -140 -123 -250q-40 -75 -20 -102t135 -40l-16 -63h-453l16 63q42 7 65 13.5t46.5 18.5t44 37t43 59t57.5 94l598 1050l93 23l43 -281q20 -118 67 -391.5t70 -417.5
q8 -47 13 -73t14.5 -51t19.5 -36t30 -21.5t42.5 -15t60.5 -8.5zM827 553l-71 483h-4q-26 -49 -120.5 -219t-142.5 -264h338zM1090 1591q-3 -83 -65 -134.5t-142 -51.5q-75 0 -125 48.5t-47 123.5q3 86 63.5 138t140.5 52q73 0 124.5 -48.5t50.5 -127.5zM987 1595
q2 40 -19.5 68.5t-58.5 28.5q-42 0 -69 -31.5t-29 -79.5q0 -43 21 -69.5t59 -26.5q40 0 67.5 30.5t28.5 79.5z" />
    <glyph glyph-name="AE" unicode="&#xc6;" horiz-adv-x="1761" 
d="M1737 1014l-68 -6q-10 134 -39 182q-21 34 -61 46.5t-137 12.5h-115q-52 0 -66.5 -13t-23.5 -65l-90 -481h161q47 0 74.5 1t53 8.5t38 15t27.5 28.5t24 41.5t25 61.5h70l-80 -412h-68q0 45 -1 66.5t-8 44t-15.5 30t-32.5 14.5t-50 8t-75 1h-162l-57 -311
q-23 -133 12 -170q37 -37 187 -37q98 0 152.5 13.5t94.5 51.5q58 56 138 201l65 -27q-103 -283 -121 -319h-983l12 66q42 3 64.5 6t47 11t36 19t24.5 32.5t20.5 49.5t16.5 72l66 342h-352q-217 -328 -254 -395q-38 -69 -29 -93.5t76 -33.5l59 -10l-16 -66h-481l14 66
q101 12 143 37.5t111 121.5q184 255 647 926q41 60 31.5 77t-84.5 25l-109 11l19 65h1104q-1 -12 -14 -131.5t-21 -183.5zM600 690h311l109 553q-32 0 -68 -31q-260 -383 -352 -522z" />
    <glyph glyph-name="Ccedilla" unicode="&#xc7;" horiz-adv-x="1323" 
d="M633 -98l59 71q-251 12 -405 164t-154 414q0 180 68.5 332.5t186.5 256t279.5 162t344.5 58.5q28 0 55.5 -1.5t53.5 -4t47 -5.5t44.5 -8t37.5 -7.5t35.5 -8.5t28.5 -8t26 -8l20 -6q-5 -133 -19 -336l-67 -6q-21 178 -97 247.5t-212 69.5q-117 0 -222.5 -57.5
t-180.5 -154.5t-119 -228.5t-44 -274.5q0 -236 95.5 -373t263.5 -137q130 0 231.5 80.5t216.5 249.5l64 -29q-30 -81 -77.5 -177t-84.5 -154q-3 -1 -33.5 -8.5t-45.5 -10.5l-50 -10t-61.5 -10.5t-64 -7t-73.5 -3.5l-24 -28q-20 -25 -18.5 -42t26.5 -48q62 -80 59 -142
q-3 -64 -77 -121t-193 -92l-25 60q143 62 146 121q0 8 -1.5 16.5t-3.5 14.5t-7.5 14.5t-8 12t-9.5 12.5t-9 11q-33 41 -34 70t32 70z" />
    <glyph glyph-name="Egrave" unicode="&#xc8;" horiz-adv-x="1159" 
d="M254 1329h922q-1 -11 -15 -132.5t-22 -186.5l-68 -4q-7 143 -37 186q-18 32 -55 44.5t-129 12.5h-123q-55 0 -70 -13.5t-26 -72.5l-82 -422h158q35 0 58 0.5t44.5 4.5t33.5 6.5t26 13.5t20.5 17.5t18 27.5t17 34.5t19.5 45.5h68l-80 -410h-70q1 36 1 52t-2 39t-5 30.5
t-12.5 19.5t-20.5 15t-31.5 7t-43 4.5t-58.5 0.5h-160l-65 -352q-14 -74 -13 -117t19 -63q18 -21 60.5 -29t123.5 -8q100 0 156 15t94 52q70 67 144 199l65 -24q-88 -239 -127 -322h-983l14 63q44 4 69 7.5t48.5 12.5t34 19t22 33t18 48t15.5 71l158 821q8 44 11.5 69
t0.5 48t-11 33.5t-28.5 20t-46 13t-69.5 7.5zM920 1462l-31 -59l-418 123l-6 22q8 32 41.5 82.5t58.5 61.5q121 -78 355 -230z" />
    <glyph glyph-name="Eacute" unicode="&#xc9;" horiz-adv-x="1159" 
d="M254 1329h922q-1 -11 -15 -132.5t-22 -186.5l-68 -4q-7 143 -37 186q-18 32 -55 44.5t-129 12.5h-123q-55 0 -70 -13.5t-26 -72.5l-82 -422h158q35 0 58 0.5t44.5 4.5t33.5 6.5t26 13.5t20.5 17.5t18 27.5t17 34.5t19.5 45.5h68l-80 -410h-70q1 36 1 52t-2 39t-5 30.5
t-12.5 19.5t-20.5 15t-31.5 7t-43 4.5t-58.5 0.5h-160l-65 -352q-14 -74 -13 -117t19 -63q18 -21 60.5 -29t123.5 -8q100 0 156 15t94 52q70 67 144 199l65 -24q-88 -239 -127 -322h-983l14 63q44 4 69 7.5t48.5 12.5t34 19t22 33t18 48t15.5 71l158 821q8 44 11.5 69
t0.5 48t-11 33.5t-28.5 20t-46 13t-69.5 7.5zM1098 1544l-8 -20l-416 -123l-31 59q192 126 354 228q26 -6 60.5 -56t40.5 -88z" />
    <glyph glyph-name="Ecircumflex" unicode="&#xca;" horiz-adv-x="1159" 
d="M254 1329h922q-1 -11 -15 -132.5t-22 -186.5l-68 -4q-7 143 -37 186q-18 32 -55 44.5t-129 12.5h-123q-55 0 -70 -13.5t-26 -72.5l-82 -422h158q35 0 58 0.5t44.5 4.5t33.5 6.5t26 13.5t20.5 17.5t18 27.5t17 34.5t19.5 45.5h68l-80 -410h-70q1 36 1 52t-2 39t-5 30.5
t-12.5 19.5t-20.5 15t-31.5 7t-43 4.5t-58.5 0.5h-160l-65 -352q-14 -74 -13 -117t19 -63q18 -21 60.5 -29t123.5 -8q100 0 156 15t94 52q70 67 144 199l65 -24q-88 -239 -127 -322h-983l14 63q44 4 69 7.5t48.5 12.5t34 19t22 33t18 48t15.5 71l158 821q8 44 11.5 69
t0.5 48t-11 33.5t-28.5 20t-46 13t-69.5 7.5zM1071 1454l-43 -53q-136 54 -237 115q-139 -70 -271 -115l-31 53q148 99 293 227h62q119 -135 227 -227z" />
    <glyph glyph-name="Edieresis" unicode="&#xcb;" horiz-adv-x="1159" 
d="M254 1329h922q-1 -11 -15 -132.5t-22 -186.5l-68 -4q-7 139 -37 186q-18 32 -55.5 44.5t-128.5 12.5h-123q-55 0 -70.5 -13.5t-27.5 -72.5l-82 -422h158q40 0 65.5 2t47.5 4t36.5 11t25.5 16.5t22 28t18.5 37t21.5 51.5h70l-82 -410h-68q-2 29 0.5 51.5t-2 39.5t-6 29.5
t-12.5 21t-20.5 14t-31 8t-43.5 3.5t-57 1h-160l-67 -352q-14 -74 -13 -117t19 -63q32 -37 184 -37q101 0 156.5 15t95.5 52q70 67 144 199l65 -24q-76 -207 -127 -322h-983l14 63q44 4 68.5 7.5t48 12.5t34 19t22 33t17.5 48.5t15 70.5l160 821q8 44 11.5 69t0.5 48
t-11 33.5t-28.5 20t-46 13t-69.5 7.5zM608 1657q47 0 73 -30.5t26 -74.5q0 -56 -36 -96.5t-93 -40.5q-45 0 -73.5 29t-29.5 78q0 49 36.5 92t96.5 43zM1020 1657q47 0 72.5 -30.5t25.5 -74.5q0 -56 -36 -96.5t-93 -40.5q-45 0 -73.5 29t-28.5 78q0 50 36 92.5t97 42.5z" />
    <glyph glyph-name="Igrave" unicode="&#xcc;" horiz-adv-x="727" 
d="M825 1329l-14 -63q-42 -4 -66.5 -7.5t-46 -13t-32 -19.5t-21.5 -33.5t-16.5 -47t-14.5 -68.5l-157 -823q-9 -43 -12.5 -69t-0.5 -48.5t11.5 -33.5t29.5 -20t47 -13t70 -7l-14 -63h-576l15 63q61 5 91 11.5t52.5 29.5t31.5 53t23 97l160 823q8 44 11.5 69t0 47.5t-11.5 33
t-30 19.5t-47.5 12.5t-71.5 7.5l16 63h573zM707 1458l-31 -59l-416 123l-6 22q8 33 41.5 83t58.5 61q49 -32 169.5 -110t183.5 -120z" />
    <glyph glyph-name="Iacute" unicode="&#xcd;" horiz-adv-x="727" 
d="M825 1329l-14 -63q-42 -4 -66.5 -7.5t-46 -13t-32 -19.5t-21.5 -33.5t-16.5 -47t-14.5 -68.5l-157 -823q-9 -43 -12.5 -69t-0.5 -48.5t11.5 -33.5t29.5 -20t47 -13t70 -7l-14 -63h-576l15 63q61 5 91 11.5t52.5 29.5t31.5 53t23 97l160 823q8 44 11.5 69t0 47.5t-11.5 33
t-30 19.5t-47.5 12.5t-71.5 7.5l16 63h573zM866 1542l-8 -20l-414 -123l-30 59q65 41 185 119.5t167 108.5q25 -6 59.5 -56.5t40.5 -87.5z" />
    <glyph glyph-name="Icircumflex" unicode="&#xce;" horiz-adv-x="727" 
d="M825 1329l-14 -63q-42 -4 -66.5 -7.5t-46 -13t-32 -19.5t-21.5 -33.5t-16.5 -47t-14.5 -68.5l-157 -823q-9 -43 -12.5 -69t-0.5 -48.5t11.5 -33.5t29.5 -20t47 -13t70 -7l-14 -63h-576l15 63q61 5 91 11.5t52.5 29.5t31.5 53t23 97l160 823q8 44 11.5 69t0 47.5t-11.5 33
t-30 19.5t-47.5 12.5t-71.5 7.5l16 63h573zM842 1454l-41 -53q-131 52 -238 115q-141 -71 -270 -115l-31 55q148 95 293 225h63q87 -101 224 -227z" />
    <glyph glyph-name="Idieresis" unicode="&#xcf;" horiz-adv-x="727" 
d="M825 1329l-14 -63q-42 -4 -66.5 -7.5t-46 -13t-32 -19.5t-21.5 -33.5t-16.5 -47t-14.5 -68.5l-157 -823q-9 -43 -12.5 -69t-0.5 -48.5t11.5 -33.5t29.5 -20t47 -13t70 -7l-14 -63h-576l15 63q61 5 91 11.5t52.5 29.5t31.5 53t23 97l160 823q8 44 11.5 69t0 47.5t-11.5 33
t-30 19.5t-47.5 12.5t-71.5 7.5l16 63h573zM383 1659q47 0 72.5 -30.5t25.5 -74.5q0 -56 -36 -96.5t-91 -40.5q-45 0 -73.5 29t-28.5 78q0 50 35.5 92.5t95.5 42.5zM795 1659q47 0 72.5 -30.5t25.5 -74.5q0 -56 -36 -96.5t-91 -40.5q-45 0 -73.5 29t-28.5 78q0 50 35.5 92.5
t95.5 42.5z" />
    <glyph glyph-name="Eth" unicode="&#xd0;" horiz-adv-x="1497" 
d="M268 1329h531q317 0 495.5 -137.5t178.5 -417.5q0 -196 -87.5 -360t-252.5 -267q-129 -79 -286 -113t-362 -34h-467l19 63q62 6 93.5 13t54 29.5t32 52t21.5 92.5l77 401h-211l23 92h205l65 334q8 45 11.5 70.5t0 48t-11 32.5t-29.5 19t-46 12t-70 7zM543 651l-70 -381
q-13 -67 -8 -105t35 -56q40 -27 121 -27q135 0 248 59t187 157.5t115 226t41 266.5q0 223 -106 341.5t-303 118.5q-89 0 -121 -18q-31 -16 -47 -98l-74 -392h299l-20 -92h-297z" />
    <glyph glyph-name="Ntilde" unicode="&#xd1;" horiz-adv-x="1441" 
d="M1577 1329l-14 -63q-89 -4 -124 -32t-55 -97q-35 -116 -81 -351l-154 -804h-90l-592 1056h-4l-98 -503q-43 -214 -50 -336q-3 -72 33.5 -99.5t145.5 -33.5l-17 -66h-485l16 66q79 5 118 31t60 93q44 151 84 347l95 446q21 105 18.5 144t-23.5 75q-18 33 -54.5 46
t-110.5 18l14 63h346l565 -979h6l82 434q44 242 52 349q4 73 -33.5 100t-147.5 33l17 63h481zM1151 1626l59 -37q-65 -184 -174 -184q-46 0 -149 47q-64 27 -94 27q-54 0 -103 -93l-57 48q34 93 80.5 135.5t95.5 42.5q50 0 131 -41q86 -33 113 -33q28 0 50.5 22t47.5 66z
" />
    <glyph glyph-name="Ograve" unicode="&#xd2;" horiz-adv-x="1470" 
d="M887 1360q252 0 405.5 -163.5t153.5 -424.5q0 -220 -95.5 -403t-269.5 -291.5t-391 -108.5q-250 0 -404.5 158.5t-154.5 419.5q0 161 57 309t155.5 259.5t240.5 178t303 66.5zM874 1278q-100 0 -190.5 -67t-153.5 -175t-100 -247t-37 -281q0 -207 77 -333t232 -126
q107 0 200 70.5t153 182.5t94.5 246.5t34.5 266.5q0 137 -30 237.5t-101 163t-179 62.5zM1079 1477l-30 -60l-416 123l-6 23q8 33 41.5 82.5t58.5 60.5q51 -33 170 -110.5t182 -118.5z" />
    <glyph glyph-name="Oacute" unicode="&#xd3;" horiz-adv-x="1470" 
d="M887 1360q252 0 405.5 -163.5t153.5 -424.5q0 -220 -95.5 -403t-269.5 -291.5t-391 -108.5q-250 0 -404.5 158.5t-154.5 419.5q0 161 57 309t155.5 259.5t240.5 178t303 66.5zM874 1278q-100 0 -190.5 -67t-153.5 -175t-100 -247t-37 -281q0 -207 77 -333t232 -126
q107 0 200 70.5t153 182.5t94.5 246.5t34.5 266.5q0 137 -30 237.5t-101 163t-179 62.5zM1194 1561l-8 -21l-414 -123l-31 60q69 44 196.5 126.5t156.5 100.5q25 -6 59.5 -56t40.5 -87z" />
    <glyph glyph-name="Ocircumflex" unicode="&#xd4;" horiz-adv-x="1470" 
d="M887 1360q252 0 405.5 -163.5t153.5 -424.5q0 -220 -95.5 -403t-269.5 -291.5t-391 -108.5q-250 0 -404.5 158.5t-154.5 419.5q0 161 57 309t155.5 259.5t240.5 178t303 66.5zM874 1278q-100 0 -190.5 -67t-153.5 -175t-100 -247t-37 -281q0 -207 77 -333t232 -126
q107 0 200 70.5t153 182.5t94.5 246.5t34.5 266.5q0 137 -30 237.5t-101 163t-179 62.5zM1196 1468l-41 -53q-128 51 -237 115q-139 -70 -271 -115l-31 55q144 93 293 226h64q94 -110 223 -228z" />
    <glyph glyph-name="Otilde" unicode="&#xd5;" horiz-adv-x="1470" 
d="M887 1360q252 0 405.5 -163.5t153.5 -424.5q0 -220 -95.5 -403t-269.5 -291.5t-391 -108.5q-250 0 -404.5 158.5t-154.5 419.5q0 161 57 309t155.5 259.5t240.5 178t303 66.5zM874 1278q-100 0 -190.5 -67t-153.5 -175t-100 -247t-37 -281q0 -207 77 -333t232 -126
q107 0 200 70.5t153 182.5t94.5 246.5t34.5 266.5q0 137 -30 237.5t-101 163t-179 62.5zM1139 1655l59 -35q-33 -97 -78.5 -140.5t-95.5 -43.5q-47 0 -150 47q-61 26 -94 26q-55 0 -100 -92l-59 45q35 94 81.5 137t94.5 41q50 0 133 -38q82 -33 110 -33q30 0 52 21.5
t47 64.5z" />
    <glyph glyph-name="Odieresis" unicode="&#xd6;" horiz-adv-x="1470" 
d="M887 1360q252 0 405.5 -163.5t153.5 -424.5q0 -220 -95.5 -403t-269.5 -291.5t-391 -108.5q-250 0 -404.5 158.5t-154.5 419.5q0 161 57 309t155.5 259.5t240.5 178t303 66.5zM874 1278q-100 0 -190.5 -67t-153.5 -175t-100 -247t-37 -281q0 -207 77 -333t232 -126
q107 0 200 70.5t153 182.5t94.5 246.5t34.5 266.5q0 137 -30 237.5t-101 163t-179 62.5zM733 1677q47 0 72.5 -30t25.5 -74q0 -56 -35.5 -96.5t-90.5 -40.5q-46 0 -74.5 28.5t-28.5 77.5q0 50 35.5 92.5t95.5 42.5zM1147 1677q47 0 72.5 -30t25.5 -74q0 -56 -36 -96.5
t-91 -40.5q-45 0 -73.5 28.5t-28.5 77.5q0 50 35.5 92.5t95.5 42.5z" />
    <glyph glyph-name="multiply" unicode="&#xd7;" horiz-adv-x="1234" 
d="M1098 115l-92 -95l-381 392l-381 -392l-90 95l378 389l-378 387l90 94l381 -387l381 391l92 -92l-381 -393z" />
    <glyph glyph-name="Oslash" unicode="&#xd8;" horiz-adv-x="1468" 
d="M1311 1423l65 -53l-110 -145q85 -78 132.5 -194.5t47.5 -258.5q0 -222 -96 -405t-270.5 -290.5t-391.5 -107.5q-183 0 -313 86l-113 -147l-59 57l106 139q-84 75 -131 193.5t-47 255.5q0 159 57.5 306.5t156.5 258t241.5 176.5t304.5 66q179 0 307 -84zM436 264l668 887
q-31 60 -91.5 94.5t-138.5 34.5q-104 0 -196.5 -66.5t-155 -173.5t-99 -242.5t-36.5 -273.5q0 -160 49 -260zM1145 1069l-666 -885q70 -133 228 -133q107 0 200 68.5t153.5 177.5t95 242t34.5 266q0 163 -45 264z" />
    <glyph glyph-name="Ugrave" unicode="&#xd9;" horiz-adv-x="1447" 
d="M1599 1329l-14 -63q-90 -4 -126.5 -30.5t-57.5 -94.5q-33 -95 -80 -342l-37 -187q-33 -167 -86 -291.5t-145 -211.5q-73 -70 -167.5 -105t-195.5 -35q-212 0 -334 111q-158 148 -92 495l94 494q24 123 1.5 155t-142.5 42l16 63h564l-15 -63q-40 -4 -62 -7.5t-44 -12.5
t-32.5 -20t-21.5 -34t-17.5 -50t-14.5 -73l-94 -496q-33 -170 -4.5 -276t94.5 -153.5t168 -47.5q173 0 280 133t158 406l31 164q46 243 49 346q4 65 -36.5 90t-148.5 31l17 63h495zM1087 1458l-30 -59l-416 123l-6 22q8 33 41.5 83t58.5 61q42 -28 164.5 -107.5
t187.5 -122.5z" />
    <glyph glyph-name="Uacute" unicode="&#xda;" horiz-adv-x="1447" 
d="M1599 1329l-14 -63q-90 -4 -126.5 -30.5t-57.5 -94.5q-33 -95 -80 -342l-37 -187q-33 -167 -86 -291.5t-145 -211.5q-73 -70 -167.5 -105t-195.5 -35q-212 0 -334 111q-158 148 -92 495l94 494q24 123 1.5 155t-142.5 42l16 63h564l-15 -63q-40 -4 -62 -7.5t-44 -12.5
t-32.5 -20t-21.5 -34t-17.5 -50t-14.5 -73l-94 -496q-33 -170 -4.5 -276t94.5 -153.5t168 -47.5q173 0 280 133t158 406l31 164q46 243 49 346q4 65 -36.5 90t-148.5 31l17 63h495zM1247 1542l-8 -20l-414 -123l-30 59q65 41 185 119.5t167 108.5q25 -6 59.5 -56.5
t40.5 -87.5z" />
    <glyph glyph-name="Ucircumflex" unicode="&#xdb;" horiz-adv-x="1447" 
d="M1599 1329l-14 -63q-90 -4 -126.5 -30.5t-57.5 -94.5q-33 -95 -80 -342l-37 -187q-33 -167 -86 -291.5t-145 -211.5q-73 -70 -167.5 -105t-195.5 -35q-212 0 -334 111q-158 148 -92 495l94 494q24 123 1.5 155t-142.5 42l16 63h564l-15 -63q-40 -4 -62 -7.5t-44 -12.5
t-32.5 -20t-21.5 -34t-17.5 -50t-14.5 -73l-94 -496q-33 -170 -4.5 -276t94.5 -153.5t168 -47.5q173 0 280 133t158 406l31 164q46 243 49 346q4 65 -36.5 90t-148.5 31l17 63h495zM1231 1456l-41 -53q-131 52 -238 115q-141 -71 -270 -115l-31 55q148 95 293 225h64
q90 -105 223 -227z" />
    <glyph glyph-name="Udieresis" unicode="&#xdc;" horiz-adv-x="1447" 
d="M1599 1329l-14 -63q-90 -4 -126.5 -30.5t-57.5 -94.5q-33 -95 -80 -342l-37 -187q-33 -167 -86 -291.5t-145 -211.5q-73 -70 -167.5 -105t-195.5 -35q-212 0 -334 111q-158 148 -92 495l94 494q24 123 1.5 155t-142.5 42l16 63h564l-15 -63q-40 -4 -62 -7.5t-44 -12.5
t-32.5 -20t-21.5 -34t-17.5 -50t-14.5 -73l-94 -496q-33 -170 -4.5 -276t94.5 -153.5t168 -47.5q173 0 280 133t158 406l31 164q46 243 49 346q4 65 -36.5 90t-148.5 31l17 63h495zM758 1659q47 0 72.5 -30.5t25.5 -74.5q0 -56 -36 -96.5t-91 -40.5q-45 0 -73.5 29t-28.5 78
q0 50 35.5 92.5t95.5 42.5zM1171 1659q47 0 73 -30.5t26 -74.5q0 -56 -36 -96.5t-91 -40.5q-45 0 -74 29t-29 78q0 50 35.5 92.5t95.5 42.5z" />
    <glyph glyph-name="Yacute" unicode="&#xdd;" horiz-adv-x="1282" 
d="M1434 1329l-19 -65q-97 -10 -139.5 -37t-124.5 -129t-311 -441q-42 -57 -54 -120l-55 -271q-9 -46 -13 -73.5t0 -51t13.5 -35.5t33 -21.5t52 -13.5t76.5 -8l-16 -63h-611l17 63q66 5 98.5 11.5t58 30.5t36.5 57.5t26 103.5l51 252q8 37 6 66t-16 69q-32 95 -156 449
q-27 73 -46.5 102t-48.5 42t-95 20l16 63h516l-18 -63l-60 -13q-48 -7 -57 -27t8 -67q65 -200 162 -467q190 273 299 457q32 56 22.5 75.5t-71.5 30.5l-51 9l18 65h453zM1155 1540l-8 -20l-414 -123l-31 59q69 44 196.5 126.5t156.5 100.5q25 -6 59.5 -56t40.5 -87z" />
    <glyph glyph-name="Thorn" unicode="&#xde;" horiz-adv-x="1165" 
d="M600 1030h139q90 0 162 -16t132 -52t93 -101t33 -156q0 -121 -68 -213.5t-177 -140.5t-240 -52q-28 -2 -74 6l-133 33l-21 -102q-8 -38 -10.5 -61t1.5 -43.5t14 -30.5t33 -18.5t53 -12.5t79 -7l-14 -63h-590l15 63q49 4 75.5 9.5t48.5 14.5t33 30t19 46t18 73l164 851
q23 109 1.5 139t-136.5 40l16 63h549l-16 -63q-43 -4 -66 -7t-45.5 -15t-31.5 -22t-21 -41.5t-18 -60.5t-17 -90zM567 860l-84 -446q73 -25 135 -25q118 0 204.5 91t86.5 239q0 113 -58.5 174t-174.5 61q-56 0 -78 -16q-17 -9 -31 -78z" />
    <glyph glyph-name="germandbls" unicode="&#xdf;" horiz-adv-x="1089" 
d="M154 891h118q53 281 242 438q66 55 149 90t166 35q133 0 207 -71t74 -187q0 -76 -33 -117q-125 -89 -174 -158t-49 -133q0 -60 72 -182q48 -79 69 -135t21 -117q0 -77 -44 -150t-108 -121.5t-135.5 -78t-128.5 -29.5q-67 0 -121.5 34.5t-54.5 80.5q0 49 51 88
q28 20 53 -2q101 -84 185 -84q54 0 89.5 35.5t35.5 89.5q0 73 -80 211q-7 12 -25 41.5t-26 43t-21 39.5t-19 43.5t-11 41t-5 45.5q0 69 60 151t190 191q23 51 23 119q0 104 -44 165.5t-114 61.5q-47 0 -86 -23.5t-66 -65t-49 -96.5t-37 -118t-27.5 -129t-22.5 -129l-1.5 -12
t-1.5 -10t-2 -11q-76 -457 -80 -479q-87 -491 -297 -686q-63 -60 -126 -92.5t-107 -32.5q-46 0 -84.5 26.5t-38.5 63.5q0 23 17.5 51t39.5 47q29 26 51 9q68 -54 132 -54q49 0 75 47q45 82 101 449q20 135 52.5 353t47.5 319h-156l-10 24z" />
    <glyph glyph-name="agrave" unicode="&#xe0;" horiz-adv-x="1042" 
d="M977 260l31 -53q-89 -108 -187.5 -170t-152.5 -62q-19 0 -32 7.5t-23 28t-9 63t14 104.5l29 139h-6q-95 -134 -223 -241q-120 -101 -209 -101q-57 0 -96 64t-39 180q0 149 63.5 295t169.5 238q80 71 194.5 122.5t223.5 51.5q45 0 129 -15q61 -12 104 -12l11 -8
q-88 -362 -138 -649q-15 -84 5 -84q14 0 58.5 32t82.5 70zM354 141q35 0 104 64.5t130 144t84 129.5q47 164 71 322q-50 26 -122 26q-68 0 -111 -32q-94 -68 -149.5 -225t-55.5 -308q0 -121 49 -121zM768 1024l-70 -23q-178 304 -200 340l8 27q22 8 90.5 19t97.5 8
q8 -41 34.5 -171.5t39.5 -199.5z" />
    <glyph glyph-name="aacute" unicode="&#xe1;" horiz-adv-x="1042" 
d="M977 260l31 -53q-89 -108 -187.5 -170t-152.5 -62q-19 0 -32 7.5t-23 28t-9 63t14 104.5l29 139h-6q-95 -134 -223 -241q-120 -101 -209 -101q-57 0 -96 64t-39 180q0 149 63.5 295t169.5 238q80 71 194.5 122.5t223.5 51.5q45 0 129 -15q61 -12 104 -12l11 -8
q-88 -362 -138 -649q-15 -84 5 -84q14 0 58.5 32t82.5 70zM354 141q35 0 104 64.5t130 144t84 129.5q47 164 71 322q-50 26 -122 26q-68 0 -111 -32q-94 -68 -149.5 -225t-55.5 -308q0 -121 49 -121zM973 1354l-340 -350l-58 36q98 173 181 336q26 6 102.5 10t106.5 0z" />
    <glyph glyph-name="acircumflex" unicode="&#xe2;" horiz-adv-x="1042" 
d="M977 260l31 -53q-89 -108 -187.5 -170t-152.5 -62q-19 0 -32 7.5t-23 28t-9 63t14 104.5l29 139h-6q-95 -134 -223 -241q-120 -101 -209 -101q-57 0 -96 64t-39 180q0 149 63.5 295t169.5 238q80 71 194.5 122.5t223.5 51.5q45 0 129 -15q61 -12 104 -12l11 -8
q-88 -362 -138 -649q-15 -84 5 -84q14 0 58.5 32t82.5 70zM354 141q35 0 104 64.5t130 144t84 129.5q47 164 71 322q-50 26 -122 26q-68 0 -111 -32q-94 -68 -149.5 -225t-55.5 -308q0 -121 49 -121zM893 1047l-57 -46q-57 57 -152 183q-174 -147 -225 -183l-49 50
q197 223 272 329h61q43 -122 150 -333z" />
    <glyph glyph-name="atilde" unicode="&#xe3;" horiz-adv-x="1042" 
d="M977 260l31 -53q-89 -108 -187.5 -170t-152.5 -62q-19 0 -32 7.5t-23 28t-9 63t14 104.5l29 139h-6q-95 -134 -223 -241q-120 -101 -209 -101q-57 0 -96 64t-39 180q0 149 63.5 295t169.5 238q80 71 194.5 122.5t223.5 51.5q45 0 129 -15q61 -12 104 -12l11 -8
q-88 -362 -138 -649q-15 -84 5 -84q14 0 58.5 32t82.5 70zM354 141q35 0 104 64.5t130 144t84 129.5q47 164 71 322q-50 26 -122 26q-68 0 -111 -32q-94 -68 -149.5 -225t-55.5 -308q0 -121 49 -121zM889 1284l61 -29q-66 -196 -178 -196q-9 0 -18.5 1t-20.5 4t-17.5 5
t-21 8t-18.5 7.5t-22 10t-21 9.5q-60 29 -94 29q-49 0 -99 -93l-57 41q34 94 81.5 141.5t96.5 47.5q40 0 125 -39q80 -37 109 -37q27 0 48.5 23.5t45.5 66.5z" />
    <glyph glyph-name="adieresis" unicode="&#xe4;" horiz-adv-x="1042" 
d="M977 260l31 -53q-89 -108 -187.5 -170t-152.5 -62q-19 0 -32 7.5t-23 28t-9 63t14 104.5l29 139h-6q-95 -134 -223 -241q-120 -101 -209 -101q-57 0 -96 64t-39 180q0 149 63.5 295t169.5 238q80 71 194.5 122.5t223.5 51.5q45 0 129 -15q61 -12 104 -12l11 -8
q-88 -362 -138 -649q-15 -84 5 -84q14 0 58.5 32t82.5 70zM354 141q35 0 104 64.5t130 144t84 129.5q47 164 71 322q-50 26 -122 26q-68 0 -111 -32q-94 -68 -149.5 -225t-55.5 -308q0 -121 49 -121zM512 1309q47 0 72.5 -30.5t25.5 -74.5q0 -57 -35.5 -97t-91.5 -40
q-45 0 -73.5 29t-28.5 78t35.5 92t95.5 43zM897 1309q47 0 72.5 -30.5t25.5 -74.5q0 -57 -35.5 -97t-91.5 -40q-45 0 -73.5 29t-28.5 78t35.5 92t95.5 43z" />
    <glyph glyph-name="aring" unicode="&#xe5;" horiz-adv-x="1042" 
d="M977 260l31 -53q-89 -108 -187.5 -170t-152.5 -62q-19 0 -32 7.5t-23 28t-9 63t14 104.5l29 139h-6q-95 -134 -223 -241q-120 -101 -209 -101q-57 0 -96 64t-39 180q0 149 63.5 295t169.5 238q80 71 194.5 122.5t223.5 51.5q45 0 129 -15q61 -12 104 -12l11 -8
q-88 -362 -138 -649q-15 -84 5 -84q14 0 58.5 32t82.5 70zM354 141q35 0 104 64.5t130 144t84 129.5q47 164 71 322q-50 26 -122 26q-68 0 -111 -32q-94 -68 -149.5 -225t-55.5 -308q0 -121 49 -121zM700 1370q74 0 126 -49t51 -131q-3 -83 -66 -136t-145 -53q-78 0 -129 49
t-48 126q3 86 65.5 140t145.5 54zM692 1292q-39 0 -68 -32.5t-30 -79.5q-2 -44 20 -72.5t60 -28.5q41 0 69 32.5t31 80.5q2 42 -20.5 71t-61.5 29z" />
    <glyph glyph-name="ae" unicode="&#xe6;" horiz-adv-x="1390" 
d="M1298 279l37 -56q-229 -248 -471 -248q-42 0 -80 13t-73.5 43t-57 87t-22.5 136q0 24 2 47l-4 2q-85 -122 -207 -221q-133 -107 -223 -107q-54 0 -92.5 58t-38.5 176q0 155 62.5 305t162.5 240q76 70 194 122t218 52q38 0 106 -19q47 0 88 9l8 -11l-26 -108l4 -4
q67 63 151.5 98t157.5 35q90 0 141 -48t51 -122q0 -232 -540 -373q-2 -10 -2 -59q0 -203 153 -203q145 0 301 156zM612 834q-64 0 -106 -29q-75 -51 -135 -199q-72 -174 -72 -352q0 -52 12.5 -81.5t34.5 -29.5q60 0 152 103q112 128 157 231q18 42 45.5 161.5t30.5 162.5
q-51 33 -119 33zM1100 831q-45 0 -88 -32q-49 -36 -93.5 -119.5t-64.5 -218.5q178 54 254 119.5t76 152.5q0 46 -23 72t-61 26z" />
    <glyph glyph-name="ccedilla" unicode="&#xe7;" horiz-adv-x="800" 
d="M707 260l34 -51q-68 -79 -151 -134.5t-158 -78.5l-43 -51q-20 -26 -18 -42t26 -48q65 -80 62 -142q-3 -64 -77.5 -121t-193.5 -92l-24 60q142 63 145 121q2 32 -41 81q-33 39 -34 67t32 69l64 77v2q-120 -7 -186 72t-66 225q0 134 58.5 272.5t162.5 229.5
q72 63 170.5 106.5t181.5 43.5q68 0 120 -33t52 -78q0 -55 -69 -106q-45 -36 -72 4q-74 108 -154 108q-79 0 -131 -102q-38 -73 -63 -179t-25 -206q0 -213 135 -213q113 0 263 139z" />
    <glyph glyph-name="egrave" unicode="&#xe8;" horiz-adv-x="843" 
d="M750 276l36 -55q-236 -246 -462 -246q-46 0 -86.5 14t-77.5 46.5t-58.5 94.5t-21.5 149q0 149 64 291t178 231q67 52 154.5 88.5t160.5 36.5q95 0 148 -49.5t53 -122.5q0 -228 -531 -367q-2 -23 -2 -57q0 -89 35.5 -148t112.5 -59q63 0 144 41t153 112zM553 836
q-37 0 -70 -23q-48 -30 -98.5 -120t-69.5 -232q176 52 250 116.5t74 147.5q0 54 -26.5 82.5t-59.5 28.5zM662 1024l-70 -20q-146 250 -201 337l8 27q20 9 89.5 20.5t99.5 8.5q7 -35 34 -169t40 -204z" />
    <glyph glyph-name="eacute" unicode="&#xe9;" horiz-adv-x="843" 
d="M750 276l36 -55q-236 -246 -462 -246q-46 0 -86.5 14t-77.5 46.5t-58.5 94.5t-21.5 149q0 149 64 291t178 231q67 52 154.5 88.5t160.5 36.5q95 0 148 -49.5t53 -122.5q0 -228 -531 -367q-2 -23 -2 -57q0 -89 35.5 -148t112.5 -59q63 0 144 41t153 112zM553 836
q-37 0 -70 -23q-48 -30 -98.5 -120t-69.5 -232q176 52 250 116.5t74 147.5q0 54 -26.5 82.5t-59.5 28.5zM881 1354l-340 -350l-58 38q93 161 181 334q26 6 102 10t106 0z" />
    <glyph glyph-name="ecircumflex" unicode="&#xea;" horiz-adv-x="843" 
d="M750 276l36 -55q-236 -246 -462 -246q-46 0 -86.5 14t-77.5 46.5t-58.5 94.5t-21.5 149q0 149 64 291t178 231q67 52 154.5 88.5t160.5 36.5q95 0 148 -49.5t53 -122.5q0 -228 -531 -367q-2 -23 -2 -57q0 -89 35.5 -148t112.5 -59q63 0 144 41t153 112zM553 836
q-37 0 -70 -23q-48 -30 -98.5 -120t-69.5 -232q176 52 250 116.5t74 147.5q0 54 -26.5 82.5t-59.5 28.5zM801 1047l-58 -46q-53 53 -151 183q-174 -147 -225 -183l-50 50q6 7 35.5 40.5t38 43t34 38.5t36.5 42.5t32.5 39t35 43t30 39.5t31.5 43h61q43 -122 150 -333z" />
    <glyph glyph-name="edieresis" unicode="&#xeb;" horiz-adv-x="843" 
d="M748 276l36 -55q-233 -246 -460 -246q-46 0 -86.5 14t-77.5 46.5t-58.5 94.5t-21.5 149q0 149 63 291t176 231q69 53 156.5 89t161.5 36q95 0 148 -49.5t53 -122.5q0 -43 -19.5 -83.5t-50 -71.5t-76.5 -60.5t-91 -50.5t-101.5 -41.5t-99.5 -33.5t-93 -26q-2 -23 -2 -57
q0 -89 35 -148t111 -59q63 0 144 41t153 112zM551 836q-37 0 -70 -23q-48 -30 -98.5 -120t-69.5 -232q176 52 251 116.5t75 147.5q0 54 -27 82.5t-61 28.5zM418 1309q47 0 71.5 -30t24.5 -75q0 -57 -35 -97t-92 -40q-45 0 -72.5 29t-27.5 78t35.5 92t95.5 43zM803 1309
q47 0 72.5 -30.5t25.5 -74.5q0 -57 -35.5 -97t-91.5 -40q-45 0 -73.5 29t-28.5 78t35.5 92t95.5 43z" />
    <glyph glyph-name="igrave" unicode="&#xec;" horiz-adv-x="591" 
d="M504 242l33 -49q-85 -93 -186 -155.5t-154 -62.5q-103 0 -50 213l115 482q12 59 0 71q-14 0 -53 -23t-78 -54l-29 53q100 93 200 151t153 58q36 0 45 -50t-13 -139l-125 -506q-16 -75 7 -75q31 0 135 86zM494 1022l-70 -21q-156 267 -201 340l8 27q27 9 94 20t97 7
q11 -65 37 -195.5t35 -177.5z" />
    <glyph glyph-name="iacute" unicode="&#xed;" horiz-adv-x="591" 
d="M504 242l33 -49q-85 -93 -186 -155.5t-154 -62.5q-103 0 -50 213l115 482q12 59 0 71q-14 0 -53 -23t-78 -54l-29 53q100 93 200 151t153 58q36 0 45 -50t-13 -139l-125 -506q-16 -75 7 -75q31 0 135 86zM729 1352l-340 -351l-57 39q98 173 180 334q25 8 102.5 12
t106.5 0z" />
    <glyph glyph-name="icircumflex" unicode="&#xee;" horiz-adv-x="591" 
d="M504 242l33 -49q-85 -93 -186 -155.5t-154 -62.5q-103 0 -50 213l115 482q12 59 0 71q-14 0 -53 -23t-78 -54l-29 53q100 93 200 151t153 58q36 0 45 -50t-13 -139l-125 -506q-16 -75 7 -75q31 0 135 86zM637 1044l-57 -45q-45 45 -154 183q-155 -135 -223 -183l-49 50
q197 223 272 329h61q47 -130 150 -334z" />
    <glyph glyph-name="idieresis" unicode="&#xef;" horiz-adv-x="591" 
d="M504 242l33 -49q-84 -93 -185.5 -155.5t-152.5 -62.5q-105 0 -52 213l115 482q12 59 0 71q-14 0 -53 -23t-78 -54l-29 53q100 93 200 151t153 58q36 0 45 -50t-13 -139l-125 -506q-16 -75 7 -75q31 0 135 86zM270 1309q47 0 73 -30.5t26 -74.5q0 -57 -35.5 -97t-91.5 -40
q-45 0 -74 28.5t-29 75.5q0 50 35.5 94t95.5 44zM657 1309q47 0 73 -30.5t26 -74.5q0 -57 -36 -97t-93 -40q-45 0 -74 28.5t-29 75.5q0 50 36.5 94t96.5 44z" />
    <glyph glyph-name="eth" unicode="&#xf0;" horiz-adv-x="983" 
d="M995 1317l-227 -119q83 -104 128.5 -238.5t45.5 -265.5q0 -181 -58.5 -333.5t-164.5 -247.5q-70 -63 -161 -100.5t-177 -37.5q-78 0 -136 29t-90.5 78.5t-47.5 105.5t-15 119q0 98 25.5 187.5t68.5 157t95 117.5t110 81q133 74 246 74q22 0 76 -13q-1 39 -24.5 102.5
t-53.5 114.5l-287 -145l-31 70l269 137q-41 58 -118 115.5t-136 78.5q12 41 33 62q73 -12 173.5 -66.5t170.5 -122.5l252 129zM457 63q26 0 55 11q33 14 68 61t67.5 121t52.5 187.5t19 242.5q0 84 -33 117q-42 39 -100 39q-38 0 -82 -23q-25 -12 -53.5 -48.5t-58 -96.5
t-49 -156t-19.5 -207q0 -112 35.5 -180t97.5 -68z" />
    <glyph glyph-name="ntilde" unicode="&#xf1;" horiz-adv-x="1112" 
d="M1020 244l31 -58q-99 -105 -186 -158t-142 -53q-102 0 -49 218q14 56 100 436q13 53 14.5 82.5t-5 39.5t-21.5 11q-53 0 -174 -128.5t-187 -242.5q-49 -192 -84 -373q-107 -12 -202 -41l-15 17q102 411 158 676q18 80 -2 80q-13 0 -56 -27.5t-75 -58.5l-27 57
q94 96 183 150.5t143 54.5q89 0 33 -248l-31 -129h4q145 198 326 319q89 58 157 58q21 0 36.5 -6t29.5 -25t19 -51.5t0 -90t-23 -135.5q-57 -248 -90 -389q-17 -71 6 -71q14 0 53 25.5t76 60.5zM899 1286l59 -31q-66 -198 -176 -198q-14 0 -27 2.5t-28.5 8t-25 9.5
t-29.5 13.5t-29 13.5q-60 29 -94 29q-51 0 -98 -93l-58 41q32 94 79.5 141.5t96.5 47.5q46 0 125 -39q80 -37 111 -37q27 0 47.5 23t46.5 69z" />
    <glyph glyph-name="ograve" unicode="&#xf2;" horiz-adv-x="991" 
d="M381 -25q-81 0 -141 28.5t-92 77.5t-47 104.5t-15 119.5q0 189 88.5 334t218.5 213q132 74 252 74q140 0 216.5 -87t76.5 -237q0 -140 -56.5 -273.5t-162.5 -222.5q-68 -59 -158 -95t-180 -36zM459 63q24 0 57 11q72 30 131.5 181.5t59.5 350.5q0 116 -38 175t-100 59
q-30 0 -59 -13q-26 -13 -57 -51t-62.5 -100.5t-52.5 -162.5t-21 -216q0 -111 40.5 -172.5t101.5 -61.5zM711 1024l-70 -20q-146 250 -201 337l9 27q20 9 89 20.5t99 8.5q7 -35 34 -169t40 -204z" />
    <glyph glyph-name="oacute" unicode="&#xf3;" horiz-adv-x="991" 
d="M381 -25q-81 0 -141 28.5t-92 77.5t-47 104.5t-15 119.5q0 189 88.5 334t218.5 213q132 74 252 74q140 0 216.5 -87t76.5 -237q0 -140 -56.5 -273.5t-162.5 -222.5q-68 -59 -158 -95t-180 -36zM459 63q24 0 57 11q72 30 131.5 181.5t59.5 350.5q0 116 -38 175t-100 59
q-30 0 -59 -13q-26 -13 -57 -51t-62.5 -100.5t-52.5 -162.5t-21 -216q0 -111 40.5 -172.5t101.5 -61.5zM907 1354l-340 -350l-57 38q85 147 180 334q26 6 102.5 10t106.5 0z" />
    <glyph glyph-name="ocircumflex" unicode="&#xf4;" horiz-adv-x="991" 
d="M381 -25q-81 0 -141 28.5t-92 77.5t-47 104.5t-15 119.5q0 189 88.5 334t218.5 213q132 74 252 74q140 0 216.5 -87t76.5 -237q0 -140 -56.5 -273.5t-162.5 -222.5q-68 -59 -158 -95t-180 -36zM459 63q24 0 57 11q72 30 131.5 181.5t59.5 350.5q0 116 -38 175t-100 59
q-30 0 -59 -13q-26 -13 -57 -51t-62.5 -100.5t-52.5 -162.5t-21 -216q0 -111 40.5 -172.5t101.5 -61.5zM858 1047l-57 -46q-57 57 -152 183q-174 -147 -225 -183l-49 50q197 223 272 329h62q46 -128 149 -333z" />
    <glyph glyph-name="otilde" unicode="&#xf5;" horiz-adv-x="991" 
d="M381 -25q-81 0 -141 28.5t-92 77.5t-47 104.5t-15 119.5q0 189 88.5 334t218.5 213q132 74 252 74q140 0 216.5 -87t76.5 -237q0 -140 -56.5 -273.5t-162.5 -222.5q-68 -59 -158 -95t-180 -36zM459 63q24 0 57 11q72 30 131.5 181.5t59.5 350.5q0 116 -38 175t-100 59
q-30 0 -59 -13q-26 -13 -57 -51t-62.5 -100.5t-52.5 -162.5t-21 -216q0 -111 40.5 -172.5t101.5 -61.5zM856 1286l62 -31q-66 -198 -179 -198q-13 0 -25.5 2t-29 8t-25.5 10t-30.5 14t-28.5 13q-53 26 -94 26q-50 0 -100 -90l-58 41q34 94 81.5 141.5t96.5 47.5
q40 0 125 -39q84 -35 111 -35t49 23t45 67z" />
    <glyph glyph-name="odieresis" unicode="&#xf6;" horiz-adv-x="991" 
d="M381 -25q-81 0 -141 28.5t-92 77.5t-47 104.5t-15 119.5q0 189 88.5 334t218.5 213q135 74 254 74q139 0 215 -87t76 -237q0 -139 -56 -273t-161 -223q-70 -59 -160.5 -95t-179.5 -36zM461 63q22 0 55 11q72 30 131.5 181.5t59.5 350.5q0 116 -38 175t-98 59
q-32 0 -61 -13q-26 -13 -57 -51t-62.5 -100.5t-52.5 -162.5t-21 -216q0 -111 40.5 -172.5t103.5 -61.5zM469 1309q47 0 72.5 -30.5t25.5 -74.5q0 -57 -35.5 -97t-91.5 -40q-45 0 -73.5 29t-28.5 78t35.5 92t95.5 43zM854 1309q47 0 72.5 -30.5t25.5 -74.5q0 -57 -35.5 -97
t-91.5 -40q-45 0 -73.5 29t-28.5 78t35.5 92t95.5 43z" />
    <glyph glyph-name="divide" unicode="&#xf7;" horiz-adv-x="1234" 
d="M641 719q-42 0 -76.5 35t-34.5 80t35 80.5t78 35.5q49 0 83 -34.5t34 -81.5t-34.5 -81t-84.5 -34zM1137 461h-992v121h992v-121zM643 324q42 0 77.5 -34.5t35.5 -80.5q0 -45 -36 -81t-79 -36q-48 0 -81.5 35t-33.5 82q0 48 33.5 81.5t83.5 33.5z" />
    <glyph glyph-name="oslash" unicode="&#xf8;" horiz-adv-x="993" 
d="M877 993l51 -41l-74 -102q86 -83 86 -260q0 -131 -56.5 -262.5t-156.5 -216.5q-65 -57 -160.5 -96.5t-183.5 -39.5q-97 0 -156 39l-82 -106l-47 47l74 98q-84 90 -84 258q0 186 85.5 328.5t211.5 212.5q142 76 262 76q90 0 152 -37zM315 238l379 512q-35 92 -114 92
q-37 0 -66 -13q-29 -12 -62.5 -47t-68 -93t-57.5 -152.5t-23 -206.5q0 -48 12 -92zM719 668l-381 -510q39 -92 115 -92q37 0 59 10q34 13 71 56.5t69 109t53 160t20 196.5q0 40 -6 70z" />
    <glyph glyph-name="ugrave" unicode="&#xf9;" horiz-adv-x="1107" 
d="M1028 252l31 -55q-93 -106 -184 -164t-148 -58q-96 0 -47 211q22 95 31 148h-2q-159 -209 -320 -309q-74 -50 -149 -50q-142 0 -76 285q18 72 49.5 209t46.5 199q9 46 8 62t-10 22q-20 0 -131 -88l-25 57q94 91 188 148t148 57q42 0 50.5 -42.5t-15.5 -156.5
q-41 -187 -104 -451q-27 -131 20 -131q46 0 121 68t135.5 147t91.5 136q41 166 84 374l195 56h26q-99 -392 -153 -682q-5 -26 -6.5 -42.5t-1 -26t3.5 -13.5t8 -4q13 0 56 29t79 65zM748 1022l-70 -21q-113 193 -203 340l8 27q26 8 94.5 19.5t98.5 7.5q11 -65 37 -195.5
t35 -177.5z" />
    <glyph glyph-name="uacute" unicode="&#xfa;" horiz-adv-x="1107" 
d="M1028 252l31 -55q-93 -106 -184 -164t-148 -58q-96 0 -47 211q22 95 31 148h-2q-159 -209 -320 -309q-74 -50 -149 -50q-142 0 -76 285q18 72 49.5 209t46.5 199q9 46 8 62t-10 22q-20 0 -131 -88l-25 57q94 91 188 148t148 57q42 0 50.5 -42.5t-15.5 -156.5
q-41 -187 -104 -451q-27 -131 20 -131q46 0 121 68t135.5 147t91.5 136q41 166 84 374l195 56h26q-99 -392 -153 -682q-5 -26 -6.5 -42.5t-1 -26t3.5 -13.5t8 -4q13 0 56 29t79 65zM985 1352l-340 -351l-57 39q84 142 182 334q25 8 101.5 12t105.5 0z" />
    <glyph glyph-name="ucircumflex" unicode="&#xfb;" horiz-adv-x="1107" 
d="M1028 252l31 -55q-93 -106 -184 -164t-148 -58q-96 0 -47 211q22 95 31 148h-2q-159 -209 -320 -309q-74 -50 -149 -50q-142 0 -76 285q18 72 49.5 209t46.5 199q9 46 8 62t-10 22q-20 0 -131 -88l-25 57q94 91 188 148t148 57q42 0 50.5 -42.5t-15.5 -156.5
q-41 -187 -104 -451q-27 -131 20 -131q46 0 121 68t135.5 147t91.5 136q41 166 84 374l195 56h26q-99 -392 -153 -682q-5 -26 -6.5 -42.5t-1 -26t3.5 -13.5t8 -4q13 0 56 29t79 65zM915 1044l-57 -45q-53 53 -151 183q-142 -123 -226 -183l-49 50q6 7 35.5 40.5t38 43
t34 38.5t36.5 42.5t32.5 39t35 43t30 39.5t31.5 43h61q58 -159 149 -334z" />
    <glyph glyph-name="udieresis" unicode="&#xfc;" horiz-adv-x="1107" 
d="M1030 252l31 -55q-94 -106 -185.5 -164t-148.5 -58q-96 0 -47 211q22 95 31 148h-2q-159 -209 -320 -309q-74 -50 -149 -50q-142 0 -76 285q18 72 49.5 209t46.5 199q9 46 8 62t-10 22q-20 0 -131 -88l-25 57q94 91 187.5 148t146.5 57q44 0 53.5 -42.5t-16.5 -156.5
q-14 -59 -49 -214t-55 -237q-27 -131 20 -131q46 0 121 68t135.5 147t91.5 136q41 166 84 374l197 56h26q-97 -386 -155 -682q-9 -51 -7.5 -68.5t13.5 -17.5q13 0 56 29t79 65zM528 1309q45 0 71 -30.5t26 -74.5q0 -57 -36 -97t-93 -40q-45 0 -74 29t-29 78q0 50 36 92.5
t99 42.5zM913 1309q45 0 71 -30.5t26 -74.5q0 -57 -36 -97t-93 -40q-45 0 -73 29t-28 78q0 50 36 92.5t97 42.5z" />
    <glyph glyph-name="yacute" unicode="&#xfd;" horiz-adv-x="940" 
d="M537 182h4q50 75 82 126t74 127t63.5 141t21.5 116q-1 14 -2.5 26.5t-5.5 25.5t-6 18.5t-7.5 19.5t-6.5 15q-9 35 6 65q15 28 43.5 46t58.5 18q39 0 68.5 -34.5t30.5 -94.5q0 -93 -78 -226q-121 -204 -346 -522q-222 -316 -379 -495l-250 -62l-17 51q298 195 463 412
q1 120 -20.5 330t-48.5 354q-18 104 -43 104q-12 0 -43.5 -29t-69.5 -81l-41 53q64 101 140.5 170.5t136.5 69.5q51 0 81.5 -61t47.5 -203q29 -231 43 -480zM926 1352l-342 -351l-58 39q127 223 183 334q25 8 101.5 12t107.5 0z" />
    <glyph glyph-name="thorn" unicode="&#xfe;" horiz-adv-x="1030" 
d="M408 641h4q120 145 233 215t193 70q67 0 111 -63t44 -181q0 -173 -83 -337t-220 -259q-76 -53 -164 -82t-123 -29q-55 0 -120 25q-17 -99 -45 -250q-15 -93 3.5 -124t102.5 -38l45 -4l-4 -63l-543 -25l6 66q53 8 78.5 16t47.5 30t33 54.5t24 95.5q194 977 276 1405
q18 101 2.5 125t-96.5 27h-39l10 61q76 8 159 27t137.5 34.5t66.5 16.5q29 0 16 -63zM696 774q-48 0 -132.5 -68t-174.5 -202q-46 -218 -76 -373q23 -23 62.5 -41t75.5 -18q66 0 108 30q75 49 139 209.5t64 331.5q0 65 -18.5 98t-47.5 33z" />
    <glyph glyph-name="ydieresis" unicode="&#xff;" horiz-adv-x="940" 
d="M537 182h4q50 75 82 126t74 127t63.5 141t21.5 116q-1 14 -2.5 26.5t-5.5 25.5t-6 18.5t-7.5 19.5t-6.5 15q-9 35 6 65q15 28 43.5 46t58.5 18q39 0 68.5 -34.5t30.5 -94.5q0 -93 -78 -226q-121 -204 -346 -522q-222 -316 -379 -495l-250 -62l-17 51q298 195 463 412
q1 120 -20.5 330t-48.5 354q-18 104 -43 104q-12 0 -43.5 -29t-69.5 -81l-41 53q64 101 140.5 170.5t136.5 69.5q51 0 81.5 -61t47.5 -201q29 -235 43 -482zM451 1309q47 0 72.5 -30.5t25.5 -74.5q0 -57 -35.5 -97t-91.5 -40q-45 0 -74 29t-29 78q0 48 36 91.5t96 43.5z
M838 1309q47 0 72.5 -30.5t25.5 -74.5q0 -57 -35.5 -97t-91.5 -40q-45 0 -73.5 29t-28.5 78t35.5 92t95.5 43z" />
    <glyph glyph-name="Amacron" unicode="&#x100;" horiz-adv-x="1370" 
d="M1284 63l-16 -63h-531l19 63q94 10 115.5 36t11.5 100q-22 138 -39 256h-406q-19 -38 -123 -250q-40 -75 -20 -102t135 -40l-16 -63h-453l16 63q42 7 65 13.5t46.5 18.5t44 37t43 59t57.5 94l601 1050l90 23l45 -281q23 -146 69.5 -418.5t65.5 -390.5q8 -47 13 -73
t14.5 -51t19.5 -36t30 -21.5t42.5 -15t60.5 -8.5zM829 553l-71 483h-6q-26 -49 -120.5 -219t-142.5 -264h340zM1151 1585l-33 -127h-477l35 127h475z" />
    <glyph glyph-name="amacron" unicode="&#x101;" horiz-adv-x="1042" 
d="M977 260l31 -53q-89 -108 -187.5 -170t-152.5 -62q-19 0 -32 7.5t-23 28t-9 63t14 104.5l29 139h-6q-95 -134 -223 -241q-120 -101 -209 -101q-57 0 -96 64t-39 180q0 149 63.5 295t169.5 238q80 71 194.5 122.5t223.5 51.5q45 0 129 -15q61 -12 104 -12l11 -8
q-88 -362 -138 -649q-15 -84 5 -84q14 0 58.5 32t82.5 70zM354 141q35 0 104 64.5t130 144t84 129.5q47 164 71 322q-50 26 -122 26q-68 0 -111 -32q-94 -68 -149.5 -225t-55.5 -308q0 -121 49 -121zM932 1231l-31 -129h-475l31 129h475z" />
    <glyph glyph-name="Abreve" unicode="&#x102;" horiz-adv-x="1370" 
d="M1284 63l-16 -63h-531l19 63q94 10 115.5 36t11.5 100q-22 138 -39 256h-406q-19 -38 -123 -250q-40 -75 -20 -102t135 -40l-16 -63h-453l16 63q42 7 65 13.5t46.5 18.5t44 37t43 59t57.5 94l601 1050l90 23l45 -281q23 -146 69.5 -418.5t65.5 -390.5q8 -47 13 -73
t14.5 -51t19.5 -36t30 -21.5t42.5 -15t60.5 -8.5zM829 553l-71 483h-6q-26 -49 -120.5 -219t-142.5 -264h340zM1096 1671h69q-24 -126 -95.5 -193t-188.5 -67q-112 0 -166.5 67.5t-42.5 192.5h69q8 -52 46.5 -85.5t111.5 -33.5q131 0 197 119z" />
    <glyph glyph-name="abreve" unicode="&#x103;" horiz-adv-x="1042" 
d="M977 260l31 -53q-89 -108 -187.5 -170t-152.5 -62q-19 0 -32 7.5t-23 28t-9 63t14 104.5l29 139h-6q-95 -134 -223 -241q-120 -101 -209 -101q-57 0 -96 64t-39 180q0 149 63.5 295t169.5 238q80 71 194.5 122.5t223.5 51.5q45 0 129 -15q61 -12 104 -12l11 -8
q-88 -362 -138 -649q-15 -84 5 -84q14 0 58.5 32t82.5 70zM354 141q35 0 104 64.5t130 144t84 129.5q47 164 71 322q-50 26 -122 26q-68 0 -111 -32q-94 -68 -149.5 -225t-55.5 -308q0 -121 49 -121zM868 1317h68q-13 -79 -41 -136t-67 -88t-81.5 -45t-91.5 -14
q-48 0 -86 13.5t-68.5 46.5t-38.5 87.5t3 135.5h70q0 -67 36.5 -104t104.5 -37q66 0 116 36.5t76 104.5z" />
    <glyph glyph-name="Aogonek" unicode="&#x104;" horiz-adv-x="1370" 
d="M1282 63l-16 -63h-357q-83 -68 -128.5 -147t-45.5 -146q0 -34 24.5 -56t59.5 -22q37 0 96 23l15 -62l-121 -65q-48 -23 -88 -23q-65 0 -108.5 40t-43.5 108q0 52 24 106.5t69 108.5t91 98.5t109 97.5q31 24 25 76q-3 27 -45 316h-404q-81 -158 -123 -248
q-40 -75 -20 -102t135 -40l-16 -63h-453l16 63q67 11 99.5 26.5t66 56.5t90.5 139l598 1050l91 23l43 -281q10 -60 60.5 -356.5t74.5 -452.5q8 -47 13.5 -73t15.5 -51t20 -36t30 -21.5t42.5 -15t60.5 -8.5zM489 553h338l-71 483h-6q-32 -61 -123 -226t-138 -257z" />
    <glyph glyph-name="aogonek" unicode="&#x105;" horiz-adv-x="1040" 
d="M641 317q-99 -139 -225 -241q-120 -101 -207 -101q-57 0 -96 64t-39 180q0 149 63.5 295t169.5 240q80 70 194 121t222 51h2q49 0 129 -17q59 -12 102 -12l11 -8q-81 -331 -138 -647q-16 -82 5 -82q14 0 59 31.5t82 68.5l31 -53q-61 -72 -121.5 -121t-95 -66t-78.5 -32
q-77 -61 -129 -144t-52 -139q0 -34 22.5 -54t55.5 -20t88 19l15 -62l-115 -59q-44 -23 -84 -23q-65 0 -107.5 37t-42.5 101q0 148 263 352q-21 13 -22.5 68t11.5 114zM621 827q-66 0 -109 -32q-94 -68 -150.5 -224.5t-56.5 -306.5q0 -59 14 -89t35 -30q52 0 164.5 126
t153.5 210q53 202 71 318q-51 28 -122 28z" />
    <glyph glyph-name="Cacute" unicode="&#x106;" horiz-adv-x="1320" 
d="M1206 379l62 -31q-27 -71 -77.5 -171t-86.5 -157q-210 -51 -359 -51q-133 0 -245 38.5t-194.5 111t-128.5 184.5t-46 252q0 182 69.5 334.5t188 254.5t277.5 159t338 57q171 0 354 -62q-5 -134 -19 -331l-67 -6q-21 178 -97 248.5t-214 70.5q-154 0 -284.5 -98t-205 -263
t-74.5 -356q0 -232 99.5 -372t269.5 -140q124 0 225 80.5t215 247.5zM1247 1573l-8 -23l-414 -120l-30 57q319 209 350 229q27 -6 61.5 -56t40.5 -87z" />
    <glyph glyph-name="cacute" unicode="&#x107;" horiz-adv-x="802" 
d="M711 262l34 -55q-99 -111 -211 -171.5t-210 -60.5q-115 0 -178.5 79.5t-63.5 226.5q0 133 57.5 266.5t161.5 226.5q70 62 167.5 107t176.5 45q71 0 121.5 -33t50.5 -80q2 -29 -18.5 -60t-61.5 -55q-31 -21 -55 9q-73 114 -160 114q-71 0 -127 -108q-37 -70 -59.5 -170
t-22.5 -207t35.5 -160t100.5 -53q63 0 138.5 45.5t123.5 93.5zM895 1354l-340 -350l-57 38q85 147 180 334q26 6 102.5 10t106.5 0z" />
    <glyph glyph-name="Ccircumflex" unicode="&#x108;" horiz-adv-x="1320" 
d="M1206 379l62 -31q-27 -71 -77.5 -171t-86.5 -157q-210 -51 -359 -51q-133 0 -245 38.5t-194.5 111t-128.5 184.5t-46 252q0 182 69.5 334.5t188 254.5t277.5 159t338 57q171 0 354 -62q-5 -134 -19 -331l-67 -6q-21 178 -97 248.5t-214 70.5q-154 0 -284.5 -98t-205 -263
t-74.5 -356q0 -232 99.5 -372t269.5 -140q124 0 225 80.5t215 247.5zM1235 1479l-41 -56q-147 62 -238 117q-135 -68 -270 -117l-31 56q142 96 293 225h62q108 -123 225 -225z" />
    <glyph glyph-name="ccircumflex" unicode="&#x109;" horiz-adv-x="802" 
d="M711 262l34 -55q-99 -111 -211 -171.5t-210 -60.5q-115 0 -178.5 79.5t-63.5 226.5q0 133 57.5 266.5t161.5 226.5q70 62 167.5 107t176.5 45q71 0 121.5 -33t50.5 -80q2 -29 -18.5 -60t-61.5 -55q-31 -21 -55 9q-73 114 -160 114q-71 0 -127 -108q-37 -70 -59.5 -170
t-22.5 -207t35.5 -160t100.5 -53q63 0 138.5 45.5t123.5 93.5zM823 1047l-57 -46q-57 57 -152 183q-174 -147 -225 -183l-49 50q197 223 272 329h62q46 -128 149 -333z" />
    <glyph glyph-name="Cdotaccent" unicode="&#x10a;" horiz-adv-x="1320" 
d="M1204 379l64 -31q-29 -72 -80 -172t-86 -156q-201 -51 -357 -51q-133 0 -245 38.5t-194.5 111t-128.5 184.5t-46 252q0 182 69.5 334.5t188 254.5t277.5 159t338 57q42 0 85 -3.5t72.5 -8t66.5 -13t52.5 -12.5t45.5 -13.5t32 -9.5q-5 -138 -19 -333l-67 -6
q-21 178 -97 248.5t-214 68.5q-154 0 -284.5 -97.5t-205 -262.5t-74.5 -357q0 -231 99.5 -370.5t269.5 -139.5q124 0 225 80.5t213 247.5zM979 1708q50 0 77 -33t27 -80q0 -57 -38.5 -100t-96.5 -43q-48 0 -77 30.5t-29 82.5t37.5 97.5t99.5 45.5z" />
    <glyph glyph-name="cdotaccent" unicode="&#x10b;" horiz-adv-x="802" 
d="M711 262l34 -55q-99 -111 -211 -171.5t-210 -60.5q-115 0 -178.5 79.5t-63.5 226.5q0 133 57.5 266.5t161.5 226.5q70 62 167.5 107t176.5 45q71 0 121.5 -33t50.5 -80q2 -29 -18.5 -60t-61.5 -55q-31 -21 -55 9q-73 114 -160 114q-71 0 -127 -108q-37 -70 -59.5 -170
t-22.5 -207t35.5 -160t100.5 -53q63 0 138.5 45.5t123.5 93.5zM627 1319q50 0 77 -32.5t27 -78.5q0 -59 -38.5 -102t-96.5 -43q-48 0 -77.5 30.5t-29.5 82.5t37.5 97.5t100.5 45.5z" />
    <glyph glyph-name="Ccaron" unicode="&#x10c;" horiz-adv-x="1320" 
d="M1206 379l62 -31q-27 -71 -77.5 -171t-86.5 -157q-210 -51 -359 -51q-133 0 -245 38.5t-194.5 111t-128.5 184.5t-46 252q0 182 69.5 334.5t188 254.5t277.5 159t338 57q171 0 354 -62q-5 -134 -19 -331l-67 -6q-21 178 -97 248.5t-214 70.5q-154 0 -284.5 -98t-205 -263
t-74.5 -356q0 -232 99.5 -372t269.5 -140q124 0 225 80.5t215 247.5zM1225 1718l32 -51q-168 -118 -292 -229h-64q-116 135 -221 229l41 51q133 -56 233 -114q168 79 271 114z" />
    <glyph glyph-name="ccaron" unicode="&#x10d;" horiz-adv-x="802" 
d="M711 262l34 -55q-99 -111 -211 -171.5t-210 -60.5q-115 0 -178.5 79.5t-63.5 226.5q0 133 57.5 266.5t161.5 226.5q70 62 167.5 107t176.5 45q71 0 121.5 -33t50.5 -80q2 -29 -18.5 -60t-61.5 -55q-31 -21 -55 9q-73 114 -160 114q-71 0 -127 -108q-37 -70 -59.5 -170
t-22.5 -207t35.5 -160t100.5 -53q63 0 138.5 45.5t123.5 93.5zM825 1386l52 -47q-181 -200 -273 -331h-61q-41 115 -150 335l60 43q61 -63 149 -184q158 138 223 184z" />
    <glyph glyph-name="Dcaron" unicode="&#x10e;" horiz-adv-x="1482" 
d="M256 1329h520q330 0 508 -139t178 -424q0 -194 -86.5 -356t-251.5 -263q-129 -79 -285 -113t-358 -34h-473l17 63q61 6 92.5 13.5t54 31t32 53.5t21.5 93l156 815q10 53 12 82t-2 52t-24 34t-47.5 17.5t-79.5 11.5zM621 1124l-158 -843q-15 -78 -10.5 -113.5t30.5 -54.5
q39 -29 121 -29q134 0 247 56t188.5 151t118 222.5t42.5 270.5q0 209 -109.5 338t-314.5 129q-86 0 -114 -22q-26 -20 -41 -105zM1141 1690l35 -54q-143 -96 -293 -227h-64q-123 144 -221 227l41 54q130 -55 233 -117q151 75 269 117z" />
    <glyph glyph-name="dcaron" unicode="&#x10f;" horiz-adv-x="1075" 
d="M1004 250l30 -53q-86 -105 -182.5 -163.5t-151.5 -58.5q-27 0 -41.5 14t-21 57.5t11.5 123.5l31 147h-4q-103 -137 -250 -251q-116 -91 -199 -91q-65 0 -108 66.5t-43 187.5q0 148 64 295t171 240q74 64 187 113t182 49q58 0 117 -17l59 301q12 67 -2.5 84t-85.5 19h-45
l8 61q85 8 165.5 26t128 32t60.5 14q17 0 20.5 -14.5t-5.5 -51.5q-131 -570 -238 -1147q-16 -77 6 -77q16 0 56 27t80 67zM367 141q63 0 173 118.5t165 221.5l63 293q-27 27 -70.5 42t-83.5 15q-60 0 -106 -30q-61 -44 -108.5 -142.5t-70 -200.5t-22.5 -186q0 -63 17 -97
t43 -34zM1292 1452q51 0 83 -42t32 -103q0 -101 -67.5 -168.5t-170.5 -94.5l-24 60q66 33 97.5 66t31.5 73q0 57 -57 80q-23 8 -23 45q0 34 28.5 59t69.5 25z" />
    <glyph glyph-name="Dcroat" unicode="&#x110;" horiz-adv-x="1497" 
d="M268 1329h531q317 0 495.5 -137.5t178.5 -417.5q0 -196 -87.5 -360t-252.5 -267q-129 -79 -286 -113t-362 -34h-467l19 63q62 6 93.5 13t54 29.5t32 52t21.5 92.5l77 401h-211l23 92h205l65 334q8 45 11.5 70.5t0 48t-11 32.5t-29.5 19t-46 12t-70 7zM543 651l-70 -381
q-13 -67 -8 -105t35 -56q40 -27 121 -27q135 0 248 59t187 157.5t115 226t41 266.5q0 223 -106 341.5t-303 118.5q-89 0 -121 -18q-31 -16 -47 -98l-74 -392h299l-20 -92h-297z" />
    <glyph glyph-name="dcroat" unicode="&#x111;" horiz-adv-x="1075" 
d="M1219 1159l-19 -82h-166q-98 -457 -168 -844q-16 -77 8 -77q16 0 57 28.5t77 65.5l30 -53q-86 -103 -180 -162.5t-149 -59.5q-100 0 -58 191l31 153h-4q-104 -140 -246 -251q-120 -93 -207 -93q-65 0 -108 67t-43 187q0 149 63 296t170 239q75 64 189 113t188 49
q56 0 113 -17l34 168h-276l18 82h275l8 45q14 71 -1 90.5t-87 20.5h-41l6 57q85 8 165.5 26.5t128 33t60.5 14.5q17 0 20.5 -15t-5.5 -53q-8 -37 -24.5 -109.5t-24.5 -109.5h166zM614 831q-64 0 -110 -32q-62 -44 -109 -142.5t-68.5 -199.5t-21.5 -185q0 -135 57 -135
q64 0 179 121t168 223l61 293q-27 27 -70 42t-86 15z" />
    <glyph glyph-name="Emacron" unicode="&#x112;" horiz-adv-x="1159" 
d="M254 1329h922q-1 -11 -15 -132.5t-22 -186.5l-68 -4q-7 143 -37 186q-18 32 -55 44.5t-129 12.5h-123q-55 0 -70 -13.5t-26 -72.5l-82 -422h158q35 0 58 0.5t44.5 4.5t33.5 6.5t26 13.5t20.5 17.5t18 27.5t17 34.5t19.5 45.5h68l-80 -410h-70q1 36 1 52t-2 39t-5 30.5
t-12.5 19.5t-20.5 15t-31.5 7t-43 4.5t-58.5 0.5h-160l-65 -352q-14 -74 -13 -117t19 -63q18 -21 60.5 -29t123.5 -8q100 0 156 15t94 52q70 67 144 199l65 -24q-88 -239 -127 -322h-983l14 63q44 4 69 7.5t48.5 12.5t34 19t22 33t18 48t15.5 71l158 821q8 44 11.5 69
t0.5 48t-11 33.5t-28.5 20t-46 13t-69.5 7.5zM1047 1589l-31 -127h-481l34 127h478z" />
    <glyph glyph-name="emacron" unicode="&#x113;" horiz-adv-x="843" 
d="M750 276l36 -55q-236 -246 -462 -246q-46 0 -86.5 14t-77.5 46.5t-58.5 94.5t-21.5 149q0 149 64 291t178 231q67 52 154.5 88.5t160.5 36.5q95 0 148 -49.5t53 -122.5q0 -228 -531 -367q-2 -23 -2 -57q0 -89 35.5 -148t112.5 -59q63 0 144 41t153 112zM553 836
q-37 0 -70 -23q-48 -30 -98.5 -120t-69.5 -232q176 52 250 116.5t74 147.5q0 54 -26.5 82.5t-59.5 28.5zM836 1233l-31 -129h-475l30 129h476z" />
    <glyph glyph-name="Ebreve" unicode="&#x114;" horiz-adv-x="1159" 
d="M254 1329h922q-1 -11 -15 -132.5t-22 -186.5l-68 -4q-7 143 -37 186q-18 32 -55 44.5t-129 12.5h-123q-55 0 -70 -13.5t-26 -72.5l-84 -422h158q40 0 65.5 2t47.5 4t36.5 11t25.5 16.5t22 28t18.5 37t21.5 51.5h70l-82 -410h-68q-2 23 0.5 42t-0.5 34.5t-3 27.5
t-6.5 21.5t-11 16.5t-16 11.5t-22 7.5t-29.5 4.5t-38 2t-48 0.5h-160l-65 -352q-14 -74 -13 -117t19 -63q18 -21 60.5 -29t123.5 -8q99 0 155.5 15t96.5 52q70 67 144 199l65 -24q-76 -207 -127 -322h-985l14 63q44 4 69 7.5t48.5 12.5t34 19t22 33t18 48t15.5 71l158 821
q8 44 11.5 69t0.5 48t-11 33.5t-28.5 20t-46 13t-69.5 7.5zM993 1677h72q-23 -127 -96 -194.5t-191 -67.5q-114 0 -167.5 68t-41.5 194h70q8 -54 46.5 -87.5t111.5 -33.5q132 0 196 121z" />
    <glyph glyph-name="ebreve" unicode="&#x115;" horiz-adv-x="843" 
d="M750 276l36 -55q-236 -246 -462 -246q-46 0 -86.5 14t-77.5 46.5t-58.5 94.5t-21.5 149q0 149 64 291t178 231q67 52 154.5 88.5t160.5 36.5q95 0 148 -49.5t53 -122.5q0 -228 -531 -367q-2 -23 -2 -57q0 -89 35.5 -148t112.5 -59q63 0 144 41t153 112zM553 836
q-37 0 -70 -23q-48 -30 -98.5 -120t-69.5 -232q176 52 250 116.5t74 147.5q0 54 -26.5 82.5t-59.5 28.5zM778 1317h68q-13 -79 -41 -136t-67.5 -88t-82 -45t-92.5 -14q-103 0 -159 66.5t-29 216.5h67q0 -67 37 -104t105 -37q67 0 117.5 36.5t76.5 104.5z" />
    <glyph glyph-name="Edotaccent" unicode="&#x116;" horiz-adv-x="1159" 
d="M254 1329h922q-1 -11 -15 -132.5t-22 -186.5l-68 -4q-7 143 -37 186q-18 32 -55 44.5t-129 12.5h-123q-55 0 -70 -13.5t-26 -72.5l-84 -422h160q35 0 57.5 0.5t44 4.5t33.5 6.5t26 13.5t20 17.5t17.5 27.5t17 34.5t19.5 45.5h70l-82 -410h-70q1 36 1 52t-2 39t-5 30.5
t-12.5 19.5t-20 15t-31 7t-43 4.5t-57.5 0.5h-160l-67 -352q-14 -74 -13 -117t19 -63q32 -37 184 -37q100 0 156 15t94 52q75 71 146 199l65 -24q-76 -207 -127 -322h-983l12 63q44 4 69 7.5t48.5 12.5t34.5 19t22.5 33t17.5 48.5t15 70.5l160 821q8 44 11 69t0 48t-11 33.5
t-28.5 20t-46 13t-70.5 7.5zM813 1683q50 0 77.5 -32t27.5 -78q0 -59 -39 -102.5t-97 -43.5q-48 0 -77.5 30.5t-30.5 82.5q0 53 38 98t101 45z" />
    <glyph glyph-name="edotaccent" unicode="&#x117;" horiz-adv-x="843" 
d="M748 276l36 -55q-233 -246 -460 -246q-46 0 -86.5 14t-77.5 46.5t-58.5 94.5t-21.5 149q0 149 64 291t178 231q67 53 153.5 89t159.5 36q95 0 148 -49.5t53 -122.5q0 -228 -529 -367q-2 -23 -2 -57q0 -89 35.5 -148t112.5 -59q62 0 142.5 41t152.5 112zM551 836
q-37 0 -70 -23q-21 -13 -43 -39t-47 -67.5t-45.5 -106t-30.5 -139.5q175 52 248.5 116.5t73.5 147.5q0 54 -26.5 82.5t-59.5 28.5zM645 1319q48 0 75.5 -32.5t27.5 -78.5q0 -59 -38 -102t-96 -43q-48 0 -78 30.5t-30 82.5t38 97.5t101 45.5z" />
    <glyph glyph-name="Eogonek" unicode="&#x118;" horiz-adv-x="1159" 
d="M256 1329h920q-1 -9 -15 -132t-22 -187l-68 -6q-7 144 -39 188q-18 32 -57 44.5t-131 12.5h-119q-54 0 -70 -14t-26 -72l-80 -422h158q35 0 57.5 0.5t44 4.5t33.5 6.5t26 13.5t20 17.5t17.5 27.5t17 34.5t19.5 45.5h70l-82 -410h-70q1 36 1 52t-2 39t-5 30.5t-12.5 19.5
t-20 15t-31 7t-43 4.5t-57.5 0.5h-160l-65 -352q-28 -142 4 -180q20 -21 62.5 -29t123.5 -8q97 0 151 16t95 54q83 79 148 196l65 -24q-76 -207 -127 -322h-106q-95 -70 -160.5 -158t-65.5 -145q0 -34 22.5 -52t57.5 -18q43 0 90 21l15 -62l-119 -63q-47 -21 -82 -21
q-67 0 -112.5 38t-45.5 102q0 87 87.5 186.5t205.5 171.5h-770l14 63q44 4 68.5 7.5t48 12.5t34 19t22 33t17.5 48.5t15 70.5l160 821q8 44 11.5 69t0.5 48t-11 33.5t-28.5 20t-46 13t-69.5 7.5z" />
    <glyph glyph-name="eogonek" unicode="&#x119;" horiz-adv-x="843" 
d="M748 279l38 -54q-71 -75 -123.5 -116.5t-105.5 -67.5q-223 -189 -223 -332q0 -37 24.5 -56.5t59.5 -19.5q40 0 88 23l14 -62l-119 -63q-44 -23 -86 -23q-65 0 -107 38t-42 102q0 83 67.5 172t172.5 164v2q-157 -21 -241.5 51t-84.5 242q0 147 64 290.5t178 231.5
q67 53 155 89t162 36q94 0 146.5 -50t52.5 -124q0 -228 -533 -367q-2 -25 -2 -55q0 -89 35.5 -147t114.5 -58q62 0 142 42t153 112zM553 834q-37 0 -70 -23q-30 -18 -60.5 -55.5t-63.5 -116t-46 -178.5q176 52 251 116.5t75 147.5q0 54 -26 81.5t-60 27.5z" />
    <glyph glyph-name="Ecaron" unicode="&#x11a;" horiz-adv-x="1159" 
d="M254 1329h922q-1 -11 -15 -132.5t-22 -186.5l-68 -4q-7 143 -37 186q-18 32 -55 44.5t-129 12.5h-123q-55 0 -70 -13.5t-26 -72.5l-82 -422h158q35 0 58 0.5t44.5 4.5t33.5 6.5t26 13.5t20.5 17.5t18 27.5t17 34.5t19.5 45.5h68l-80 -410h-70q1 36 1 52t-2 39t-5 30.5
t-12.5 19.5t-20.5 15t-31.5 7t-43 4.5t-58.5 0.5h-160l-65 -352q-14 -74 -13 -117t19 -63q18 -21 60.5 -29t123.5 -8q100 0 156 15t94 52q70 67 144 199l65 -24q-88 -239 -127 -322h-983l14 63q44 4 69 7.5t48.5 12.5t34 19t22 33t18 48t15.5 71l158 821q8 44 11.5 69
t0.5 48t-11 33.5t-28.5 20t-46 13t-69.5 7.5zM1065 1681l33 -53q-138 -93 -295 -227h-62q-112 127 -221 227l41 53q139 -59 234 -116q127 64 270 116z" />
    <glyph glyph-name="ecaron" unicode="&#x11b;" horiz-adv-x="843" 
d="M750 276l36 -55q-236 -246 -462 -246q-46 0 -86.5 14t-77.5 46.5t-58.5 94.5t-21.5 149q0 149 64 291t178 231q67 52 154.5 88.5t160.5 36.5q95 0 148 -49.5t53 -122.5q0 -228 -531 -367q-2 -23 -2 -57q0 -89 35.5 -148t112.5 -59q63 0 144 41t153 112zM553 836
q-37 0 -70 -23q-48 -30 -98.5 -120t-69.5 -232q176 52 250 116.5t74 147.5q0 54 -26.5 82.5t-59.5 28.5zM825 1386l52 -47q-181 -200 -273 -331h-61q-41 115 -150 335l60 43q61 -63 149 -184q158 138 223 184z" />
    <glyph glyph-name="Gcircumflex" unicode="&#x11c;" horiz-adv-x="1417" 
d="M1358 969l-68 -6q-5 72 -23.5 127t-46.5 90.5t-68 57.5t-84 31t-97 9q-157 0 -288.5 -95.5t-207.5 -260t-76 -359.5q0 -234 106 -373t290 -139q76 0 121 28.5t61 108.5l35 183q8 41 11 64.5t-3 45t-15 30.5t-37.5 18t-57 12.5t-85.5 9.5l17 63h567l-16 -63
q-37 -5 -55.5 -10.5t-36 -15t-26 -30t-16 -47.5t-16.5 -77l-31 -166q-18 -94 -12 -156q-7 -2 -45.5 -12.5t-52 -14t-50 -13t-56.5 -13.5t-54.5 -10.5t-60 -9t-57.5 -5t-62 -2.5q-288 0 -459.5 154.5t-171.5 433.5q0 176 66.5 326t184 254.5t281.5 163.5t355 59
q193 0 364 -60q-14 -157 -24 -331zM1251 1475l-41 -54q-130 52 -235 115q-135 -67 -270 -115l-33 54q147 97 295 227l61 -2q102 -119 223 -225z" />
    <glyph glyph-name="gcircumflex" unicode="&#x11d;" horiz-adv-x="897" 
d="M1008 918l20 -44q-90 -95 -164 -110q-5 0 -41 -4q15 -54 15 -101q0 -93 -42 -167.5t-104 -126.5q-95 -79 -293 -125q-28 -21 -28 -47q0 -39 141 -109q157 -75 225 -141t68 -138q0 -84 -85 -158.5t-203.5 -114.5t-229.5 -40q-104 0 -191 30.5t-137 82.5t-49 114
q1 68 84.5 135t247.5 146q-34 22 -53.5 49.5t-18.5 52.5q0 60 145 138q-198 42 -198 247q0 96 46 185.5t130 150.5q64 47 142 75t143 28q108 0 188 -58q159 3 242 50zM430 324q77 0 140 99.5t63 254.5q0 77 -26.5 124.5t-78.5 47.5q-40 0 -75.5 -33t-61.5 -84
q-61 -119 -61 -254q0 -72 27 -113.5t73 -41.5zM383 -414q102 0 163.5 40t61.5 98q0 37 -30.5 71t-98.5 74q-70 40 -176 92q-76 -40 -124 -94t-48 -107q0 -72 76.5 -123t175.5 -51zM791 1047l-58 -46q-53 53 -151 183q-169 -142 -226 -183l-49 50q6 7 35.5 40.5t38 43
t34 38.5t36.5 42.5t32.5 39t35 43t30 39.5t31.5 43h61q43 -122 150 -333z" />
    <glyph glyph-name="Gbreve" unicode="&#x11e;" horiz-adv-x="1417" 
d="M1358 969l-68 -6q-5 72 -23.5 127t-46.5 90.5t-68 57.5t-84 31t-97 9q-157 0 -288.5 -95.5t-207.5 -260t-76 -359.5q0 -234 106 -373t290 -139q76 0 121 28.5t61 108.5l35 183q8 41 11 64.5t-3 45t-15 30.5t-37.5 18t-57 12.5t-85.5 9.5l17 63h567l-16 -63
q-37 -5 -55.5 -10.5t-36 -15t-26 -30t-16 -47.5t-16.5 -77l-31 -166q-18 -94 -12 -156q-7 -2 -45.5 -12.5t-52 -14t-50 -13t-56.5 -13.5t-54.5 -10.5t-60 -9t-57.5 -5t-62 -2.5q-288 0 -459.5 154.5t-171.5 433.5q0 176 66.5 326t184 254.5t281.5 163.5t355 59
q193 0 364 -60q-14 -157 -24 -331zM1180 1696h71q-24 -127 -95.5 -194.5t-188.5 -67.5q-114 0 -167.5 68t-41.5 194h69q8 -54 46.5 -87.5t111.5 -33.5q135 0 195 121z" />
    <glyph glyph-name="gbreve" unicode="&#x11f;" horiz-adv-x="897" 
d="M1008 918l20 -44q-90 -95 -164 -110q-5 0 -41 -4q15 -54 15 -101q0 -93 -42 -167.5t-104 -126.5q-95 -79 -293 -125q-25 -19 -28 -47q0 -39 141 -109q157 -75 225 -141t68 -138q0 -84 -85 -158.5t-203.5 -114.5t-229.5 -40q-104 0 -191 30.5t-137 82.5t-49 114
q1 68 84.5 135t247.5 146q-34 22 -53.5 49.5t-18.5 52.5q0 60 145 138q-198 42 -198 247q0 96 46 185.5t130 150.5q64 47 142 75t143 28q108 0 188 -58q170 3 242 50zM430 324q77 0 140 99.5t63 254.5q0 77 -26.5 124.5t-78.5 47.5q-40 0 -75.5 -33t-61.5 -84
q-61 -119 -61 -254q0 -72 27 -113.5t73 -41.5zM385 -414q101 0 162 40t61 98q0 37 -30.5 71t-98.5 74q-77 46 -176 92q-76 -40 -124 -94t-48 -107q0 -72 77 -123t177 -51zM772 1317h66q-13 -79 -41 -136t-67 -88t-81.5 -45t-91.5 -14q-103 0 -159 66.5t-29 216.5h67
q0 -67 37 -104t105 -37q67 0 117.5 36.5t76.5 104.5z" />
    <glyph glyph-name="Gdotaccent" unicode="&#x120;" horiz-adv-x="1417" 
d="M1358 969l-68 -6q-5 72 -23.5 127t-46.5 90.5t-68 57.5t-84 31t-97 9q-157 0 -288.5 -95.5t-207.5 -260t-76 -359.5q0 -234 106 -373t290 -139q76 0 121 28.5t61 108.5l35 183q8 41 11 64.5t-3 45t-15 30.5t-37.5 18t-57 12.5t-85.5 9.5l17 63h567l-16 -63
q-37 -5 -55.5 -10.5t-36 -15t-26 -30t-16 -47.5t-16.5 -77l-31 -166q-18 -94 -12 -156q-7 -2 -45.5 -12.5t-52 -14t-50 -13t-56.5 -13.5t-54.5 -10.5t-60 -9t-57.5 -5t-62 -2.5q-288 0 -459.5 154.5t-171.5 433.5q0 176 66.5 326t184 254.5t281.5 163.5t355 59
q193 0 364 -60q-14 -157 -24 -331zM987 1704q50 0 77.5 -32t27.5 -79q0 -58 -38.5 -100.5t-95.5 -42.5q-50 0 -79 30.5t-29 82.5t37 96.5t100 44.5z" />
    <glyph glyph-name="gdotaccent" unicode="&#x121;" horiz-adv-x="897" 
d="M1010 918l18 -44q-90 -95 -164 -110q-5 0 -41 -4q15 -54 15 -101q0 -93 -42 -167.5t-104 -126.5q-95 -79 -293 -125q-27 -20 -30 -47q0 -37 143 -109q157 -75 225 -141t68 -138q0 -84 -85 -158.5t-203.5 -114.5t-229.5 -40q-104 0 -191 30.5t-137 82.5t-49 114
q1 68 84.5 135t247.5 146q-34 22 -53.5 49.5t-18.5 52.5q0 60 145 138q-198 42 -198 247q0 96 46 185.5t130 150.5q64 47 143 75t144 28q106 0 186 -58q168 3 244 50zM430 324q77 0 140 99.5t63 254.5q0 77 -26.5 124.5t-78.5 47.5q-40 0 -75.5 -33t-61.5 -84
q-61 -119 -61 -254q0 -72 27 -113.5t73 -41.5zM383 -414q102 0 163.5 40t61.5 98q0 37 -30.5 71t-98.5 74q-70 40 -176 92q-76 -40 -124 -94t-48 -107q0 -72 76.5 -123t175.5 -51zM602 1319q50 0 77.5 -32.5t27.5 -78.5q0 -59 -38.5 -102t-97.5 -43q-48 0 -78 30.5t-30 82.5
t38 97.5t101 45.5z" />
    <glyph glyph-name="Gcommaaccent" unicode="&#x122;" horiz-adv-x="1417" 
d="M1358 969l-68 -6q-5 72 -23.5 127t-46.5 90.5t-68 57.5t-84 31t-97 9q-157 0 -288.5 -95.5t-207.5 -260t-76 -359.5q0 -234 106 -373t290 -139q76 0 121 28.5t61 108.5l35 183q8 41 11 64.5t-3 45t-15 30.5t-37.5 18t-57 12.5t-85.5 9.5l17 63h567l-16 -63
q-37 -5 -55.5 -10.5t-36 -15t-26 -30t-16 -47.5t-16.5 -77l-31 -166q-18 -94 -12 -156q-7 -2 -45.5 -12.5t-52 -14t-50 -13t-56.5 -13.5t-54.5 -10.5t-60 -9t-57.5 -5t-62 -2.5q-288 0 -459.5 154.5t-171.5 433.5q0 176 66.5 326t184 254.5t281.5 163.5t355 59
q193 0 364 -60q-14 -157 -24 -331zM750 -88q56 0 96.5 -41.5t40.5 -110.5q1 -99 -77.5 -165t-197.5 -93l-18 62q74 31 111.5 61.5t37.5 71.5q0 63 -79 82q-25 7 -25 45q0 36 30.5 62t80.5 26z" />
    <glyph glyph-name="gcommaaccent" unicode="&#x123;" horiz-adv-x="897" 
d="M1008 918l20 -44q-90 -95 -164 -110q-5 0 -41 -4q15 -54 15 -101q0 -93 -42 -167.5t-104 -126.5q-95 -79 -293 -125q-27 -20 -30 -47q0 -37 143 -109q157 -75 225 -141t68 -138q0 -84 -85 -158.5t-203.5 -114.5t-229.5 -40q-104 0 -191 30.5t-137 82.5t-49 114
q1 68 84.5 135t247.5 146q-34 22 -53.5 49.5t-18.5 52.5q0 60 145 138q-198 42 -198 247q0 96 46 185.5t130 150.5q64 47 142 75t143 28q108 0 188 -58q170 3 242 50zM430 324q77 0 140 99.5t63 254.5q0 77 -26.5 124.5t-78.5 47.5q-40 0 -75.5 -33t-61.5 -84
q-61 -119 -61 -254q0 -72 27 -113.5t73 -41.5zM383 -414q102 0 163.5 40t61.5 98q0 37 -31 71t-100 74q-67 40 -174 92q-76 -40 -124 -94t-48 -107q0 -72 76.5 -123t175.5 -51zM590 1065q-56 0 -95.5 40.5t-39.5 108.5q0 100 79 166.5t193 94.5l18 -60q-74 -31 -110.5 -63
t-36.5 -72q0 -61 78 -82q24 -7 24 -43q0 -37 -31 -63.5t-79 -26.5z" />
    <glyph glyph-name="Hcircumflex" unicode="&#x124;" horiz-adv-x="1546" 
d="M1647 1329l-15 -63q-42 -4 -66.5 -7.5t-47 -13.5t-33 -19.5t-21 -34t-16 -48.5t-14.5 -70l-158 -815q-8 -45 -11.5 -71t-0.5 -49t11 -34t29 -20.5t46.5 -13t70.5 -7.5l-14 -63h-584l15 63q44 4 69.5 7.5t48.5 13.5t34.5 20.5t22.5 34.5t16.5 48.5t14.5 70.5l76 397h-590
l-73 -397q-8 -44 -11.5 -70.5t-0.5 -50t11.5 -34.5t29.5 -20t46.5 -13t69.5 -7l-16 -63h-572l15 63q41 4 65.5 7.5t46 14t32 20t21 34.5t16 48.5t15.5 70.5l158 815q9 44 12.5 70.5t-0.5 49t-12.5 33.5t-31.5 20t-48.5 12.5t-71.5 7.5l17 63h571l-16 -63q-108 -10 -138 -41
t-53 -152l-61 -319h588l61 319q13 65 15.5 97t-14 54.5t-46.5 29t-94 12.5l16 63h570zM1253 1454l-41 -53q-128 51 -237 115q-141 -71 -270 -115l-31 55q148 95 293 225h63q90 -105 223 -227z" />
    <glyph glyph-name="hcircumflex" unicode="&#x125;" horiz-adv-x="1077" 
d="M989 238l31 -56q-94 -98 -184.5 -152.5t-147.5 -54.5q-101 0 -51 220l104 446q28 123 -18 123q-56 0 -170.5 -110t-190.5 -234q-21 -84 -81 -402q-93 -11 -205 -43l-15 17q145 658 248 1208q13 72 -1.5 90t-80.5 21l-49 2l15 61q83 7 162.5 25t126 32.5t57.5 14.5
q19 0 22 -15.5t-6 -56.5l-170 -805h4q165 208 332 303q95 54 158 54q134 0 67 -289l-90 -401q-16 -80 6 -80q13 0 53.5 25t73.5 57zM745 1534l-40 -53q-136 54 -238 114q-135 -67 -270 -114l-31 55q148 95 293 225h63q90 -105 223 -227z" />
    <glyph glyph-name="Hbar" unicode="&#x126;" horiz-adv-x="1546" 
d="M1610 1042l-23 -81h-176l-135 -705q-9 -44 -12 -69t-0.5 -48.5t10.5 -34t28.5 -20t46.5 -13.5t70 -8l-14 -63h-582l15 63q65 6 96.5 12.5t55 30t32.5 53.5t22 97l74 389h-588l-73 -389q-8 -44 -11.5 -70t-0.5 -49t11.5 -34t29.5 -20t46.5 -13t69.5 -7l-16 -63h-572l15 63
q42 4 66 7.5t45.5 13.5t32 19.5t21 34t16 48t15.5 70.5l137 705h-192l25 81h184l8 41q8 41 10.5 67t-2.5 47t-14 31.5t-31.5 19t-48 12t-70.5 6.5l17 63h571l-16 -65q-107 -9 -138 -38.5t-51 -142.5l-8 -41h588l8 41q8 41 11 65.5t-0.5 46t-11.5 32t-28 19.5t-45 12.5
t-67 7.5l16 63h570l-17 -65q-41 -3 -65 -6.5t-46 -12t-32.5 -18t-21 -31.5t-16 -45.5t-13.5 -65.5l-9 -43h183zM1180 961h-588l-43 -220h588z" />
    <glyph glyph-name="hbar" unicode="&#x127;" horiz-adv-x="1077" 
d="M983 238l31 -56q-87 -93 -179.5 -150t-154.5 -57q-99 0 -49 211q17 77 52.5 229.5t53.5 229.5q25 115 -18 115q-57 0 -169 -110.5t-188 -235.5q-41 -159 -79 -396q-88 -10 -209 -43l-13 17q84 386 226 1075h-168l22 78h162q19 83 21.5 119t-6 46.5t-35.5 12.5l-64 8
l12 55q64 7 135 22.5t116.5 27.5t56.5 12q18 0 20.5 -20.5t-6.5 -57.5q-36 -164 -49 -225h289l-23 -78h-283q-17 -81 -50 -243.5t-54 -260.5l4 -2q159 207 340 311q88 54 154 54q126 0 71 -250q-11 -49 -31 -138t-36.5 -163t-32.5 -139q-13 -67 2 -82q15 0 55.5 25.5
t73.5 58.5z" />
    <glyph glyph-name="Itilde" unicode="&#x128;" horiz-adv-x="727" 
d="M825 1329l-16 -63q-42 -4 -66 -7.5t-46 -13t-32 -19t-20.5 -33.5t-16 -47.5t-14.5 -68.5l-159 -823q-8 -44 -11.5 -69.5t-0.5 -48.5t11.5 -33.5t29.5 -20t47 -13t71 -6.5l-14 -63h-578l17 63q60 5 90 11.5t52.5 29.5t31.5 53.5t22 96.5l160 823q8 44 11.5 69t0 47.5
t-11.5 33t-30 19.5t-48 12.5t-72 7.5l17 63h575zM793 1638l59 -39q-65 -182 -174 -182q-47 0 -150 47q-64 27 -94 27q-57 0 -102 -92l-60 45q35 94 82 137t97 43q46 0 131 -39q78 -33 110 -33q30 0 53 22t48 64z" />
    <glyph glyph-name="itilde" unicode="&#x129;" horiz-adv-x="591" 
d="M504 242l33 -49q-85 -93 -186 -155.5t-154 -62.5q-103 0 -50 213l115 482q12 59 0 71q-14 0 -53 -23t-78 -54l-29 53q100 93 200 151t153 58q36 0 45 -50t-13 -139l-125 -506q-16 -75 7 -75q31 0 135 86zM651 1286l62 -31q-68 -198 -178 -198q-14 0 -27 2t-29 8t-25 10
t-30.5 14t-28.5 13q-53 26 -94 26q-51 0 -98 -90l-58 39q32 93 80.5 142t96.5 49q39 0 124 -39q80 -37 111 -37q27 0 48.5 24t45.5 68z" />
    <glyph glyph-name="Imacron" unicode="&#x12a;" horiz-adv-x="727" 
d="M825 1329l-14 -63q-42 -4 -66.5 -7.5t-46 -13t-32 -19.5t-21.5 -33.5t-16.5 -47t-14.5 -68.5l-157 -823q-9 -43 -12.5 -69t-0.5 -48.5t11.5 -33.5t29.5 -20t47 -13t70 -7l-14 -63h-576l15 63q61 5 91 11.5t52.5 29.5t31.5 53t23 97l160 823q8 44 11.5 69t0 47.5t-11.5 33
t-30 19.5t-47.5 12.5t-71.5 7.5l16 63h573zM831 1587l-32 -127h-477l34 127h475z" />
    <glyph glyph-name="imacron" unicode="&#x12b;" horiz-adv-x="591" 
d="M504 242l33 -49q-85 -93 -186 -155.5t-154 -62.5q-103 0 -50 213l115 482q12 59 0 71q-14 0 -53 -23t-78 -54l-29 53q100 93 200 151t153 58q36 0 45 -50t-13 -139l-125 -506q-16 -75 7 -75q31 0 135 86zM682 1231l-33 -129h-475l33 129h475z" />
    <glyph glyph-name="Ibreve" unicode="&#x12c;" horiz-adv-x="727" 
d="M825 1329l-14 -63q-42 -4 -66.5 -7.5t-46 -13t-32 -19.5t-21.5 -33.5t-16.5 -47t-14.5 -68.5l-157 -823q-9 -43 -12.5 -69t-0.5 -48.5t11.5 -33.5t29.5 -20t47 -13t70 -7l-14 -63h-576l15 63q61 5 91 11.5t52.5 29.5t31.5 53t23 97l160 823q8 44 11.5 69t0 47.5t-11.5 33
t-30 19.5t-47.5 12.5t-71.5 7.5l16 63h573zM770 1671h70q-24 -126 -96 -193t-189 -67q-112 0 -166.5 67.5t-42.5 192.5h70q8 -53 46 -86t111 -33q131 0 197 119z" />
    <glyph glyph-name="ibreve" unicode="&#x12d;" horiz-adv-x="591" 
d="M504 242l33 -49q-85 -93 -186 -155.5t-154 -62.5q-103 0 -50 213l115 482q12 59 0 71q-14 0 -53 -23t-78 -54l-29 53q100 93 200 151t153 58q36 0 44.5 -50t-12.5 -139l-125 -506q-16 -75 7 -75q31 0 135 86zM618 1317h68q-13 -79 -41 -136t-66.5 -88t-81 -45t-91.5 -14
q-48 0 -86 13.5t-69 46.5t-39 87.5t3 135.5h68q2 -68 39 -104.5t104 -36.5q66 0 116 36.5t76 104.5z" />
    <glyph glyph-name="Iogonek" unicode="&#x12e;" horiz-adv-x="727" 
d="M823 1329l-14 -63q-113 -10 -142.5 -38.5t-52.5 -148.5l-159 -825q-9 -45 -12.5 -71t-0.5 -48.5t11 -33t30 -19.5t47.5 -12.5t71.5 -6.5l-16 -63h-244q-41 -66 -75 -145t-34 -136q0 -42 27 -65t66 -23t88 17l16 -62l-121 -63q-43 -21 -86 -21q-69 0 -110 40t-41 108
q0 79 60.5 177t127.5 173h-248l15 63q59 5 88.5 11.5t52 29.5t32 53.5t23.5 96.5l160 825q8 43 11.5 68t0 47.5t-11.5 32.5t-30 19t-48 12.5t-72 7.5l17 63h573z" />
    <glyph glyph-name="iogonek" unicode="&#x12f;" horiz-adv-x="587" 
d="M469 1356q50 0 77 -32.5t27 -78.5q0 -59 -38 -102t-95 -43q-48 0 -78 30t-30 82t37.5 98t99.5 46zM502 242l33 -49q-70 -81 -166 -144q-83 -84 -132 -172.5t-49 -155.5q0 -40 22.5 -63t57.5 -23t94 23l17 -61l-121 -66q-52 -23 -84 -23q-68 0 -107.5 39t-39.5 103
q0 81 62.5 176.5t135.5 161.5v2q-67 -22 -88 29.5t6 168.5l117 482q14 58 -2 71q-12 0 -50.5 -23t-78.5 -54l-29 53q100 93 199 151t150 58q40 0 49.5 -49t-13.5 -140l-123 -508q-19 -73 5 -73q15 0 53.5 24.5t81.5 61.5z" />
    <glyph glyph-name="Idotaccent" unicode="&#x130;" horiz-adv-x="727" 
d="M825 1329l-14 -63q-42 -4 -66.5 -7.5t-46 -13t-32 -19.5t-21.5 -33.5t-16.5 -47t-14.5 -68.5l-157 -823q-9 -43 -12.5 -69t-0.5 -48.5t11.5 -33.5t29.5 -20t47 -13t70 -7l-14 -63h-576l15 63q61 5 91 11.5t52.5 29.5t31.5 53t23 97l160 823q8 44 11.5 69t0 47.5t-11.5 33
t-30 19.5t-47.5 12.5t-71.5 7.5l16 63h573zM596 1686q50 0 77 -33t27 -80q0 -57 -38 -100t-95 -43q-48 0 -78 30t-30 82t37.5 98t99.5 46z" />
    <glyph glyph-name="dotlessi" unicode="&#x131;" horiz-adv-x="591" 
d="M504 242l33 -49q-85 -93 -186 -155.5t-154 -62.5q-103 0 -50 213l115 482q12 60 -2 71q-13 0 -52 -23t-77 -54l-29 53q100 93 200 151t153 58q36 0 44.5 -50t-12.5 -139l-122 -506q-19 -75 4 -75q15 0 54 25t81 61z" />
    <glyph glyph-name="IJ" unicode="&#x132;" horiz-adv-x="1431" 
d="M825 1329l-14 -63q-42 -4 -66.5 -7.5t-46 -13t-32 -19.5t-21.5 -33.5t-16.5 -47t-14.5 -68.5l-157 -823q-9 -43 -12.5 -69t-0.5 -48.5t11.5 -33.5t29.5 -20t47 -13t70 -7l-14 -63h-576l15 63q61 5 91 11.5t52.5 29.5t31.5 53t23 97l160 823q8 44 11.5 69t0 47.5t-11.5 33
t-30 19.5t-47.5 12.5t-71.5 7.5l16 63h573zM1548 1329l-14 -63q-41 -5 -62.5 -8.5t-43.5 -13t-31 -19t-20 -33t-16.5 -48.5t-14.5 -71l-148 -799q-35 -192 -100.5 -308.5t-186.5 -186.5q-53 -34 -118 -54t-103 -22l-14 70q78 21 136 74.5t91 156.5q31 95 72 299l143 770
q8 44 11.5 70.5t-0.5 48.5t-12 33t-30.5 20t-46.5 13t-69 8l14 63h563z" />
    <glyph glyph-name="ij" unicode="&#x133;" horiz-adv-x="1153" 
d="M467 1327q49 0 75.5 -31.5t26.5 -78.5q0 -58 -39.5 -101t-97.5 -43q-49 0 -76.5 30t-27.5 81q0 52 37.5 97.5t101.5 45.5zM502 242l33 -49q-83 -93 -185 -155.5t-155 -62.5q-103 0 -50 213l113 482q5 20 7 32.5t2.5 22t-2 13t-7.5 3.5q-13 0 -52 -23t-77 -54l-29 53
q100 93 200 151t153 58q40 0 47.5 -52t-15.5 -137l-125 -506q-16 -75 7 -75q15 0 54 25t81 61zM1028 1337q50 0 77.5 -31.5t27.5 -78.5q0 -59 -38.5 -101.5t-97.5 -42.5q-48 0 -77 30.5t-29 82.5t37 96.5t100 44.5zM698 655l-28 54q95 92 198.5 154.5t159.5 62.5
q42 0 48.5 -55t-17.5 -175q-24 -133 -115 -590q-72 -345 -272 -501q-149 -117 -228 -117q-37 0 -67.5 21.5t-30.5 54.5q0 27 20 58t46 52q22 16 43 4q70 -51 116 -51q34 0 56.5 34t44.5 128q48 215 166 850q6 31 9 50t3 31t-3 16.5t-9 4.5q-15 0 -61 -28.5t-79 -57.5z" />
    <glyph glyph-name="Jcircumflex" unicode="&#x134;" horiz-adv-x="704" 
d="M821 1329l-14 -63q-41 -5 -62.5 -8.5t-43.5 -13t-31.5 -19t-20.5 -33t-16.5 -48.5t-14.5 -71l-147 -799q-35 -192 -100.5 -308.5t-186.5 -186.5q-53 -34 -118 -54t-103 -22l-14 70q78 21 136 74.5t91 156.5q31 95 72 299l143 770q8 44 11.5 70.5t-0.5 48.5t-12 33
t-30.5 20t-46.5 13t-69 8l14 63h563zM842 1454l-41 -53q-131 52 -238 115q-141 -71 -270 -115l-31 55q148 95 293 225h63q87 -101 224 -227z" />
    <glyph glyph-name="jcircumflex" unicode="&#x135;" horiz-adv-x="575" 
d="M649 1077l-53 -45q-67 70 -152 182q-165 -143 -219 -182l-49 49q182 207 268 326h60q42 -123 145 -330zM127 657l-27 52q92 91 198 154t161 63q41 0 47 -55t-17 -175q-13 -72 -114 -579q-72 -344 -273 -504q-144 -115 -227 -115q-36 0 -66 21t-30 53q0 26 20 59t43 52
q21 18 43 4q62 -45 119 -45q32 0 54 33.5t44 129.5q20 87 41.5 190t35.5 176.5t43 226.5t46 243q10 60 9.5 78.5t-9.5 21.5q-15 0 -61.5 -28t-79.5 -56z" />
    <glyph glyph-name="Kcommaaccent" unicode="&#x136;" horiz-adv-x="1368" 
d="M1509 1329l-14 -61q-101 -12 -156 -36.5t-151 -101.5q-182 -148 -414 -354q151 -281 332 -561q58 -88 97 -114.5t122 -37.5l-16 -63h-355q-135 221 -336 592q-25 44 -47 56t-49 1l-71 -387q-9 -46 -12 -72.5t-0.5 -50.5t10 -34.5t28 -20.5t45 -13.5t68.5 -7.5l-15 -63
h-555l17 63q106 10 135.5 41.5t52.5 157.5l156 807q9 44 12.5 70.5t1 50t-10.5 34.5t-28.5 20.5t-45.5 13.5t-68 8l14 63h555l-14 -63q-41 -4 -64.5 -7.5t-44.5 -13.5t-31.5 -20t-21 -35t-16.5 -49.5t-15 -71.5l-69 -350q86 26 155 86q222 185 385 358q29 33 37 51.5
t-6 29.5t-53 16l-49 6l16 63h489zM717 -43q57 0 98 -42t41 -110q0 -99 -78 -165t-196 -93l-21 62q77 32 114.5 61.5t37.5 71.5q0 60 -80 82q-25 7 -25 45q0 36 30.5 62t78.5 26z" />
    <glyph glyph-name="kcommaaccent" unicode="&#x137;" horiz-adv-x="985" 
d="M932 219l37 -49q-49 -73 -103 -119t-91 -61t-68 -15q-82 0 -144 144q-72 160 -135 356q-70 -78 -82 -100q-46 -221 -70 -359q-89 -10 -204 -41l-15 13q161 703 267 1222q13 63 0.5 80.5t-74.5 20.5l-57 2l14 61q80 8 159.5 26t128 32t60.5 14q17 0 19.5 -15t-5.5 -47
q-32 -141 -96.5 -430.5t-99.5 -443.5h4q64 76 166 178q56 55 90.5 87t85 72.5t92.5 59.5t78 19q43 0 70.5 -22t27.5 -52q0 -24 -13.5 -52t-33.5 -48q-24 -21 -39 -15q-38 21 -94 21q-54 0 -115 -38.5t-106 -90.5q38 -131 121 -307q42 -101 67 -143t47 -42q38 0 111 82z
M432 -61q57 0 98 -41.5t41 -110.5q1 -99 -77 -165t-197 -93l-21 61q75 31 113.5 62t38.5 72q0 59 -80 81q-24 7 -24 45q0 37 30 63t78 26z" />
    <glyph glyph-name="kgreenlandic" unicode="&#x138;" horiz-adv-x="1067" 
d="M408 457l4 -2q117 127 233 243q107 111 183.5 169.5t134.5 58.5q45 0 73.5 -22t28.5 -52q0 -51 -49 -104q-24 -21 -39 -15q-38 21 -90 21q-100 0 -258 -176q68 -170 157 -336q34 -63 55 -84t44 -21q43 0 119 82l34 -49q-139 -195 -268 -195q-41 0 -75.5 31.5t-71.5 97.5
q-52 100 -148 328q-14 -12 -29.5 -28.5t-33.5 -37t-25 -28.5q-33 -129 -70 -320q-107 -12 -202 -41l-15 17q117 488 158 676q16 82 -2 82q-15 0 -57.5 -28t-73.5 -60l-31 57q93 93 185.5 149t146.5 56q45 0 53.5 -55t-18.5 -169z" />
    <glyph glyph-name="Lacute" unicode="&#x139;" horiz-adv-x="1107" 
d="M1010 358l67 -24q-119 -309 -131 -334h-944l14 63q65 5 97 11.5t55.5 29.5t32.5 53t22 97l162 829q8 42 11 65.5t0 46t-11 32.5t-28.5 19t-46.5 12.5t-70 7.5l14 63h575l-14 -63q-43 -4 -68.5 -7.5t-48 -13t-33.5 -19t-21.5 -32t-16 -45.5t-13.5 -66l-157 -819
q-10 -56 -8 -91t20 -56q32 -35 168 -35q83 0 135.5 14t89.5 49q80 80 148 213zM909 1542l-8 -20l-414 -123l-30 59q65 41 185 119.5t167 108.5q25 -6 59.5 -56.5t40.5 -87.5z" />
    <glyph glyph-name="lacute" unicode="&#x13a;" horiz-adv-x="542" 
d="M471 244l33 -54q-88 -97 -186.5 -156t-153.5 -59q-98 0 -43 261q31 151 95 469.5t99 484.5q15 76 3 97t-76 24l-58 4l11 57q80 7 160 25.5t128.5 33.5t59.5 15q18 0 21 -17t-5 -55q-89 -436 -237 -1147q-16 -77 6 -77q15 0 60 29t83 65zM766 1645l-8 -21l-414 -123
l-31 60q69 44 196.5 126.5t156.5 100.5q25 -6 59.5 -56t40.5 -87z" />
    <glyph glyph-name="Lcommaaccent" unicode="&#x13b;" horiz-adv-x="1107" 
d="M1010 358l67 -24q-119 -309 -131 -334h-944l14 63q65 5 97 11.5t55.5 29.5t32.5 53t22 97l162 829q8 42 11 65.5t0 46t-11 32.5t-28.5 19t-46.5 12.5t-70 7.5l14 63h575l-14 -63q-43 -4 -68.5 -7.5t-48 -13t-33.5 -19t-21.5 -32t-16 -45.5t-13.5 -66l-157 -819
q-10 -56 -8 -91t20 -56q32 -35 168 -35q83 0 135.5 14t89.5 49q80 80 148 213zM561 -72q57 0 98 -42t41 -111q0 -98 -78 -163.5t-196 -92.5l-20 61q76 31 113.5 61t37.5 72q0 60 -80 82q-24 7 -24 45q0 36 30 62t78 26z" />
    <glyph glyph-name="lcommaaccent" unicode="&#x13c;" horiz-adv-x="542" 
d="M471 244l33 -54q-88 -97 -186.5 -156t-153.5 -59q-98 0 -43 261q31 151 95 469.5t99 484.5q15 76 3 97t-76 24l-58 4l11 57q80 7 160 25.5t128.5 33.5t59.5 15q18 0 21 -17t-5 -55q-89 -436 -237 -1147q-16 -77 6 -77q15 0 60 29t83 65zM195 -74q57 0 98 -42t41 -111
q0 -98 -78.5 -163.5t-196.5 -92.5l-20 61q76 31 113.5 61t37.5 72q0 60 -77 82q-25 7 -25 45q0 36 30.5 62t76.5 26z" />
    <glyph glyph-name="Lcaron" unicode="&#x13d;" horiz-adv-x="1107" 
d="M1010 358l67 -24q-114 -296 -131 -334h-944l14 63q65 5 97 11.5t55.5 29.5t32.5 53t22 97l160 829q24 114 1 143.5t-144 39.5l14 63h575l-14 -63q-44 -4 -69.5 -7.5t-48 -13t-33 -18.5t-21 -32.5t-16 -45.5t-13.5 -66l-157 -819q-11 -56 -8.5 -91t20.5 -56
q32 -35 168 -35q83 0 135 13.5t90 49.5q75 75 148 213zM1014 1341q53 0 84.5 -41.5t31.5 -103.5q0 -101 -67.5 -168t-169.5 -92l-25 57q66 33 97.5 65.5t31.5 71.5q0 57 -57 80q-22 7 -22 45q0 34 28.5 60t67.5 26z" />
    <glyph glyph-name="lcaron" unicode="&#x13e;" horiz-adv-x="542" 
d="M471 244l33 -54q-88 -97 -186.5 -156t-153.5 -59q-98 0 -43 261q31 151 95 469.5t99 484.5q15 76 3 97t-76 24l-58 4l11 57q80 7 160.5 25.5t129 33.5t58.5 15q18 0 21 -17t-5 -55q-89 -436 -237 -1147q-16 -77 6 -77q15 0 60 29t83 65zM750 1450q53 0 84.5 -41.5
t31.5 -103.5q0 -101 -67.5 -168.5t-169.5 -94.5l-25 60q129 64 129 137q0 57 -57 80q-23 8 -23 45q0 34 29 60t68 26z" />
    <glyph glyph-name="Ldot" unicode="&#x13f;" horiz-adv-x="1107" 
d="M1010 358l67 -24q-119 -309 -131 -334h-944l14 63q65 5 97 11.5t55.5 29.5t32.5 53t22 97l162 829q8 42 11 65.5t0 46t-11 32.5t-28.5 19t-46.5 12.5t-70 7.5l14 63h575l-14 -63q-43 -4 -68.5 -7.5t-48 -13t-33.5 -19t-21.5 -32t-16 -45.5t-13.5 -66l-157 -819
q-10 -56 -8 -91t20 -56q32 -35 168 -35q83 0 135.5 14t89.5 49q80 80 148 213zM856 840q50 0 77.5 -33t27.5 -80q0 -57 -38.5 -100t-95.5 -43q-48 0 -78 30t-30 82t37.5 98t99.5 46z" />
    <glyph glyph-name="ldot" unicode="&#x140;" horiz-adv-x="632" 
d="M471 244l33 -54q-87 -96 -186.5 -155.5t-155.5 -59.5q-98 0 -43 261q31 151 95 469.5t99 484.5q19 77 6 97.5t-79 23.5l-58 4l11 57q81 7 162 25.5t129.5 33.5t58.5 15q18 0 21 -17t-5 -55q-89 -436 -237 -1147q-19 -77 6 -77q16 0 61.5 29t81.5 65zM655 870
q50 0 77.5 -32.5t27.5 -79.5q0 -57 -38 -100.5t-95 -43.5q-48 0 -77.5 30.5t-29.5 82.5t36.5 97.5t98.5 45.5z" />
    <glyph glyph-name="Lslash" unicode="&#x141;" horiz-adv-x="1138" 
d="M1040 360l68 -26q-103 -281 -131 -334h-944l14 63q66 6 97 12t55 29t33 53.5t22 98.5l55 285l-217 -138l23 111l217 139l84 430q12 61 13.5 92t-16.5 51.5t-48 26.5t-95 11l15 65h573l-14 -65q-43 -3 -68 -6.5t-47.5 -12t-33 -18t-21 -32t-16 -46t-13.5 -66.5l-55 -278
l284 184l-26 -115l-281 -180l-80 -426q-19 -117 13 -151q19 -22 58 -29.5t108 -7.5q87 0 139.5 13t89.5 50q64 64 145 217z" />
    <glyph glyph-name="lslash" unicode="&#x142;" horiz-adv-x="587" 
d="M682 1010l-23 -109l-192 -139l-105 -518q-17 -92 9 -92q14 0 59 29t80 63l33 -54q-90 -97 -184.5 -156t-149.5 -59q-101 0 -49 252l82 389l-168 -124l26 112l164 123l94 467q14 72 -1 93.5t-87 25.5l-47 2l15 59q99 8 217.5 39t128.5 31q17 0 20.5 -15t-2.5 -47
l-110 -512z" />
    <glyph glyph-name="Nacute" unicode="&#x143;" horiz-adv-x="1441" 
d="M1577 1329l-14 -63q-89 -4 -124 -32t-55 -97q-35 -116 -81 -351l-154 -804h-90l-592 1056h-4l-98 -503q-43 -214 -50 -336q-3 -72 33.5 -99.5t145.5 -33.5l-17 -66h-485l16 66q79 5 118 31t60 93q44 151 84 347l95 446q21 105 18.5 144t-23.5 75q-18 33 -54.5 46
t-110.5 18l14 63h346l565 -979h6l82 434q44 242 52 349q4 73 -33.5 100t-147.5 33l17 63h481zM1223 1540l-9 -20l-413 -123l-31 59q67 42 188.5 121t163.5 106q25 -6 60 -56.5t41 -86.5z" />
    <glyph glyph-name="nacute" unicode="&#x144;" horiz-adv-x="1112" 
d="M1020 244l31 -58q-99 -105 -186 -158t-142 -53q-102 0 -49 218q14 56 100 436q13 53 14.5 82.5t-5 39.5t-21.5 11q-53 0 -174 -128.5t-187 -242.5q-49 -192 -84 -373q-107 -12 -202 -41l-15 17q102 411 158 676q18 80 -2 80q-13 0 -56 -27.5t-75 -58.5l-27 57
q94 96 183 150.5t143 54.5q89 0 33 -248l-31 -129h4q145 198 326 319q89 58 157 58q21 0 36.5 -6t29.5 -25t19 -51.5t0 -90t-23 -135.5q-57 -248 -90 -389q-17 -71 6 -71q14 0 53 25.5t76 60.5zM985 1352l-340 -351l-57 39q117 207 182 334q25 8 101.5 12t105.5 0z" />
    <glyph glyph-name="Ncommaaccent" unicode="&#x145;" horiz-adv-x="1441" 
d="M1577 1329l-14 -63q-89 -4 -124 -32t-55 -97q-35 -116 -81 -351l-154 -804h-90l-592 1056h-4l-98 -503q-43 -214 -50 -336q-3 -72 33.5 -99.5t145.5 -33.5l-17 -66h-485l16 66q79 5 118 31t60 93q44 151 84 347l95 446q21 105 18.5 144t-23.5 75q-18 33 -54.5 46
t-110.5 18l14 63h346l567 -979h4l82 434q44 242 52 349q4 73 -32.5 100t-146.5 33l15 63h481zM707 -29q57 0 98 -42t41 -111q0 -99 -78 -164t-197 -92l-20 59q77 33 114 63t37 72q0 60 -79 82q-25 7 -25 43q0 38 29.5 64t79.5 26z" />
    <glyph glyph-name="ncommaaccent" unicode="&#x146;" horiz-adv-x="1112" 
d="M1018 244l33 -58q-99 -106 -186.5 -158.5t-143.5 -52.5q-99 0 -49 218q42 174 102 434q13 53 14.5 83.5t-5 40.5t-21.5 11q-53 0 -174 -128.5t-187 -242.5q-54 -217 -84 -373q-96 -11 -202 -43l-15 19q102 411 158 676q18 80 -2 80q-13 0 -56 -27.5t-75 -58.5l-27 57
q94 96 183 150.5t143 54.5q89 0 33 -248l-31 -129h4q145 198 326 319q89 58 157 58q21 0 36.5 -6t29.5 -25t19 -51.5t0 -90t-23 -135.5q-57 -248 -90 -389q-17 -71 6 -71q14 0 53 25.5t74 60.5zM496 -90q57 0 98 -42.5t41 -111.5q0 -98 -78.5 -163.5t-196.5 -92.5l-20 62
q77 32 114.5 61.5t37.5 71.5q0 60 -80 82q-25 7 -25 45q0 37 30 62.5t79 25.5z" />
    <glyph glyph-name="Ncaron" unicode="&#x147;" horiz-adv-x="1441" 
d="M1577 1329l-14 -63q-89 -4 -124 -32t-55 -97q-35 -116 -81 -351l-154 -804h-90l-592 1056h-4l-98 -503q-43 -214 -50 -336q-3 -72 33.5 -99.5t145.5 -33.5l-17 -66h-485l16 66q79 5 118 31t60 93q44 151 84 347l95 446q21 105 18.5 144t-23.5 75q-18 33 -54.5 46
t-110.5 18l14 63h346l565 -979h6l82 434q44 242 52 349q4 73 -33.5 100t-147.5 33l17 63h481zM1186 1651l35 -54q-143 -96 -293 -227h-64q-109 127 -221 227l43 54q135 -59 232 -117q132 66 268 117z" />
    <glyph glyph-name="ncaron" unicode="&#x148;" horiz-adv-x="1112" 
d="M1020 244l31 -58q-99 -105 -186 -158t-142 -53q-102 0 -49 218q14 56 100 436q13 53 14.5 82.5t-5 39.5t-21.5 11q-53 0 -174 -128.5t-187 -242.5q-49 -192 -84 -373q-107 -12 -202 -41l-15 17q102 411 158 676q18 80 -2 80q-13 0 -56 -27.5t-75 -58.5l-27 57
q94 96 183 150.5t143 54.5q89 0 33 -248l-31 -129h4q145 198 326 319q89 58 157 58q21 0 36.5 -6t29.5 -25t19 -51.5t0 -90t-23 -135.5q-57 -248 -90 -389q-17 -71 6 -71q14 0 53 25.5t76 60.5zM905 1386l49 -47q-180 -204 -270 -331h-61q-41 115 -150 335l57 43
q66 -66 152 -184q158 138 223 184z" />
    <glyph glyph-name="napostrophe" unicode="&#x149;" horiz-adv-x="1120" 
d="M156 999l-21 62q172 68 174 172q3 71 -96 100q-12 2 -19 12t-6 23q0 44 34 71t79 27q76 0 125 -54t47 -136q-1 -59 -30 -108t-77 -82t-100.5 -54t-109.5 -33zM1014 244l33 -58q-99 -105 -187 -158t-143 -53q-99 0 -51 203q17 70 35.5 149t40 173t34.5 149q30 113 -10 113
q-54 0 -177.5 -133.5t-189.5 -251.5q-31 -113 -82 -359q-105 -12 -200 -41l-17 17q100 402 160 676q18 80 -2 80q-14 0 -57 -27.5t-74 -58.5l-29 57q96 96 185 150.5t143 54.5q89 0 33 -248l-31 -133h4q144 201 330 323q89 58 162 58q24 0 40 -10t28.5 -36.5t9.5 -83.5
t-23 -141q-18 -75 -50.5 -219.5t-47.5 -206.5q-17 -71 8 -71q13 0 51.5 25.5t73.5 60.5z" />
    <glyph glyph-name="Eng" unicode="&#x14a;" horiz-adv-x="1441" 
d="M1577 1329l-14 -63q-87 -4 -123.5 -31.5t-55.5 -95.5q-34 -112 -79 -353l-131 -684q-55 -279 -140 -405q-43 -61 -97 -95t-110 -34q-44 0 -73 22.5t-29 53.5q0 35 27 74.5t47 39.5q14 0 41 -14t51 -14q48 0 92.5 72t67.5 194l-582 1038h-4l-94 -499q-34 -173 -49 -338
q-4 -73 32 -99.5t144 -34.5l-15 -63h-487l16 63q77 5 115.5 31.5t60.5 93.5q34 102 84 347l95 448q18 105 16 144t-21 75q-18 30 -53 44t-114 20l14 63h348l563 -977h6l80 432q40 217 49 351q6 72 -32.5 98.5t-145.5 32.5l17 63h483z" />
    <glyph glyph-name="eng" unicode="&#x14b;" horiz-adv-x="1077" 
d="M125 666l-29 55q89 91 182 148t148 57q92 0 31 -250l-33 -139h4q159 209 344 333q86 56 158 56q105 0 59 -224q-48 -259 -94 -473q-43 -216 -105 -333t-172 -203q-144 -115 -239 -115q-35 0 -61.5 18.5t-26.5 51.5q0 26 19.5 60t43.5 54q21 18 41 5q64 -43 115 -43
q27 0 45.5 15.5t41 71.5t44.5 160l139 693q19 98 -12 98q-52 0 -179.5 -134t-189.5 -247q-39 -143 -82 -363q-107 -12 -202 -41l-15 17q117 488 158 676q16 82 -2 82q-14 0 -56 -27.5t-75 -58.5z" />
    <glyph glyph-name="Omacron" unicode="&#x14c;" horiz-adv-x="1470" 
d="M887 1360q252 0 405.5 -163.5t153.5 -424.5q0 -220 -95.5 -403t-269.5 -291.5t-391 -108.5q-250 0 -404.5 158.5t-154.5 419.5q0 161 57 309t155.5 259.5t240.5 178t303 66.5zM874 1278q-100 0 -190.5 -67t-153.5 -175t-100 -247t-37 -281q0 -207 77 -333t232 -126
q107 0 200 70.5t153 182.5t94.5 246.5t34.5 266.5q0 137 -30 237.5t-101 163t-179 62.5zM1176 1589l-33 -127h-477l34 127h476z" />
    <glyph glyph-name="omacron" unicode="&#x14d;" horiz-adv-x="991" 
d="M381 -25q-81 0 -141 28.5t-92 77.5t-47 104.5t-15 119.5q0 189 88.5 334t218.5 213q132 74 252 74q140 0 216.5 -87t76.5 -237q0 -140 -56.5 -273.5t-162.5 -222.5q-68 -59 -158 -95t-180 -36zM459 63q24 0 57 11q72 30 131.5 181.5t59.5 350.5q0 116 -38 175t-100 59
q-30 0 -59 -13q-26 -13 -57 -51t-62.5 -100.5t-52.5 -162.5t-21 -216q0 -111 40.5 -172.5t101.5 -61.5zM864 1233l-30 -129h-476l31 129h475z" />
    <glyph glyph-name="Obreve" unicode="&#x14e;" horiz-adv-x="1470" 
d="M889 1360q251 0 404 -163.5t153 -424.5q0 -220 -95.5 -403t-269.5 -291.5t-391 -108.5q-250 0 -404.5 158.5t-154.5 419.5q0 161 57 309t155.5 259.5t241 178t304.5 66.5zM874 1278q-100 0 -190.5 -67t-153.5 -175t-100 -247t-37 -281q0 -134 31.5 -235t103 -162.5
t177.5 -61.5t198.5 70.5t152.5 182.5t94 246.5t34 266.5q0 137 -30 237.5t-101 163t-179 62.5zM1116 1692h72q-24 -127 -96 -194.5t-191 -67.5q-112 0 -166 68t-43 194h72q8 -54 46 -87.5t110 -33.5q129 0 196 121z" />
    <glyph glyph-name="obreve" unicode="&#x14f;" horiz-adv-x="991" 
d="M381 -25q-81 0 -141 28.5t-92 77.5t-47 104.5t-15 119.5q0 189 88.5 334t218.5 213q132 74 252 74q140 0 216.5 -87t76.5 -237q0 -140 -56.5 -273.5t-162.5 -222.5q-68 -59 -158 -95t-180 -36zM459 63q24 0 57 11q72 30 131.5 181.5t59.5 350.5q0 116 -38 175t-100 59
q-30 0 -59 -13q-26 -13 -57 -51t-62.5 -100.5t-52.5 -162.5t-21 -216q0 -111 40.5 -172.5t101.5 -61.5zM811 1317h68q-13 -79 -41 -136t-67.5 -88t-82 -45t-92.5 -14q-103 0 -159 66.5t-29 216.5h67q0 -67 36.5 -104t104.5 -37q67 0 118 36.5t77 104.5z" />
    <glyph glyph-name="Ohungarumlaut" unicode="&#x150;" horiz-adv-x="1470" 
d="M887 1360q252 0 405.5 -163.5t153.5 -424.5q0 -220 -95.5 -403t-269.5 -291.5t-391 -108.5q-250 0 -404.5 158.5t-154.5 419.5q0 161 57 309t155.5 259.5t240.5 178t303 66.5zM874 1278q-100 0 -190.5 -67t-153.5 -175t-100 -247t-37 -281q0 -207 77 -333t232 -126
q107 0 200 70.5t153 182.5t94.5 246.5t34.5 266.5q0 137 -30 237.5t-101 163t-179 62.5zM987 1669v-33l-221 -215l-57 31q28 61 106 256q26 9 90.5 -5.5t81.5 -33.5zM1284 1669v-33l-223 -215l-55 31q60 137 104 256q27 9 91.5 -6t82.5 -33z" />
    <glyph glyph-name="ohungarumlaut" unicode="&#x151;" horiz-adv-x="991" 
d="M381 -25q-81 0 -141 28.5t-92 77.5t-47 104.5t-15 119.5q0 189 88.5 334t218.5 213q132 74 252 74q140 0 216.5 -87t76.5 -237q0 -140 -56.5 -273.5t-162.5 -222.5q-68 -59 -158 -95t-180 -36zM459 63q24 0 57 11q72 30 131.5 181.5t59.5 350.5q0 116 -38 175t-100 59
q-30 0 -59 -13q-26 -13 -57 -51t-62.5 -100.5t-52.5 -162.5t-21 -216q0 -111 40.5 -172.5t101.5 -61.5zM711 1343l-258 -342l-60 33q1 1 127 328q22 8 89 10t93 -4zM1018 1343l-260 -342l-56 33q22 55 71 186t54 142q23 8 90 10t93 -4z" />
    <glyph glyph-name="OE" unicode="&#x152;" horiz-adv-x="1968" 
d="M1790 0h-629q-82 0 -196 -12q-101 -11 -174 -11q-150 0 -267.5 37.5t-189 96t-118 138.5t-64 157t-17.5 159q0 237 115.5 417t316.5 275t457 95q82 0 206.5 -11.5t170.5 -11.5h575q-2 -14 -14 -131.5t-20 -181.5l-68 -6q-3 127 -39 182q-19 33 -59 45t-140 12h-108
q-56 0 -70.5 -13.5t-25.5 -70.5l-84 -428h153q55 0 87.5 4t57 11t41 28t28 43.5t30.5 69.5h67l-79 -408h-66q-1 43 -2 64t-7.5 43.5t-16.5 30.5t-32 15.5t-49 9t-73 1.5h-156l-67 -352q-15 -82 -14 -122t20 -60q32 -35 180 -35q99 0 157.5 16t96.5 54q72 66 145 196l66 -24
q-104 -275 -125 -322zM1024 227l166 875q13 63 5.5 93t-36.5 44q-59 33 -172 33q-114 0 -219 -46t-189 -132t-134 -222.5t-50 -304.5q0 -73 13 -143t45 -138.5t79.5 -119t123 -81t169.5 -28.5q59 0 121 27q56 26 78 143z" />
    <glyph glyph-name="oe" unicode="&#x153;" horiz-adv-x="1425" 
d="M1421 750q0 -48 -25.5 -92.5t-70 -80t-96.5 -65.5t-117 -55.5t-118.5 -42.5t-112.5 -33q-4 -25 -4 -51q0 -207 155 -207q136 0 301 156l35 -56q-223 -248 -450 -248q-67 0 -125.5 37.5t-83.5 124.5h-2q-67 -73 -157.5 -117.5t-178.5 -44.5q-78 0 -136 30t-89 80
t-45.5 105.5t-14.5 116.5q1 189 86 333.5t211 213.5q137 72 242 72q84 0 145.5 -41.5t93.5 -124.5l2 2q79 71 178 117.5t183 46.5q91 0 142.5 -49.5t51.5 -126.5zM1217 729q0 50 -24 76t-56 26h-2q-40 0 -74 -24q-51 -30 -101 -117t-71 -233q178 55 252 119.5t76 152.5z
M702 625q0 108 -34 163.5t-95 55.5h-2q-32 0 -59 -15q-29 -12 -60 -47.5t-62.5 -95.5t-51.5 -158.5t-21 -218.5q0 -107 36.5 -174t97.5 -67q29 0 59 12q68 32 130 184t62 361z" />
    <glyph glyph-name="Racute" unicode="&#x154;" horiz-adv-x="1271" 
d="M1243 43l-18 -59h-29q-120 3 -193 26.5t-110 61.5t-74 110q-57 111 -127 301q-21 56 -45 76.5t-72 20.5h-63l-59 -318q-8 -45 -11.5 -72.5t0 -50.5t11.5 -34.5t28.5 -21t44.5 -13t66 -7.5l-14 -63h-566l15 63q61 6 90.5 12.5t53 30t33.5 56t23 100.5l156 815
q7 34 10.5 55.5t4 42t-1.5 32t-10.5 22.5t-18 16t-29 9.5t-39.5 6.5t-53 5l16 63h490q211 0 311 -63q131 -84 131 -256q0 -142 -89.5 -238.5t-227.5 -142.5q55 -154 114 -275q86 -169 127 -223q29 -39 57 -58t68 -30zM526 655h68q127 0 207 50q69 44 108 122t39 170
q0 125 -57.5 190.5t-151.5 65.5q-62 0 -84 -22q-19 -14 -34 -86zM1104 1540l-8 -20l-414 -123l-31 59q64 41 183 118.5t167 108.5q27 -6 62 -56t41 -87z" />
    <glyph glyph-name="racute" unicode="&#x155;" horiz-adv-x="780" 
d="M424 594h8q80 151 158 241.5t139 90.5q27 0 53 -15t41 -39q35 -51 -6 -112q-37 -56 -65 -78q-27 -18 -50 -2q-39 39 -77 39q-36 0 -88 -72q-93 -131 -127 -235q-44 -182 -80 -394q-103 -12 -201 -41l-16 17q84 353 141 659q17 92 -4 92q-14 0 -57 -26t-74 -55l-31 53
q87 90 177.5 149.5t142.5 59.5q85 0 36 -238zM856 1352l-342 -351l-55 39q98 173 180 334q25 8 102.5 12t106.5 0z" />
    <glyph glyph-name="Rcommaaccent" unicode="&#x156;" horiz-adv-x="1271" 
d="M1243 43l-18 -59h-29q-120 3 -193 26.5t-110 61.5t-74 110q-49 96 -129 301q-21 56 -45 76.5t-72 20.5h-63l-57 -318q-9 -45 -12.5 -72.5t-0.5 -50.5t11 -34.5t28.5 -21t44.5 -13t66 -7.5l-15 -63h-565l15 63q61 6 90.5 12.5t53 30t33.5 56t23 100.5l158 815
q7 34 10.5 55.5t4 42t-1.5 32t-10.5 22.5t-18 16t-29.5 9.5t-40 6.5t-54 5l16 63h492q211 0 311 -63q131 -84 131 -256q0 -142 -90.5 -238.5t-229.5 -142.5q79 -197 117 -275q86 -169 127 -223q29 -39 57 -58t68 -30zM526 655h68q127 0 207 50q69 44 108 122t39 170
q0 125 -57.5 190.5t-151.5 65.5q-62 0 -84 -22q-19 -14 -34 -86zM711 -43q55 0 96.5 -41.5t42.5 -110.5q0 -67 -40.5 -121t-100.5 -85.5t-136 -49.5l-18 60q75 31 112.5 62t37.5 73q0 60 -80 82q-25 8 -25 43q0 38 30.5 63t80.5 25z" />
    <glyph glyph-name="rcommaaccent" unicode="&#x157;" horiz-adv-x="780" 
d="M424 594h6q80 151 158 241.5t141 90.5q27 0 53 -15t41 -39q35 -51 -6 -112q-37 -56 -65 -78q-27 -18 -50 -2q-39 39 -77 39q-36 0 -88 -72q-93 -131 -127 -235q-44 -182 -80 -394q-103 -12 -201 -41l-16 17q84 353 141 659q17 92 -4 92q-14 0 -57 -26t-74 -55l-31 53
q87 90 177.5 149.5t142.5 59.5q85 0 36 -238zM193 -76q57 0 98 -41t41 -110q1 -99 -77.5 -165t-197.5 -93l-20 61q75 31 113 61.5t38 71.5q0 63 -79 82q-25 7 -25 45q0 36 30.5 62t78.5 26z" />
    <glyph glyph-name="Rcaron" unicode="&#x158;" horiz-adv-x="1271" 
d="M1243 43l-18 -59h-29q-120 3 -193 26.5t-110 61.5t-74 110q-57 111 -127 301q-21 56 -45 76.5t-72 20.5h-63l-59 -318q-8 -45 -11.5 -72.5t0 -50.5t11.5 -34.5t28.5 -21t44.5 -13t66 -7.5l-14 -63h-566l15 63q61 6 90.5 12.5t53 30t33.5 56t23 100.5l156 815
q7 34 10.5 55.5t4 42t-1.5 32t-10.5 22.5t-18 16t-29 9.5t-39.5 6.5t-53 5l16 63h490q211 0 311 -63q131 -84 131 -256q0 -142 -89.5 -238.5t-227.5 -142.5q55 -154 114 -275q86 -169 127 -223q29 -39 57 -58t68 -30zM526 655h68q127 0 207 50q69 44 108 122t39 170
q0 125 -57.5 190.5t-151.5 65.5q-62 0 -84 -22q-19 -14 -34 -86zM1028 1681l33 -53q-140 -96 -293 -227h-61q-108 122 -222 227l41 53q139 -59 234 -116q133 66 268 116z" />
    <glyph glyph-name="rcaron" unicode="&#x159;" horiz-adv-x="780" 
d="M424 594h8q80 151 158 241.5t139 90.5q27 0 53 -15t41 -39q35 -51 -6 -112q-37 -56 -65 -78q-27 -18 -50 -2q-39 39 -77 39q-36 0 -88 -72q-93 -131 -127 -235q-44 -182 -80 -394q-103 -12 -201 -41l-16 17q84 353 141 659q17 92 -4 92q-14 0 -57 -26t-74 -55l-31 53
q87 90 177.5 149.5t142.5 59.5q85 0 36 -238zM770 1386l51 -47q-176 -195 -272 -331h-62q-47 128 -149 335l57 43q73 -75 152 -184q9 8 40 35t46.5 40t41.5 35t49 40t46 34z" />
    <glyph glyph-name="Sacute" unicode="&#x15a;" horiz-adv-x="987" 
d="M76 414l63 6q10 -60 31.5 -119t59 -119t99 -97.5t138.5 -37.5q107 0 169 68.5t62 171.5q0 75 -42.5 139t-129.5 133l-61 45q-51 40 -87 74.5t-73.5 81.5t-57.5 102.5t-20 116.5q0 171 122.5 276t312.5 105q118 0 219 -37q49 -18 86 -35q-7 -72 -11 -301l-65 -6
q-6 46 -15.5 85t-28.5 81t-45 71t-67 48t-92 18q-97 0 -153 -67t-56 -154q0 -75 42.5 -132.5t131.5 -121.5l64 -45q59 -43 99.5 -81t77 -86t55 -104t18.5 -120q0 -182 -138.5 -293t-341.5 -111q-115 0 -216.5 39.5t-147.5 85.5q0 241 -2 320zM997 1573l-8 -21l-414 -122
l-30 59q67 42 188.5 121t163.5 106q25 -6 59.5 -56t40.5 -87z" />
    <glyph glyph-name="sacute" unicode="&#x15b;" horiz-adv-x="712" 
d="M242 -25q-84 0 -156.5 47.5t-73.5 110.5q0 31 20 61t48 46q39 23 63 -4q51 -67 110.5 -105.5t111.5 -38.5q47 0 77.5 26t30.5 66q0 35 -27 69.5t-100 90.5q-31 23 -40.5 30t-37.5 29.5t-38.5 34.5t-30 35t-27.5 41t-15 42.5t-7 49.5q0 120 120 217q57 45 123 74t121 29
q75 0 126.5 -39t51.5 -90q3 -57 -63 -103q-36 -22 -54 8q-85 109 -176 109q-40 0 -65 -25t-25 -63q0 -42 37 -82t105 -86q97 -67 142.5 -124.5t45.5 -129.5q0 -83 -63.5 -160t-155.5 -121.5t-178 -44.5zM817 1354l-340 -350l-57 38q85 147 180 334q26 6 102.5 10t106.5 0z
" />
    <glyph glyph-name="Scircumflex" unicode="&#x15c;" horiz-adv-x="987" 
d="M76 414l63 6q10 -60 31.5 -119t59 -119t99 -97.5t138.5 -37.5q107 0 169 68.5t62 171.5q0 75 -42.5 139t-129.5 133l-61 45q-51 40 -87 74.5t-73.5 81.5t-57.5 102.5t-20 116.5q0 171 122.5 276t312.5 105q118 0 219 -37q49 -18 86 -35q-7 -72 -11 -301l-65 -6
q-6 46 -15.5 85t-28.5 81t-45 71t-67 48t-92 18q-97 0 -153 -67t-56 -154q0 -75 42.5 -132.5t131.5 -121.5l64 -45q59 -43 99.5 -81t77 -86t55 -104t18.5 -120q0 -182 -138.5 -293t-341.5 -111q-115 0 -216.5 39.5t-147.5 85.5q0 241 -2 320zM956 1475l-41 -54
q-136 54 -237 115q-141 -71 -270 -115l-31 54q148 99 293 227h61q116 -131 225 -227z" />
    <glyph glyph-name="scircumflex" unicode="&#x15d;" horiz-adv-x="712" 
d="M242 -25q-84 0 -156.5 47.5t-73.5 110.5q0 31 20 61t48 46q39 23 63 -4q51 -67 110.5 -105.5t111.5 -38.5q47 0 77.5 26t30.5 66q0 35 -27 69.5t-100 90.5q-31 23 -40.5 30t-37.5 29.5t-38.5 34.5t-30 35t-27.5 41t-15 42.5t-7 49.5q0 120 120 217q57 45 123 74t121 29
q75 0 126.5 -39t51.5 -90q3 -57 -63 -103q-36 -22 -54 8q-85 109 -176 109q-40 0 -65 -25t-25 -63q0 -42 37 -82t105 -86q97 -67 142.5 -124.5t45.5 -129.5q0 -83 -63.5 -160t-155.5 -121.5t-178 -44.5zM721 1047l-57 -46q-57 57 -152 183q-174 -147 -225 -183l-49 50
q197 223 272 329h61q43 -122 150 -333z" />
    <glyph glyph-name="Scedilla" unicode="&#x15e;" horiz-adv-x="987" 
d="M74 414l63 8q8 -47 22.5 -94.5t42 -99t63 -91t89 -65t115.5 -25.5q107 0 168 68t61 172q0 75 -42.5 140t-129.5 132l-61 45q-51 40 -87.5 74t-74.5 81.5t-58 102.5t-20 115q0 172 123.5 277.5t315.5 105.5q119 0 215 -35q19 -7 47 -19.5t37 -15.5q-5 -70 -9 -305l-65 -6
q-39 303 -250 303q-97 0 -151 -66t-54 -153q0 -72 43.5 -132t130.5 -122l64 -45q122 -88 187 -177.5t65 -211.5q0 -167 -118.5 -275.5t-297.5 -126.5l-19 -22q-20 -25 -18.5 -41.5t25.5 -44.5q31 -40 44 -69.5t13 -63.5q-1 -63 -73 -118.5t-185 -88.5l-25 59q138 60 138 117
q0 30 -37 76q-31 38 -32.5 65t30.5 68l51 61q-102 4 -196.5 39t-145.5 84q0 162 -4 320z" />
    <glyph glyph-name="scedilla" unicode="&#x15f;" horiz-adv-x="708" 
d="M514 926q74 0 126 -39.5t52 -87.5q0 -61 -63 -105q-36 -20 -54 6q-84 111 -174 111q-40 0 -65 -24t-25 -64q0 -42 37 -82t105 -86q95 -67 139.5 -123.5t44.5 -128.5q0 -104 -88 -191.5t-207 -121.5l-31 -35q-20 -23 -18.5 -40.5t24.5 -45.5q31 -40 44 -70.5t12 -64.5
q-3 -63 -75 -118t-183 -87l-25 59q134 62 137 115q2 33 -34 78q-32 38 -33 65t30 66l54 63v2q-85 -2 -158 45.5t-74 112.5q-1 29 18.5 59t47.5 46q43 22 63 -7q51 -65 110.5 -102t113.5 -37q47 0 76.5 26t29.5 66q0 34 -27 70t-100 90q-94 71 -126 106q-66 72 -66 152
q0 124 118 219q55 45 122 74t122 29z" />
    <glyph glyph-name="Scaron" unicode="&#x160;" horiz-adv-x="987" 
d="M76 414l63 6q10 -60 31.5 -119t59 -119t99 -97.5t138.5 -37.5q107 0 169 68.5t62 171.5q0 75 -42.5 139t-129.5 133l-61 45q-51 40 -87 74.5t-73.5 81.5t-57.5 102.5t-20 116.5q0 171 122.5 276t312.5 105q118 0 219 -37q49 -18 86 -35q-7 -72 -11 -301l-65 -6
q-6 46 -15.5 85t-28.5 81t-45 71t-67 48t-92 18q-97 0 -153 -67t-56 -154q0 -75 42.5 -132.5t131.5 -121.5l64 -45q59 -43 99.5 -81t77 -86t55 -104t18.5 -120q0 -182 -138.5 -293t-341.5 -111q-115 0 -216.5 39.5t-147.5 85.5q0 241 -2 320zM944 1716l33 -53
q-140 -96 -293 -227h-61q-128 145 -224 227l43 53q143 -62 234 -117q132 66 268 117z" />
    <glyph glyph-name="scaron" unicode="&#x161;" horiz-adv-x="712" 
d="M242 -25q-84 0 -156.5 47.5t-73.5 110.5q0 31 20 61t48 46q39 23 63 -4q51 -67 110.5 -105.5t111.5 -38.5q47 0 77.5 26t30.5 66q0 35 -27 69.5t-100 90.5q-31 23 -40.5 30t-37.5 29.5t-38.5 34.5t-30 35t-27.5 41t-15 42.5t-7 49.5q0 120 120 217q57 45 123 74t121 29
q75 0 126.5 -39t51.5 -90q3 -57 -63 -103q-36 -22 -54 8q-85 109 -176 109q-40 0 -65 -25t-25 -63q0 -42 37 -82t105 -86q97 -67 142.5 -124.5t45.5 -129.5q0 -83 -63.5 -160t-155.5 -121.5t-178 -44.5zM731 1386l51 -47q-176 -195 -272 -331h-61q-41 115 -150 335l59 43
q65 -67 150 -184q158 138 223 184z" />
    <glyph glyph-name="Tcommaaccent" unicode="&#x162;" horiz-adv-x="1259" 
d="M1317 1380h53q-21 -98 -53 -374l-70 -7q0 145 -28 195q-20 33 -61.5 44t-137.5 11h-111l-186 -993q-9 -44 -12 -69t0.5 -48.5t13 -34.5t33 -20.5t53.5 -13.5t80 -7l-14 -63h-621l14 63q68 5 103.5 12.5t59.5 32t33.5 54t22.5 94.5l191 993h-92q-114 0 -159.5 -13.5
t-78.5 -49.5q-40 -47 -104 -185h-70q60 186 100 379h52q13 -33 31.5 -42t62.5 -9h790q38 0 56.5 10t48.5 41zM555 -82q57 0 98 -42.5t41 -111.5q0 -98 -78 -163.5t-196 -92.5l-21 62q77 32 114.5 61.5t37.5 71.5q0 60 -80 82q-25 7 -25 45q0 36 30.5 62t78.5 26z" />
    <glyph glyph-name="tcommaaccent" unicode="&#x163;" horiz-adv-x="647" 
d="M727 891l-57 -82l-195 -10l-110 -533q-26 -121 10 -121q22 0 78 36.5t96 74.5l31 -49q-61 -81 -171.5 -156.5t-189.5 -75.5q-35 0 -55.5 25.5t-25.5 88.5t20 169l114 541h-147l-10 18l55 74h123l45 190l209 142l22 -17l-71 -315h229zM258 -80q56 0 96.5 -41t40.5 -110
q1 -99 -77.5 -164.5t-196.5 -91.5l-19 59q74 31 112 61.5t38 71.5q0 62 -80 84q-10 2 -17.5 13t-7.5 30q0 36 30.5 62t80.5 26z" />
    <glyph glyph-name="Tcaron" unicode="&#x164;" horiz-adv-x="1259" 
d="M1317 1380h53q-21 -98 -53 -374l-70 -7q0 145 -28 195q-20 33 -61.5 44t-137.5 11h-111l-186 -993q-9 -44 -12 -69t0.5 -48.5t13 -34.5t33 -20.5t53.5 -13.5t80 -7l-14 -63h-621l14 63q68 5 103.5 12.5t59.5 32t33.5 54t22.5 94.5l191 993h-92q-114 0 -159.5 -13.5
t-78.5 -49.5q-40 -47 -104 -185h-70q60 186 100 379h52q13 -33 31.5 -42t62.5 -9h790q38 0 56.5 10t48.5 41zM1106 1681l35 -53q-143 -96 -293 -227h-64q-123 144 -221 227l41 53q139 -59 234 -116q146 73 268 116z" />
    <glyph glyph-name="tcaron" unicode="&#x165;" horiz-adv-x="647" 
d="M727 891l-57 -82l-195 -10l-110 -533q-26 -121 10 -121q22 0 78 36.5t96 74.5l33 -49q-63 -82 -173.5 -157t-189.5 -75q-35 0 -55.5 25.5t-25.5 88.5t20 169l114 541h-147l-10 18l55 74h123l45 188l209 144l22 -19l-71 -313h229zM791 1421q51 0 82.5 -41.5t31.5 -103.5
q0 -102 -67 -169.5t-170 -92.5l-25 57q66 33 97.5 65.5t31.5 71.5q0 31 -13.5 49.5t-43.5 30.5q-21 10 -21 45t28.5 61.5t68.5 26.5z" />
    <glyph glyph-name="Tbar" unicode="&#x166;" horiz-adv-x="1241" 
d="M1315 1380h49q-21 -98 -53 -374l-70 -5q0 140 -35 197q-19 32 -61.5 41.5t-140.5 9.5h-97l-100 -530h289l-23 -86h-282l-72 -379q-9 -43 -12 -68.5t1 -48.5t13.5 -34t33 -20t54 -13t80.5 -7l-15 -63h-620l14 63q68 5 103 12.5t59 31t33.5 53.5t21.5 94l74 379h-262l22 86
h256l103 530h-70q-116 0 -169 -14t-83 -49q-58 -64 -110 -185l-70 3q62 191 100 376h48q14 -33 32.5 -42t61.5 -9h792q38 0 56.5 10t48.5 41z" />
    <glyph glyph-name="tbar" unicode="&#x167;" horiz-adv-x="669" 
d="M735 891l-55 -82l-197 -10l-53 -254h195l-29 -84h-184l-39 -193q-23 -121 10 -121q22 0 78 36.5t96 74.5l31 -51q-63 -81 -173 -156.5t-188 -75.5q-34 0 -54 25.5t-25.5 89t18.5 170.5l41 201h-152l29 84h141l56 254h-148l-8 20l55 72h121l45 190l209 142l25 -19
l-76 -313h231z" />
    <glyph glyph-name="Utilde" unicode="&#x168;" horiz-adv-x="1447" 
d="M1599 1329l-14 -63q-90 -4 -126.5 -30.5t-57.5 -94.5q-33 -95 -80 -342l-37 -187q-33 -167 -86 -291.5t-145 -211.5q-73 -70 -167.5 -105t-195.5 -35q-212 0 -334 111q-158 148 -92 495l94 494q24 123 1.5 155t-142.5 42l16 63h564l-15 -63q-40 -4 -62 -7.5t-44 -12.5
t-32.5 -20t-21.5 -34t-17.5 -50t-14.5 -73l-94 -496q-33 -170 -4.5 -276t94.5 -153.5t168 -47.5q173 0 280 133t158 406l31 164q46 243 49 346q4 65 -36.5 90t-148.5 31l17 63h495zM1208 1636l58 -37q-33 -97 -78 -140.5t-94 -43.5q-50 0 -150 49q-64 27 -94 27
q-57 0 -102 -92l-60 43q35 94 81.5 137t96.5 43q46 0 131 -39q78 -33 111 -33q30 0 52.5 21.5t47.5 64.5z" />
    <glyph glyph-name="utilde" unicode="&#x169;" horiz-adv-x="1107" 
d="M1028 252l31 -55q-93 -106 -184 -164t-148 -58q-96 0 -47 211q22 95 31 148h-2q-159 -209 -320 -309q-74 -50 -149 -50q-142 0 -76 285q18 72 49.5 209t46.5 199q9 46 8 62t-10 22q-20 0 -131 -88l-25 57q94 91 188 148t148 57q42 0 50.5 -42.5t-15.5 -156.5
q-41 -187 -104 -451q-27 -131 20 -131q46 0 121 68t135.5 147t91.5 136q41 166 84 374l195 56h26q-99 -392 -153 -682q-5 -26 -6.5 -42.5t-1 -26t3.5 -13.5t8 -4q13 0 56 29t79 65zM922 1286l61 -31q-66 -198 -176 -198q-14 0 -27 2.5t-28.5 8t-25 9.5t-29.5 13.5t-29 13.5
q-53 26 -95 26q-50 0 -100 -90l-57 39q34 94 82 142.5t96 48.5q40 0 125 -39q80 -37 110 -37q27 0 48 23.5t45 68.5z" />
    <glyph glyph-name="Umacron" unicode="&#x16a;" horiz-adv-x="1447" 
d="M1599 1329l-14 -63q-90 -4 -126.5 -30.5t-57.5 -94.5q-33 -95 -80 -342l-37 -187q-33 -167 -86 -291.5t-145 -211.5q-73 -70 -167.5 -105t-195.5 -35q-212 0 -334 111q-158 148 -92 495l94 494q24 123 1.5 155t-142.5 42l16 63h564l-15 -63q-40 -4 -62 -7.5t-44 -12.5
t-32.5 -20t-21.5 -34t-17.5 -50t-14.5 -73l-94 -496q-33 -170 -4.5 -276t94.5 -153.5t168 -47.5q173 0 280 133t158 406l31 164q46 243 49 346q4 65 -36.5 90t-148.5 31l17 63h495zM1229 1587l-33 -127h-477l35 127h475z" />
    <glyph glyph-name="umacron" unicode="&#x16b;" horiz-adv-x="1107" 
d="M1028 252l31 -55q-93 -106 -184 -164t-148 -58q-96 0 -47 211q22 95 31 148h-2q-159 -209 -320 -309q-74 -50 -149 -50q-142 0 -76 285q18 72 49.5 209t46.5 199q9 46 8 62t-10 22q-20 0 -131 -88l-25 57q94 91 188 148t148 57q42 0 50.5 -42.5t-15.5 -156.5
q-41 -187 -104 -451q-27 -131 20 -131q46 0 121 68t135.5 147t91.5 136q41 166 84 374l195 56h26q-99 -392 -153 -682q-5 -26 -6.5 -42.5t-1 -26t3.5 -13.5t8 -4q13 0 56 29t79 65zM930 1231l-31 -129h-475l31 129h475z" />
    <glyph glyph-name="Ubreve" unicode="&#x16c;" horiz-adv-x="1447" 
d="M1599 1329l-14 -63q-90 -4 -126.5 -30.5t-57.5 -94.5q-33 -95 -80 -342l-37 -187q-33 -167 -86 -291.5t-145 -211.5q-73 -70 -167.5 -105t-195.5 -35q-212 0 -334 111q-158 148 -92 495l94 494q24 123 1.5 155t-142.5 42l16 63h564l-15 -63q-40 -4 -62 -7.5t-44 -12.5
t-32.5 -20t-21.5 -34t-17.5 -50t-14.5 -73l-94 -496q-33 -170 -4.5 -276t94.5 -153.5t168 -47.5q173 0 280 133t158 406l31 164q46 243 49 346q4 65 -36.5 90t-148.5 31l17 63h495zM1151 1651h70q-24 -126 -96 -193t-189 -67q-112 0 -166.5 67.5t-42.5 192.5h70
q8 -53 46 -86t111 -33q131 0 197 119z" />
    <glyph glyph-name="ubreve" unicode="&#x16d;" horiz-adv-x="1107" 
d="M1028 252l31 -55q-93 -106 -184 -164t-148 -58q-96 0 -47 211q22 95 31 148h-2q-155 -204 -320 -309q-74 -50 -149 -50q-142 0 -76 285q18 72 49.5 209t46.5 199q9 46 8 62t-10 22q-20 0 -131 -88l-25 57q94 91 187.5 148t146.5 57q43 0 52.5 -42.5t-15.5 -156.5
q-14 -59 -49 -214t-55 -237q-27 -131 20 -131q46 0 121 68t135.5 147t91.5 136q41 166 84 374l195 56h26q-99 -392 -153 -682q-5 -26 -6.5 -42.5t-1 -26t3.5 -13.5t8 -4q13 0 56 29t79 65zM877 1317h65q-13 -79 -40.5 -136t-66 -88t-81 -45t-92.5 -14q-48 0 -86 13.5
t-69 46.5t-39 87.5t3 135.5h70q0 -68 37 -104.5t106 -36.5q66 0 116.5 37t76.5 104z" />
    <glyph glyph-name="Uring" unicode="&#x16e;" horiz-adv-x="1447" 
d="M1599 1329l-14 -63q-90 -4 -126.5 -30.5t-57.5 -94.5q-33 -95 -80 -342l-37 -187q-33 -167 -86 -291.5t-145 -211.5q-73 -70 -167.5 -105t-195.5 -35q-212 0 -334 111q-158 148 -92 495l94 494q24 123 1.5 155t-142.5 42l16 63h564l-15 -63q-40 -4 -62 -7.5t-44 -12.5
t-32.5 -20t-21.5 -34t-17.5 -50t-14.5 -73l-94 -496q-33 -170 -4.5 -276t94.5 -153.5t168 -47.5q173 0 280 133t158 406l31 164q46 243 49 346q4 65 -36.5 90t-148.5 31l17 63h495zM1159 1561q-3 -83 -64.5 -134t-142.5 -51q-75 0 -124 47.5t-46 122.5q3 86 63.5 139.5
t141.5 53.5q73 0 123 -48.5t49 -129.5zM1057 1565q2 42 -18.5 70t-57.5 28q-42 0 -69 -32.5t-29 -80.5q-2 -42 19.5 -69t60.5 -27t66 31t28 80z" />
    <glyph glyph-name="uring" unicode="&#x16f;" horiz-adv-x="1107" 
d="M1028 252l31 -55q-93 -106 -184 -164t-148 -58q-96 0 -47 211q22 95 31 148h-2q-159 -209 -320 -309q-74 -50 -149 -50q-142 0 -76 285q18 72 49.5 209t46.5 199q9 46 8 62t-10 22q-20 0 -131 -88l-25 57q94 91 188 148t148 57q43 0 52.5 -42.5t-15.5 -156.5
q-95 -409 -106 -451q-27 -131 20 -131q46 0 121 68t135.5 147t91.5 136q41 166 84 374l195 56h26q-99 -392 -153 -682q-5 -26 -6.5 -42.5t-1 -26t3.5 -13.5t8 -4q13 0 56 29t79 65zM723 1370q75 0 127 -50t49 -132q-3 -83 -66.5 -135t-146.5 -52q-76 0 -126.5 49t-47.5 126
q3 86 65.5 140t145.5 54zM715 1292q-39 0 -69.5 -32.5t-31.5 -79.5q0 -45 22 -73t60 -28q41 0 70 33t31 80q2 42 -20.5 71t-61.5 29z" />
    <glyph glyph-name="Uhungarumlaut" unicode="&#x170;" horiz-adv-x="1447" 
d="M1599 1329l-14 -63q-90 -4 -126.5 -30.5t-57.5 -94.5q-33 -95 -80 -342l-37 -187q-33 -167 -86 -291.5t-145 -211.5q-73 -70 -167.5 -105t-195.5 -35q-212 0 -334 111q-158 148 -92 495l94 494q24 123 1.5 155t-142.5 42l16 63h564l-15 -63q-40 -4 -62 -7.5t-44 -12.5
t-32.5 -20t-21.5 -34t-17.5 -50t-14.5 -73l-94 -496q-33 -170 -4.5 -276t94.5 -153.5t168 -47.5q173 0 280 133t158 406l31 164q46 243 49 346q4 65 -36.5 90t-148.5 31l17 63h495zM1014 1649v-33l-221 -215l-58 31q35 75 107 256q26 9 90.5 -5.5t81.5 -33.5zM1311 1649v-33
l-224 -215l-55 31q67 153 105 256q27 9 91.5 -6t82.5 -33z" />
    <glyph glyph-name="uhungarumlaut" unicode="&#x171;" horiz-adv-x="1107" 
d="M1028 252l31 -55q-93 -106 -184 -164t-148 -58q-96 0 -47 211q22 95 31 148h-2q-159 -209 -320 -309q-74 -50 -149 -50q-142 0 -76 285q18 72 49.5 209t46.5 199q9 46 8 62t-10 22q-20 0 -131 -88l-25 57q94 91 188 148t148 57q42 0 50.5 -42.5t-15.5 -156.5
q-41 -187 -104 -451q-27 -131 20 -131q46 0 121 68t135.5 147t91.5 136q41 166 84 374l195 56h26q-99 -392 -153 -682q-5 -26 -6.5 -42.5t-1 -26t3.5 -13.5t8 -4q13 0 56 29t79 65zM778 1343l-260 -342l-59 35q102 250 127 326q23 7 90.5 10t93.5 -2zM1085 1343l-260 -342
l-57 35q83 205 125 326q24 7 90.5 10t93.5 -2z" />
    <glyph glyph-name="Uogonek" unicode="&#x172;" horiz-adv-x="1447" 
d="M1599 1329l-14 -63q-89 -4 -126 -30t-60 -93q-36 -122 -78 -344l-37 -187q-33 -167 -86.5 -291.5t-146.5 -211.5q-103 -95 -236 -123q-82 -68 -132 -144t-50 -139q0 -32 24.5 -54t59.5 -22q37 0 96 23l14 -62l-120 -63q-48 -25 -97 -25q-65 0 -108 39t-43 103
q0 157 235 327v2q-92 -2 -184 25t-154 84q-158 145 -92 495l94 494q24 123 1.5 155t-142.5 42l16 63h564l-15 -63q-40 -4 -62 -7.5t-44 -12.5t-32.5 -20t-21.5 -34t-17.5 -50t-14.5 -73l-94 -496q-45 -244 27.5 -360.5t230.5 -116.5q173 0 280 133t158 406l31 164
q42 221 49 346q3 65 -37 90t-148 31l17 63h495z" />
    <glyph glyph-name="uogonek" unicode="&#x173;" horiz-adv-x="1105" 
d="M1028 252l31 -55q-71 -83 -141 -134.5t-121 -66.5q-90 -67 -140.5 -146t-50.5 -145q0 -34 22.5 -52t57.5 -18q29 0 84 19l14 -62l-110 -59q-46 -22 -88 -22q-64 0 -106 38t-42 101q0 158 256 350q-46 39 -14 184q6 29 31 148h-4q-152 -203 -316 -307q-74 -50 -151 -50
q-142 0 -76 285q18 72 49.5 209t46.5 199q19 82 -6 82q-18 0 -127 -86l-25 57q94 91 187.5 148t146.5 57q43 0 52.5 -42.5t-15.5 -156.5q-18 -75 -52.5 -226.5t-51.5 -226.5q-15 -70 -10 -99.5t30 -29.5q35 0 88.5 40.5t104 98.5t93 115t64.5 97q60 269 82 374l195 56h26
q-88 -350 -153 -682q-5 -26 -6.5 -43t-1 -27t3.5 -14t8 -4q13 0 56.5 30t78.5 66z" />
    <glyph glyph-name="Wcircumflex" unicode="&#x174;" horiz-adv-x="1947" 
d="M2075 1329l-17 -63q-44 -6 -67 -12.5t-44.5 -16t-38.5 -34t-33.5 -52.5t-45.5 -86q-173 -339 -518 -1088h-86l-162 953h-4l-463 -953h-84l-129 1094q-7 67 -14 98.5t-26.5 54.5t-45.5 29.5t-80 12.5l14 63h517l-15 -63l-49 -9q-58 -9 -71.5 -32.5t-6.5 -106.5l78 -772h4
l457 965h80l164 -971h4q205 440 333 754q41 100 28.5 128.5t-97.5 37.5l-43 6l16 63h445zM1477 1452l-41 -53q-136 54 -238 114q-135 -67 -270 -114l-31 55q148 95 293 225h63q87 -101 224 -227z" />
    <glyph glyph-name="wcircumflex" unicode="&#x175;" horiz-adv-x="1384" 
d="M981 229h4q52 70 99 140t94 167.5t47 155.5q0 55 -25 103q-14 27 2 59q12 30 40 51t61 21q44 0 73 -36t29 -93q0 -78 -82 -211q-48 -75 -199.5 -286t-238.5 -325h-76q-44 377 -72 584h-4q-298 -492 -358 -584h-70q-12 366 -35 658q-9 115 -30 115q-29 0 -115 -93l-35 47
q71 96 152.5 160t138.5 64q44 0 66 -54t28 -176q6 -158 6 -411h4q25 45 152.5 265.5t193.5 342.5h66q17 -121 44 -343.5t40 -320.5zM1098 1044l-58 -43q-53 53 -151 183q-16 -14 -52 -44.5t-58 -49.5t-54.5 -44.5t-60.5 -44.5l-50 48q202 228 273 331h61q47 -132 150 -336z
" />
    <glyph glyph-name="Ycircumflex" unicode="&#x176;" horiz-adv-x="1282" 
d="M1434 1329l-19 -65q-97 -10 -139.5 -37t-124.5 -129t-311 -441q-42 -57 -54 -120l-55 -271q-9 -46 -13 -73.5t0 -51t13.5 -35.5t33 -21.5t52 -13.5t76.5 -8l-16 -63h-611l17 63q66 5 98.5 11.5t58 30.5t36.5 57.5t26 103.5l51 252q8 37 6 66t-16 69q-32 95 -156 449
q-27 73 -46.5 102t-48.5 42t-95 20l16 63h516l-18 -63l-60 -13q-48 -7 -57 -27t8 -67q65 -200 162 -467q190 273 299 457q32 56 22.5 75.5t-71.5 30.5l-51 9l18 65h453zM1137 1454l-41 -53q-133 53 -236 115q-135 -67 -270 -115l-33 53q150 99 293 227h63q87 -101 224 -227z
" />
    <glyph glyph-name="ycircumflex" unicode="&#x177;" horiz-adv-x="940" 
d="M537 182h4q50 75 82 126t74 127t63.5 141t21.5 116q-1 14 -2.5 26.5t-5.5 25.5t-6 18.5t-7.5 19.5t-6.5 15q-9 35 6 65q15 28 43.5 46t58.5 18q39 0 68.5 -34.5t30.5 -94.5q0 -93 -78 -226q-121 -204 -346 -522q-222 -316 -379 -495l-250 -62l-17 51q298 195 463 412
q1 120 -20.5 330t-48.5 354q-18 104 -43 104q-12 0 -43.5 -29t-69.5 -81l-41 53q64 101 140.5 170.5t136.5 69.5q51 0 81.5 -61t47.5 -203q29 -231 43 -480zM842 1044l-56 -45q-61 61 -153 183q-174 -147 -225 -183l-50 50q6 7 35.5 40.5t38 43t34 38.5t36.5 42.5t32.5 39
t35 43t30 39.5t31.5 43h61q47 -130 150 -334z" />
    <glyph glyph-name="Ydieresis" unicode="&#x178;" horiz-adv-x="1282" 
d="M1436 1329l-19 -65q-69 -7 -105.5 -20.5t-69.5 -44t-89 -101.5q-71 -88 -313 -441q-42 -57 -54 -120l-55 -271q-9 -46 -13 -73.5t0 -51t13.5 -35.5t33.5 -21.5t52.5 -13.5t77.5 -8l-16 -63h-613l17 63q66 5 99 12t58.5 30.5t36.5 57t25 103.5l53 252q13 65 -10 135
q-14 40 -65.5 186.5t-92.5 262.5q-27 73 -46.5 102t-48.5 42t-95 20l16 63h516l-18 -63l-60 -13q-46 -7 -55.5 -27t6.5 -67q50 -154 164 -467q190 273 299 457q32 56 22.5 75.5t-71.5 30.5l-51 9l18 65h453zM666 1663q47 0 72.5 -30t25.5 -74q0 -56 -36 -97t-91 -41
q-45 0 -73.5 29t-28.5 78q0 50 35.5 92.5t95.5 42.5zM1079 1663q47 0 73 -30t26 -74q0 -56 -36 -97t-93 -41q-45 0 -73.5 29t-29.5 78q0 49 36.5 92t96.5 43z" />
    <glyph glyph-name="Zacute" unicode="&#x179;" horiz-adv-x="1228" 
d="M1272 1329l16 -33q-694 -872 -952 -1204q88 -12 278 -12q144 0 227.5 14t131.5 53q73 64 157 228l68 -29q-21 -67 -63 -185.5t-62 -160.5h-1055l-16 37q438 543 965 1212h-271q-141 0 -195 -15.5t-87 -53.5q-60 -67 -109 -195l-69 8q55 209 86 387h49q18 -35 36.5 -43
t63.5 -8h801zM1143 1540l-8 -20l-414 -123l-31 59q66 42 188 121t164 106q25 -6 60 -56.5t41 -86.5z" />
    <glyph glyph-name="zacute" unicode="&#x17a;" horiz-adv-x="851" 
d="M881 954l45 -45q-111 -130 -140 -161q-117 -124 -520 -521q69 6 162 -30q112 -41 166 -41q44 0 92.5 37t114.5 133l53 -41q-85 -182 -157 -255t-148 -73q-31 0 -84 18t-85 33t-97 47q-59 28 -92.5 29.5t-55.5 -18.5q-30 -21 -59 -70q-16 -19 -29 -19q-10 5 -17 16
t-8.5 31t6 44.5t31.5 60.5t64 76q53 54 252 244t299 292q-57 -14 -133 -8q-128 10 -166 10q-51 1 -90 -20t-63 -50.5t-60 -86.5l-58 32q49 113 97 185q80 121 159 121q64 0 195 -25q120 -22 188 -22q61 0 138 77zM860 1354l-340 -350l-57 38q98 173 180 334q28 7 102.5 11
t106.5 -1z" />
    <glyph glyph-name="Zdotaccent" unicode="&#x17b;" horiz-adv-x="1228" 
d="M1272 1329l16 -33q-694 -872 -952 -1204q88 -12 278 -12q144 0 227 14t130 53q74 63 159 228l68 -29q-92 -273 -127 -346h-1053l-16 37q479 593 963 1212h-269q-141 0 -195 -15.5t-87 -53.5q-60 -67 -109 -195l-69 8q55 209 86 387h49q18 -35 36.5 -43t63.5 -8h801z
M807 1683q50 0 77 -32.5t27 -79.5q0 -58 -38.5 -101t-96.5 -43q-48 0 -77.5 30.5t-30.5 82.5q0 52 38 97.5t101 45.5z" />
    <glyph glyph-name="zdotaccent" unicode="&#x17c;" horiz-adv-x="851" 
d="M883 954l43 -45q-66 -82 -140 -161q-140 -150 -518 -521q69 6 162 -30q112 -41 166 -41q44 0 92.5 37t114.5 133l53 -41q-86 -182 -158.5 -255t-146.5 -73q-32 0 -85.5 18.5t-82.5 32t-98 47.5q-59 28 -92.5 29.5t-55.5 -18.5q-27 -19 -61 -70q-13 -19 -27 -19
q-10 5 -17 16t-8.5 31t5.5 44.5t31 60.5t63 76q46 46 248 238.5t305 297.5q-60 -14 -135 -8q-123 10 -164 10q-51 1 -90 -19.5t-64 -51t-59 -86.5l-58 32q54 124 97 185q77 121 159 121q65 0 193 -25q122 -22 190 -22q61 0 138 77zM606 1321q50 0 77.5 -33t27.5 -80
q0 -58 -38.5 -100.5t-97.5 -42.5q-48 0 -78 30.5t-30 82.5t38 97.5t101 45.5z" />
    <glyph glyph-name="Zcaron" unicode="&#x17d;" horiz-adv-x="1228" 
d="M1272 1329l16 -33q-694 -872 -952 -1204q88 -12 278 -12q144 0 227.5 14t131.5 53q73 64 157 228l68 -29q-21 -67 -63 -185.5t-62 -160.5h-1055l-16 37q438 543 965 1212h-271q-141 0 -195 -15.5t-87 -53.5q-60 -67 -109 -195l-69 8q55 209 86 387h49q18 -35 36.5 -43
t63.5 -8h801zM1077 1690l33 -54q-140 -96 -293 -227h-61q-129 147 -221 227l40 54q134 -57 234 -117q141 70 268 117z" />
    <glyph glyph-name="zcaron" unicode="&#x17e;" horiz-adv-x="851" 
d="M881 954l45 -45q-111 -130 -140 -161q-117 -124 -520 -521q69 6 162 -30q112 -41 166 -41q44 0 92.5 37t114.5 133l53 -41q-85 -182 -157 -255t-148 -73q-31 0 -84 18t-85 33t-97 47q-59 28 -92.5 29.5t-55.5 -18.5q-30 -21 -59 -70q-16 -19 -29 -19q-10 5 -17 16
t-8.5 31t6 44.5t31.5 60.5t64 76q53 54 252 244t299 292q-57 -14 -133 -8q-128 10 -166 10q-51 1 -90 -20t-63 -50.5t-60 -86.5l-58 32q49 113 97 185q80 121 159 121q64 0 195 -25q120 -22 188 -22q61 0 138 77zM793 1389l51 -48q-7 -8 -55.5 -63.5t-63 -72.5t-49 -59
t-58.5 -73.5t-47 -64.5h-61q-46 135 -150 338l60 43q19 -21 41.5 -47.5t37 -44.5t39 -49.5t33.5 -43.5q14 12 50.5 44.5t57.5 50.5t53.5 44t60.5 46z" />
    <glyph glyph-name="longs" unicode="&#x17f;" horiz-adv-x="501" 
d="M735 1446q58 0 96.5 -33.5t36.5 -71.5q-1 -31 -21.5 -62t-43.5 -44q-29 -20 -53 4q-88 88 -144 88q-22 0 -39.5 -17t-39 -67.5t-44.5 -156.5t-49 -271q-71 -458 -108 -625q-52 -238 -119.5 -364t-175.5 -221q-121 -113 -226 -113q-49 0 -90 27.5t-41 64.5q0 28 19.5 57.5
t48.5 51.5q27 18 43 2q28 -27 69.5 -45.5t73.5 -18.5q46 0 70 43q53 79 113 461q57 381 84 541q69 407 237 600q61 70 145.5 120t157.5 50z" />
    <glyph glyph-name="florin" unicode="&#x192;" horiz-adv-x="1001" 
d="M397 768l21 84q29 121 82 206t143 156q151 121 279 121q44 0 86.5 -29.5t42.5 -68.5q0 -24 -17 -51t-39 -41q-28 -20 -53 2q-75 80 -135 80q-46 0 -72 -51q-37 -72 -100 -408h235l-24 -84h-230l-71 -332q-24 -112 -56.5 -201.5t-62.5 -144.5t-70.5 -101t-69 -68.5
t-69.5 -49.5q-107 -70 -186 -70q-46 0 -86 30t-39 65q0 26 19 53t44 43q22 19 41 0q85 -76 131 -76q42 0 66 62q36 91 78 313l92 477h-191l27 84h184z" />
    <glyph glyph-name="Ohorn" unicode="&#x1a0;" horiz-adv-x="1470" 
d="M690 -31q-250 0 -404.5 158.5t-154.5 419.5q0 161 57 309t155.5 259.5t240.5 178t303 66.5q66 0 149 -17q120 -28 201 -28q72 0 114 22t42 49q0 20 -13 31t-47 17q-16 2 -30.5 14t-14.5 35q0 44 38.5 75t84.5 31q50 0 78.5 -28.5t28.5 -79.5q0 -101 -72.5 -164.5
t-200.5 -77.5q90 -75 145.5 -195.5t55.5 -271.5q0 -220 -95.5 -403t-269.5 -291.5t-391 -108.5zM702 49q107 0 200 70.5t153 182.5t94.5 246.5t34.5 266.5q0 137 -30 237.5t-101 163t-179 62.5q-100 0 -190.5 -67t-153.5 -175t-100 -247t-37 -281q0 -207 77 -333t232 -126z
" />
    <glyph glyph-name="ohorn" unicode="&#x1a1;" horiz-adv-x="991" 
d="M459 63q24 0 57 11q72 30 131.5 181.5t59.5 350.5q0 116 -38 175t-100 59q-30 0 -59 -13q-26 -13 -57 -51t-62.5 -100.5t-52.5 -162.5t-21 -216q0 -111 40.5 -172.5t101.5 -61.5zM381 -25q-81 0 -141 28.5t-92 77.5t-47 104.5t-15 119.5q0 189 88.5 334t218.5 213
q132 74 252 74q45 0 107 -15q46 -12 86 -12q56 0 90.5 20t34.5 46q0 20 -12 29.5t-48 15.5q-45 6 -45 51q0 44 33.5 73t77.5 29q47 0 74.5 -32t27.5 -87q0 -163 -203 -215q70 -82 70 -227q0 -140 -56.5 -273.5t-162.5 -222.5q-68 -59 -158 -95t-180 -36z" />
    <glyph glyph-name="Uhorn" unicode="&#x1af;" horiz-adv-x="1447" 
d="M1087 1266l17 63h221q102 0 159.5 10t74 23t16.5 33q0 36 -59 43q-43 11 -43 51q0 44 37 75t83 31q50 0 77.5 -29t27.5 -81q0 -79 -42 -130t-124 -81q-64 -26 -87.5 -49t-43.5 -84q-33 -95 -80 -342l-37 -187q-33 -167 -86 -291.5t-145 -211.5q-73 -70 -167.5 -105
t-195.5 -35q-212 0 -334 111q-158 148 -92 495l94 494q24 123 1.5 155t-142.5 42l16 63h564l-15 -63q-40 -4 -62 -7.5t-44 -12.5t-32.5 -20t-21.5 -34t-17.5 -50t-14.5 -73l-94 -496q-33 -170 -4.5 -276t94.5 -153.5t168 -47.5q173 0 280 133t158 406l31 164q46 243 49 346
q4 65 -36.5 90t-148.5 31z" />
    <glyph glyph-name="uhorn" unicode="&#x1b0;" horiz-adv-x="1107" 
d="M1028 252l31 -55q-93 -106 -184 -164t-148 -58q-96 0 -47 211q22 95 31 148h-2q-155 -204 -320 -309q-74 -50 -149 -50q-142 0 -76 285q18 72 49.5 209t46.5 199q9 46 8 62t-10 22q-20 0 -131 -88l-25 57q94 91 187.5 148t146.5 57q43 0 52.5 -42.5t-15.5 -156.5
q-14 -59 -49 -214t-55 -237q-27 -131 20 -131q46 0 121 68t135.5 147t91.5 136q38 158 86 385l76 12q219 37 219 94q0 21 -11.5 30t-47.5 15q-45 11 -45 53q0 44 33 73.5t77 29.5q48 0 76.5 -32t28.5 -87q0 -152 -207 -223q-87 -357 -133 -602q-5 -26 -6.5 -42.5t-1 -26
t3.5 -13.5t8 -4q13 0 56 29t79 65z" />
    <glyph glyph-name="Aringacute" unicode="&#x1fa;" horiz-adv-x="1370" 
d="M1284 63l-16 -63h-531l19 63q94 10 115.5 36t11.5 100q-22 138 -39 256h-406q-19 -38 -123 -250q-40 -75 -20 -102t135 -40l-16 -63h-453l16 63q42 7 65 13.5t46.5 18.5t44 37t43 59t57.5 94l601 1050l90 23l45 -281q23 -146 69.5 -418.5t65.5 -390.5q8 -47 13 -73
t14.5 -51t19.5 -36t30 -21.5t42.5 -15t60.5 -8.5zM829 553l-71 483h-6q-26 -49 -120.5 -219t-142.5 -264h340zM1087 1579q-3 -82 -64.5 -133t-141.5 -51q-75 0 -124 47.5t-46 124.5q3 85 63 137.5t141 52.5q73 0 123 -48.5t49 -129.5zM985 1583q2 42 -18.5 70t-57.5 28
q-42 0 -69 -32t-29 -80q-2 -42 19.5 -69t60.5 -27q38 0 65.5 31.5t28.5 78.5zM1241 1948l-8 -21l-414 -123l-31 60q69 44 196.5 126.5t156.5 100.5q25 -6 59.5 -56t40.5 -87z" />
    <glyph glyph-name="aringacute" unicode="&#x1fb;" horiz-adv-x="1042" 
d="M977 260l31 -53q-89 -108 -187.5 -170t-152.5 -62q-19 0 -32 7.5t-23 28t-9 63t14 104.5l29 139h-6q-95 -134 -223 -241q-120 -101 -209 -101q-57 0 -96 64t-39 180q0 149 63.5 295t169.5 238q80 71 194.5 122.5t223.5 51.5q45 0 129 -15q61 -12 104 -12l11 -8
q-88 -362 -138 -649q-15 -84 5 -84q14 0 58.5 32t82.5 70zM354 141q35 0 104 64.5t130 144t84 129.5q47 164 71 322q-50 26 -122 26q-68 0 -111 -32q-94 -68 -149.5 -225t-55.5 -308q0 -121 49 -121zM729 1372q74 0 125.5 -49.5t48.5 -132.5q-3 -84 -66 -136.5t-145 -52.5
q-78 0 -128.5 49.5t-47.5 127.5q3 86 65.5 140t147.5 54zM719 1294q-39 0 -68 -32.5t-30 -79.5q-2 -45 20.5 -74t58.5 -29q41 0 70 33t31 80q2 44 -20.5 73t-61.5 29zM1069 1767l-340 -350l-57 39q98 173 180 334q26 6 102.5 10t106.5 0z" />
    <glyph glyph-name="AEacute" unicode="&#x1fc;" horiz-adv-x="1761" 
d="M1737 1014l-68 -6q-10 134 -39 182q-21 34 -61 46.5t-137 12.5h-115q-52 0 -66.5 -13t-23.5 -65l-90 -481h161q47 0 74.5 1t53 8.5t38 15t27.5 28.5t24 41.5t25 61.5h70l-80 -412h-68q0 45 -1 66.5t-8 44t-15.5 30t-32.5 14.5t-50 8t-75 1h-162l-57 -311
q-23 -133 12 -170q37 -37 187 -37q98 0 152.5 13.5t94.5 51.5q58 56 138 201l65 -27q-103 -283 -121 -319h-983l12 66q42 3 64.5 6t47 11t36 19t24.5 32.5t20.5 49.5t16.5 72l66 342h-352q-34 -51 -89 -134.5t-76.5 -116.5t-47.5 -74.5t-41 -69.5q-38 -69 -29 -93.5
t76 -33.5l59 -10l-16 -66h-481l14 66q101 12 143 37.5t111 121.5q184 255 647 926q41 60 31.5 77t-84.5 25l-109 11l19 65h1104q-1 -12 -14 -131.5t-21 -183.5zM600 690h311l109 555q-34 -4 -68 -33q-260 -383 -352 -522zM1561 1540l-9 -20l-413 -123l-31 59q66 42 188 121
t164 106q25 -6 60 -56.5t41 -86.5z" />
    <glyph glyph-name="aeacute" unicode="&#x1fd;" horiz-adv-x="1390" 
d="M1298 279l37 -56q-229 -248 -471 -248q-42 0 -80 13t-73.5 43t-57 87t-22.5 136q0 24 2 47l-4 2q-85 -122 -207 -221q-133 -107 -223 -107q-54 0 -92.5 58t-38.5 176q0 155 62.5 305t162.5 240q76 70 194 122t218 52q38 0 106 -19q10 1 28 1.5t33 1.5t27 3l8 -10
l-26 -106l4 -4q67 63 151.5 98t157.5 35q90 0 141 -48t51 -122q0 -232 -540 -373q-2 -10 -2 -59q0 -203 153 -203q145 0 301 156zM612 834q-64 0 -106 -29q-75 -51 -135 -199q-72 -174 -72 -352q0 -52 12.5 -81.5t34.5 -29.5q60 0 152 103q112 128 157 231q18 42 45.5 161.5
t30.5 162.5q-51 33 -119 33zM1100 831q-45 0 -88 -32q-49 -36 -93.5 -119.5t-64.5 -218.5q178 54 254 119.5t76 152.5q0 46 -23 72t-61 26zM1180 1354l-340 -350l-58 38q108 190 181 334q25 8 102 12.5t106 0.5z" />
    <glyph glyph-name="Oslashacute" unicode="&#x1fe;" horiz-adv-x="1468" 
d="M1311 1423l65 -53l-110 -145q85 -78 132.5 -194.5t47.5 -258.5q0 -222 -96 -405t-270.5 -290.5t-391.5 -107.5q-183 0 -313 86l-113 -147l-59 57l106 139q-84 75 -131 193.5t-47 255.5q0 159 57.5 306.5t156.5 258t241.5 176.5t304.5 66q179 0 307 -84zM436 264l668 887
q-31 60 -91.5 94.5t-138.5 34.5q-104 0 -196.5 -66.5t-155 -173.5t-99 -242.5t-36.5 -273.5q0 -160 49 -260zM1145 1069l-666 -885q70 -133 228 -133q107 0 200 68.5t153.5 177.5t95 242t34.5 266q0 163 -45 264zM1208 1559l-8 -21l-414 -123l-32 58q58 38 177 115.5
t175 113.5q27 -6 61.5 -56t40.5 -87z" />
    <glyph glyph-name="oslashacute" unicode="&#x1ff;" horiz-adv-x="993" 
d="M877 993l51 -41l-74 -102q86 -83 86 -260q0 -131 -56.5 -262.5t-156.5 -216.5q-65 -57 -160.5 -96.5t-183.5 -39.5q-97 0 -156 39l-82 -106l-47 47l74 98q-84 90 -84 258q0 186 85.5 328.5t211.5 212.5q142 76 262 76q90 0 152 -37zM315 238l379 512q-35 92 -114 92
q-37 0 -66 -13q-29 -12 -62.5 -47t-68 -93t-57.5 -152.5t-23 -206.5q0 -48 12 -92zM719 668l-381 -510q39 -92 115 -92q37 0 59 10q34 13 71 56.5t69 109t53 160t20 196.5q0 40 -6 70zM903 1352l-342 -348l-55 36q61 107 180 334q25 8 101.5 12t107.5 0z" />
    <glyph glyph-name="Scommaaccent" unicode="&#x218;" horiz-adv-x="987" 
d="M74 414l65 6q10 -60 31.5 -119t59 -119t99 -97.5t138.5 -37.5q107 0 169 68.5t62 171.5q0 75 -42.5 139t-129.5 133l-61 45q-51 40 -87 74.5t-73.5 81.5t-57.5 102.5t-20 116.5q0 171 122.5 276t312.5 105q118 0 219 -37q21 -7 50.5 -19t35.5 -14q-7 -74 -11 -305l-65 -6
q-39 305 -248 305q-97 0 -153 -67t-56 -154q0 -75 42.5 -132.5t131.5 -121.5l64 -45q59 -43 99.5 -81t77 -86t55 -104t18.5 -120q0 -182 -138.5 -293t-339.5 -111q-117 0 -218 39t-148 86q0 162 -4 320zM444 -102q57 0 98.5 -42.5t41.5 -111.5q0 -98 -78.5 -163.5
t-196.5 -92.5l-20 61q76 31 113.5 61t37.5 73q0 59 -80 81q-24 8 -24 46q0 36 30 62t78 26z" />
    <glyph glyph-name="scommaaccent" unicode="&#x219;" horiz-adv-x="712" 
d="M242 -25q-84 0 -156 47.5t-72 110.5q-1 31 18.5 61t47.5 46q41 24 65 -4q49 -66 109 -105t111 -39q47 0 77.5 26t30.5 66q0 35 -27 69.5t-100 90.5q-95 72 -126 105q-70 74 -70 157q0 118 120 217q57 45 123 74t121 29q75 0 126.5 -39t51.5 -90q3 -57 -63 -103
q-36 -22 -54 8q-85 109 -176 109q-40 0 -65 -25t-25 -63q2 -73 142 -168q97 -67 142.5 -124.5t45.5 -129.5q0 -83 -63.5 -160t-155.5 -121.5t-178 -44.5zM260 -86q57 0 98 -42.5t41 -111.5q0 -98 -78 -163.5t-196 -92.5l-21 62q77 32 114.5 61.5t37.5 71.5q0 60 -80 82
q-24 7 -24 45q0 36 30 62t78 26z" />
    <glyph glyph-name="uni021A" unicode="&#x21a;" horiz-adv-x="1259" 
d="M1317 1380h53q-21 -98 -53 -374l-70 -7q0 145 -28 195q-20 33 -61.5 44t-137.5 11h-111l-186 -993q-9 -44 -12 -69t0.5 -48.5t13 -34.5t33 -20.5t53.5 -13.5t80 -7l-14 -63h-621l14 63q68 5 103.5 12.5t59.5 32t33.5 54t22.5 94.5l191 993h-92q-114 0 -159.5 -13.5
t-78.5 -49.5q-40 -47 -104 -185h-70q60 186 100 379h52q13 -33 31.5 -42t62.5 -9h790q38 0 56.5 10t48.5 41zM555 -82q57 0 98 -42.5t41 -111.5q0 -98 -78 -163.5t-196 -92.5l-21 62q77 32 114.5 61.5t37.5 71.5q0 60 -80 82q-25 7 -25 45q0 36 30.5 62t78.5 26z" />
    <glyph glyph-name="uni021B" unicode="&#x21b;" horiz-adv-x="647" 
d="M727 891l-57 -82l-195 -10l-110 -533q-26 -121 10 -121q22 0 78 36.5t96 74.5l31 -49q-61 -81 -171.5 -156.5t-189.5 -75.5q-35 0 -55.5 25.5t-25.5 88.5t20 169l114 541h-147l-10 18l55 74h123l45 190l209 142l22 -17l-71 -315h229zM258 -80q56 0 96.5 -41t40.5 -110
q1 -99 -77.5 -164.5t-196.5 -91.5l-19 59q74 31 112 61.5t38 71.5q0 62 -80 84q-10 2 -17.5 13t-7.5 30q0 36 30.5 62t80.5 26z" />
    <glyph glyph-name="uni021C" unicode="&#x21c;" horiz-adv-x="1054" 
d="M289 537l-21 69q498 167 498 459q0 98 -52.5 154.5t-135.5 56.5q-96 0 -170 -74.5t-144 -230.5l-63 22q41 123 80 289q27 7 107 31t140.5 35.5t126.5 11.5q167 0 262 -71.5t95 -190.5q0 -117 -88 -208.5t-248 -172.5v-4q144 -30 231.5 -120t87.5 -220q0 -162 -121 -297.5
t-322.5 -219.5t-451.5 -112l-123 104l25 48q132 -37 225 -37q138 0 254 56t186 159.5t70 232.5q0 126 -74 198.5t-180 72.5q-79 0 -194 -41z" />
    <glyph glyph-name="uni021D" unicode="&#x21d;" horiz-adv-x="784" 
d="M123 219l-12 62q368 145 368 354q0 65 -36 103t-97 38q-52 0 -103.5 -26t-125.5 -86l-35 51q100 102 194.5 156.5t192.5 54.5q107 0 172.5 -60.5t65.5 -154.5q0 -165 -248 -316v-4q108 -22 171.5 -92t63.5 -170q0 -140 -102.5 -270.5t-268.5 -217t-354 -110.5l-96 82
l25 43q74 -16 129 -16q115 0 213 48t158.5 141t60.5 212q0 98 -50 154.5t-126 56.5q-65 0 -160 -33z" />
    <glyph glyph-name="uni0232" unicode="&#x232;" horiz-adv-x="1282" 
d="M1434 1329l-17 -65q-97 -10 -139.5 -37t-124.5 -129t-311 -441q-42 -57 -54 -120l-55 -271q-9 -46 -13 -73.5t0 -51t13.5 -35.5t33 -21.5t52 -13.5t76.5 -8l-16 -63h-611l17 63q44 3 70 7t50 13.5t36.5 21t24.5 35.5t19 51.5t17 74.5l53 252q8 37 6 66t-16 69
q-117 333 -160 449q-20 55 -32.5 82t-35 45.5t-47 24.5t-75.5 12l18 63h514l-16 -63l-60 -13q-48 -7 -56.5 -26t7.5 -68q65 -200 162 -467q190 273 299 457q32 56 22.5 75.5t-71.5 30.5l-51 9l18 65h453zM1147 1587l-33 -127h-477l35 127h475z" />
    <glyph glyph-name="uni0233" unicode="&#x233;" horiz-adv-x="940" 
d="M537 182h4q50 75 82 126t74 127t63.5 141t21.5 116q-1 14 -2.5 26.5t-5.5 25.5t-6 18.5t-7.5 19.5t-6.5 15q-9 35 6 65q15 28 43.5 46t58.5 18q39 0 68.5 -34.5t30.5 -94.5q0 -93 -78 -226q-121 -204 -346 -522q-222 -316 -379 -495l-250 -62l-17 51q298 195 463 412
q1 120 -20.5 330t-48.5 354q-18 104 -43 104q-12 0 -43.5 -29t-69.5 -81l-41 53q64 101 140.5 170.5t136.5 69.5q51 0 81.5 -61t47.5 -201q29 -235 43 -482zM844 1233l-31 -129h-475l31 129h475z" />
    <glyph glyph-name="uni0237" unicode="&#x237;" horiz-adv-x="573" 
d="M125 655l-29 54q95 92 199.5 154.5t161.5 62.5q42 0 48 -55t-18 -175q-40 -220 -116 -590q-72 -344 -273 -501q-149 -117 -227 -117q-36 0 -66 21.5t-30 54.5q0 27 19 58t44 52q20 17 41 4q74 -51 121 -51q32 0 54 34t44 128q16 72 31.5 143.5t33 162.5t29 153.5
t35.5 191t37 199.5q12 60 12 81t-12 21q-14 0 -59.5 -28.5t-79.5 -57.5z" />
    <glyph glyph-name="circumflex" unicode="&#x2c6;" 
d="M776 1047l-57 -46q-57 57 -152 183q-174 -147 -225 -183l-49 50q197 223 272 329h62q46 -128 149 -333z" />
    <glyph glyph-name="caron" unicode="&#x2c7;" 
d="M778 1386l51 -47q-176 -195 -272 -331h-61q-41 115 -150 335l60 43q61 -63 149 -184q158 138 223 184z" />
    <glyph glyph-name="uni02C9" unicode="&#x2c9;" 
d="M784 1233l-30 -129h-475l30 129h475z" />
    <glyph glyph-name="breve" unicode="&#x2d8;" 
d="M731 1317h68q-13 -79 -41 -136t-67.5 -88t-82 -45t-92.5 -14q-103 0 -159 66.5t-29 216.5h67q0 -67 37 -104t105 -37q67 0 117.5 36.5t76.5 104.5z" />
    <glyph glyph-name="dotaccent" unicode="&#x2d9;" 
d="M580 1319q50 0 77 -32.5t27 -78.5q0 -59 -38.5 -102t-96.5 -43q-48 0 -77.5 30.5t-29.5 82.5t37.5 97.5t100.5 45.5z" />
    <glyph glyph-name="ring" unicode="&#x2da;" 
d="M580 1372q74 0 125.5 -49.5t48.5 -132.5q-3 -84 -66 -136.5t-145 -52.5q-78 0 -128.5 49.5t-47.5 127.5q3 86 65.5 140t147.5 54zM569 1294q-39 0 -68 -32.5t-30 -79.5q-2 -45 20.5 -74t59.5 -29q41 0 69.5 32.5t30.5 80.5q2 44 -20.5 73t-61.5 29z" />
    <glyph glyph-name="ogonek" unicode="&#x2db;" 
d="M545 -311l14 -62l-110 -57q-47 -21 -82 -21q-64 0 -107 38t-43 100q0 143 270 317h93q-197 -163 -197 -264q0 -34 22 -51t56 -17q35 0 84 17z" />
    <glyph glyph-name="tilde" unicode="&#x2dc;" 
d="M760 1284l61 -29q-66 -198 -178 -198q-13 0 -25.5 2t-29 8t-25.5 10t-30.5 14t-28.5 13q-53 26 -94 26q-49 0 -99 -90l-57 39q33 95 81 143t95 48q40 0 125 -39q80 -37 111 -37q27 0 49 23t45 67z" />
    <glyph glyph-name="hungarumlaut" unicode="&#x2dd;" 
d="M541 1343l-258 -342l-60 33q1 1 127 328q22 8 89 10t93 -4zM848 1343l-260 -342l-56 33q22 55 71 186t54 142q23 8 90 10t93 -4z" />
    <glyph glyph-name="uni0374" unicode="&#x374;" horiz-adv-x="518" 
d="M592 1311v-43q-124 -208 -289 -465l-53 24q86 255 156 516q26 8 99 -3.5t87 -28.5z" />
    <glyph glyph-name="uni0375" unicode="&#x375;" horiz-adv-x="518" 
d="M336 266v-39q-180 -313 -287 -483l-59 29q105 326 160 526q24 9 97.5 -4.5t88.5 -28.5z" />
    <glyph glyph-name="uni037E" unicode="&#x37e;" horiz-adv-x="518" 
d="M301 530q-60 0 -97.5 41.5t-37.5 104.5q0 74 45.5 123t114.5 49q61 0 99 -42.5t38 -107.5q0 -76 -48 -122t-114 -46zM334 266v-45q-102 -177 -293 -477l-49 31q97 305 153 522q24 7 98.5 -6t90.5 -25z" />
    <glyph glyph-name="tonos" unicode="&#x384;" horiz-adv-x="817" 
d="M698 1343l-229 -350l-66 29q54 186 91 356q28 6 103.5 4t94.5 -8z" />
    <glyph glyph-name="dieresistonos" unicode="&#x385;" 
d="M780 1040q-42 0 -68 28t-26 73q0 47 33.5 87t89.5 40q43 0 67.5 -29t24.5 -72q0 -53 -34 -90t-87 -37zM713 1354l-211 -361l-64 21q16 67 38 191.5t30 160.5q27 7 100 11t99 -1zM283 1040q-43 0 -70 28t-27 73q0 47 33.5 87t89.5 40q43 0 67.5 -29t24.5 -72
q0 -53 -33 -90t-85 -37z" />
    <glyph glyph-name="Alphatonos" unicode="&#x386;" horiz-adv-x="1370" 
d="M1284 63l-16 -63h-531l19 63q94 10 115.5 36t11.5 100q-22 138 -39 256h-406q-19 -38 -123 -250q-40 -75 -20 -102t135 -40l-16 -63h-453l16 63q42 7 65 13.5t46.5 18.5t44 37t43 59t57.5 94l601 1050l90 23l45 -281q23 -146 69.5 -418.5t65.5 -390.5q8 -47 13 -73
t14.5 -51t19.5 -36t30 -21.5t42.5 -15t60.5 -8.5zM829 553l-71 483h-6q-26 -49 -120.5 -219t-142.5 -264h340zM596 1403l-229 -350l-66 28q48 168 90 357q28 6 104 4t95 -8z" />
    <glyph glyph-name="anoteleia" unicode="&#x387;" horiz-adv-x="518" 
d="M279 410q-58 0 -97 42t-39 105q0 75 46 124.5t116 49.5q61 0 100 -42.5t39 -108.5q0 -77 -48.5 -123.5t-116.5 -46.5z" />
    </font>
</defs>
</svg>
